<svg id="svg" version="1.1" xmlns="http://www.w3.org/2000/svg" xmlns:xlink="http://www.w3.org/1999/xlink" width="400" height="400" viewBox="0, 0, 400,400"><g id="svgg"><path id="path0" d="M229.200 130.191 C 229.200 130.296,229.811 131.691,230.557 133.291 C 236.476 145.976,234.811 160.420,226.134 171.650 L 224.009 174.400 275.705 174.390 L 327.400 174.380 328.756 171.090 C 329.501 169.280,330.425 167.080,330.809 166.200 C 331.567 164.460,332.740 161.702,335.998 154.000 C 337.162 151.250,338.997 146.930,340.078 144.400 C 341.158 141.870,342.384 138.990,342.802 138.000 C 343.220 137.010,344.111 134.910,344.781 133.333 C 345.452 131.756,346.000 130.361,346.000 130.233 C 346.000 130.105,319.720 130.000,287.600 130.000 C 255.480 130.000,229.200 130.086,229.200 130.191 M157.900 157.082 C 158.395 157.178,159.205 157.178,159.700 157.082 C 160.195 156.987,159.790 156.909,158.800 156.909 C 157.810 156.909,157.405 156.987,157.900 157.082 M217.705 191.487 C 218.314 191.579,219.214 191.577,219.705 191.482 C 220.197 191.387,219.700 191.311,218.600 191.314 C 217.500 191.317,217.097 191.395,217.705 191.487 M338.700 191.482 C 339.195 191.578,340.005 191.578,340.500 191.482 C 340.995 191.387,340.590 191.309,339.600 191.309 C 338.610 191.309,338.205 191.387,338.700 191.482 M138.500 192.300 C 142.845 192.364,149.955 192.364,154.300 192.300 C 158.645 192.235,155.090 192.182,146.400 192.182 C 137.710 192.182,134.155 192.235,138.500 192.300 M274.126 192.300 C 278.266 192.365,284.926 192.365,288.926 192.299 C 292.927 192.234,289.540 192.181,281.400 192.181 C 273.260 192.181,269.987 192.234,274.126 192.300 M130.190 221.000 C 130.189 236.620,130.239 243.068,130.300 235.329 C 130.361 227.591,130.361 214.811,130.300 206.929 C 130.239 199.048,130.190 205.380,130.190 221.000 M251.724 202.600 C 251.726 203.920,251.801 204.412,251.890 203.693 C 251.979 202.974,251.977 201.894,251.886 201.293 C 251.795 200.692,251.722 201.280,251.724 202.600 M281.700 205.491 C 282.525 205.578,283.875 205.578,284.700 205.491 C 285.525 205.405,284.850 205.334,283.200 205.334 C 281.550 205.334,280.875 205.405,281.700 205.491 M147.061 232.700 C 146.958 232.865,148.072 232.950,149.537 232.890 C 154.177 232.697,154.721 232.530,150.924 232.464 C 148.902 232.429,147.163 232.535,147.061 232.700 M371.978 246.300 L 370.600 247.800 372.100 246.422 C 373.496 245.138,373.784 244.800,373.478 244.800 C 373.412 244.800,372.737 245.475,371.978 246.300 M126.400 267.197 C 126.400 267.415,125.391 269.980,124.157 272.897 C 122.924 275.814,121.383 279.460,120.734 281.000 C 120.084 282.540,119.392 284.160,119.195 284.600 C 117.559 288.257,116.400 290.935,116.400 291.055 C 116.400 291.135,152.715 291.197,197.100 291.193 L 277.800 291.186 278.772 288.893 C 279.307 287.632,280.162 285.667,280.672 284.526 C 281.183 283.385,281.600 282.355,281.600 282.237 C 281.600 282.120,282.029 281.073,282.554 279.912 C 284.331 275.977,286.000 272.067,286.000 271.839 C 286.000 271.715,286.525 270.530,287.166 269.206 L 288.331 266.800 207.366 266.800 C 154.086 266.800,126.400 266.936,126.400 267.197 " stroke="none" fill="#dcac05" fill-rule="evenodd"></path><path id="path1" d="M131.462 130.300 C 131.360 130.465,134.482 130.600,138.400 130.600 C 142.318 130.600,145.440 130.465,145.338 130.300 C 145.236 130.135,142.114 130.000,138.400 130.000 C 134.686 130.000,131.564 130.135,131.462 130.300 M216.901 154.600 C 216.905 155.480,216.987 155.793,217.083 155.295 C 217.179 154.798,217.175 154.078,217.075 153.695 C 216.975 153.313,216.896 153.720,216.901 154.600 M205.796 154.407 C 205.658 154.630,205.377 154.709,205.172 154.583 C 204.968 154.456,204.800 154.543,204.800 154.776 C 204.800 155.009,205.070 155.200,205.400 155.200 C 205.730 155.200,206.000 155.033,206.000 154.829 C 206.000 154.625,206.315 154.376,206.700 154.276 C 207.331 154.111,207.333 154.088,206.724 154.046 C 206.352 154.021,205.934 154.183,205.796 154.407 M222.000 154.855 C 222.000 155.045,222.450 155.200,223.000 155.200 C 223.550 155.200,224.000 155.131,224.000 155.047 C 224.000 154.962,223.550 154.807,223.000 154.702 C 222.450 154.597,222.000 154.666,222.000 154.855 M161.781 166.370 C 161.907 166.573,161.734 166.825,161.397 166.929 C 160.923 167.076,160.937 167.105,161.459 167.059 C 162.212 166.993,162.729 166.000,162.010 166.000 C 161.758 166.000,161.656 166.166,161.781 166.370 M76.729 174.700 C 83.399 174.761,94.199 174.761,100.729 174.700 C 107.258 174.638,101.800 174.588,88.600 174.588 C 75.400 174.588,70.058 174.638,76.729 174.700 M222.962 175.300 C 222.201 176.199,222.201 176.199,223.030 175.501 C 223.810 174.845,227.229 174.797,279.630 174.700 L 335.400 174.597 279.562 174.499 L 223.724 174.400 222.962 175.300 M87.131 180.300 C 99.963 180.359,120.843 180.359,133.531 180.300 C 146.219 180.241,135.720 180.193,110.200 180.193 C 84.680 180.193,74.299 180.241,87.131 180.300 M247.700 180.300 C 263.925 180.358,290.475 180.358,306.700 180.300 C 322.925 180.242,309.650 180.195,277.200 180.195 C 244.750 180.195,231.475 180.242,247.700 180.300 M22.581 191.700 L 21.000 193.400 22.700 191.819 C 24.281 190.348,24.584 190.000,24.281 190.000 C 24.216 190.000,23.451 190.765,22.581 191.700 M53.811 191.668 C 22.023 195.290,16.610 239.112,46.766 248.707 C 54.192 251.070,66.573 250.136,73.400 246.697 C 80.132 243.307,81.355 241.165,81.535 232.455 C 81.695 224.730,81.571 224.484,79.013 227.447 C 71.216 236.478,58.448 239.763,50.929 234.673 C 48.202 232.827,48.299 232.678,53.287 231.035 C 75.002 223.880,84.321 213.841,80.239 202.000 C 78.326 196.450,71.849 192.507,63.186 191.618 C 58.651 191.152,58.321 191.154,53.811 191.668 M211.227 192.035 C 191.314 195.942,179.757 214.725,187.062 231.312 C 197.149 254.221,233.802 256.696,247.789 235.413 C 262.266 213.386,239.582 186.473,211.227 192.035 M331.800 192.144 C 307.117 197.392,297.745 223.527,314.568 240.200 C 329.385 254.885,356.879 252.836,368.402 236.187 C 379.704 219.859,371.457 199.612,350.800 192.972 C 346.738 191.666,336.205 191.207,331.800 192.144 M86.500 192.240 C 86.108 192.418,86.000 197.995,86.000 218.170 L 86.000 243.874 86.924 245.637 C 87.609 246.942,88.414 247.712,90.024 248.600 L 92.200 249.800 105.600 249.800 L 119.000 249.800 121.036 248.726 C 125.111 246.576,126.142 244.565,125.923 239.200 L 125.800 236.200 114.900 236.094 L 104.000 235.987 104.000 216.748 C 104.000 194.760,104.102 195.431,100.431 193.280 C 98.685 192.257,88.193 191.474,86.500 192.240 M130.400 221.251 L 130.400 250.103 135.918 249.926 C 145.434 249.623,146.507 248.552,146.800 239.072 L 147.000 232.600 156.600 232.371 C 167.089 232.121,169.916 231.553,173.685 228.941 C 184.863 221.195,183.967 201.933,172.114 195.151 C 167.425 192.468,166.876 192.406,147.700 192.403 L 130.400 192.400 130.400 221.251 M258.492 193.020 C 253.240 194.434,252.200 195.819,252.200 201.400 L 252.200 205.400 269.099 205.400 C 280.121 205.400,285.986 205.539,285.964 205.800 C 285.946 206.020,283.911 208.000,281.442 210.200 C 274.994 215.947,261.910 227.432,258.400 230.428 C 250.731 236.972,249.600 238.910,249.600 245.499 L 249.600 250.041 273.500 249.920 L 297.400 249.800 299.385 248.885 C 303.327 247.067,304.378 245.182,304.391 239.900 L 304.400 236.400 290.200 236.400 C 282.390 236.400,276.000 236.260,276.000 236.088 C 276.000 235.530,280.034 231.772,292.192 221.000 C 301.895 212.404,304.135 210.028,305.867 206.494 C 308.589 200.942,306.396 195.537,300.485 193.227 C 297.748 192.157,262.346 191.983,258.492 193.020 M224.800 205.690 C 236.445 211.058,235.551 232.134,223.505 236.252 C 216.299 238.716,209.090 235.737,205.711 228.900 L 204.200 225.841 204.211 220.621 C 204.229 211.558,207.461 206.621,214.600 204.751 C 217.053 204.109,222.448 204.605,224.800 205.690 M346.000 205.690 C 357.528 211.004,356.631 232.175,344.705 236.252 C 332.746 240.341,322.986 229.970,325.602 215.955 C 327.349 206.592,337.202 201.634,346.000 205.690 M59.930 205.883 C 65.082 209.709,60.095 215.524,49.212 218.379 C 44.025 219.740,44.015 219.735,44.979 215.931 C 47.152 207.357,54.901 202.149,59.930 205.883 M161.598 206.100 C 166.071 208.378,166.408 216.304,162.130 218.611 C 160.836 219.308,159.874 219.400,153.833 219.400 L 147.000 219.400 146.890 212.815 C 146.829 209.194,146.868 205.999,146.977 205.715 C 147.368 204.698,159.469 205.016,161.598 206.100 " stroke="none" fill="#ac1c2c" fill-rule="evenodd"></path><path id="path2" d="M182.400 108.000 C 182.400 108.220,181.704 108.400,180.852 108.400 C 178.835 108.400,172.366 109.531,171.822 109.979 C 171.590 110.170,170.337 110.603,169.037 110.942 C 167.737 111.280,166.567 111.703,166.437 111.881 C 166.307 112.059,165.480 112.450,164.600 112.751 C 163.720 113.052,162.723 113.539,162.385 113.834 C 162.047 114.128,161.102 114.649,160.285 114.990 C 159.468 115.331,158.800 115.788,158.800 116.005 C 158.800 116.222,158.575 116.404,158.300 116.409 C 157.494 116.424,151.697 121.373,149.905 123.576 L 148.259 125.600 137.994 125.600 L 127.730 125.600 126.965 127.900 C 126.544 129.165,126.002 130.410,125.761 130.667 C 125.520 130.925,125.091 131.960,124.809 132.967 C 124.527 133.975,124.159 134.800,123.991 134.800 C 123.824 134.800,123.566 135.295,123.417 135.900 C 123.269 136.505,122.643 138.080,122.025 139.400 C 121.407 140.720,120.775 142.385,120.619 143.100 C 120.464 143.815,120.174 144.400,119.976 144.400 C 119.778 144.400,119.495 144.895,119.348 145.500 C 119.200 146.105,118.572 147.718,117.951 149.085 C 117.331 150.452,116.708 152.027,116.568 152.585 C 116.428 153.143,116.181 153.600,116.020 153.600 C 115.859 153.600,115.400 154.680,115.000 156.000 C 114.600 157.320,114.159 158.400,114.020 158.400 C 113.880 158.400,113.420 159.435,112.998 160.700 C 112.576 161.965,112.110 163.090,111.962 163.200 C 111.815 163.310,111.403 164.261,111.047 165.314 C 110.691 166.367,110.117 167.659,109.772 168.186 L 109.145 169.144 82.906 169.272 C 62.362 169.372,56.630 169.509,56.500 169.900 C 56.408 170.175,55.832 170.400,55.219 170.400 C 53.601 170.400,47.118 171.574,46.622 171.957 C 46.390 172.137,44.943 172.592,43.406 172.970 C 41.870 173.347,40.520 173.779,40.406 173.930 C 40.293 174.080,39.165 174.547,37.900 174.967 C 36.635 175.386,35.600 175.852,35.600 176.002 C 35.600 176.151,34.909 176.480,34.065 176.733 C 33.221 176.986,32.114 177.555,31.604 177.997 C 31.094 178.438,30.435 178.800,30.139 178.800 C 29.842 178.800,29.281 179.115,28.890 179.500 C 28.500 179.885,27.510 180.556,26.690 180.991 C 25.871 181.426,25.200 181.909,25.200 182.064 C 25.200 182.219,24.805 182.471,24.323 182.624 C 23.181 182.987,12.987 193.181,12.624 194.323 C 12.471 194.805,12.187 195.200,11.992 195.200 C 11.797 195.200,11.323 195.875,10.940 196.700 C 10.556 197.525,10.122 198.290,9.976 198.400 C 9.555 198.716,7.356 203.312,6.800 205.036 C 6.523 205.896,6.159 206.780,5.992 207.000 C 5.536 207.600,4.400 213.465,4.400 215.219 C 4.400 216.063,4.220 216.864,4.000 217.000 C 3.478 217.322,3.478 224.278,4.000 224.600 C 4.220 224.736,4.400 225.422,4.399 226.124 C 4.398 228.041,5.635 234.400,6.010 234.400 C 6.189 234.400,6.457 234.985,6.604 235.700 C 6.871 236.996,9.528 242.820,10.026 243.200 C 10.170 243.310,10.609 244.030,11.000 244.800 C 11.391 245.570,11.823 246.290,11.958 246.400 C 12.094 246.510,12.738 247.320,13.390 248.200 C 14.042 249.080,16.291 251.464,18.387 253.498 C 23.834 258.781,23.856 258.800,24.166 258.800 C 24.320 258.800,25.111 259.322,25.923 259.959 C 26.736 260.597,27.805 261.239,28.300 261.386 C 28.795 261.534,29.200 261.804,29.200 261.987 C 29.200 262.171,30.009 262.654,30.999 263.060 C 31.988 263.467,32.798 263.917,32.799 264.060 C 32.799 264.203,33.700 264.643,34.800 265.039 C 35.900 265.434,36.800 265.874,36.800 266.016 C 36.800 266.157,37.565 266.500,38.500 266.778 C 39.435 267.055,40.920 267.604,41.800 267.998 C 42.680 268.392,44.480 268.933,45.800 269.201 C 47.120 269.468,48.382 269.833,48.604 270.013 C 49.154 270.457,57.023 271.600,59.528 271.600 C 60.642 271.600,61.664 271.780,61.800 272.000 C 61.936 272.220,62.824 272.400,63.774 272.400 L 65.501 272.400 64.850 274.300 C 64.493 275.345,63.975 276.438,63.700 276.729 C 63.425 277.019,63.200 277.510,63.200 277.819 C 63.200 278.127,62.665 279.548,62.011 280.975 C 61.358 282.403,60.708 284.027,60.568 284.585 C 60.428 285.143,60.186 285.600,60.030 285.600 C 59.874 285.600,59.421 286.635,59.024 287.900 C 58.627 289.165,58.180 290.290,58.031 290.400 C 57.635 290.692,56.400 294.109,56.400 294.914 C 56.400 295.562,62.775 295.596,168.900 295.501 L 281.400 295.400 281.528 294.500 C 281.598 294.005,281.814 293.600,282.007 293.600 C 282.201 293.600,282.671 292.610,283.053 291.400 C 283.434 290.190,283.874 289.200,284.030 289.200 C 284.186 289.200,284.434 288.705,284.583 288.100 C 284.731 287.495,285.357 285.920,285.975 284.600 C 286.593 283.280,287.225 281.615,287.381 280.900 C 287.536 280.185,287.826 279.600,288.024 279.600 C 288.222 279.600,288.505 279.105,288.652 278.500 C 288.800 277.895,289.431 276.275,290.055 274.900 L 291.191 272.400 314.572 272.400 C 327.431 272.400,338.047 272.247,338.162 272.061 C 338.278 271.874,340.030 271.604,342.057 271.460 C 346.268 271.161,350.905 270.426,351.200 270.010 C 351.310 269.855,352.570 269.503,354.000 269.226 C 355.430 268.950,357.320 268.400,358.200 268.003 C 359.080 267.607,360.565 267.055,361.500 266.778 C 362.435 266.500,363.200 266.157,363.200 266.016 C 363.200 265.874,364.100 265.434,365.200 265.039 C 366.300 264.643,367.200 264.194,367.200 264.040 C 367.200 263.886,367.790 263.547,368.511 263.287 C 369.232 263.026,370.177 262.539,370.611 262.204 C 371.045 261.869,372.570 260.832,374.000 259.899 C 375.430 258.965,376.835 257.886,377.123 257.501 C 377.410 257.115,377.829 256.800,378.053 256.800 C 378.477 256.800,384.867 250.423,386.114 248.755 C 386.506 248.230,387.354 247.109,387.998 246.265 C 388.642 245.421,389.278 244.386,389.411 243.965 C 389.545 243.544,389.804 243.200,389.987 243.200 C 390.170 243.200,390.643 242.300,391.039 241.200 C 391.434 240.100,391.897 239.200,392.068 239.200 C 392.238 239.200,392.674 238.165,393.037 236.900 C 393.400 235.635,393.868 234.386,394.077 234.124 C 394.587 233.487,395.569 227.876,395.586 225.500 C 395.594 224.455,395.780 223.600,396.000 223.600 C 396.228 223.600,396.400 222.408,396.400 220.824 C 396.400 219.297,396.220 217.936,396.000 217.800 C 395.780 217.664,395.600 216.773,395.600 215.821 C 395.600 213.824,394.467 207.504,394.055 207.203 C 393.903 207.091,393.459 205.965,393.069 204.700 C 392.678 203.435,392.224 202.400,392.059 202.400 C 391.893 202.400,391.434 201.500,391.039 200.400 C 390.643 199.300,390.203 198.398,390.060 198.395 C 389.917 198.393,389.456 197.673,389.036 196.795 C 388.615 195.918,388.132 195.200,387.963 195.200 C 387.793 195.200,387.537 194.832,387.394 194.382 C 387.251 193.932,385.034 191.476,382.467 188.924 C 376.620 183.112,376.276 182.800,375.706 182.800 C 375.449 182.800,375.096 182.561,374.920 182.269 C 374.744 181.977,373.975 181.392,373.212 180.969 C 372.449 180.546,371.470 179.885,371.037 179.500 C 370.603 179.115,370.026 178.800,369.753 178.800 C 369.480 178.800,369.019 178.562,368.728 178.271 C 368.437 177.980,367.345 177.416,366.300 177.017 C 365.255 176.618,364.400 176.155,364.400 175.989 C 364.400 175.823,363.320 175.363,362.000 174.968 C 360.680 174.572,359.600 174.122,359.600 173.967 C 359.600 173.813,358.295 173.372,356.700 172.988 C 355.105 172.605,353.618 172.149,353.395 171.976 C 352.918 171.603,346.288 170.403,344.700 170.401 C 344.095 170.401,343.600 170.220,343.600 170.000 C 343.600 169.780,342.655 169.580,341.500 169.557 C 340.345 169.533,338.369 169.398,337.109 169.257 L 334.818 169.000 336.025 166.473 C 336.688 165.084,337.336 163.419,337.465 162.773 C 337.594 162.128,337.848 161.600,338.030 161.600 C 338.211 161.600,338.671 160.610,339.053 159.400 C 339.434 158.190,339.874 157.200,340.030 157.200 C 340.186 157.200,340.434 156.705,340.583 156.100 C 340.731 155.495,341.357 153.920,341.975 152.600 C 342.593 151.280,343.225 149.615,343.381 148.900 C 343.536 148.185,343.826 147.600,344.024 147.600 C 344.222 147.600,344.505 147.105,344.652 146.500 C 344.800 145.895,345.433 144.270,346.060 142.890 C 346.687 141.509,347.200 140.247,347.200 140.084 C 347.200 139.921,347.543 139.148,347.963 138.365 C 348.382 137.583,348.951 136.190,349.226 135.271 C 349.501 134.352,349.841 133.600,349.980 133.600 C 350.120 133.600,350.580 132.565,351.002 131.300 C 351.424 130.035,351.918 128.895,352.099 128.768 C 352.280 128.640,352.536 127.875,352.667 127.068 L 352.905 125.600 289.843 125.600 L 226.781 125.600 223.254 122.100 C 219.350 118.225,218.779 117.754,215.600 115.792 C 214.390 115.045,213.183 114.247,212.917 114.017 C 212.651 113.788,212.329 113.600,212.200 113.600 C 212.072 113.600,210.849 113.079,209.483 112.443 C 208.117 111.806,206.190 111.055,205.200 110.773 C 204.210 110.491,203.210 110.118,202.978 109.946 C 202.439 109.545,195.918 108.400,194.171 108.400 C 193.443 108.400,192.736 108.220,192.600 108.000 C 192.457 107.768,190.263 107.600,187.376 107.600 C 184.325 107.600,182.400 107.755,182.400 108.000 M195.200 112.425 C 221.793 116.712,237.462 142.055,226.708 163.386 C 212.928 190.718,170.078 193.916,151.483 169.000 C 134.949 146.846,149.804 117.297,180.000 112.275 C 182.124 111.922,192.728 112.027,195.200 112.425 M183.487 116.568 C 182.435 116.851,181.355 117.358,181.087 117.695 C 180.626 118.273,178.011 118.877,176.148 118.836 C 174.524 118.800,166.324 122.550,162.191 125.220 C 159.712 126.821,156.927 129.979,153.886 134.636 C 152.966 136.046,151.999 137.200,151.738 137.200 C 150.775 137.200,148.800 145.674,148.800 149.809 C 148.800 154.513,150.937 161.714,152.845 163.441 C 153.655 164.174,153.904 162.885,153.650 159.267 C 153.505 157.186,154.097 156.800,157.435 156.800 C 160.552 156.800,161.229 157.213,161.069 159.016 C 161.022 159.551,161.286 159.840,161.900 159.928 C 162.486 160.011,162.800 160.331,162.800 160.844 C 162.800 161.754,164.346 163.999,164.975 164.003 C 165.209 164.004,165.682 164.502,166.027 165.108 C 166.495 165.930,167.191 166.349,168.757 166.750 C 171.233 167.385,171.544 167.936,170.706 170.200 C 170.317 171.249,170.214 172.095,170.434 172.442 C 171.513 174.146,169.893 174.429,165.000 173.393 C 159.990 172.332,159.363 172.650,162.006 174.912 C 163.149 175.891,163.888 176.234,164.570 176.104 C 165.249 175.974,165.658 176.160,165.970 176.743 C 166.557 177.840,171.294 180.458,172.913 180.581 C 173.621 180.635,175.280 180.983,176.600 181.355 C 183.079 183.179,191.200 183.093,191.200 181.200 C 191.200 179.964,197.190 177.289,198.807 177.802 C 199.264 177.947,199.892 177.856,200.202 177.599 C 201.050 176.894,201.681 177.519,201.403 178.787 C 201.117 180.090,202.886 180.784,204.000 179.806 C 204.330 179.517,205.320 178.986,206.200 178.628 C 208.601 177.650,213.999 173.901,214.004 173.207 C 214.007 172.873,214.664 171.970,215.466 171.200 C 218.731 168.063,223.642 159.728,223.083 158.271 C 222.937 157.890,222.113 157.564,220.923 157.414 C 217.460 156.979,217.047 156.575,216.657 153.245 L 216.315 150.317 217.914 148.659 C 219.556 146.956,222.218 141.913,222.573 139.832 C 222.682 139.190,222.968 138.543,223.209 138.394 C 225.016 137.278,215.920 122.400,213.431 122.400 C 212.932 122.400,212.209 122.052,211.823 121.626 C 209.582 119.149,204.473 118.616,202.578 120.662 C 202.100 121.178,201.425 121.600,201.078 121.600 C 200.731 121.600,200.336 121.780,200.199 122.001 C 200.063 122.222,199.193 122.748,198.266 123.170 C 197.339 123.592,196.242 124.312,195.828 124.769 C 195.414 125.226,194.834 125.600,194.538 125.600 C 194.242 125.600,194.000 125.761,194.000 125.957 C 194.000 127.025,191.060 126.389,187.510 124.554 C 186.502 124.032,186.382 123.794,186.608 122.765 C 186.751 122.112,186.639 120.682,186.358 119.586 C 185.963 118.044,185.955 117.485,186.323 117.117 C 187.522 115.918,186.582 115.736,183.487 116.568 M188.900 126.751 C 190.909 127.618,191.366 128.632,190.190 129.608 C 189.646 130.059,189.657 130.201,190.290 130.902 C 190.680 131.335,191.000 132.164,191.000 132.744 C 191.000 133.599,191.210 133.824,192.100 133.927 C 193.310 134.066,193.679 135.441,192.615 135.850 C 191.277 136.363,191.911 140.400,193.330 140.400 C 193.957 140.400,194.513 142.439,194.146 143.396 C 194.019 143.728,193.676 144.000,193.384 144.000 C 193.093 144.000,192.478 144.529,192.017 145.176 C 190.618 147.141,187.527 146.906,186.372 144.748 C 185.843 143.760,184.538 143.794,183.994 144.811 C 183.426 145.873,182.800 145.452,182.800 144.008 C 182.800 142.563,180.810 141.905,179.642 142.962 C 178.686 143.827,178.106 143.764,177.787 142.759 C 177.546 142.000,177.319 141.943,175.460 142.174 C 172.720 142.515,172.098 141.822,171.937 138.250 C 171.797 135.125,171.663 135.284,175.031 134.579 C 178.851 133.780,182.745 131.041,182.786 129.124 C 182.794 128.752,182.992 128.329,183.226 128.184 C 183.505 128.011,183.417 127.661,182.971 127.168 C 181.200 125.211,184.755 124.961,188.900 126.751 M145.600 130.145 C 145.600 130.224,144.882 131.821,144.005 133.694 C 137.180 148.257,140.624 164.605,152.979 176.298 C 155.081 178.287,156.800 180.020,156.800 180.148 C 156.800 180.277,134.705 180.432,107.700 180.493 L 58.600 180.604 54.600 181.508 C 6.020 192.491,3.328 245.596,50.673 258.966 C 58.238 261.103,50.687 261.000,200.400 261.000 C 356.107 261.000,342.368 261.254,351.800 258.199 C 396.477 243.726,392.746 192.733,346.200 181.680 L 341.800 180.636 279.683 180.418 L 217.567 180.200 220.974 177.082 C 233.983 165.176,237.639 148.468,230.557 133.291 C 229.811 131.691,229.200 130.296,229.200 130.191 C 229.200 130.086,255.480 130.000,287.600 130.000 C 319.720 130.000,346.000 130.105,346.000 130.233 C 346.000 130.361,345.452 131.756,344.781 133.333 C 344.111 134.910,343.220 137.010,342.802 138.000 C 342.384 138.990,341.158 141.870,340.078 144.400 C 338.997 146.930,337.162 151.250,335.998 154.000 C 331.957 163.553,331.510 164.607,330.987 165.800 C 328.792 170.815,327.600 173.686,327.600 173.957 C 327.600 174.132,330.435 174.388,333.900 174.527 C 398.349 177.111,411.470 248.027,350.568 264.619 C 343.280 266.604,340.209 266.784,313.349 266.792 C 293.938 266.798,288.417 266.909,288.130 267.300 C 287.761 267.802,287.120 269.235,284.773 274.800 C 284.077 276.450,283.078 278.750,282.554 279.912 C 282.029 281.073,281.600 282.120,281.600 282.237 C 281.600 282.355,281.183 283.385,280.672 284.526 C 280.162 285.667,279.307 287.632,278.772 288.893 L 277.800 291.186 197.100 291.193 C 152.715 291.197,116.400 291.135,116.400 291.055 C 116.400 290.935,117.559 288.257,119.195 284.600 C 119.392 284.160,120.084 282.540,120.734 281.000 C 121.383 279.460,122.924 275.814,124.157 272.897 C 126.953 266.286,127.014 266.743,123.352 266.883 L 120.304 267.000 119.170 269.600 C 118.546 271.030,116.239 276.430,114.042 281.600 L 110.048 291.000 86.624 291.103 C 73.741 291.160,63.200 291.149,63.200 291.079 C 63.200 290.813,65.183 285.983,67.586 280.400 C 71.981 270.184,73.139 267.272,72.900 267.033 C 72.772 266.905,70.222 266.796,67.233 266.792 C 9.000 266.708,-11.873 204.431,38.431 180.856 C 50.682 175.114,53.605 174.724,86.000 174.508 L 112.600 174.331 114.086 170.865 C 114.903 168.959,117.201 163.530,119.192 158.800 C 121.183 154.070,122.982 149.840,123.190 149.400 C 123.398 148.960,124.359 146.710,125.326 144.400 C 126.294 142.090,127.954 138.130,129.015 135.600 C 130.077 133.070,131.115 130.775,131.322 130.500 C 131.664 130.045,145.600 129.698,145.600 130.145 M157.302 136.693 C 157.688 136.804,158.271 136.673,158.597 136.402 C 159.406 135.731,160.400 136.188,160.400 137.232 C 160.400 137.991,160.556 138.060,161.769 137.832 C 162.522 137.691,163.244 137.748,163.374 137.958 C 163.654 138.411,165.782 137.879,166.682 137.132 C 167.368 136.562,168.358 137.539,168.450 138.876 C 168.523 139.933,168.576 140.106,169.142 141.126 C 169.777 142.271,169.334 142.911,167.127 144.037 C 166.109 144.556,165.600 145.089,165.600 145.634 C 165.600 146.958,164.907 147.877,163.714 148.136 C 162.011 148.506,161.652 148.882,160.862 151.127 C 159.975 153.644,159.789 153.855,159.015 153.212 C 158.682 152.936,158.154 152.809,157.841 152.929 C 156.294 153.523,154.328 152.308,154.589 150.918 C 154.775 149.925,154.682 149.530,154.219 149.352 C 153.861 149.215,153.600 148.635,153.600 147.977 C 153.600 147.352,152.970 145.796,152.201 144.520 C 150.381 141.501,150.411 140.779,152.416 139.389 C 153.305 138.773,154.336 137.755,154.707 137.127 C 155.156 136.367,155.586 136.069,155.991 136.237 C 156.326 136.377,156.916 136.582,157.302 136.693 M199.154 145.745 C 199.403 146.044,200.500 146.395,201.592 146.524 C 202.684 146.654,204.078 147.123,204.689 147.566 C 206.076 148.573,209.151 149.270,210.772 148.946 L 212.000 148.700 212.000 151.555 C 212.000 153.126,212.214 154.754,212.476 155.173 C 213.097 156.167,212.586 156.788,209.867 158.343 C 207.550 159.669,202.800 164.177,202.800 165.050 C 202.800 166.368,200.875 166.598,199.776 165.412 C 198.857 164.421,198.552 164.325,196.986 164.540 L 195.228 164.781 195.399 162.190 C 195.541 160.042,195.464 159.600,194.949 159.600 C 193.804 159.600,192.767 157.908,193.448 157.151 C 193.965 156.576,193.945 156.479,193.273 156.303 C 192.283 156.044,191.870 154.019,192.634 153.169 C 193.394 152.320,193.348 150.997,192.512 149.722 C 191.855 148.719,191.858 148.652,192.584 148.236 C 193.002 147.996,193.987 147.220,194.772 146.511 C 196.312 145.121,198.342 144.766,199.154 145.745 M222.400 152.000 C 221.953 152.289,222.176 152.389,223.276 152.394 C 224.088 152.397,224.864 152.220,225.000 152.000 C 225.319 151.484,223.198 151.484,222.400 152.000 M222.800 154.400 C 222.343 154.695,222.505 154.789,223.476 154.794 C 224.178 154.797,224.864 154.620,225.000 154.400 C 225.317 153.887,223.593 153.887,222.800 154.400 M201.716 155.739 C 200.790 155.993,199.812 156.422,199.542 156.693 C 198.559 157.686,199.535 157.579,202.037 156.422 C 204.704 155.188,204.593 154.952,201.716 155.739 M194.007 166.544 C 194.773 167.062,195.805 167.615,196.300 167.770 C 197.336 168.097,197.467 168.881,196.604 169.596 C 196.277 169.868,196.106 170.248,196.225 170.440 C 196.343 170.632,195.967 171.596,195.389 172.582 C 194.811 173.569,194.453 174.563,194.594 174.790 C 194.735 175.018,194.639 175.789,194.380 176.502 C 193.501 178.928,186.515 180.608,185.737 178.581 C 185.426 177.769,181.717 176.680,179.002 176.603 C 174.453 176.475,173.827 175.810,175.297 172.669 L 176.200 170.737 177.800 171.042 C 181.587 171.762,186.400 170.589,186.400 168.945 C 186.400 167.926,186.783 167.743,187.474 168.434 C 188.019 168.979,189.784 168.121,191.170 166.638 C 192.348 165.376,192.287 165.378,194.007 166.544 M155.698 167.066 C 155.421 167.177,155.292 167.425,155.410 167.617 C 155.670 168.036,156.800 167.662,156.800 167.157 C 156.800 166.772,156.490 166.746,155.698 167.066 M158.100 169.865 C 157.404 170.146,157.473 170.800,158.200 170.800 C 158.530 170.800,158.800 170.530,158.800 170.200 C 158.800 169.870,158.755 169.614,158.700 169.632 C 158.645 169.649,158.375 169.754,158.100 169.865 M67.565 192.219 C 75.948 194.186,80.573 199.117,81.100 206.648 C 81.803 216.721,72.064 225.110,52.300 231.457 C 48.187 232.778,48.184 232.785,50.900 234.580 C 56.894 238.541,65.132 237.764,73.187 232.477 C 75.357 231.053,80.400 226.207,80.400 225.545 C 80.400 225.355,80.670 225.200,81.000 225.200 C 82.107 225.200,81.856 238.001,80.704 240.307 C 75.779 250.168,53.637 253.409,40.600 246.177 C 32.061 241.441,27.428 233.662,26.913 223.200 C 25.864 201.899,45.391 187.018,67.565 192.219 M222.797 191.619 C 245.797 193.979,258.981 215.162,248.924 233.600 C 237.741 254.104,204.164 255.922,190.124 236.783 C 176.884 218.735,189.780 194.147,213.800 191.640 C 218.404 191.160,218.327 191.160,222.797 191.619 M343.707 191.609 C 373.696 194.453,384.359 228.655,360.113 244.232 C 338.211 258.305,307.302 245.881,306.098 222.522 C 305.210 205.315,317.999 193.087,338.800 191.254 C 339.130 191.224,341.338 191.384,343.707 191.609 M100.123 192.959 C 100.960 193.374,102.130 194.348,102.723 195.125 L 103.800 196.537 103.911 216.269 L 104.022 236.000 115.046 236.000 L 126.071 236.000 125.935 240.300 C 125.773 245.466,125.000 246.854,121.260 248.690 L 119.000 249.800 105.400 249.800 C 90.053 249.800,89.776 249.750,87.323 246.535 L 86.200 245.063 86.089 218.496 L 85.978 191.929 92.289 192.068 C 97.472 192.181,98.872 192.340,100.123 192.959 M168.400 193.373 C 187.858 200.683,185.440 229.427,165.151 231.985 C 163.308 232.217,158.470 232.540,154.400 232.704 L 147.000 233.000 146.789 239.200 C 146.521 247.058,145.707 248.610,141.321 249.628 C 138.509 250.281,130.521 250.093,130.243 249.367 C 129.724 248.017,129.973 192.987,130.500 192.450 C 130.895 192.047,134.622 191.972,148.200 192.093 L 165.400 192.246 168.400 193.373 M300.578 193.112 C 306.560 195.870,308.646 200.677,306.169 205.998 C 304.179 210.274,302.788 211.710,287.610 225.152 C 280.811 231.173,276.000 235.680,276.000 236.029 C 276.000 236.250,281.736 236.400,290.200 236.400 L 304.400 236.400 304.400 239.703 C 304.400 245.150,303.598 246.726,299.800 248.740 L 297.800 249.800 273.700 249.918 L 249.600 250.035 249.600 245.290 L 249.600 240.545 251.148 237.973 C 252.124 236.351,253.869 234.365,255.869 232.600 C 257.614 231.060,263.082 226.259,268.021 221.931 C 279.624 211.763,280.877 210.654,283.876 207.900 L 286.380 205.600 269.198 205.600 L 252.015 205.600 251.756 204.566 C 250.614 200.017,252.700 195.284,256.610 193.554 C 260.742 191.727,296.787 191.364,300.578 193.112 M214.400 204.942 C 208.626 206.675,205.604 210.118,204.375 216.363 C 200.356 236.791,226.447 246.004,232.220 226.195 C 236.004 213.214,226.119 201.426,214.400 204.942 M335.600 204.942 C 329.962 206.634,326.989 209.822,325.796 215.455 C 323.238 227.526,329.267 236.886,339.600 236.886 C 345.502 236.886,349.625 234.289,352.291 228.893 L 353.800 225.839 353.800 220.419 C 353.800 208.894,345.619 201.936,335.600 204.942 M54.294 205.235 C 49.059 206.468,45.968 210.529,44.652 217.900 C 44.366 219.504,44.525 219.516,49.400 218.246 C 55.970 216.535,60.595 213.645,61.590 210.631 C 62.850 206.811,59.167 204.087,54.294 205.235 M146.977 205.715 C 146.868 205.999,146.829 209.194,146.890 212.815 L 147.000 219.400 153.800 219.400 C 161.396 219.400,162.546 219.095,164.006 216.694 C 166.406 212.747,164.484 206.728,160.467 205.612 C 158.221 204.988,147.224 205.072,146.977 205.715 " stroke="none" fill="#fbfbfb" fill-rule="evenodd"></path><path id="path3" d="M181.200 112.247 C 134.561 120.860,131.942 174.886,177.680 184.846 C 216.537 193.308,245.654 152.815,220.317 125.552 C 211.461 116.023,193.618 109.954,181.200 112.247 M187.200 116.269 C 187.200 116.416,186.908 116.860,186.551 117.254 C 185.952 117.916,185.952 118.098,186.553 119.600 C 186.988 120.687,187.121 121.756,186.951 122.814 C 186.776 123.911,186.844 124.400,187.171 124.400 C 187.431 124.400,188.405 124.747,189.336 125.171 C 191.606 126.205,193.230 126.585,193.543 126.154 C 193.684 125.959,194.269 125.530,194.843 125.200 C 195.417 124.870,196.893 123.925,198.124 123.100 C 199.355 122.275,200.609 121.600,200.911 121.600 C 201.213 121.600,201.883 121.150,202.400 120.600 C 202.917 120.050,203.761 119.600,204.275 119.600 C 204.790 119.600,205.559 119.382,205.985 119.117 C 206.849 118.577,210.992 120.265,212.270 121.677 C 212.630 122.075,213.265 122.400,213.681 122.400 C 215.227 122.400,221.600 130.959,221.600 133.035 C 221.600 133.277,221.947 133.790,222.371 134.174 C 223.303 135.017,223.877 137.883,223.242 138.518 C 222.999 138.761,222.800 139.306,222.800 139.728 C 222.800 140.681,219.298 148.000,218.841 148.000 C 217.779 148.000,216.263 151.267,216.729 152.553 C 216.988 153.270,217.200 154.410,217.200 155.086 C 217.200 156.444,217.453 156.609,220.163 157.015 C 221.189 157.169,222.403 157.598,222.859 157.967 L 223.689 158.640 221.998 162.020 C 220.067 165.880,217.534 169.572,215.439 171.578 C 214.648 172.337,214.000 173.183,214.000 173.458 C 214.000 174.111,209.509 177.308,206.883 178.525 C 205.755 179.047,204.569 179.694,204.247 179.961 C 203.875 180.270,203.138 180.350,202.230 180.179 C 200.812 179.913,200.430 179.476,201.200 179.000 C 203.485 177.588,198.758 177.331,195.600 178.696 C 194.610 179.124,193.308 179.595,192.706 179.743 C 191.952 179.929,191.531 180.352,191.351 181.106 C 190.861 183.159,190.515 183.312,187.014 183.023 C 183.023 182.694,177.123 181.767,175.000 181.135 C 174.120 180.873,173.097 180.700,172.727 180.750 C 171.738 180.884,168.208 178.986,166.389 177.342 C 165.426 176.472,164.566 176.004,164.194 176.147 C 163.584 176.381,160.400 173.869,160.400 173.153 C 160.400 172.691,163.677 172.697,164.900 173.162 C 165.424 173.361,166.903 173.655,168.187 173.816 L 170.521 174.107 170.274 172.868 C 170.131 172.154,170.276 170.920,170.615 169.958 C 171.234 168.203,170.918 167.200,169.747 167.200 C 168.703 167.200,165.600 165.513,165.600 164.946 C 165.600 164.635,165.150 164.209,164.600 164.000 C 164.050 163.791,163.600 163.345,163.600 163.010 C 163.600 162.674,163.432 162.400,163.227 162.400 C 163.021 162.400,162.796 161.905,162.727 161.300 C 162.637 160.522,162.343 160.163,161.723 160.075 C 161.064 159.981,160.816 159.635,160.723 158.675 C 160.600 157.402,160.595 157.400,157.800 157.151 C 154.362 156.845,153.426 157.228,153.742 158.809 C 154.021 160.205,153.606 164.000,153.174 164.000 C 152.576 164.000,150.474 159.791,149.577 156.800 C 147.869 151.099,149.115 139.453,151.689 137.067 C 152.241 136.557,153.558 134.824,154.616 133.218 C 157.959 128.144,161.115 125.344,166.600 122.588 C 173.152 119.295,174.176 118.917,177.400 118.602 C 179.252 118.420,180.471 118.080,181.000 117.596 C 182.238 116.465,187.200 115.402,187.200 116.269 M200.700 118.276 C 200.315 118.376,199.685 118.376,199.300 118.276 C 198.915 118.175,199.230 118.093,200.000 118.093 C 200.770 118.093,201.085 118.175,200.700 118.276 M182.800 126.326 C 182.800 126.781,182.987 127.269,183.216 127.410 C 185.317 128.709,180.059 133.514,175.186 134.749 L 172.200 135.506 172.084 138.068 C 171.928 141.489,173.033 142.781,175.436 141.988 C 176.858 141.519,176.971 141.547,177.712 142.563 C 178.446 143.572,178.544 143.598,179.431 143.016 C 181.283 141.803,183.200 142.446,183.200 144.280 C 183.200 145.315,183.793 145.516,184.145 144.600 C 184.495 143.687,185.492 143.877,187.123 145.170 C 189.423 146.992,190.044 146.952,192.318 144.831 C 193.845 143.408,194.994 139.739,193.653 140.567 C 192.267 141.424,191.263 137.639,192.392 135.812 C 193.305 134.336,193.246 134.224,191.400 133.912 C 190.769 133.805,190.625 133.515,190.719 132.538 C 190.799 131.708,190.634 131.222,190.219 131.063 C 189.431 130.760,189.430 130.112,190.218 129.325 C 191.117 128.425,190.779 127.916,188.570 126.843 C 185.757 125.476,182.800 125.211,182.800 126.326 M130.611 132.500 C 130.071 133.655,128.714 136.760,127.594 139.400 C 126.474 142.040,125.214 145.010,124.792 146.000 C 123.371 149.339,115.570 167.775,114.297 170.800 C 113.603 172.450,112.871 174.025,112.669 174.300 C 112.382 174.691,106.854 174.800,87.372 174.800 C 60.283 174.800,56.775 175.007,49.254 177.052 C 11.258 187.382,-2.288 224.536,22.804 249.600 C 33.736 260.520,47.726 265.987,66.500 266.678 C 70.417 266.822,73.200 267.087,73.200 267.315 C 73.200 267.529,72.454 269.436,71.542 271.552 C 70.629 273.669,69.396 276.570,68.800 278.000 C 68.204 279.430,66.790 282.760,65.658 285.400 C 64.526 288.040,63.600 290.425,63.600 290.700 C 63.600 291.094,68.457 291.200,86.551 291.200 C 104.449 291.200,109.583 291.090,109.870 290.700 C 110.299 290.117,111.143 288.202,114.235 280.800 C 115.475 277.830,116.888 274.500,117.373 273.400 C 117.858 272.300,118.693 270.368,119.228 269.107 L 120.200 266.814 227.400 266.803 C 340.234 266.791,340.759 266.783,348.555 264.936 C 398.251 253.161,404.722 199.144,358.759 179.759 C 346.873 174.746,347.721 174.800,280.677 174.800 L 223.796 174.800 222.197 176.300 C 221.317 177.125,219.968 178.293,219.199 178.896 L 217.800 179.991 276.000 179.999 C 348.257 180.009,347.864 179.977,360.751 186.845 C 398.072 206.735,387.391 252.612,343.630 260.388 C 336.430 261.667,63.570 261.667,56.370 260.388 C 4.531 251.177,2.957 192.876,54.238 181.412 C 59.760 180.177,65.873 180.027,111.110 180.013 L 156.821 180.000 154.110 177.667 C 140.836 166.241,136.649 147.762,144.024 133.152 C 144.671 131.871,145.200 130.728,145.200 130.611 C 145.200 130.495,142.138 130.400,138.396 130.400 L 131.591 130.400 130.611 132.500 M153.403 138.554 C 150.662 141.308,150.644 141.461,152.640 145.038 C 153.388 146.380,154.000 147.800,154.000 148.194 C 154.000 148.589,154.293 149.126,154.651 149.388 C 155.192 149.784,155.220 150.016,154.814 150.775 C 154.173 151.971,154.650 152.405,156.844 152.621 C 157.810 152.717,158.947 152.841,159.371 152.897 C 159.978 152.978,160.235 152.629,160.575 151.261 C 161.025 149.456,162.373 148.000,163.595 148.000 C 164.472 148.000,165.164 147.196,165.553 145.726 C 165.754 144.966,166.336 144.369,167.342 143.889 C 169.063 143.069,169.481 142.305,168.882 141.073 C 168.649 140.593,168.346 139.525,168.211 138.700 C 167.937 137.038,167.528 136.898,165.664 137.828 C 164.860 138.229,164.080 138.345,163.503 138.149 C 162.493 137.805,162.541 137.804,161.300 138.181 C 160.598 138.394,160.399 138.294,160.394 137.727 C 160.381 136.245,159.794 135.854,158.678 136.585 C 157.789 137.168,157.535 137.183,156.728 136.701 C 155.850 136.176,155.670 136.277,153.403 138.554 M224.292 142.730 C 223.731 143.406,223.392 142.718,223.784 141.698 C 224.003 141.128,224.099 141.112,224.399 141.598 C 224.620 141.955,224.579 142.384,224.292 142.730 M194.972 146.529 C 194.107 147.261,193.085 147.975,192.700 148.117 C 192.045 148.358,192.054 148.478,192.835 149.977 C 193.616 151.476,193.629 151.659,193.040 152.840 C 192.336 154.251,192.553 155.822,193.526 156.366 C 194.064 156.667,194.079 156.823,193.626 157.369 C 193.027 158.091,193.998 159.600,195.062 159.600 C 195.757 159.600,195.937 161.405,195.439 163.387 C 195.193 164.369,195.246 164.400,197.163 164.400 C 198.811 164.400,199.277 164.572,199.949 165.426 C 200.780 166.482,202.400 166.268,202.400 165.102 C 202.400 164.286,208.377 158.825,210.381 157.810 C 212.547 156.712,212.991 156.011,212.200 154.939 C 211.810 154.411,211.721 153.488,211.885 151.700 L 212.116 149.200 209.918 149.200 C 207.503 149.200,205.239 148.593,204.567 147.765 C 203.959 147.014,202.183 146.400,200.623 146.400 C 199.894 146.400,199.074 146.130,198.800 145.800 C 198.005 144.842,196.665 145.098,194.972 146.529 M224.624 152.213 C 223.770 152.858,221.600 153.017,221.600 152.433 C 221.600 151.919,222.369 151.666,224.000 151.644 C 225.316 151.627,225.353 151.661,224.624 152.213 M206.800 154.292 C 206.470 154.417,206.110 154.629,206.000 154.763 C 205.116 155.837,198.613 157.976,198.894 157.100 C 199.055 156.597,205.681 154.047,206.800 154.058 C 207.333 154.063,207.333 154.089,206.800 154.292 M225.410 154.385 C 225.108 154.872,222.453 155.386,222.093 155.026 C 221.945 154.878,222.088 154.589,222.412 154.384 C 223.193 153.890,225.715 153.890,225.410 154.385 M209.600 155.996 C 209.600 156.213,209.163 156.355,208.629 156.311 C 208.095 156.266,207.745 156.088,207.852 155.915 C 208.134 155.460,209.600 155.527,209.600 155.996 M198.000 163.000 C 198.000 163.330,197.820 163.600,197.600 163.600 C 197.380 163.600,197.200 163.330,197.200 163.000 C 197.200 162.670,197.380 162.400,197.600 162.400 C 197.820 162.400,198.000 162.670,198.000 163.000 M162.400 166.413 C 162.400 166.928,161.260 167.394,160.894 167.028 C 160.745 166.879,160.888 166.589,161.212 166.384 C 161.986 165.895,162.400 165.905,162.400 166.413 M191.600 166.394 C 191.600 167.105,188.457 168.908,187.607 168.686 C 187.084 168.549,186.800 168.670,186.800 169.029 C 186.800 170.539,180.005 172.273,178.095 171.251 C 176.889 170.605,176.292 170.987,175.500 172.910 C 174.269 175.897,174.578 176.182,179.400 176.513 C 182.378 176.717,185.269 177.541,185.753 178.323 C 186.467 179.480,189.011 179.623,191.385 178.640 C 193.828 177.629,194.323 177.039,194.372 175.079 C 194.387 174.463,194.792 173.203,195.270 172.279 C 197.438 168.097,197.367 168.456,196.122 167.917 C 195.505 167.650,194.571 167.110,194.046 166.716 C 193.015 165.942,191.600 165.756,191.600 166.394 M156.800 167.400 C 156.526 167.730,156.054 168.000,155.751 168.000 C 155.448 168.000,155.200 167.730,155.200 167.400 C 155.200 167.019,155.583 166.800,156.249 166.800 C 157.136 166.800,157.221 166.893,156.800 167.400 M159.200 170.200 C 159.200 170.530,159.125 170.800,159.033 170.800 C 158.941 170.800,158.581 170.909,158.233 171.043 C 157.826 171.199,157.600 171.068,157.600 170.676 C 157.600 170.123,158.108 169.715,158.900 169.632 C 159.065 169.614,159.200 169.870,159.200 170.200 M60.564 297.800 C 60.426 298.350,60.192 298.800,60.044 298.800 C 59.896 298.800,59.533 299.655,59.237 300.700 C 58.941 301.745,58.480 302.960,58.211 303.400 C 57.943 303.840,57.398 305.190,57.000 306.400 C 56.602 307.610,56.055 308.960,55.783 309.400 C 55.511 309.840,55.062 310.920,54.784 311.800 C 54.506 312.680,54.054 313.760,53.779 314.200 C 53.504 314.640,53.157 315.585,53.007 316.300 L 52.736 317.600 57.074 317.600 L 61.411 317.600 62.052 316.100 C 62.405 315.275,62.941 313.880,63.244 313.000 C 63.548 312.120,63.900 311.310,64.027 311.200 C 64.154 311.090,64.375 310.685,64.517 310.300 C 64.750 309.669,65.491 309.599,72.087 309.594 C 76.109 309.591,79.596 309.456,79.834 309.294 C 80.243 309.017,81.200 306.674,81.200 305.949 C 81.200 305.767,77.900 305.569,73.867 305.509 L 66.535 305.400 67.155 303.300 L 67.775 301.200 76.072 301.200 L 84.369 301.200 84.985 299.127 C 85.323 297.987,85.600 296.997,85.600 296.927 C 85.600 296.857,80.023 296.800,73.208 296.800 L 60.815 296.800 60.564 297.800 M96.130 298.700 C 95.679 299.745,95.078 301.320,94.794 302.200 C 94.511 303.080,94.056 304.160,93.784 304.600 C 93.512 305.040,93.069 306.092,92.801 306.939 C 92.532 307.785,92.063 308.955,91.759 309.539 C 89.612 313.653,92.785 317.600,98.240 317.600 C 98.962 317.600,99.664 317.780,99.800 318.000 C 99.938 318.223,101.796 318.400,104.000 318.400 C 106.204 318.400,108.062 318.223,108.200 318.000 C 108.336 317.780,109.209 317.600,110.140 317.600 C 112.320 317.600,116.292 316.565,117.060 315.797 C 117.389 315.469,117.813 315.200,118.004 315.200 C 119.342 315.200,122.752 309.946,123.391 306.900 C 123.541 306.185,123.801 305.600,123.968 305.600 C 124.136 305.600,124.600 304.520,125.000 303.200 C 125.400 301.880,125.850 300.800,126.000 300.800 C 126.279 300.800,127.200 298.077,127.200 297.254 C 127.200 296.414,118.830 296.651,118.517 297.500 C 118.375 297.885,118.144 298.290,118.004 298.400 C 117.864 298.510,117.430 299.635,117.038 300.900 C 116.646 302.165,116.200 303.200,116.048 303.200 C 115.895 303.200,115.417 304.370,114.985 305.800 C 114.553 307.230,114.079 308.400,113.932 308.400 C 113.784 308.400,113.547 308.932,113.404 309.583 C 113.056 311.166,110.776 313.103,108.909 313.402 C 108.079 313.535,107.087 313.814,106.705 314.022 C 105.786 314.522,103.600 314.507,103.600 314.000 C 103.600 313.780,103.100 313.600,102.489 313.600 C 101.184 313.600,99.600 312.601,99.600 311.777 C 99.600 311.460,99.752 311.200,99.937 311.200 C 100.122 311.200,100.603 310.111,101.006 308.781 C 101.409 307.450,101.870 306.280,102.032 306.180 C 102.194 306.080,102.646 304.964,103.038 303.699 C 103.430 302.435,103.867 301.310,104.010 301.200 C 104.386 300.910,105.200 298.407,105.200 297.540 C 105.200 296.868,104.822 296.800,101.075 296.800 L 96.950 296.800 96.130 298.700 M135.054 298.513 C 133.994 301.289,133.843 301.200,139.643 301.200 L 144.887 301.200 144.612 302.296 C 144.460 302.899,144.199 303.484,144.030 303.596 C 143.861 303.708,143.392 304.880,142.987 306.200 C 142.581 307.520,142.130 308.690,141.984 308.800 C 141.838 308.910,141.395 309.990,141.000 311.200 C 140.605 312.410,140.149 313.490,139.986 313.600 C 139.712 313.785,138.807 316.613,138.802 317.300 C 138.801 317.465,140.735 317.598,143.100 317.595 L 147.400 317.591 148.075 316.095 C 148.446 315.273,148.985 313.880,149.273 313.000 C 149.560 312.120,149.905 311.310,150.039 311.200 C 150.173 311.090,150.606 310.010,151.002 308.800 C 151.399 307.590,151.943 306.240,152.211 305.800 C 152.480 305.360,152.941 304.145,153.237 303.100 L 153.775 301.200 159.410 301.200 L 165.046 301.200 165.723 299.666 C 167.085 296.579,168.214 296.800,151.054 296.800 L 135.709 296.800 135.054 298.513 M182.200 297.164 C 173.185 298.833,169.824 306.005,177.391 307.425 C 178.166 307.570,178.800 307.819,178.800 307.978 C 178.800 308.136,180.600 308.596,182.800 309.000 C 185.000 309.404,186.800 309.871,186.800 310.039 C 186.800 310.207,187.187 310.402,187.659 310.472 C 188.741 310.633,189.549 311.811,188.972 312.388 C 187.780 313.580,176.852 313.916,170.520 312.955 C 168.919 312.712,168.827 312.754,168.557 313.850 C 168.401 314.483,168.008 315.411,167.683 315.912 C 166.861 317.180,167.149 317.320,171.005 317.522 C 172.872 317.620,174.400 317.858,174.400 318.050 C 174.400 318.544,184.694 318.495,185.000 318.000 C 185.136 317.780,185.941 317.600,186.788 317.600 C 188.697 317.600,194.465 316.520,194.773 316.105 C 194.898 315.937,195.689 315.449,196.531 315.020 C 200.613 312.941,200.057 308.646,195.487 306.962 C 194.559 306.620,193.517 306.192,193.171 306.011 C 192.825 305.830,191.025 305.383,189.171 305.019 C 186.104 304.416,183.191 303.337,183.206 302.809 C 183.250 301.324,186.979 300.684,194.562 300.861 L 200.523 301.000 201.103 299.275 C 201.422 298.326,201.560 297.426,201.409 297.275 C 201.030 296.896,184.175 296.798,182.200 297.164 M213.200 307.133 L 203.000 317.400 207.774 317.513 L 212.548 317.627 214.586 315.613 L 216.625 313.600 222.899 313.600 L 229.172 313.600 229.438 315.600 L 229.703 317.600 234.303 317.600 L 238.903 317.600 238.621 315.105 C 238.466 313.732,238.208 312.517,238.047 312.405 C 237.887 312.292,237.427 310.040,237.026 307.400 C 236.624 304.760,236.159 302.420,235.992 302.200 C 235.825 301.980,235.561 300.675,235.405 299.300 L 235.121 296.800 229.261 296.833 L 223.400 296.866 213.200 307.133 M256.400 297.600 C 256.400 298.040,256.248 298.400,256.063 298.400 C 255.878 298.400,255.400 299.480,255.000 300.800 C 254.600 302.120,254.150 303.200,254.000 303.200 C 253.850 303.200,253.392 304.325,252.983 305.700 C 252.573 307.075,252.107 308.293,251.946 308.407 C 251.785 308.521,251.357 309.511,250.995 310.607 C 250.632 311.703,250.007 313.320,249.605 314.200 C 249.203 315.080,248.755 316.205,248.610 316.700 L 248.346 317.600 261.334 317.600 L 274.322 317.600 274.761 316.340 C 275.761 313.472,276.121 313.600,267.021 313.600 L 258.842 313.600 259.286 312.300 C 259.531 311.585,259.843 310.910,259.981 310.800 C 260.118 310.690,260.583 309.520,261.014 308.200 C 261.444 306.880,261.906 305.710,262.039 305.600 C 262.173 305.490,262.605 304.410,263.000 303.200 C 263.395 301.990,263.842 300.910,263.993 300.800 C 264.335 300.552,265.200 298.073,265.200 297.340 C 265.200 296.919,264.228 296.800,260.800 296.800 C 256.667 296.800,256.400 296.848,256.400 297.600 M227.600 304.120 C 227.600 304.846,227.762 305.611,227.959 305.820 C 228.156 306.029,228.386 306.965,228.470 307.900 L 228.621 309.600 224.449 309.600 L 220.276 309.600 221.038 308.745 C 222.770 306.803,226.967 302.800,227.272 302.800 C 227.452 302.800,227.600 303.394,227.600 304.120 " stroke="none" fill="#5c2c2c" fill-rule="evenodd"></path></g></svg>