<svg xmlns="http://www.w3.org/2000/svg" width="400" height="400"><g fill-rule="evenodd"><path d="M149.851 9.882c-.16.161-2.037.437-4.171.615-7.491.624-8.683.774-9.06 1.137-.209.201-1.244.366-2.3.366-1.056 0-1.92.18-1.92.4 0 .22-.889.4-1.976.4s-2.088.18-2.224.4c-.136.22-.957.4-1.824.4-.867 0-1.576.18-1.576.4 0 .22-.72.4-1.6.4-.88 0-1.6.18-1.6.4 0 .22-.72.4-1.6.4-.88 0-1.6.18-1.6.4 0 .22-.54.4-1.2.4-.66 0-1.2.18-1.2.4 0 .22-.54.4-1.2.4-.66 0-1.2.18-1.2.4 0 .22-.63.4-1.4.4-.77 0-1.4.18-1.4.4 0 .22-.54.4-1.2.4-.66 0-1.2.18-1.2.4 0 .22-.36.4-.8.4-.44 0-.8.18-.8.4 0 .22-.54.4-1.2.4-.66 0-1.2.18-1.2.4 0 .22-.439.4-.976.4-.537 0-1.088.18-1.224.4-.136.22-.597.4-1.024.4-.427 0-.776.18-.776.4 0 .22-.36.4-.8.4-.44 0-.8.18-.8.4 0 .22-.45.4-1 .4s-1 .18-1 .4c0 .22-.272.4-.605.4-.333 0-.918.171-1.3.381-.594.326-4.596 2.319-7.592 3.781-.493.241-.898.573-.9.738-.002.165-.363.3-.803.3-.44 0-.8.18-.8.4 0 .22-.236.4-.525.4-.288 0-.911.36-1.383.8-.472.44-1.096.8-1.387.8-.291 0-.788.36-1.105.8-.317.44-.857.8-1.2.8-.343 0-.883.36-1.2.8-.317.44-.779.8-1.026.8-.248 0-.776.36-1.174.8-.398.44-.89.8-1.093.8-.204 0-1.061.72-1.907 1.6-.846.88-1.737 1.6-1.982 1.6-.245 0-1.054.585-1.799 1.3-.745.715-2.13 1.93-3.078 2.7A40.592 40.592 0 0060 49.541a60.344 60.344 0 01-2.7 3.078c-.715.745-1.3 1.558-1.3 1.807 0 .249-.54.957-1.2 1.574-.66.617-1.2 1.317-1.2 1.557s-.54.952-1.2 1.583c-.66.631-1.2 1.352-1.2 1.603 0 .251-.18.457-.4.457-.22 0-.4.32-.4.712 0 .391-.36.971-.8 1.288-.44.317-.8.897-.8 1.288 0 .392-.18.712-.4.712-.22 0-.4.36-.4.8 0 .44-.18.8-.4.8-.22 0-.4.283-.4.629 0 .345-.279.907-.62 1.248-.34.341-.723 1.138-.85 1.771-.126.634-.387 1.152-.58 1.152-.192 0-.35.36-.35.8 0 .44-.18.8-.4.8-.22 0-.4.36-.4.8 0 .44-.18.8-.4.8-.22 0-.4.439-.4.976 0 .537-.17 1.082-.377 1.21-.207.128-.498 1.038-.645 2.023-.148.985-.428 1.791-.623 1.791s-.355.72-.355 1.6c0 .88-.18 1.6-.4 1.6-.22 0-.4.72-.4 1.6 0 .88-.18 1.6-.4 1.6-.22 0-.4.72-.4 1.6 0 .88-.18 1.6-.4 1.6-.222 0-.4 1.059-.4 2.376 0 1.307-.18 2.488-.4 2.624-.554.343-.554 215.257 0 215.6.22.136.4 1.317.4 2.624 0 1.317.178 2.376.4 2.376.22 0 .4.72.4 1.6 0 .88.18 1.6.4 1.6.22 0 .4.72.4 1.6 0 .88.18 1.6.4 1.6.22 0 .4.529.4 1.176 0 .647.164 1.278.365 1.402.201.125.493.983.65 1.909.156.925.427 1.959.601 2.298.174.338.62 1.335.991 2.215 1.212 2.879 3.255 6.863 3.794 7.4.11.11.469.74.797 1.4.328.66.913 1.491 1.299 1.847.387.356.703.852.703 1.104 0 .251.54 1.021 1.2 1.712.66.691 1.2 1.409 1.2 1.596 0 .187.72 1.082 1.6 1.989.88.907 1.6 1.819 1.6 2.028 0 .595 8.536 9.124 9.131 9.124.292 0 1.223.72 2.069 1.6.846.88 1.749 1.6 2.008 1.6.259 0 .975.54 1.592 1.2.617.66 1.369 1.2 1.672 1.2.303 0 .811.36 1.128.8.317.44.779.8 1.026.8.248 0 .776.36 1.174.8.398.44.966.8 1.262.8.296 0 .538.152.538.337 0 .186.855.771 1.9 1.3 1.045.53 1.96 1.098 2.033 1.263.074.165.464.3.867.3.403 0 .793.14.867.31.237.553 6.031 3.29 6.963 3.29.497 0 .963.135 1.037.3.221.499 3.555 2.1 4.371 2.1.419 0 .762.18.762.4 0 .22.36.4.8.4.44 0 .8.18.8.4 0 .22.54.4 1.2.4.66 0 1.2.18 1.2.4 0 .22.54.4 1.2.4.66 0 1.2.18 1.2.4 0 .22.54.4 1.2.4.66 0 1.2.18 1.2.4 0 .22.54.4 1.2.4.66 0 1.2.18 1.2.4 0 .22.439.4.976.4.537 0 1.088.18 1.224.4.136.22.867.4 1.624.4.757 0 1.376.18 1.376.4 0 .22.529.4 1.176.4.647 0 1.288.18 1.424.4.136.22.856.4 1.6.4.744 0 1.464.18 1.6.4.136.22 1.047.4 2.024.4.977 0 1.776.18 1.776.4 0 .22.799.4 1.776.4s1.888.18 2.024.4c.136.22 1.036.4 2 .4s1.864.18 2 .4c.136.22 1.371.4 2.744.4 1.373 0 2.667.165 2.876.368.209.202 1.55.466 2.98.586 1.43.121 4.76.439 7.4.707 6.745.686 101.212.676 107.8-.011 2.53-.264 5.905-.577 7.5-.696 1.595-.12 2.9-.383 2.9-.586 0-.202 1.134-.368 2.52-.368 1.386 0 2.691-.163 2.9-.361.209-.199 1.28-.472 2.38-.608 4.567-.564 5.4-.729 5.4-1.071 0-.198.9-.36 2-.36s2-.18 2-.4c0-.22.72-.4 1.6-.4.88 0 1.6-.18 1.6-.4 0-.22.54-.4 1.2-.4.66 0 1.2-.18 1.2-.4 0-.22.619-.4 1.376-.4.757 0 1.488-.18 1.624-.4.136-.22.676-.4 1.2-.4.524 0 1.064-.18 1.2-.4.136-.22.687-.4 1.224-.4.537 0 .976-.18.976-.4 0-.22.54-.4 1.2-.4.66 0 1.2-.18 1.2-.4 0-.22.54-.4 1.2-.4.66 0 1.2-.18 1.2-.4 0-.22.54-.4 1.2-.4.66 0 1.2-.18 1.2-.4 0-.22.36-.4.8-.4.44 0 .8-.18.8-.4 0-.22.54-.4 1.2-.4.66 0 1.2-.18 1.2-.4 0-.22.36-.4.8-.4.44 0 .8-.18.8-.4 0-.22.27-.4.6-.4.33 0 .6-.18.6-.4 0-.22.466-.4 1.036-.4 1.024 0 8.239-3.466 8.497-4.082.074-.175.479-.318.9-.318.422 0 .767-.18.767-.4 0-.22.236-.4.525-.4.288 0 .873-.315 1.3-.7.426-.385 1.282-.962 1.901-1.281.619-.32 1.653-1.085 2.296-1.7.644-.616 1.403-1.119 1.686-1.119.283 0 .775-.36 1.092-.8.317-.44.821-.8 1.12-.8.298 0 1.234-.72 2.08-1.6.846-.88 1.73-1.6 1.966-1.6.46 0 4.149-3.316 6.193-5.566.683-.751 2.006-2.141 2.941-3.089s1.7-1.923 1.7-2.166c0-.243.72-1.133 1.6-1.979.88-.846 1.6-1.755 1.6-2.022 0-.266.316-.775.703-1.131.386-.356.957-1.142 1.267-1.747.311-.605.715-1.1.898-1.1.182 0 .332-.27.332-.6 0-.33.18-.6.4-.6.22 0 .4-.27.4-.6 0-.33.146-.6.325-.6.179 0 .573-.63.875-1.4.302-.77.696-1.4.875-1.4.179 0 .325-.36.325-.8 0-.44.18-.8.4-.8.22 0 .4-.236.4-.525 0-.289.36-1.27.8-2.181.44-.91.8-1.934.8-2.275 0-.34.14-.619.311-.619.377 0 1.689-4.287 1.689-5.52 0-.484.18-.88.4-.88.22 0 .4-.63.4-1.4 0-.77.18-1.4.4-1.4.22 0 .4-.799.4-1.776s.18-1.888.4-2.024c.22-.136.4-1.137.4-2.224 0-1.087.18-1.976.4-1.976.266 0 .4-36.459.4-108.576 0-71.953-.135-108.66-.4-108.824-.22-.136-.4-1.137-.4-2.224 0-1.087-.18-1.976-.4-1.976-.22 0-.4-.9-.4-2s-.18-2-.4-2c-.22 0-.4-.72-.4-1.6 0-.88-.141-1.6-.314-1.6-.173 0-.505-.945-.738-2.1-.482-2.384-1.798-6.033-2.248-6.233-.165-.074-.3-.397-.3-.72 0-.322-.36-1.331-.8-2.241-.44-.911-.8-1.877-.8-2.148 0-.27-.135-.551-.3-.625-.165-.073-.733-.988-1.263-2.033-.529-1.045-1.114-1.9-1.3-1.9-.185 0-.337-.36-.337-.8 0-.44-.18-.8-.4-.8-.22 0-.4-.236-.4-.525 0-.288-.36-.911-.8-1.383-.44-.472-.8-1.046-.8-1.275 0-.229-.15-.417-.332-.417-.183 0-.588-.495-.9-1.1-.313-.605-1.063-1.577-1.668-2.16-.605-.584-1.1-1.273-1.1-1.532 0-.259-.675-1.132-1.5-1.939-.825-.808-2.007-2.216-2.627-3.129-1.182-1.742-5.818-6.313-7.443-7.34-.522-.33-1.728-1.365-2.679-2.3-.952-.935-1.932-1.7-2.18-1.7-.248 0-.954-.54-1.571-1.2-.617-.66-1.319-1.2-1.56-1.2-.242 0-.44-.138-.44-.306 0-.168-.72-.75-1.6-1.294-.88-.544-1.6-1.126-1.6-1.294 0-.168-.236-.306-.525-.306-.288 0-.911-.36-1.383-.8-.472-.44-1.096-.8-1.387-.8-.291 0-.788-.36-1.105-.8-.317-.44-.897-.8-1.288-.8-.392 0-.712-.18-.712-.4 0-.22-.36-.4-.8-.4-.44 0-.8-.156-.8-.346 0-.388-7.153-4.054-7.912-4.054-.268 0-.488-.18-.488-.4 0-.22-.36-.4-.8-.4-.44 0-.8-.18-.8-.4 0-.22-.54-.4-1.2-.4-.66 0-1.2-.18-1.2-.4 0-.22-.36-.4-.8-.4-.44 0-.8-.18-.8-.4 0-.22-.36-.4-.8-.4-.44 0-.8-.18-.8-.4 0-.22-.54-.4-1.2-.4-.66 0-1.2-.18-1.2-.4 0-.22-.54-.4-1.2-.4-.66 0-1.2-.18-1.2-.4 0-.22-.36-.4-.8-.4-.44 0-.8-.18-.8-.4 0-.22-.439-.4-.976-.4-.537 0-1.088-.18-1.224-.4-.136-.22-.777-.4-1.424-.4-.647 0-1.176-.18-1.176-.4 0-.22-.63-.4-1.4-.4-.77 0-1.4-.18-1.4-.4 0-.22-.54-.4-1.2-.4-.66 0-1.2-.18-1.2-.4 0-.22-.72-.4-1.6-.4-.88 0-1.6-.18-1.6-.4 0-.22-.72-.4-1.6-.4-.88 0-1.6-.18-1.6-.4 0-.22-.72-.4-1.6-.4-.88 0-1.6-.18-1.6-.4 0-.22-.99-.4-2.2-.4-1.21 0-2.2-.18-2.2-.4 0-.22-.864-.4-1.92-.4s-2.091-.164-2.3-.365c-.209-.2-1.46-.474-2.78-.608-1.32-.134-4.11-.438-6.2-.675-4.356-.496-104.075-.943-104.549-.47M256.8 16.501c47.16 6.871 79.981 27.896 94.13 60.299 1.908 4.369 3.89 11.476 5.132 18.4.796 4.436.798 211.543.002 216-7.457 41.776-43.079 66.632-104.464 72.89-7.334.748-95.658.729-103-.022-25.482-2.606-43.506-7.376-60.1-15.906C62.779 354.941 47.969 335.846 44.165 311c-.704-4.601-.844-209.926-.146-214.723 5.585-38.389 39.109-68.478 86.381-77.53l4-.764c4.739-.902 15.242-2.247 19.8-2.535 1.1-.069 23.06-.09 48.8-.046l46.8.079 7 1.02M120.178 33.1c-.231.165-.745 1.92-1.141 3.9s-.859 4.289-1.03 5.131c-.397 1.956-.537 1.916 6.212 1.781l5.581-.112.506-2.4c.866-4.115 1.366-6.769 1.431-7.6.066-.837-10.469-1.475-11.559-.7m87.773 2.834c-11.648 6.713-11.397 6.486-12.412 11.266l-.552 2.6-2.913.118c-3.343.135-3.092-.162-4.069 4.823-.872 4.447-.865 4.459 2.214 4.459 3.255 0 3.206-.996.556 11.2-3.8 17.494-3.866 18.694-1.213 21.998 2.201 2.74 4.255 3.402 10.558 3.402 6.53 0 6.218.204 7.259-4.755.917-4.367.892-4.422-1.947-4.29-4.171.193-5.926-1.398-5.082-4.607.225-.851.889-3.888 1.476-6.748.588-2.86 1.209-5.83 1.38-6.6.171-.77.631-3.02 1.021-5 .926-4.695.828-4.6 4.779-4.6 3.827 0 3.504.344 4.631-4.944.935-4.383 1.026-4.256-3.061-4.256-1.857 0-3.376-.086-3.376-.192 0-.105.636-3.21 1.414-6.9 1.758-8.337 1.755-8.367-.663-6.974M164.4 49.221c-3.83.496-7.758 2.228-11.469 5.058-1.656 1.264-1.751 1.186-1.314-1.079.673-3.481 1.091-3.236-5.317-3.111l-5.7.111-.887 4.2a16087.521 16087.521 0 00-4.119 19.6c-.392 1.87-1.084 5.2-1.537 7.4-.453 2.2-1.216 5.8-1.694 8-1.353 6.219-1.875 5.582 4.679 5.711 6.782.133 6.1.743 7.72-6.911 5.027-23.746 5.814-25.657 11.91-28.895 7.306-3.882 11.531-.311 9.408 7.952-.246.959-.822 3.543-1.28 5.743a389.456 389.456 0 01-1.986 9.1c-1.442 6.353-2.414 11.217-2.414 12.085V95.2h5.551c6.809 0 6.03.909 8.27-9.644.999-4.706 2.36-11.076 3.023-14.156.663-3.08 1.39-6.68 1.615-8 1.605-9.413-4.561-15.46-14.459-14.179m68.2.62c-22.469 6.085-24.519 41.049-2.68 45.707 9.251 1.973 18.361-1.572 23.562-9.168 2.321-3.389 2.549-3.202-5.814-4.754l-2.532-.471-2.468 2.595c-6.524 6.857-16.268 3.446-16.268-5.696V76.4h14.724c18.103 0 16.276.816 16.276-7.268 0-7.563-.853-10.547-4.101-14.341-4.189-4.894-13.066-7.017-20.699-4.95m56.769-.093c-2.591.951-5.66 3.487-8.536 7.052-1.03 1.278-1.091.521-.241-3 .988-4.094 1.357-3.8-4.768-3.8-6.192 0-5.763-.269-6.681 4.2a4432.181 4432.181 0 01-3.572 17.2c-.189.88-.895 4.21-1.568 7.4l-2.073 9.8c-.466 2.2-.866 4.54-.889 5.2L261 95l5.568.112c3.063.061 5.708-.029 5.879-.2.17-.172 1.231-4.621 2.357-9.887 4.277-20.006 7.671-25.17 16.573-25.221l3.177-.019 2.102-4.392c1.156-2.416 2.111-4.537 2.123-4.713.082-1.253-6.707-1.925-9.41-.932m-173.136.952c-.122.385-.385 1.51-.585 2.5-.852 4.22-2.094 10.187-3.245 15.6-3.567 16.764-5.203 24.801-5.203 25.558 0 .816.174.842 5.551.842 6.174 0 6.327-.06 6.86-2.707 1.021-5.07 3.328-16.143 7.141-34.274.877-4.17 1.506-7.725 1.398-7.9-.45-.728-11.68-.368-11.917.381m124.758 7.346c3.28.911 5.41 4.269 5.552 8.754l.057 1.8-9.545.107-9.545.108.27-1.108c1.746-7.153 7.387-11.278 13.211-9.661m94.609 44.425c-2.196 1.371-3.098 1.681-5.8 1.988-1.76.201-3.74.53-4.4.731-.66.202-3.27.571-5.8.821-12.219 1.206-23.304 3.371-29.904 5.84-2.037.762-5.457 1.746-7.6 2.186-5.425 1.116-19.225 8.015-37.496 18.747-11.912 6.997-16.002 9.376-29.8 17.327-.77.444-3.11 1.703-5.2 2.797-9.366 4.905-19.296 12.222-43.46 32.022-6.051 4.959-7.456 5.095-11.085 1.078-3.81-4.217-3.784-4.284 6.597-17.173 7.568-9.396 6.69-16.227-3.021-23.491-3.401-2.544-6.331-5.135-11.065-9.787-11.974-11.766-17.214-13.733-21.626-8.118-2.879 3.663-1.723 4.154-14.159-6.003-4.595-3.753-8.947-6.993-9.776-7.279-7.438-2.563-13.86.403-20.741 9.577-1.513 2.016-4.171 5.172-5.907 7.014-10.786 11.437-10.306 14.54 5.01 32.427 3.568 4.167 3.551 4.123 2.473 6.529-3.408 7.603-1.786 10.359 14.541 24.696.876.77 2.589 2.307 3.806 3.416 15.84 14.434 19.525 15.075 29.013 5.051 12.419-13.122 12.475-13.161 15.644-11.012 3.523 2.39 3.917 3.467 2.056 5.622l-2.3 2.664c-1.006 1.165-9.564 8.476-15.96 13.634-5.063 4.083-12.766 12.429-15.276 16.551-.31.509-1.409 1.537-2.442 2.284-1.982 1.432-5.655 6.039-7.079 8.877-.465.927-1.197 1.874-1.627 2.104-1.164.623-1.611 2.873-1.614 8.113-.001 3.453-.234 5.667-.875 8.329-.859 3.572-.862 3.659-.141 5.779.74 2.176.674 6.492-.116 7.547-.684.914-1.27 3.824-1.27 6.304v2.569l-4.938 4.843c-5.557 5.451-8.864 9.585-9.491 11.864-.232.847-.951 2.579-1.597 3.85-1.637 3.221-1.712 6.811-.143 6.811 1.157 0 1.95-.744 5.769-5.416 1.43-1.749 5.93-6.514 10-10.589 4.07-4.074 8.291-8.347 9.379-9.495 2.403-2.533 3.925-3.276 9.621-4.695 2.42-.603 7.01-1.96 10.2-3.015a842.06 842.06 0 019.6-3.115c5.287-1.665 17.773-7.559 20.4-9.63.77-.607 2.57-1.786 4-2.62 3.082-1.797 9.2-6.498 9.2-7.069 0-.221.818-.763 1.818-1.205 1.98-.876 7.668-5.507 10.659-8.679 3.583-3.799 8.801-7.262 10.923-7.25 1.303.007 3.229 1.667 14.079 12.137 5.677 5.478 12.682 11.988 15.568 14.467 9.525 8.184 15.405 13.737 28.353 26.777 16.986 17.106 22.866 21.761 27.518 21.788 7.265.042 2.083-9.06-12.071-21.201-1.404-1.204-3.171-3-3.925-3.99-.755-.99-2.126-2.398-3.047-3.129-.921-.731-3.205-2.795-5.075-4.587-1.87-1.791-5.114-4.883-7.209-6.871a4076.464 4076.464 0 01-7.6-7.227 762.194 762.194 0 00-8.991-8.375l-9.4-8.61c-2.31-2.117-6.45-5.906-9.2-8.42-2.75-2.515-5.81-5.324-6.8-6.242-.99-.919-2.378-2.181-3.085-2.805-3.626-3.202-2.743-6.43 2.634-9.62 7.997-4.746 14.235-9.491 32.368-24.621 8.535-7.12 10.672-9.104 11.339-10.522 1.118-2.379 3.077-4.043 7.37-6.26 3.225-1.665 5.774-3.552 5.774-4.274 0-.14 1.282-1.24 2.85-2.446a166.576 166.576 0 004.9-3.926c1.127-.955 3.58-2.517 5.45-3.473 3.439-1.757 3.461-1.775 19.42-16.551 1.331-1.233 4.571-4.221 7.2-6.641 2.629-2.42 7.21-6.761 10.18-9.646 7.223-7.017 10.143-9.689 12.135-11.105 5.344-3.798 11.892-12.167 13.246-16.931.3-1.055.673-2.323.829-2.818.431-1.37-.772-1.126-3.81.771m-2.4 6.225c0 .999-2.997 3.704-4.104 3.704-1.323 0-2.196-1.035-1.63-1.934 1.415-2.245 5.734-3.579 5.734-1.77m-8.5-.844c1.001.268 1.248 1.776.4 2.444-.275.217-2.13.505-4.122.639-1.991.135-4.393.517-5.335.85-3.409 1.203-4.114-.832-.936-2.699 2.036-1.197 7.579-1.881 9.993-1.234m-20.599 3.804c4.76 1.191 2.646 4.905-4.561 8.012-1.972.851-5.219 2.613-7.216 3.917-1.996 1.305-5.361 3.106-7.477 4.003-2.116.897-4.518 2.212-5.337 2.922-1.45 1.255-7.202 4.376-9.01 4.889-3.177.9-4.17-3.499-1.505-6.666.535-.636 1.084-1.826 1.219-2.645.962-5.813 5.371-8.542 17.907-11.08 3.322-.672 5.967-1.472 7.574-2.288 3.797-1.93 4.561-2.026 8.406-1.064m19.921.681c.861.698.876.788.261 1.666-.597.853-.598 1.017-.011 2.012 1.373 2.324-3.077 7.356-20.872 23.6-3.96 3.614-8.036 7.352-9.057 8.304-2.301 2.147-4.359 3.681-4.936 3.681-.24 0-1.06.533-1.822 1.184-.993.848-1.815 1.188-2.902 1.2-.835.009-4.36.736-7.835 1.616-3.474.88-6.546 1.6-6.827 1.6-.981 0-9.835 3.747-11.475 4.856-4.919 3.327-5.067 5.77-.346 5.69 4.573-.077 5-.155 5-.916 0-1.202.903-1.63 3.436-1.63 5.477 0 5.527 2.756.056 3.107-2.848.183-2.956.226-2.784 1.124.439 2.297-2.821 5.53-8.033 7.965-2.159 1.008-4.699 2.547-5.645 3.419-.946.872-2.078 1.585-2.515 1.585-.438 0-1.642.45-2.677 1-1.453.773-2.488 1.003-4.559 1.014-5.68.03-10.079 1.879-10.079 4.237 0 .729-3.591 3.736-4.767 3.992-3.673.797-2.299 1.379 2.976 1.26 7.487-.169 8.063 3.239 1.197 7.079-1.739.972-2.99 2.032-3.816 3.232-.676.982-1.453 1.786-1.728 1.786-.275 0-1.211.735-2.081 1.633-.869.897-3.209 2.855-5.198 4.349-9.763 7.333-13.663 9.125-21.783 10.01-4.527.493-6.035.976-8.194 2.624-1.232.941-2.241 1.384-3.15 1.384-2.108 0-3.832.763-4.095 1.813-.422 1.682-3.149 2.587-7.796 2.587-5.22 0-6.347.951-6.878 5.8-.085.782.105.796 8.347.646 8.403-.153 8.438-.15 9.3.776 4.631 4.97-13.877 17.922-31.934 22.349-4.916 1.205-5.598 1.949-5.599 6.115-.001 2.825-.413 3.112-4.475 3.119-2.495.004-3.398.217-6.126 1.446-7.439 3.349-12.6 4.04-12.6 1.686 0-2.405 2.656-4.365 7.753-5.719 3.782-1.005 4.406-1.653 2.447-2.545-1.134-.517-1.402-3.119-.486-4.725.992-1.74 5.868-6.959 13.269-14.205 4.189-4.101 8.877-8.925 10.417-10.72 1.54-1.794 5.05-5.178 7.8-7.519 5.37-4.571 6.581-5.662 14.682-13.23 2.9-2.709 6.498-5.836 7.995-6.948 3.084-2.291 8.553-7.021 10.269-8.883a298.18 298.18 0 013.968-4.143c1.551-1.595 2.656-2.898 2.453-2.895-.4.005-.193-.161-10.932 8.799-4.089 3.412-8.37 6.799-9.513 7.527-1.142.728-3.572 2.888-5.4 4.8-3.668 3.838-6.201 6.014-9.522 8.176-2.594 1.688-3.808 2.793-6.919 6.293-1.271 1.43-4.414 4.223-6.985 6.206-4.278 3.302-4.701 3.746-5 5.26-.261 1.321-.894 2.205-3.143 4.394-14.623 14.229-18.522 18.23-19.166 19.669-.657 1.468-4.697 4.471-6.014 4.471-.525 0-1.97 2.431-1.972 3.319 0 .395-1.402 2.105-3.115 3.8-1.713 1.694-4.818 4.971-6.9 7.281-4.407 4.891-11.139 11.6-11.638 11.6-.858 0-6.325 6.054-6.703 7.423-1.211 4.385-6.578 7.948-5.499 3.65.292-1.165 12.03-14.889 16.655-19.473.333-.33 2.643-2.794 5.134-5.476 2.491-2.682 4.894-4.932 5.34-5 .55-.084 1.039-.729 1.524-2.012.937-2.476 2.684-4.634 5.943-7.341 1.462-1.215 6.353-5.845 10.869-10.29 4.516-4.444 10.006-9.795 12.2-11.89 2.728-2.605 4.364-4.534 5.175-6.102.87-1.685 1.773-2.707 3.4-3.852 2.75-1.935 5.945-4.71 10.639-9.237 2.232-2.152 4.375-3.828 5.576-4.359 1.409-.624 3.458-2.384 7.395-6.352 5.021-5.06 14.59-13.21 32.306-27.516 10.071-8.132 10.33-8.332 14.698-11.365 2.2-1.528 5.705-4.334 7.789-6.236 5.06-4.619 7.211-6.276 15.114-11.642 23.746-16.124 25.297-17.089 25.297-15.737 0 .763-2.152 2.587-6.962 5.902a967.323 967.323 0 00-9.838 6.905c-2.97 2.115-6.84 4.811-8.6 5.99-4.772 3.197-8.656 6.136-14.006 10.6a732.07 732.07 0 01-6.547 5.41c-.958.77-1.945 1.584-2.194 1.809-.249.225-3.063 2.368-6.253 4.763-8.338 6.259-12.188 9.428-11.455 9.428.287 0 7.13-4.736 8.232-5.698a51.824 51.824 0 012.429-1.947 40.247 40.247 0 002.642-2.2c2.385-2.206 3.746-3.355 3.977-3.355.128 0 .469-.225.759-.5.877-.833 1.942-1.64 3.824-2.899.986-.659 1.882-1.293 1.992-1.407.779-.812 8.372-6.394 9.84-7.234 1-.572 2.93-2.138 4.289-3.48 1.869-1.846 2.888-2.533 4.181-2.82 1.733-.384 2.21-.716 10.49-7.281 8.115-6.434 10.067-7.772 17.2-11.786 9.237-5.198 10.844-6.251 12.146-7.958.779-1.021 1.406-1.435 2.174-1.436.594-.001 2.16-.656 3.48-1.456 12.101-7.336 23.825-13.343 26.042-13.343.848 0 .674-.474-.542-1.478l-1.1-.908 1-.798c1.393-1.112 6.284-1.162 7.622-.079m-221.188 7.55a184.71 184.71 0 005.754 3.706c6.82 4.173 24.266 21.156 28.736 27.974 4.372 6.671 4.561 7.503 2.331 10.297-1.558 1.951-15.232 15.254-16.307 15.864-2.485 1.411-8.251-3.068-15.354-11.928-1.411-1.76-2.662-3.29-2.78-3.4-.118-.11-1.089-1.242-2.158-2.515-3.368-4.012-16.477-15.421-20.135-17.524-6.212-3.572-5.11-8.091 4.456-18.259 6.607-7.024 9.944-7.933 15.457-4.215m162.36 4.901c.514.325.52.556.049 1.694-.301.725-.664 2.308-.808 3.518-.144 1.21-.591 2.695-.994 3.299-.565.849-.672 1.502-.467 2.865.338 2.258-.341 2.787-1.64 1.278-1.146-1.333-1.193-2.93-.17-5.856.421-1.202.892-3.05 1.049-4.106.393-2.661 1.48-3.641 2.981-2.692m-8.423 4.797c1.864.997 3.327 10.772 1.803 12.037-.345.286-.868.985-1.162 1.555-.294.569-1.947 1.911-3.674 2.981-6.311 3.915-7.598 4.807-10.738 7.444-4.862 4.084-15.372 11.871-17.4 12.892-.99.498-2.882 1.915-4.205 3.148-1.439 1.341-3.765 2.921-5.787 3.93-2.375 1.185-4.277 2.542-6.395 4.561-1.657 1.58-5.263 4.745-8.013 7.033-2.75 2.288-6.89 5.994-9.2 8.236-5.78 5.609-7.363 6.966-10.617 9.101-1.731 1.136-4.482 3.632-7.139 6.478-3.115 3.335-5.092 5.079-7.074 6.236-1.512.884-3.429 2.421-4.26 3.416-.83.995-3.22 3.312-5.31 5.15a735.613 735.613 0 00-5.6 4.97c-1.795 1.624-2.048 1.762-4.068 2.209-.777.173-1.14.564-1.331 1.433-.341 1.554-.587 1.668-2.061.954-4.36-2.112-5.247-5.638-2.272-9.037 2.805-3.205 3.19-4.042 2.607-5.655-.625-1.728-.601-2.855.073-3.414 1.078-.895 2.604-5.102 3.054-8.42.679-5.012.787-5.15 10.798-13.823 2.53-2.192 5.142-4.528 5.803-5.192 1.443-1.448 3.681-3.423 6.397-5.645 12.343-10.098 16.6-11.807 16.6-6.663 0 .957.259 2.241.576 2.854.658 1.271.464 1.819-1.701 4.806-.968 1.337-1.275 2.179-1.275 3.5 0 2.176.782 2.311 1.996.346.474-.766 1.883-2.245 3.133-3.286a130.355 130.355 0 004.671-4.14c1.32-1.237 3.123-2.703 4.006-3.26 2.136-1.345 2.469-1.8 3.023-4.136.26-1.091 1.35-3.784 2.422-5.984 1.073-2.2 2.388-5.35 2.922-7l.972-3 22.507-13.5c23.166-13.895 23.832-14.232 25.919-13.115m-148.598 1.245c-.716.791-.632.902 4.874 6.487 5.318 5.394 7.87 8.054 13.897 14.483 2.45 2.613 2.67 2.756 3.293 2.134 1.531-1.529-.911-4.646-12.409-15.84-8.554-8.328-8.636-8.39-9.655-7.264m-4.562 3.357c-.702.846-.962.528 8.227 10.06 4.641 4.814 9.535 9.923 10.876 11.353 2.36 2.517 2.457 2.574 3.049 1.8 1.313-1.718-.988-4.637-12.436-15.775-8.335-8.109-8.839-8.495-9.716-7.438m31.565 2.744c3.362 2.579 14.892 14.164 16.968 17.049 3.793 5.272 1.672 10.163-8.473 19.531-7.615 7.033-11.786 11.302-14.35 14.689-7.499 9.906-12.796 12.258-17.494 7.765-1.401-1.339-3.745-3.337-5.209-4.439-2.892-2.178-14.986-14.25-15.588-15.559-.281-.613-.17-1.005.464-1.639 1.244-1.244 2.441-.729 5.995 2.577 1.712 1.592 4.189 3.795 5.505 4.895 1.317 1.1 2.749 2.319 3.184 2.708 8.416 7.54 10.795 7.035 22.492-4.772 12.361-12.477 15.304-16.874 15.325-22.893.008-2.256-4.012-8.248-9.422-14.043-4.564-4.889-4.969-5.401-4.971-6.28-.005-2.215 2.38-2.039 5.574.411m-36.379 1.472l-.89.89 4.177 4.254a1095.606 1095.606 0 0115.019 15.639c2.454 2.611 2.888 2.919 3.452 2.451 1.905-1.581-1.396-5.486-18.419-21.781l-2.448-2.344-.891.891m-21.049 5.086c1.348.819 2.88 1.997 3.402 2.618.523.62 1.603 1.464 2.4 1.875 1.509.778 3.14 2.382 4.97 4.887.59.807 2.066 2.036 3.28 2.731 1.214.695 2.696 1.924 3.294 2.731 3.352 4.528 6.028 7.458 8.09 8.858 1.278.868 2.962 2.441 3.742 3.495.78 1.054 2.444 2.906 3.699 4.116 7.014 6.763 5.814 10.826-1.801 6.097-9.2-5.714-12.792-9.549-12.828-13.697-.03-3.342-3.63-5.824-7.845-5.407-2.747.271-6.182-3.101-13.036-12.793-4.026-5.693-2.596-8.686 2.633-5.511m15.863-.502c-.704.848-.987.504 8.618 10.461 4.857 5.033 9.645 10.037 10.641 11.118 1.836 1.992 2.846 2.24 3.386.832.436-1.137-1.938-3.917-11.531-13.498-9.464-9.453-10.186-10.032-11.114-8.913M279.4 158.542c1.195.359 1.634.717 1.734 1.415.203 1.421-.509 1.882-1.699 1.102-.781-.511-2.065-.668-5.721-.699-5.131-.043-6.655-.295-6.201-1.023.773-1.24 8.65-1.767 11.887-.795m-7.004 2.853c1.483 1.787.284 2.522-4.495 2.759-2.476.122-5.217.273-6.092.334-3.025.213-2.071-2.221 1.217-3.104 2.836-.761 8.735-.754 9.37.011M201.8 162.4c.321 1.011-.059 2.225-1.243 3.973-.799 1.179-.896 1.692-.692 3.648.211 2.014.133 2.381-.678 3.192l-.916.916-.735-.909c-1.136-1.403-1.006-5.311.266-7.947 1.62-3.359 3.431-4.66 3.998-2.873m-7.821 3.562c.906 1.693-2.705 12.038-4.202 12.038-1.262 0-1.186-2.12.21-5.8a58.693 58.693 0 001.389-4.271c.407-1.469.876-2.336 1.327-2.454.383-.1.736-.203.783-.229.047-.025.269.297.493.716m50.745 21.111c.225 1.576-3.634 1.894-11.424.939-.055-.006-.1-.186-.1-.399 0-1.788 11.271-2.316 11.524-.54m-4.157 4.534c1.336 1.336-.546 2.51-3.647 2.276-3.672-.278-5.406-1.403-3.92-2.543.88-.674 6.836-.464 7.567.267m-97.52 19.371c.122.318-.308 1.353-.955 2.3-.922 1.348-1.223 2.309-1.389 4.426-.217 2.774-.775 3.997-1.668 3.654-.653-.251-1.321.571-1.497 1.842-.095.687-.388 1-.938 1-.748 0-.807-.304-.913-4.703-.132-5.498.186-6.502 1.945-6.151 1.005.201 1.246.061 1.819-1.057.983-1.919 3.071-2.68 3.596-1.311m-9.111 8.841c.255.56.464 1.361.464 1.78 0 4.142 4.502 12.801 6.656 12.801 4.099 0 1.467 3.503-15.552 20.7-10.448 10.557-10.051 10.287-13.57 9.233-1.958-.587-2.283-.283-2.604 2.427-.251 2.12-3.348 7.979-4.403 8.331-3.153 1.051-2.057-11.474 1.297-14.828l2.176-2.176v-3.025c0-3.977.411-4.803 2.737-5.502L113 249l.077-3.8c.06-2.942-.014-3.556-.327-2.718-.43 1.151-1.785 1.843-2.402 1.226-.36-.36.517-5.107 1.041-5.631.133-.132.776-.039 1.429.207 1.176.444 1.192.432 1.63-1.31.552-2.193 3.664-6.025 9.678-11.918 6.457-6.329 8.754-7.555 9.81-5.237m59.864 7.257c3.111.259 4.2.66 4.2 1.547 0 1.548-5.468 1.676-9.3.216-2.129-.811-1.236-2.599 1.1-2.201.66.112 2.46.309 4 .438m-3.415 4.896c1.01 1.887-1.9 2.664-8.338 2.229-4.375-.295-5.647-.645-5.647-1.554 0-1.596 13.152-2.231 13.985-.675m-17.361 1.805c1.113.827.309 1.987-1.485 2.142-1.742.151-3.162-1.128-2.345-2.111.638-.769 2.812-.787 3.83-.031m-64.303 10.213c.207 4.395-1.566 7.599-2.695 4.873-.517-1.249.093-6.189.886-7.18.985-1.23 1.685-.337 1.809 2.307m20.788 19.413c.186 2.051-3.913 4.074-4.501 2.222-.326-1.026.496-2.275 1.985-3.016 1.683-.838 2.388-.616 2.516.794m-9.175 9.549c.453 2.354-3.738 6.409-5.596 5.415-1.234-.661-.849-1.572 1.708-4.043 2.452-2.369 3.617-2.78 3.888-1.372m51.914 13.705c-.414.567-1.359 1.389-2.1 1.827-1.038.612-1.348 1.062-1.348 1.956 0 1.367.543 1.457 2.2.363l1.2-.793.2 5.295.2 5.295 1.3.125 1.3.126V285.6l-1.1.013c-.712.008-1.365.376-1.852 1.044m9.439-.433c-4.53 3.173-.88 11.541 3.915 8.975 1.008-.54 1.284.034.751 1.563-.674 1.935-3.553 2.602-3.553.824 0-.662-2.404-.441-2.667.245-.365.951 1.149 2.688 2.69 3.087 4.732 1.226 7.675-3.533 6.604-10.677-.574-3.828-4.846-6.044-7.74-4.017m10.072-.06c-.633 1.647-.07 2.031 3.155 2.153l3.106.117-1.411 2.523c-1.419 2.537-3.192 8.389-2.829 9.336.497 1.295 2.575.565 2.822-.993.671-4.215 1.663-6.776 3.879-10.011 2.115-3.087 1.712-3.47-3.789-3.602-3.851-.092-4.748-.005-4.933.477m12 0c-.631 1.643-.067 2.032 3.12 2.152l3.07.117-1.558 2.889c-1.55 2.872-3.025 7.892-2.625 8.933.566 1.475 2.517.603 2.77-1.238.4-2.92 1.833-6.662 3.518-9.19 2.497-3.745 2.286-4.004-3.362-4.14-3.851-.092-4.748-.005-4.933.477m-17.507 3.774c.517 2.753-1.82 4.786-3.213 2.796-.887-1.266-.811-3.362.155-4.328 1.158-1.158 2.698-.387 3.058 1.532m-82.928 34.467c-1.24.819-1.975 2.289-2.8 5.595-.312 1.251-.508 1.413-1.835 1.524-1.54.129-1.753.437-1.991 2.876-.084.86.084 1.018 1.202 1.125 1.56.151 1.55-.062.285 5.894-1.866 8.791-2.05 9.782-1.85 9.982.291.292 5.265.243 5.265-.051 0-.262 1.572-7.976 2.598-12.75.331-1.54.602-2.845.602-2.9 0-.055.799-.1 1.776-.1 2.022 0 2.098-.072 2.461-2.338.262-1.644.252-1.662-.953-1.662-2.08 0-2.456-.303-2.065-1.668.6-2.09 1.128-2.442 3.245-2.161l1.899.252.448-1.663c.602-2.236.271-2.473-3.702-2.651-2.849-.127-3.487-.03-4.585.696m17.695 1.656c-1.991 2.736-1.992 3.139-.003 3.139 1.113 0 1.873-.456 4.076-2.446 3.464-3.129 3.467-3.154.346-3.154h-2.629l-1.79 2.461m29.499-1.561c-.209.275-.681 2.03-1.049 3.9-.367 1.87-1.008 5.02-1.423 7-2.623 12.496-3.246 15.537-3.246 15.85 0 1.144 4.823.334 5.06-.85.284-1.421.559-1.484 1.577-.359 3.508 3.877 10.612 2.097 13.256-3.322 4.652-9.531-.827-18.732-8.748-14.691-2.014 1.028-2.176.871-1.572-1.517.266-1.051.672-2.67.903-3.597.626-2.512.321-2.914-2.214-2.914-1.262 0-2.323.208-2.544.5m47.12.4c-.188.495-.921 3.69-1.629 7.1-.708 3.41-1.9 9.08-2.648 12.6-.749 3.52-1.361 6.543-1.361 6.718 0 .175 1.21.265 2.69.2l2.69-.118.666-3.2c.367-1.76 1.232-5.9 1.923-9.2.691-3.3 1.612-7.774 2.046-9.942.435-2.169.878-4.085.985-4.258.303-.49-.875-.8-3.043-.8-1.682 0-2.028.134-2.319.9m64.364 0c-.347.823-5.602 25.535-5.602 26.348 0 .194 1.163.352 2.585.352h2.584l.359-1.5c.625-2.612 1.208-5.331 2.466-11.5.673-3.3 1.39-6.72 1.594-7.6 1.643-7.085 1.66-7-1.384-7-1.924 0-2.272.12-2.602.9m-121.843 1.821c-1.97 1.193-2.549 1.788-3 3.079-.425 1.216-.799 1.631-1.559 1.728-2.298.295-2.924 3.787-.757 4.221.98.196 1.186.397.973.95-.149.385-.435 1.511-.636 2.501s-.638 3.06-.972 4.6c-1.394 6.421.732 9.36 6.049 8.363 2.267-.425 3.2-4.157 1.043-4.169-2.317-.013-2.384-.288-1.337-5.476 1.362-6.748 1.438-6.918 3.086-6.918 1.469 0 2.151-.96 2.151-3.026 0-.811-.197-.974-1.176-.974-1.624 0-1.739-.379-1.037-3.407.337-1.454.613-2.721.613-2.818 0-.475-1.232.007-3.441 1.346m36.441 4.968c-7.7 2.73-10.148 14.663-3.862 18.823 8.338 5.517 19.269-2.88 16.854-12.947-1.183-4.929-7.546-7.807-12.992-5.876m43.896.045c-3.553 1.288-5.455 4.424-4.538 7.484.574 1.917 1.621 2.649 6.354 4.442 3.657 1.386 3.869 1.563 3.526 2.932-.567 2.257-4.906 2.268-7.104.019-1.316-1.347-1.361-1.359-3.334-.946-2.571.539-2.686.674-1.919 2.258 3.088 6.375 16.691 5.363 17.948-1.335.709-3.784-.767-5.476-6.43-7.366-3.32-1.109-4.178-1.649-4.193-2.642-.025-1.7 4.577-1.971 6.467-.38 1.147.965 2.736 1.085 5.027.379 1.499-.462-.329-3.328-2.889-4.532-2.053-.965-6.671-1.127-8.915-.313m21.104.249c-1.965 1.05-4.105 3.376-3.933 4.275.266 1.398 4.206 1.44 5.617.06 1.919-1.876 5.116-1.347 5.116.847 0 1.573-.563 1.891-3.913 2.209-7.423.705-10.628 3.645-9.31 8.539 1.093 4.062 6.831 5.698 9.893 2.821.904-.849 1.73-.71 1.73.29 0 .444.61.576 2.652.576h2.653l-.23-1.415c-.22-1.357.03-3.007 1.511-9.957 1.006-4.72.168-7.219-2.84-8.476-1.983-.829-7.216-.693-8.946.231m33-.294c-2.377.842-5.638 4.207-4.845 4.999.871.872 4.688.578 5.704-.438 2.38-2.38 6.821-.32 4.841 2.245-.345.447-1.676.785-4.3 1.093-4.679.549-6.755 1.483-7.926 3.566-3.305 5.881 3.719 11.813 9.035 7.632 1.26-.991 1.545-.986 1.812.034.191.731.478.807 2.659.7l2.444-.12.157-3.2c.086-1.76.528-4.64.982-6.4 1.503-5.832.78-8.577-2.636-10.005-1.635-.683-6.13-.743-7.927-.106m-161.989.411c-1.002 3.057-3.046 14.046-2.903 15.604.395 4.297 5.148 5.904 9.113 3.081 1.365-.972 2.051-1.003 1.897-.085-.1.595.259.718 2.382.819 1.375.066 2.504-.024 2.509-.2.005-.175.981-4.549 2.17-9.719 2.406-10.464 2.437-10.09-.82-9.922l-2.358.122-.957 4.4c-1.872 8.615-3.141 11.197-5.888 11.978-2.604.741-2.986-1.536-1.404-8.378.652-2.822 1.25-5.564 1.505-6.9l.248-1.3h-2.665c-1.778 0-2.72.166-2.829.5m47.267 4.066c1.504 1.296 1.621 5.825.218 8.496-2.973 5.66-8.571 3.945-7.969-2.44.533-5.648 4.565-8.799 7.751-6.056m22.248-.519c4.246 2.171 2.165 11.258-2.792 12.191-3.159.595-5.347-2.332-4.584-6.132.976-4.857 4.334-7.615 7.376-6.059m64.951 8.157c-.611 3.765-5.531 5.882-6.649 2.861-.778-2.104 1.702-3.755 6.324-4.211.414-.04.495.299.325 1.35m32.523-.791c0 3.373-4.543 6.386-6.571 4.358-1.634-1.633-.272-3.585 3.064-4.393 2.856-.691 3.507-.685 3.507.035" fill="#0b7e56"/><path d="M154.2 15.448c-4.558.288-15.061 1.633-19.8 2.535l-4 .764c-47.272 9.052-80.796 39.141-86.381 77.53-.698 4.797-.558 210.122.146 214.723 3.804 24.846 18.614 43.941 44.335 57.162 16.594 8.53 34.618 13.3 60.1 15.906 7.342.751 95.666.77 103 .022 61.385-6.258 97.007-31.114 104.464-72.89.796-4.457.794-211.564-.002-216-1.242-6.924-3.224-14.031-5.132-18.4-14.149-32.403-46.97-53.428-94.13-60.299l-7-1.02-46.8-.079c-25.74-.044-47.7-.023-48.8.046M131.737 33.8c-.065.831-.565 3.485-1.431 7.6l-.506 2.4-5.581.112c-6.749.135-6.609.175-6.212-1.781.171-.842.634-3.151 1.03-5.131.893-4.464.466-4.219 7.163-4.1 5.324.095 5.597.139 5.537.9m76.877 9.108c-.778 3.69-1.414 6.795-1.414 6.9 0 .106 1.519.192 3.376.192 4.087 0 3.996-.127 3.061 4.256-1.127 5.288-.804 4.944-4.631 4.944-3.951 0-3.853-.095-4.779 4.6-.39 1.98-.85 4.23-1.021 5-.171.77-.792 3.74-1.38 6.6-.587 2.86-1.251 5.897-1.476 6.748-.844 3.209.911 4.8 5.082 4.607 2.839-.132 2.864-.077 1.947 4.29-1.041 4.959-.729 4.755-7.259 4.755-6.303 0-8.357-.662-10.558-3.402-2.653-3.304-2.587-4.504 1.213-21.998 2.65-12.196 2.699-11.2-.556-11.2-3.079 0-3.086-.012-2.214-4.459.977-4.985.726-4.688 4.069-4.823l2.913-.118.552-2.6c1.015-4.78.764-4.553 12.412-11.266 2.418-1.393 2.421-1.363.663 6.974m-36.478 6.948c3.685 1.282 6.421 4.862 6.892 9.018.266 2.353-.008 4.278-1.784 12.526-.663 3.08-2.024 9.45-3.023 14.156-2.24 10.553-1.461 9.644-8.27 9.644H160.4v-1.015c0-.868.972-5.732 2.414-12.085A389.456 389.456 0 00164.8 73c.458-2.2 1.034-4.784 1.28-5.743 2.123-8.263-2.102-11.834-9.408-7.952-6.096 3.238-6.883 5.149-11.91 28.895-1.62 7.654-.938 7.044-7.72 6.911-6.554-.129-6.032.508-4.679-5.711.478-2.2 1.241-5.8 1.694-8 .453-2.2 1.145-5.53 1.537-7.4l1.973-9.4c.693-3.3 1.659-7.89 2.146-10.2l.887-4.2 5.7-.111c6.408-.125 5.99-.37 5.317 3.111-.437 2.265-.342 2.343 1.314 1.079 6.229-4.751 13.47-6.418 19.205-4.423m73.878.18c5.38 1.766 8.904 5.455 10.857 11.364.918 2.777.73 13.718-.247 14.432-.638.466-3.417.568-15.5.568H226.4v1.654c0 9.142 9.744 12.553 16.268 5.696l2.468-2.595 2.532.471c8.363 1.552 8.135 1.365 5.814 4.754-9.997 14.601-32.205 12.466-37.742-3.628-6.507-18.916 11.857-38.762 30.274-32.716m51.399-.256c1.712.715 1.762.349-.757 5.613l-2.102 4.392-3.177.019c-8.902.051-12.296 5.215-16.573 25.221-1.126 5.266-2.187 9.715-2.357 9.887-.171.171-2.816.261-5.879.2L261 95l.041-1.2c.023-.66.423-3 .889-5.2l2.073-9.8c.673-3.19 1.379-6.52 1.568-7.4.378-1.764 2.54-12.175 3.572-17.2.918-4.469.489-4.2 6.681-4.2 6.125 0 5.756-.294 4.768 3.8-.85 3.521-.789 4.278.241 3 5.345-6.626 11.394-9.187 16.58-7.02m-169.263.539c.108.175-.521 3.73-1.398 7.9-3.813 18.131-6.12 29.204-7.141 34.274-.533 2.647-.686 2.707-6.86 2.707-5.377 0-5.551-.026-5.551-.842 0-.757 1.636-8.794 5.203-25.558 1.151-5.413 2.393-11.38 3.245-15.6.701-3.473.142-3.2 6.555-3.2 3.163 0 5.838.143 5.947.319m107.847 7.655c-3.837 1.167-7.057 4.981-8.217 9.733l-.27 1.108 9.545-.108 9.545-.107-.057-1.8c-.207-6.559-4.95-10.528-10.546-8.826M339.41 101.7c-.156.495-.529 1.763-.829 2.818-1.354 4.764-7.902 13.133-13.246 16.931-1.992 1.416-4.912 4.088-12.135 11.105a635.965 635.965 0 01-10.18 9.646c-2.629 2.42-5.869 5.408-7.2 6.641-15.959 14.776-15.981 14.794-19.42 16.551-1.87.956-4.323 2.518-5.45 3.473a166.576 166.576 0 01-4.9 3.926c-1.568 1.206-2.85 2.306-2.85 2.446 0 .722-2.549 2.609-5.774 4.274-4.293 2.217-6.252 3.881-7.37 6.26-.667 1.418-2.804 3.402-11.339 10.522-18.133 15.13-24.371 19.875-32.368 24.621-5.377 3.19-6.26 6.418-2.634 9.62.707.624 2.095 1.886 3.085 2.805.99.918 4.05 3.727 6.8 6.242 2.75 2.514 6.89 6.303 9.2 8.42l9.4 8.61a762.194 762.194 0 018.991 8.375c2.084 1.988 5.504 5.24 7.6 7.227 2.095 1.988 5.339 5.08 7.209 6.871 1.87 1.792 4.154 3.856 5.075 4.587.921.731 2.292 2.139 3.047 3.129.754.99 2.521 2.786 3.925 3.99 11.789 10.112 17.19 17.61 14.571 20.228-3.649 3.65-10.314-.972-30.018-20.815-12.948-13.04-18.828-18.593-28.353-26.777-2.886-2.479-9.891-8.989-15.568-14.467-10.85-10.47-12.776-12.13-14.079-12.137-2.122-.012-7.34 3.451-10.923 7.25-2.991 3.172-8.679 7.803-10.659 8.679-1 .442-1.818.984-1.818 1.205 0 .571-6.118 5.272-9.2 7.069-1.43.834-3.23 2.013-4 2.62-2.627 2.071-15.113 7.965-20.4 9.63a842.06 842.06 0 00-9.6 3.115c-3.19 1.055-7.78 2.412-10.2 3.015-5.696 1.419-7.218 2.162-9.621 4.695-1.088 1.148-5.309 5.421-9.379 9.495-4.07 4.075-8.57 8.84-10 10.589-3.819 4.672-4.612 5.416-5.769 5.416-1.569 0-1.494-3.59.143-6.811.646-1.271 1.365-3.003 1.597-3.85.627-2.279 3.934-6.413 9.491-11.864l4.938-4.843v-2.569c0-2.48.586-5.39 1.27-6.304.79-1.055.856-5.371.116-7.547-.721-2.12-.718-2.207.141-5.779.641-2.662.874-4.876.875-8.329.003-5.24.45-7.49 1.614-8.113.43-.23 1.162-1.177 1.627-2.104 1.424-2.838 5.097-7.445 7.079-8.877 1.033-.747 2.132-1.775 2.442-2.284 2.51-4.122 10.213-12.468 15.276-16.551 6.396-5.158 14.954-12.469 15.96-13.634l2.3-2.664c1.861-2.155 1.467-3.232-2.056-5.622-3.169-2.149-3.225-2.11-15.644 11.012-9.488 10.024-13.173 9.383-29.013-5.051a353.857 353.857 0 00-3.806-3.416c-16.327-14.337-17.949-17.093-14.541-24.696 1.078-2.406 1.095-2.362-2.473-6.529-15.316-17.887-15.796-20.99-5.01-32.427 1.736-1.842 4.394-4.998 5.907-7.014 6.881-9.174 13.303-12.14 20.741-9.577.829.286 5.181 3.526 9.776 7.279 12.436 10.157 11.28 9.666 14.159 6.003 4.412-5.615 9.652-3.648 21.626 8.118 4.734 4.652 7.664 7.243 11.065 9.787 9.711 7.264 10.589 14.095 3.021 23.491-10.381 12.889-10.407 12.956-6.597 17.173 3.629 4.017 5.034 3.881 11.085-1.078 24.164-19.8 34.094-27.117 43.46-32.022 2.09-1.094 4.43-2.353 5.2-2.797 13.798-7.951 17.888-10.33 29.8-17.327 18.271-10.732 32.071-17.631 37.496-18.747 2.143-.44 5.563-1.424 7.6-2.186 6.6-2.469 17.685-4.634 29.904-5.84 2.53-.25 5.14-.619 5.8-.821.66-.201 2.64-.53 4.4-.731 2.702-.307 3.604-.617 5.8-1.988 3.038-1.897 4.241-2.141 3.81-.771m-9.388 6.817c-2.581 1.55-3.19 2.358-2.45 3.249.904 1.09 2.405.752 4.075-.919 2.798-2.798 1.722-4.342-1.625-2.33m-12.361-.487c-2.086.41-3.959 1.453-4.744 2.64-.899 1.361.456 1.916 2.726 1.115.942-.333 3.344-.715 5.335-.85 3.929-.265 4.622-.556 4.622-1.937 0-1.395-3.562-1.829-7.939-.968m-18.279 3.154c-.67.155-2.329.846-3.687 1.536-1.607.816-4.252 1.616-7.574 2.288-12.536 2.538-16.945 5.267-17.907 11.08-.135.819-.684 2.009-1.219 2.645-2.665 3.167-1.672 7.566 1.505 6.666 1.808-.513 7.56-3.634 9.01-4.889.819-.71 3.221-2.025 5.337-2.922 2.116-.897 5.481-2.698 7.477-4.003 1.997-1.304 5.244-3.066 7.216-3.917 5.614-2.42 7.953-4.751 6.695-6.671-.851-1.299-4.688-2.314-6.853-1.813m17.018 1.232l-1 .798 1.1.908c1.216 1.004 1.39 1.478.542 1.478-2.217 0-13.941 6.007-26.042 13.343-1.32.8-2.886 1.455-3.48 1.456-.768.001-1.395.415-2.174 1.436-1.302 1.707-2.909 2.76-12.146 7.958-7.133 4.014-9.085 5.352-17.2 11.786-8.28 6.565-8.757 6.897-10.49 7.281-1.293.287-2.312.974-4.181 2.82-1.359 1.342-3.289 2.908-4.289 3.48-1.468.84-9.061 6.422-9.84 7.234-.11.114-1.006.748-1.992 1.407-1.882 1.259-2.947 2.066-3.824 2.899-.29.275-.631.5-.759.5-.231 0-1.592 1.149-3.977 3.355a40.247 40.247 0 01-2.642 2.2 51.824 51.824 0 00-2.429 1.947c-1.102.962-7.945 5.698-8.232 5.698-.733 0 3.117-3.169 11.455-9.428 3.19-2.395 6.004-4.538 6.253-4.763.249-.225 1.236-1.039 2.194-1.809a732.07 732.07 0 006.547-5.41c5.35-4.464 9.234-7.403 14.006-10.6 1.76-1.179 5.63-3.875 8.6-5.99a967.323 967.323 0 019.838-6.905c4.81-3.315 6.962-5.139 6.962-5.902 0-1.352-1.551-.387-25.297 15.737-7.903 5.366-10.054 7.023-15.114 11.642-2.084 1.902-5.589 4.708-7.789 6.236-4.368 3.033-4.627 3.233-14.698 11.365-17.716 14.306-27.285 22.456-32.306 27.516-3.937 3.968-5.986 5.728-7.395 6.352-1.201.531-3.344 2.207-5.576 4.359-4.694 4.527-7.889 7.302-10.639 9.237-1.627 1.145-2.53 2.167-3.4 3.852-.811 1.568-2.447 3.497-5.175 6.102-2.194 2.095-7.684 7.446-12.2 11.89-4.516 4.445-9.407 9.075-10.869 10.29-3.259 2.707-5.006 4.865-5.943 7.341-.485 1.283-.974 1.928-1.524 2.012-.446.068-2.849 2.318-5.34 5-2.491 2.682-4.801 5.146-5.134 5.476-4.625 4.584-16.363 18.308-16.655 19.473-1.079 4.298 4.288.735 5.499-3.65.378-1.369 5.845-7.423 6.703-7.423.499 0 7.231-6.709 11.638-11.6 2.082-2.31 5.187-5.587 6.9-7.281 1.713-1.695 3.115-3.405 3.115-3.8.002-.888 1.447-3.319 1.972-3.319 1.317 0 5.357-3.003 6.014-4.471.644-1.439 4.543-5.44 19.166-19.669 2.249-2.189 2.882-3.073 3.143-4.394.299-1.514.722-1.958 5-5.26 2.571-1.983 5.714-4.776 6.985-6.206 3.111-3.5 4.325-4.605 6.919-6.293 3.321-2.162 5.854-4.338 9.522-8.176 1.828-1.912 4.258-4.072 5.4-4.8 1.143-.728 5.424-4.115 9.513-7.527 10.739-8.96 10.532-8.794 10.932-8.799.203-.003-.902 1.3-2.453 2.895a298.18 298.18 0 00-3.968 4.143c-1.716 1.862-7.185 6.592-10.269 8.883-1.497 1.112-5.095 4.239-7.995 6.948-8.101 7.568-9.312 8.659-14.682 13.23-2.75 2.341-6.26 5.725-7.8 7.519-1.54 1.795-6.228 6.619-10.417 10.72-7.401 7.246-12.277 12.465-13.269 14.205-.916 1.606-.648 4.208.486 4.725 1.959.892 1.335 1.54-2.447 2.545-5.097 1.354-7.753 3.314-7.753 5.719 0 2.354 5.161 1.663 12.6-1.686 2.728-1.229 3.631-1.442 6.126-1.446 4.062-.007 4.474-.294 4.475-3.119.001-4.166.683-4.91 5.599-6.115 15.321-3.756 32.8-14.667 32.8-20.476 0-2.589-.878-2.818-10.166-2.649-8.242.15-8.432.136-8.347-.646.531-4.849 1.658-5.8 6.878-5.8 4.647 0 7.374-.905 7.796-2.587.263-1.05 1.987-1.813 4.095-1.813.909 0 1.918-.443 3.15-1.384 2.159-1.648 3.667-2.131 8.194-2.624 8.12-.885 12.02-2.677 21.783-10.01 1.989-1.494 4.329-3.452 5.198-4.349.87-.898 1.806-1.633 2.081-1.633.275 0 1.052-.804 1.728-1.786.826-1.2 2.077-2.26 3.816-3.232 6.866-3.84 6.29-7.248-1.197-7.079-5.275.119-6.649-.463-2.976-1.26 1.176-.256 4.767-3.263 4.767-3.992 0-2.358 4.399-4.207 10.079-4.237 2.071-.011 3.106-.241 4.559-1.014 1.035-.55 2.239-1 2.677-1 .437 0 1.569-.713 2.515-1.585.946-.872 3.486-2.411 5.645-3.419 5.212-2.435 8.472-5.668 8.033-7.965-.172-.898-.064-.941 2.784-1.124 5.471-.351 5.421-3.107-.056-3.107-2.533 0-3.436.428-3.436 1.63 0 .761-.427.839-5 .916-4.721.08-4.573-2.363.346-5.69 1.64-1.109 10.494-4.856 11.475-4.856.281 0 3.353-.72 6.827-1.6 3.475-.88 7-1.607 7.835-1.616 1.087-.012 1.909-.352 2.902-1.2.762-.651 1.582-1.184 1.822-1.184.577 0 2.635-1.534 4.936-3.681 1.021-.952 5.097-4.69 9.057-8.304 17.795-16.244 22.245-21.276 20.872-23.6-.587-.995-.586-1.159.011-2.012 1.54-2.199-5.372-3.591-7.883-1.587m-221.321 5.74c-3.639 1.349-8.766 6.352-13.474 13.149-4.098 5.915-3.838 8.092 1.316 11.056 3.658 2.103 16.767 13.512 20.135 17.524 1.069 1.273 2.04 2.405 2.158 2.515.118.11 1.369 1.64 2.78 3.4 7.103 8.86 12.869 13.339 15.354 11.928 1.075-.61 14.749-13.913 16.307-15.864 2.23-2.794 2.041-3.626-2.331-10.297-4.47-6.818-21.916-23.801-28.736-27.974a184.71 184.71 0 01-5.754-3.706c-3.314-2.235-5.236-2.664-7.755-1.731m167.998 6.824c-.319.319-.708 1.444-.864 2.5-.157 1.056-.628 2.904-1.049 4.106-1.023 2.926-.976 4.523.17 5.856 1.299 1.509 1.978.98 1.64-1.278-.205-1.363-.098-2.016.467-2.865.403-.604.85-2.089.994-3.299.144-1.21.507-2.793.808-3.518.757-1.828-.776-2.891-2.166-1.502m-32.225 17.72l-22.507 13.5-.972 3c-.534 1.65-1.849 4.8-2.922 7-1.072 2.2-2.162 4.893-2.422 5.984-.554 2.336-.887 2.791-3.023 4.136-.883.557-2.686 2.023-4.006 3.26-1.32 1.236-3.422 3.1-4.671 4.14-1.25 1.041-2.659 2.52-3.133 3.286-1.214 1.965-1.996 1.83-1.996-.346 0-1.321.307-2.163 1.275-3.5 2.165-2.987 2.359-3.535 1.701-4.806-.317-.613-.576-1.897-.576-2.854 0-5.144-4.257-3.435-16.6 6.663-2.716 2.222-4.954 4.197-6.397 5.645-.661.664-3.273 3-5.803 5.192-10.011 8.673-10.119 8.811-10.798 13.823-.45 3.318-1.976 7.525-3.054 8.42-.674.559-.698 1.686-.073 3.414.583 1.613.198 2.45-2.607 5.655-2.975 3.399-2.088 6.925 2.272 9.037 1.474.714 1.72.6 2.061-.954.191-.869.554-1.26 1.331-1.433 2.02-.447 2.273-.585 4.068-2.209.99-.895 3.51-3.132 5.6-4.97 2.09-1.838 4.48-4.155 5.31-5.15.831-.995 2.748-2.532 4.26-3.416 1.982-1.157 3.959-2.901 7.074-6.236 2.657-2.846 5.408-5.342 7.139-6.478 3.254-2.135 4.837-3.492 10.617-9.101 2.31-2.242 6.45-5.948 9.2-8.236 2.75-2.288 6.356-5.453 8.013-7.033 2.118-2.019 4.02-3.376 6.395-4.561 2.022-1.009 4.348-2.589 5.787-3.93 1.323-1.233 3.215-2.65 4.205-3.148 2.028-1.021 12.538-8.808 17.4-12.892 3.14-2.637 4.427-3.529 10.738-7.444 1.727-1.07 3.38-2.412 3.674-2.981.294-.57.817-1.269 1.162-1.555 1.524-1.265.061-11.04-1.803-12.037-2.087-1.117-2.753-.78-25.919 13.115m-113.024-4.606c11.498 11.194 13.94 14.311 12.409 15.84-.623.622-.843.479-3.293-2.134-6.027-6.429-8.579-9.089-13.897-14.483-5.506-5.585-5.59-5.696-4.874-6.487 1.019-1.126 1.101-1.064 9.655 7.264m-4.501 3.531c11.448 11.138 13.749 14.057 12.436 15.775-.592.774-.689.717-3.049-1.8-1.341-1.43-6.235-6.539-10.876-11.353-9.189-9.532-8.929-9.214-8.227-10.06.877-1.057 1.381-.671 9.716 7.438m16.973-6.403c-.385.23-.699.814-.698 1.298.002.879.407 1.391 4.971 6.28 5.41 5.795 9.43 11.787 9.422 14.043-.021 6.019-2.964 10.416-15.325 22.893-11.697 11.807-14.076 12.312-22.492 4.772a187.254 187.254 0 00-3.184-2.708c-1.316-1.1-3.793-3.303-5.505-4.895-3.554-3.306-4.751-3.821-5.995-2.577-.634.634-.745 1.026-.464 1.639.602 1.309 12.696 13.381 15.588 15.559 1.464 1.102 3.808 3.1 5.209 4.439 4.698 4.493 9.995 2.141 17.494-7.765 2.564-3.387 6.735-7.656 14.35-14.689 7.04-6.501 10.329-11.283 10.329-15.018 0-2.709-2.114-5.511-10.181-13.493-9.028-8.934-11.697-10.864-13.519-9.778M110.526 148c9.212 8.993 11.643 12.298 10.029 13.637-.564.468-.998.16-3.452-2.451a1095.606 1095.606 0 00-15.019-15.639l-4.177-4.254.89-.89.891-.891 2.448 2.344c1.347 1.289 5.122 4.954 8.39 8.144m-37.408-4.98c-.898 1.971.341 4.158 7.191 12.686 4.875 6.07 5.229 6.345 7.842 6.087 4.215-.417 7.815 2.065 7.845 5.407.036 4.148 3.628 7.983 12.828 13.697 7.615 4.729 8.815.666 1.801-6.097-1.255-1.21-2.919-3.062-3.699-4.116-.78-1.054-2.464-2.627-3.742-3.495-2.062-1.4-4.738-4.33-8.09-8.858-.598-.807-2.08-2.036-3.294-2.731-1.214-.695-2.69-1.924-3.28-2.731-1.83-2.505-3.461-4.109-4.97-4.887-.797-.411-1.877-1.255-2.4-1.875-2.586-3.071-7.227-4.855-8.032-3.087m31.607 8.88c9.593 9.581 11.967 12.361 11.531 13.498-.54 1.408-1.55 1.16-3.386-.832-.996-1.081-5.784-6.085-10.641-11.118-9.605-9.957-9.322-9.613-8.618-10.461.928-1.119 1.65-.54 11.114 8.913m164.476 6.573c-3.775 1.082-1.981 1.832 4.513 1.887 3.656.031 4.94.188 5.721.699 1.19.78 1.902.319 1.699-1.102-.242-1.691-7.891-2.642-11.933-1.484m-6.175 2.911c-3.288.883-4.242 3.317-1.217 3.104.875-.061 3.616-.212 6.092-.334 4.779-.237 5.978-.972 4.495-2.759-.635-.765-6.534-.772-9.37-.011m-63.424 1.014c-2.543 2.543-3.731 8.766-2.066 10.822l.735.909.916-.916c.811-.811.889-1.178.678-3.192-.204-1.956-.107-2.469.692-3.648 2.211-3.264 1.46-6.39-.955-3.975m-6.899 3.077c-.451.118-.92.985-1.327 2.454a58.693 58.693 0 01-1.389 4.271c-2.352 6.201-.801 8.123 1.942 2.406 2.109-4.395 3.071-10.177 1.557-9.36-.047.026-.4.129-.783.229m41.597 21.147c-.881.484-1.49 1.33-1 1.39 7.79.955 11.649.637 11.424-.939-.163-1.145-8.501-1.506-10.424-.451m-1.3 4.718c-1.486 1.14.248 2.265 3.92 2.543 3.101.234 4.983-.94 3.647-2.276-.731-.731-6.687-.941-7.567-.267m-92.444 19.366c-.244.162-.742.874-1.105 1.583-.573 1.118-.814 1.258-1.819 1.057-1.759-.351-2.077.653-1.945 6.151.106 4.399.165 4.703.913 4.703.55 0 .843-.313.938-1 .176-1.271.844-2.093 1.497-1.842.893.343 1.451-.88 1.668-3.654.166-2.117.467-3.078 1.389-4.426 1.544-2.26.538-3.944-1.536-2.572m-10.577 9.073c-4.471 2.933-14.827 14.399-15.531 17.195-.438 1.742-.454 1.754-1.63 1.31-.653-.246-1.296-.339-1.429-.207-.524.524-1.401 5.271-1.041 5.631.617.617 1.972-.075 2.402-1.226.313-.838.387-.224.327 2.718L113 249l-1.863.56c-2.326.699-2.737 1.525-2.737 5.502v3.025l-2.176 2.176c-3.354 3.354-4.45 15.879-1.297 14.828 1.055-.352 4.152-6.211 4.403-8.331.321-2.71.646-3.014 2.604-2.427 3.519 1.054 3.122 1.324 13.57-9.233 17.019-17.197 19.651-20.7 15.552-20.7-2.154 0-6.656-8.659-6.656-12.801 0-2.728-1.865-3.496-4.421-1.82m58.121 6.871c-.92.399-.55 1.751.6 2.189 3.832 1.46 9.3 1.332 9.3-.216 0-.887-1.089-1.288-4.2-1.547-1.54-.129-3.34-.326-4-.438-.66-.113-1.425-.107-1.7.012m-10.8 5.038c-2.474 1.193-.673 2.147 4.747 2.513 6.438.435 9.348-.342 8.338-2.229-.48-.896-11.327-1.132-13.085-.284m-8.106 2.12c-.817.983.603 2.262 2.345 2.111 1.794-.155 2.598-1.315 1.485-2.142-1.018-.756-3.192-.738-3.83.031m-62.282 7.875c-.227.284-.626 1.76-.885 3.28-.766 4.483.799 6.89 2.161 3.323 1.314-3.44.318-8.594-1.276-6.603m20.081 20.926c-1.489.741-2.311 1.99-1.985 3.016.588 1.852 4.687-.171 4.501-2.222-.128-1.41-.833-1.632-2.516-.794m-10.547 11.715c-2.557 2.471-2.942 3.382-1.708 4.043 1.858.994 6.049-3.061 5.596-5.415-.271-1.408-1.436-.997-3.888 1.372m58.754 18.901v7.626l-1.3-.126-1.3-.125-.2-5.295-.2-5.295-1.2.793c-1.657 1.094-2.2 1.004-2.2-.363 0-.894.31-1.344 1.348-1.956.741-.438 1.686-1.26 2.1-1.827.487-.668 1.14-1.036 1.852-1.044l1.1-.013v7.625m12.629-6.222c3.432 3.639 2.045 12.564-2.147 13.82-2.704.81-6.271-1.112-5.549-2.992.263-.686 2.667-.907 2.667-.245 0 1.778 2.879 1.111 3.553-.824.533-1.529.257-2.103-.751-1.563-3.74 2.001-7.542-3.061-5.404-7.195 1.485-2.872 5.384-3.383 7.631-1.001m13.697-.314c.071.499-.388 1.641-1.045 2.6-2.216 3.235-3.208 5.796-3.879 10.011-.247 1.558-2.325 2.288-2.822.993-.363-.947 1.41-6.799 2.829-9.336l1.411-2.523-3.106-.117c-3.225-.122-3.788-.506-3.155-2.153.426-1.111 9.605-.617 9.767.525m11.992-.062c.065.456-.592 1.893-1.464 3.2-1.685 2.528-3.118 6.27-3.518 9.19-.253 1.841-2.204 2.713-2.77 1.238-.4-1.041 1.075-6.061 2.625-8.933l1.558-2.889-3.07-.117c-3.187-.12-3.751-.509-3.12-2.152.406-1.061 9.604-.624 9.759.463m-30.324 1.779c-1.559 1.559-.562 5.391 1.331 5.117 2.118-.307 2.477-4.538.462-5.456-.84-.383-1.125-.329-1.793.339m-71.556 35.872c.294.294.285.921-.027 2.082l-.448 1.663-1.899-.252c-2.117-.281-2.645.071-3.245 2.161-.391 1.365-.015 1.668 2.065 1.668 1.205 0 1.215.018.953 1.662-.363 2.266-.439 2.338-2.461 2.338-.977 0-1.776.045-1.776.1 0 .055-.271 1.36-.602 2.9-1.026 4.774-2.598 12.488-2.598 12.75 0 .294-4.974.343-5.265.051-.2-.2-.016-1.191 1.85-9.982 1.265-5.956 1.275-5.743-.285-5.894-1.118-.107-1.286-.265-1.202-1.125.238-2.439.451-2.747 1.991-2.876 1.327-.111 1.523-.273 1.835-1.524 1.394-5.586 2.479-6.51 7.385-6.291 1.82.082 3.498.338 3.729.569m16.295-.324c-.503 1.338-5.657 5.246-6.917 5.246-1.989 0-1.988-.403.003-3.139l1.79-2.461h2.629c1.446 0 2.569.159 2.495.354m27.528.66c.129.337.046 1.372-.185 2.3-.231.927-.637 2.546-.903 3.597-.604 2.388-.442 2.545 1.572 1.517 7.921-4.041 13.4 5.16 8.748 14.691-2.644 5.419-9.748 7.199-13.256 3.322-1.018-1.125-1.293-1.062-1.577.359-.237 1.184-5.06 1.994-5.06.85 0-.313.623-3.354 3.246-15.85.415-1.98 1.056-5.13 1.423-7 .368-1.87.84-3.625 1.049-3.9.574-.755 4.645-.661 4.943.114m47.104-.372c.347.133.543.384.435.558-.107.173-.55 2.089-.985 4.258-.434 2.168-1.355 6.642-2.046 9.942-.691 3.3-1.556 7.44-1.923 9.2l-.666 3.2-2.69.118c-1.48.065-2.69-.025-2.69-.2 0-.175.612-3.198 1.361-6.718.748-3.52 1.94-9.19 2.648-12.6 1.739-8.379 1.552-8 3.948-8 1.088 0 2.261.109 2.608.242m64.489.353c.208.543-.009 1.845-1.066 6.405-.204.88-.921 4.3-1.594 7.6-1.258 6.169-1.841 8.888-2.466 11.5l-.359 1.5h-2.584c-1.422 0-2.585-.158-2.585-.352 0-.813 5.255-25.525 5.602-26.348.473-1.118 4.643-1.37 5.052-.305m-123.454.78c0 .097-.276 1.364-.613 2.818-.702 3.028-.587 3.407 1.037 3.407.979 0 1.176.163 1.176.974 0 2.066-.682 3.026-2.151 3.026-1.648 0-1.724.17-3.086 6.918-1.047 5.188-.98 5.463 1.337 5.476 2.157.012 1.224 3.744-1.043 4.169-5.317.997-7.443-1.942-6.049-8.363.334-1.54.771-3.61.972-4.6.201-.99.487-2.116.636-2.501.213-.553.007-.754-.973-.95-2.167-.434-1.541-3.926.757-4.221.76-.097 1.134-.512 1.559-1.728.645-1.848 6.441-5.829 6.441-4.425m40.554 6.317c3.847 1.15 6.274 5.449 5.667 10.039-1.763 13.325-20.391 14.483-20.411 1.269-.014-8.615 6.651-13.726 14.744-11.308m45.257.355c2.56 1.204 4.388 4.07 2.889 4.532-2.291.706-3.88.586-5.027-.379-1.89-1.591-6.492-1.32-6.467.38.015.993.873 1.533 4.193 2.642 5.663 1.89 7.139 3.582 6.43 7.366-1.257 6.698-14.86 7.71-17.948 1.335-.767-1.584-.652-1.719 1.919-2.258 1.973-.413 2.018-.401 3.334.946 2.198 2.249 6.537 2.238 7.104-.019.343-1.369.131-1.546-3.526-2.932-6.112-2.316-7.511-4.028-6.296-7.707 1.363-4.133 8.491-6.211 13.395-3.906m21.135-.295c3.008 1.257 3.846 3.756 2.84 8.476-1.481 6.95-1.731 8.6-1.511 9.957l.23 1.415h-2.653c-2.042 0-2.652-.132-2.652-.576 0-1-.826-1.139-1.73-.29-3.062 2.877-8.8 1.241-9.893-2.821-1.318-4.894 1.887-7.834 9.31-8.539 3.35-.318 3.913-.636 3.913-2.209 0-2.194-3.197-2.723-5.116-.847-1.411 1.38-5.351 1.338-5.617-.06-.631-3.307 8.283-6.427 12.879-4.506m31.981.043c3.416 1.428 4.139 4.173 2.636 10.005-.454 1.76-.896 4.64-.982 6.4l-.157 3.2-2.444.12c-2.181.107-2.468.031-2.659-.7-.267-1.02-.552-1.025-1.812-.034-5.316 4.181-12.34-1.751-9.035-7.632 1.171-2.083 3.247-3.017 7.926-3.566 2.624-.308 3.955-.646 4.3-1.093 1.98-2.565-2.461-4.625-4.841-2.245-1.016 1.016-4.833 1.31-5.704.438-.38-.379 1.373-2.984 2.573-3.824 2.426-1.698 7.437-2.223 10.199-1.069m-164.67 1.105c-.255 1.336-.853 4.078-1.505 6.9-1.582 6.842-1.2 9.119 1.404 8.378 2.747-.781 4.016-3.363 5.888-11.978l.957-4.4 2.358-.122c3.257-.168 3.226-.542.82 9.922-1.189 5.17-2.165 9.544-2.17 9.719-.005.176-1.134.266-2.509.2-2.123-.101-2.482-.224-2.382-.819.154-.918-.532-.887-1.897.085-3.965 2.823-8.718 1.216-9.113-3.081-.143-1.558 1.901-12.547 2.903-15.604.109-.334 1.051-.5 2.829-.5h2.665l-.248 1.3m36.994 3.319c-3.305 2.78-3.842 9.78-.873 11.369 3.46 1.852 6.976-1.922 7.006-7.522.024-4.517-3.048-6.444-6.133-3.847m23.13-.118c-1.715 1.156-2.67 2.813-3.231 5.605-1.361 6.776 5.938 8.638 8.834 2.254 2.578-5.681-1.126-10.876-5.603-7.859m67.219 6.568c-3.536.564-5.449 2.166-4.772 3.996 1.118 3.021 6.038.904 6.649-2.861.24-1.48.248-1.475-1.877-1.135m30.893.309c-2.436.59-3.693 1.562-3.693 2.855 0 3.34 5.171 2.65 6.648-.887 1.117-2.673.807-2.879-2.955-1.968" fill="#fbfbfb"/></g></svg>