<svg xmlns="http://www.w3.org/2000/svg" width="400" height="400"><g fill-rule="evenodd"><path d="M188.8 57.845c-41.554 3.639-78.79 23.931-102.679 55.955-1.641 2.2-3.195 4.27-3.454 4.6-2.379 3.033-7.966 12.545-11.027 18.776-29.848 60.743-12.817 134.145 40.76 175.668 3.279 2.542 14.15 9.956 14.597 9.956.121 0 .932.45 1.803 1 1.68 1.061 12.541 6.6 12.941 6.6.129 0 1.276.476 2.547 1.058 25.177 11.521 61.959 14.242 90.742 6.713 6.093-1.594 6.137-1.606 9.97-2.887 66.462-22.204 106.975-89.778 95.377-159.084-1.231-7.357-4.653-20.502-6.352-24.4-.192-.44-.935-2.33-1.653-4.2-11.191-29.185-34.749-56.238-62.457-71.722-3.013-1.683-12.143-6.278-12.476-6.278-.118 0-1.166-.432-2.327-.961-9.677-4.402-24.133-8.273-37.68-10.089-4.233-.568-24.504-1.067-28.632-.705m16.337 10.005c3.392 4.115 4.107 12.988 1.591 19.75-3.087 8.298-2.561 7.897-6.797 5.18-10.001-6.415-15.636-6.613-14.491-.507.553 2.946-3.885.309-5.682-3.376-4.577-9.387 8.843-13.267 17.46-5.047 2.398 2.287 3.288 2.624 2.335.884-1.61-2.937-.232-12.917 2.316-16.766 1.282-1.937 1.754-1.954 3.268-.118M160.3 79.848c1.376.872 1.149 2.314-1.461 9.264-7.067 18.824-8.839 23.613-8.839 23.892 0 .99-4.616 9.588-6.175 11.502-5.1 6.26-13.963 6.327-18.125.137-1.899-2.824-1.417-4.28.992-2.996 1.77.944 5.728.652 7.825-.577 3.945-2.312 6.31-6.579 11.901-21.47 3.752-9.992 5.402-13.849 6.656-15.561l.705-.962-1.52.285c-6.336 1.189-10.98 8.563-8.46 13.435 1.585 3.066-3.64 1.847-6.726-1.569-3.411-3.775-1.024-9.43 5.331-12.63 6.447-3.247 15.033-4.566 17.896-2.75m67.361.373c3.597 2.311 3.316 7.847-.612 12.079-1.082 1.167-3.063 1.893-2.448.898.712-1.152.278-3.772-.775-4.677-2.696-2.319-6.859.287-9.662 6.048-1.173 2.41-1.148 2.438 1.406 1.603 6.85-2.241 9.969 3.687 6.089 11.569-3.207 6.514-10.998 9.816-14.965 6.342-.642-.561-.867-.538-2.444.249-5.946 2.97-5.611.783 3.01-19.655 5.551-13.161 13.573-18.845 20.401-14.456m-58.451 5.248c3.289 1.944.796 8.124-3.279 8.13-.588 0-1.623-.465-2.3-1.035-3.578-3.01 1.519-9.493 5.579-7.095m-5.604 10.876c.767.41 1.709 1.282 2.095 1.938.896 1.526.777 1.944-2.64 9.354-.771 1.67-1.52 3.74-1.666 4.6-.541 3.191-.431 3.089-3.053 2.851-4.558-.413-5.399-2.354-3.159-7.288 2.214-4.875 2.57-5.721 3.273-7.763.409-1.189.744-2.458.744-2.82 0-1.691 2.097-2.106 4.406-.872m12.229.954l1.262 1.377 2.317-1.438c3.469-2.154 6.824-2.118 8.851.093l1.403 1.531 1.466-1.013c8.142-5.622 12.344-1.534 8.169 7.951-3.156 7.168-3.099 10.027.227 11.499 1.555.688 1.97.721 3.538.282 2.095-.587 2.898-.156 2.098 1.125-1.745 2.794-9.536 4.257-13.27 2.493-4.829-2.281-5.069-7.617-.71-15.799 2.007-3.769 2.127-4.6.664-4.6-2.361 0-7.421 8.443-7.444 12.42-.011 1.84-1.274 2.346-4.328 1.736-3.313-.663-3.453-2.092-.847-8.635 1.771-4.444 1.93-5.521.816-5.521-1.854 0-6.331 7.274-7.385 12l-.49 2.2-2.24-.008c-5.313-.019-5.78-2.702-1.939-11.14.952-2.092 2.007-5.293 2.007-6.092 0-2.67 3.553-2.951 5.835-.461m66.875-.863c4.447 2.778.707 8.951-6.865 11.332-2.722.856-2.982 1.192-1.618 2.087 1.287.843 3.636.357 5.987-1.239 2.984-2.025 3.045.307.082 3.176-6.337 6.139-16.131 4.316-16.077-2.992.06-8.156 12.215-16.283 18.491-12.364m20.096-.093c5.146 2.742 1.2 9.23-7.106 11.682-1.928.569-2.2 1.405-.651 1.994 1.456.553 3.462.095 5.459-1.249 3.386-2.277 3.389.871.004 3.532-5.975 4.696-15.497 3.636-15.77-1.755-.465-9.164 10.841-18.053 18.064-14.204m-27.197 4.81c-2.104 2.104-2.806 4.181-1.278 3.781 1.793-.469 4.669-3.145 4.669-4.345 0-1.886-1.129-1.698-3.391.564m20.565.221c-2.962 2.962-3.073 4.505-.22 3.05 2.632-1.343 4.492-3.818 3.566-4.744-.757-.757-1.038-.614-3.346 1.694m-43.302.199c-1.779 1.834-4.669 7.338-4.324 8.236 1.059 2.76 6.99-3.763 7.176-7.893.105-2.323-.822-2.434-2.852-.343M170.4 134.971c3.89.671 6.352 1.194 8.5 1.803.825.234 2.085.582 2.8.773 2.167.578 8.742 3.288 11.433 4.712 3.526 1.866 3.498 1.883 3.327-1.867-.097-2.144.018-3.403.346-3.8.678-.816 119.412-.907 120.523-.092.626.459.673 1.813.576 16.5l-.105 16-20.6.2-20.6.2-.2 52.2-.2 52.2-18.974.104c-14.913.082-19.043-.004-19.296-.4-.178-.277-.322-23.634-.322-51.904 0-28.27-.001-51.625-.004-51.9-.003-.391-3.241-.5-14.846-.5h-14.843l-1.257 1.056c-1.387 1.165-8.397 7.633-12.824 11.833-3.141 2.981-3.475 3.118-4.344 1.792-3.608-5.507-13.748-12.673-20.29-14.341-28.42-7.244-51.699 13.289-47.4 41.81 4.916 32.613 46.731 42.121 67.204 15.281 1.391-1.824 1.574-1.778 4.672 1.171 1.388 1.322 4.594 4.292 7.124 6.6 2.53 2.309 4.69 4.288 4.8 4.398.11.11 2.405 2.245 5.1 4.745 5.619 5.212 5.403 4.72 3.24 7.399-33.408 41.38-107.53 30.175-126.639-19.144-17.843-46.051 12.309-93.271 62.299-97.565 3.705-.318 17.525.171 20.8.736M200.793 274.5c.515 1.155 1.341 3 1.837 4.1 5.978 13.276 6.127 17.636.936 27.495-.201.382-.359.922-.35 1.2.009.278.298-.035.643-.695 3.034-5.807 6.031-8.534 10.36-9.426 10.766-2.219 16.41 12.27 6.983 17.926-2.453 1.472-3.895 1.73-3.35.6.186-.385.34-1.75.343-3.033.013-6.038-7.353-6.513-12.817-.826-1.62 1.685-2.372 2.202-2.977 2.043-.445-.116-1.333-.014-1.973.228-1.651.623-2.191.017-3.019-3.39-.384-1.578-1.326-4.321-2.095-6.095-3.318-7.666-3.774-9.856-2.92-14.035.478-2.342 2.297-7.44 3.939-11.045.735-1.613 1.883-4.469 2.591-6.447.415-1.159.886-.807 1.869 1.4m-13.628 23.364c4.234 1.368 7.101 5.431 9.072 12.856.715 2.69.708 3.28-.037 3.28-.592 0-.844-.222-3.191-2.808-5.429-5.984-14.24-2.734-11.682 4.308.432 1.189-.601 1.212-2.527.058-10.997-6.593-3.88-21.648 8.365-17.694m15.502 10.403c-.147.146-.256.641-.242 1.1.024.766.057.756.409-.125.392-.979.31-1.453-.167-.975m-3.287 6.527c1.991-.003 3.874-.167 4.184-.363.958-.607 1.636-.019 1.636 1.418 0 3.37-10.106 4.379-11.352 1.133-.574-1.497.577-3.517 1.486-2.608.24.24 2.012.423 4.046.42m-9.088 6.106c.994 1.1 2.685.88 3.847-.5 2.016-2.397 3.491-1.147 2.461 2.086-1.29 4.049-4.994 5.338-7.894 2.747-1.769-1.581-1.931-5.3-.306-7.038l1-1.069.13 1.537c.071.845.414 1.852.762 2.237m21.116-1.936c.987 1.832.638 4.772-.729 6.138-2.137 2.138-6.3 1.522-7.525-1.113-1.928-4.15-.79-6.556 1.802-3.808 2.162 2.292 4.644 1.548 4.644-1.391 0-1.892.734-1.821 1.808.174m-10.288 1.116c.264.264.483.849.486 1.3.01 1.425 1.473 4.916 3.257 7.772.69 1.105.228 1.428-1.289.899-1.372-.478-1.974-.313-1.974.541 0 .958-1.783 4.607-2.251 4.607-.445.001-1.922-3.052-2.224-4.599-.157-.805-.405-.842-2.425-.366-1.478.348-1.412-.2.327-2.727.784-1.141 1.528-2.581 1.651-3.199.124-.619.382-1.222.574-1.34.191-.118.348-.709.348-1.312 0-1.375.662-2.056 2-2.056.572 0 1.256.216 1.52.48" fill="#1a0a04"/><path d="M184.8.8c0 .22.27.4.6.4.33 0 .6-.18.6-.4 0-.22-.27-.4-.6-.4-.33 0-.6.18-.6.4m24 0c0 .22.27.4.6.4.33 0 .6-.18.6-.4 0-.22-.27-.4-.6-.4-.33 0-.6.18-.6.4m-31.4.8c.136.22.507.4.824.4.317 0 .576-.18.576-.4 0-.22-.371-.4-.824-.4-.453 0-.712.18-.576.4m-6.2.8c0 .22.36.4.8.4.44 0 .8-.18.8-.4 0-.22-.36-.4-.8-.4-.44 0-.8.18-.8.4m55.6 0c0 .22.27.4.6.4.33 0 .6-.18.6-.4 0-.22-.27-.4-.6-.4-.33 0-.6.18-.6.4m-92.174 8.358c-.122.197.048.461.376.588.363.139.598-.002.598-.359 0-.647-.625-.794-.974-.229M276 15.6c0 .22.405.397.9.394.728-.005.785-.08.3-.394-.776-.501-1.2-.501-1.2 0M116.4 18c0 .22.27.4.6.4.33 0 .6-.18.6-.4 0-.22-.27-.4-.6-.4-.33 0-.6.18-.6.4m-3.935 1.794c-.657.361-.79.605-.448.817.286.177.642.026.86-.363.205-.366.541-.56.748-.433.206.128.375.042.375-.191 0-.527-.34-.489-1.535.17m-7.165 3.894c-.92.444-1.22 1.112-.5 1.112.22 0 .4-.18.4-.4 0-.22.36-.4.8-.4.44 0 .8-.18.8-.4 0-.492-.338-.472-1.5.088M294 24.4c0 .22.371.4.824.4.453 0 .712-.18.576-.4-.136-.22-.507-.4-.824-.4-.317 0-.576.18-.576.4M98.8 27.157c0 .27-.16.392-.355.271-.422-.261-1.344.74-.999 1.085.132.131.612-.108 1.067-.533.456-.424.707-.893.558-1.042-.149-.149-.271-.051-.271.219m202.077.817c.266.426.636.68.822.565.382-.236-.402-1.339-.951-1.339-.195 0-.137.348.129.774M84.5 36.198c-.569.647-.639 1.002-.196 1.002.167 0 .528-.36.803-.8.571-.913.144-1.055-.607-.202M81.293 38.8c-.275.44-.395.8-.268.8.3 0 1.375-1.073 1.375-1.371 0-.509-.638-.18-1.107.571m-5.417 4.146c-.149.387-.452.593-.673.456-.222-.137-.403.031-.403.374 0 .343.103.624.229.624.491 0 1.427-1.233 1.277-1.683-.096-.288-.266-.198-.43.229m112.624.941a8.899 8.899 0 002.2 0c.605-.092.11-.167-1.1-.167-1.21 0-1.705.075-1.1.167m20.4 0a8.899 8.899 0 002.2 0c.605-.092.11-.167-1.1-.167-1.21 0-1.705.075-1.1.167m8.8.789c.385.1 1.015.1 1.4 0 .385-.101.07-.183-.7-.183s-1.085.082-.7.183M327.2 46.8c.776.501 1.2.501 1.2 0 0-.22-.405-.397-.9-.394-.728.005-.785.08-.3.394M62.629 54.229c-.424.309-.657.676-.519.814.139.139.552-.048.919-.414.862-.863.596-1.129-.4-.4M198.5 57.487a8.899 8.899 0 002.2 0c.605-.092.11-.167-1.1-.167-1.21 0-1.705.075-1.1.167M52.841 63.964c-.484.42-.737.847-.561.947.176.101.731-.243 1.234-.764 1.092-1.131.581-1.27-.673-.183m294.565 1.878c.573.574 1.15.935 1.282.803.269-.269-1.412-1.845-1.967-1.845-.197 0 .112.469.685 1.042m-145.537 2.126c-2.548 3.849-3.926 13.829-2.316 16.766.953 1.74.063 1.403-2.335-.884-8.617-8.22-22.037-4.34-17.46 5.047 1.797 3.685 6.235 6.322 5.682 3.376-1.145-6.106 4.49-5.908 14.491.507 4.236 2.717 3.71 3.118 6.797-5.18 2.516-6.762 1.801-15.635-1.591-19.75-1.514-1.836-1.986-1.819-3.268.118M42.673 76.145c-.76 1.16-.557 1.396.388.451.332-.332.536-.806.453-1.054-.083-.248-.461.023-.841.603m313.727.559c0 .433 1.633 1.396 1.906 1.124.125-.126.017-.228-.239-.228-.257 0-.467-.27-.467-.6 0-.33-.27-.6-.6-.6-.33 0-.6.137-.6.304m-202.929 2.51c-13.058 1.557-21.771 10.067-16.398 16.014 3.086 3.416 8.311 4.635 6.726 1.569-2.52-4.872 2.124-12.246 8.46-13.435l1.52-.285-.705.962c-1.254 1.712-2.904 5.569-6.656 15.561-5.591 14.891-7.956 19.158-11.901 21.47-2.097 1.229-6.055 1.521-7.825.577-2.409-1.284-2.891.172-.992 2.996 4.162 6.19 13.025 6.123 18.125-.137 1.559-1.914 6.175-10.512 6.175-11.502 0-.279 1.17-3.444 8.837-23.913 3.61-9.636 2.941-10.868-5.366-9.877m67.329.131c-7.454 2.071-9.602 5.22-18.166 26.643-3.655 9.142-3.331 10.815 1.616 8.344 1.577-.787 1.802-.81 2.444-.249 3.967 3.474 11.758.172 14.965-6.342 3.88-7.882.761-13.81-6.089-11.569-2.554.835-2.579.807-1.406-1.603 2.803-5.761 6.966-8.367 9.662-6.048 1.053.905 1.487 3.525.775 4.677-.615.995 1.366.269 2.448-.898 6.324-6.814 2.226-15.31-6.249-12.955M92.181 86.1L90.6 87.8l1.7-1.581c.935-.87 1.7-1.635 1.7-1.7 0-.303-.348 0-1.819 1.581m73.182-.671c-2.833 1.398-3.803 5.393-1.732 7.135 2.142 1.803 5.169.929 6.501-1.877 1.88-3.961-.989-7.123-4.769-5.258M307.6 86.51c0 .061 1.395 1.456 3.1 3.1l3.1 2.99-2.99-3.1c-2.777-2.879-3.21-3.283-3.21-2.99M84.575 93.7L83.4 95l1.3-1.175c1.212-1.095 1.484-1.425 1.175-1.425-.069 0-.654.585-1.3 1.3m75.105 2.38c-.264.264-.48.776-.48 1.137 0 .362-.335 1.631-.744 2.82-.703 2.042-1.059 2.888-3.273 7.763-2.24 4.934-1.399 6.875 3.159 7.288 2.622.238 2.512.34 3.053-2.851.146-.86.895-2.93 1.666-4.6 3.417-7.41 3.536-7.828 2.64-9.354-1.234-2.099-4.814-3.41-6.021-2.203m10.76.246c-.242.452-.44 1.097-.44 1.434 0 .799-1.055 4-2.007 6.092-3.841 8.438-3.374 11.121 1.939 11.14l2.24.008.49-2.2c1.054-4.726 5.531-12 7.385-12 1.114 0 .955 1.077-.816 5.521-2.606 6.543-2.466 7.972.847 8.635 3.054.61 4.317.104 4.328-1.736.023-3.987 5.083-12.42 7.454-12.42 1.541 0 1.448.701-.6 4.503-4.438 8.239-4.224 13.6.636 15.896 3.734 1.764 11.525.301 13.27-2.493.8-1.281-.003-1.712-2.098-1.125-1.576.441-1.981.407-3.596-.308-3.298-1.459-3.339-4.272-.169-11.473 4.175-9.485-.027-13.573-8.169-7.951l-1.466 1.013-1.403-1.531c-2.027-2.211-5.382-2.247-8.851-.093l-2.317 1.438-1.262-1.377c-1.627-1.776-4.672-2.325-5.395-.973m64.474-.17c-9.718 3.177-14.488 15.05-7.422 18.477 3.557 1.724 9.438.42 12.804-2.841 2.963-2.869 2.902-5.201-.082-3.176-2.351 1.596-4.7 2.082-5.987 1.239-1.364-.895-1.104-1.231 1.618-2.087 9.762-3.07 12.138-11.563 3.365-12.025-1.517-.08-3.316.093-4.296.413m21.262-.181c-6.683 1.6-11.764 8.074-11.434 14.572.273 5.391 9.795 6.451 15.77 1.755 3.385-2.661 3.382-5.809-.004-3.532-1.997 1.344-4.003 1.802-5.459 1.249-1.549-.589-1.277-1.425.651-1.994 12.041-3.555 12.491-14.926.476-12.05m-17.054 4.481c.131 1.129-1.66 2.93-4.08 4.102-2.507 1.214-2.161-.677.637-3.475 2.121-2.122 3.245-2.326 3.443-.627m20.398-.776c.926.926-.934 3.401-3.566 4.744-2.853 1.455-2.742-.088.22-3.05 2.308-2.308 2.589-2.451 3.346-1.694m-233.66.507c-.124.323-.098.664.057.758.38.229 1.3-.794.992-1.102-.406-.407-.812-.274-1.049.344m189.864 1.729c-.186 4.13-6.117 10.653-7.176 7.893-.345-.898 2.545-6.402 4.324-8.236 2.03-2.091 2.957-1.98 2.852.343m158.955 1.938c-.132.133.029.511.359.841.777.777 1.046.508.39-.389-.279-.382-.616-.585-.749-.452m-352.592 3.755c-.468.75-.446.772.304.304.806-.504 1.083-1.113.505-1.113-.167 0-.531.364-.809.809M384.006 123.1c-.003.495.174.9.394.9.501 0 .501-.424 0-1.2-.314-.485-.389-.428-.394.3M13.6 125.6c0 .44.18.8.4.8.22 0 .4-.36.4-.8 0-.44-.18-.8-.4-.8-.22 0-.4.36-.4.8m373.6 5.8c0 .33.18.6.4.6.22 0 .4-.27.4-.6 0-.33-.18-.6-.4-.6-.22 0-.4.27-.4.6m.908 1.828c-.032.424.111.772.317.772.455 0 .502-1.075.058-1.349-.174-.107-.343.152-.375.577M226.869 136.3c16.427.058 43.427.058 60 0 16.572-.058 3.131-.105-29.869-.105s-46.559.047-30.131.105M9.108 138.168c-.131.686-.03.9.354.753.607-.233.721-1.161.184-1.493-.195-.12-.437.213-.538.74m187.423 2.032c.002 1.54.074 2.121.161 1.291.087-.83.085-2.09-.003-2.8-.089-.71-.16-.031-.158 1.509m121.251 12.6c0 8.47.053 11.935.117 7.7.065-4.235.065-11.165 0-15.4-.064-4.235-.117-.77-.117 7.7M163.3 138.676c.385.1 1.015.1 1.4 0 .385-.101.07-.183-.7-.183s-1.085.082-.7.183m-17.2.4c.385.1 1.015.1 1.4 0 .385-.101.07-.183-.7-.183s-1.085.082-.7.183m20.4 0c.385.1 1.015.1 1.4 0 .385-.101.07-.183-.7-.183s-1.085.082-.7.183m90.594 1.623l56.094.104.115 11.698.115 11.699-.009-11.8-.009-11.8-56.2-.002-56.2-.002 56.094.103m133.985 1.858c-.164.417-.204.852-.088.967.364.365.685-.233.533-.993-.141-.696-.162-.695-.445.026M5.2 151.976c0 .453.18.824.4.824.22 0 .4-.259.4-.576 0-.317-.18-.688-.4-.824-.22-.136-.4.123-.4.576m-.8 3.424c0 .55.18 1 .4 1 .22 0 .4-.45.4-1s-.18-1-.4-1c-.22 0-.4.45-.4 1m103.375.7l-1.175 1.3 1.3-1.175c.715-.646 1.3-1.231 1.3-1.3 0-.309-.33-.037-1.425 1.175m287.025 1.876c0 .453.18.824.4.824.22 0 .4-.259.4-.576 0-.317-.18-.688-.4-.824-.22-.136-.4.123-.4.576m-392 4.4c0 .453.18.824.4.824.22 0 .4-.259.4-.576 0-.317-.18-.688-.4-.824-.22-.136-.4.123-.4.576m153.513 1.519c1.163.081 2.963.081 4-.002 1.038-.082.087-.148-2.113-.147-2.2.001-3.049.068-1.887.149m85.881 53.305c0 28.71.048 40.455.106 26.1.058-14.355.058-37.845 0-52.2-.058-14.355-.106-2.61-.106 26.1M2 168c0 .44.18.8.4.8.22 0 .4-.36.4-.8 0-.44-.18-.8-.4-.8-.22 0-.4.36-.4.8m198.175 2.1L199 171.4l1.3-1.175c.715-.646 1.3-1.231 1.3-1.3 0-.309-.33-.037-1.425 1.175m37.619 51.9c0 28.27.048 39.835.106 25.7a7591.86 7591.86 0 000-51.4c-.058-14.135-.106-2.57-.106 25.7M398.8 187.8c0 .33.18.6.4.6.22 0 .4-.27.4-.6 0-.33-.18-.6-.4-.6-.22 0-.4.27-.4.6m-42.691 2.2c0 .99.078 1.395.173.9a5.661 5.661 0 000-1.8c-.095-.495-.173-.09-.173.9M.114 191.8c.003 1.1.081 1.503.173.895.092-.609.09-1.509-.005-2-.095-.492-.171.005-.168 1.105m42.854 8.4c0 4.4.058 6.255.13 4.121.072-2.133.072-5.733.001-8-.072-2.266-.131-.521-.131 3.879m13.991-.2c0 3.19.062 4.495.138 2.9a73.8 73.8 0 000-5.8c-.076-1.595-.138-.29-.138 2.9m29.934-1.2c0 .77.082 1.085.183.7.1-.385.1-1.015 0-1.4-.101-.385-.183-.07-.183.7m30.049 6.2c-.001 1.98.066 2.84.15 1.912.084-.928.085-2.548.003-3.6-.083-1.052-.152-.292-.153 1.688m265.318-1.93c.252.181.551.78.663 1.33.176.861.195.838.14-.169-.035-.66-.325-1.24-.663-1.331-.401-.107-.448-.051-.14.17M.028 208.9c.02 1.203.117 1.474.331.927.283-.722.134-2.627-.206-2.627-.084 0-.14.765-.125 1.7m356.086 1.3c.003 1.1.081 1.503.173.895.092-.609.09-1.509-.005-2-.095-.492-.171.005-.168 1.105m10.446 1.354c.034 1.85.181 2.237 1.04 2.749l1 .595-.88-.749c-.632-.537-.926-1.314-1.04-2.749l-.16-2 .04 2.154m9.494.313c-.029.696-.279 1.357-.554 1.468-.392.158-.389.209.013.233.658.041.999-.856.773-2.039-.138-.726-.189-.652-.232.338m22.746.733c0 .33.18.6.4.6.22 0 .4-.27.4-.6 0-.33-.18-.6-.4-.6-.22 0-.4.27-.4.6m-373.5 2.476c.385.1 1.015.1 1.4 0 .385-.101.07-.183-.7-.183s-1.085.082-.7.183m357.04 3.618c.135 2.132.105 2.211-.757 1.986-.642-.168-.775-.112-.468.195.928.928 1.685.013 1.685-2.039 0-1.094-.135-2.073-.3-2.175-.165-.103-.237.813-.16 2.033M398 222.6c0 .33.18.6.4.6.22 0 .4-.27.4-.6 0-.33-.18-.6-.4-.6-.22 0-.4.27-.4.6M1.2 227.576c0 .647.18 1.288.4 1.424.238.147.4-.329.4-1.176 0-.783-.18-1.424-.4-1.424-.22 0-.4.529-.4 1.176M2 232.2c0 .33.18.6.4.6.22 0 .4-.27.4-.6 0-.33-.18-.6-.4-.6-.22 0-.4.27-.4.6m394.4 1.824c0 .713.167 1.12.4.976.22-.136.4-.687.4-1.224 0-.537-.18-.976-.4-.976-.22 0-.4.551-.4 1.224M128.6 235.2c.859.88 1.652 1.6 1.762 1.6.11 0-.503-.72-1.362-1.6-.859-.88-1.652-1.6-1.762-1.6-.11 0 .503.72 1.362 1.6m66.4 0c.859.88 1.652 1.6 1.762 1.6.11 0-.503-.72-1.362-1.6-.859-.88-1.652-1.6-1.762-1.6-.11 0 .503.72 1.362 1.6m169.161.397c.025.646.288 1.018.747 1.059.449.04.494-.005.124-.121-.321-.102-.657-.578-.746-1.06-.135-.721-.156-.699-.125.122m15.871 1.683c-.018.374-.347.864-.732 1.088-.385.224-.497.413-.249.42.66.018 1.458-1.079 1.218-1.675-.132-.33-.217-.271-.237.167M34.493 238.4c0 .77.082 1.085.183.7.1-.385.1-1.015 0-1.4-.101-.385-.183-.07-.183.7m164.307.125c0 .069.585.654 1.3 1.3l1.3 1.175-1.175-1.3c-1.095-1.212-1.425-1.484-1.425-1.175M4.4 244.776c0 1.677.622 1.845.733.198.05-.756-.094-1.374-.32-1.374-.227 0-.413.529-.413 1.176m201.2.224c.746.77 1.447 1.4 1.557 1.4.11 0-.411-.63-1.157-1.4-.746-.77-1.447-1.4-1.557-1.4-.11 0 .411.63 1.157 1.4m-52.7 1.276c.385.1 1.015.1 1.4 0 .385-.101.07-.183-.7-.183s-1.085.082-.7.183m9.005.007c.497.096 1.217.092 1.6-.008.382-.1-.025-.179-.905-.174-.88.004-1.193.086-.695.182M393.2 248.6c0 .55.18 1 .4 1 .22 0 .4-.45.4-1s-.18-1-.4-1c-.22 0-.4.45-.4 1M206 253c-.972.99-1.677 1.8-1.567 1.8.11 0 .995-.81 1.967-1.8.972-.99 1.677-1.8 1.567-1.8-.11 0-.995.81-1.967 1.8m-106-.475c0 .069.585.654 1.3 1.3l1.3 1.175-1.175-1.3c-1.095-1.212-1.425-1.484-1.425-1.175m259.606 2.869c-.743.767-1.274 1.456-1.179 1.531.095.075.779-.552 1.519-1.394 1.683-1.913 1.466-2-.34-.137m31.994-.57c0 .453.18.712.4.576.22-.136.4-.507.4-.824 0-.317-.18-.576-.4-.576-.22 0-.4.371-.4.824m-.794 1.876c.018.877.782 1.459.788.6.003-.495-.174-.9-.394-.9-.22 0-.397.135-.394.3M33.2 258.556c0 .086.617.229 1.372.317.755.088 1.284.017 1.176-.157-.193-.313-2.548-.461-2.548-.16m327.701 3.244c.004.88.086 1.193.182.695.096-.497.092-1.217-.008-1.6-.1-.382-.179.025-.174.905m-3.992.6c0 .99.078 1.395.173.9a5.661 5.661 0 000-1.8c-.095-.495-.173-.09-.173.9m-347.952-.567c.134.348.243.718.243.823 0 .105.18.08.4-.056.637-.394.463-1.4-.243-1.4-.422 0-.559.218-.4.633M34 263.6c-.824.264-.859.326-.2.354.44.019 1.07-.141 1.4-.354.701-.453.214-.453-1.2 0m-24.394.3c.019.916.696 1.317.901.534.145-.553.029-.834-.344-.834-.31 0-.56.135-.557.3M365.8 266c-1.107.282-1.123.309-.2.347.55.022 1.27-.134 1.6-.347.681-.44.329-.44-1.4 0m-332.5 2.276c.385.1 1.015.1 1.4 0 .385-.101.07-.183-.7-.183s-1.085.082-.7.183m120.6 3.621a73.8 73.8 0 005.8 0c1.595-.076.29-.138-2.9-.138s-4.495.062-2.9.138m45.024 1.203c-.708 1.978-1.856 4.834-2.591 6.447-1.642 3.605-3.461 8.703-3.939 11.045-.854 4.179-.398 6.369 2.92 14.035.769 1.774 1.711 4.517 2.095 6.095.828 3.407 1.368 4.013 3.019 3.39.64-.242 1.528-.344 1.973-.228.605.159 1.357-.358 2.977-2.043 5.464-5.687 12.83-5.212 12.817.826-.003 1.283-.157 2.648-.343 3.033-.545 1.13.897.872 3.35-.6 9.427-5.656 3.783-20.145-6.983-17.926-4.329.892-7.326 3.619-10.36 9.426-.345.66-.634.973-.643.695-.009-.278.149-.818.35-1.2 5.191-9.859 5.042-14.219-.936-27.495-.496-1.1-1.322-2.945-1.837-4.1-.983-2.207-1.454-2.559-1.869-1.4m162.189.795c1.163.081 2.963.081 4-.002 1.038-.082.087-.148-2.113-.147-2.2.001-3.049.068-1.887.149m-5.164 4.409c.207.388.799 1.062 1.314 1.498l.937.792-.9-1.023c-.495-.562-.9-1.236-.9-1.497 0-.261-.186-.474-.414-.474-.271 0-.284.243-.037.704m1.051-.501c.914.318 3.329.406 3.148.113-.107-.174-.95-.302-1.872-.284-.922.017-1.496.094-1.276.171m7.252.513c-.108.174.466.251 1.276.171 2.214-.218 2.477-.42.596-.455-.922-.018-1.765.11-1.872.284m-314.07 5.891c.01.524.279 1.187.599 1.473.495.444.509.425.093-.129-.268-.357-.382-.924-.254-1.26.129-.335.079-.706-.111-.824-.19-.117-.337.216-.327.74M179.4 297.796c-4.87 1.707-7.466 8.597-5.026 13.341 1.69 3.285 8 7.244 6.953 4.363-2.558-7.042 6.253-10.292 11.682-4.308 2.347 2.586 2.599 2.808 3.191 2.808 1.218 0-.015-5-2.556-10.358-2.365-4.987-8.966-7.696-14.244-5.846m-98.2 5.129c0 .069.585.654 1.3 1.3l1.3 1.175-1.175-1.3c-1.095-1.212-1.425-1.484-1.425-1.175m233.978 2.975l-1.378 1.5 1.5-1.378c.825-.759 1.5-1.434 1.5-1.5 0-.306-.338-.018-1.622 1.378m-229.595 1.8c1.658 1.766 2.017 2.084 2.017 1.783 0-.064-.855-.919-1.9-1.9l-1.9-1.783 1.783 1.9m117.251 1.542c-.352.881-.385.891-.409.125-.014-.459.095-.954.242-1.1.477-.478.559-.004.167.975m142.528-.342c-.757.894-.757.896.044.223.5-.419 1.719-.734 3.2-.825l2.394-.147-2.438-.075c-2.089-.065-2.547.053-3.2.824M90.8 313c1.195 1.21 2.263 2.2 2.373 2.2.11 0-.778-.99-1.973-2.2-1.195-1.21-2.263-2.2-2.373-2.2-.11 0 .778.99 1.973 2.2m-26.225.7L63.4 315l1.3-1.175c1.212-1.095 1.484-1.425 1.175-1.425-.069 0-.654.585-1.3 1.3m-29.775.204c0 .167.36.528.8.803.93.581 1.054.29.229-.536-.631-.63-1.029-.734-1.029-.267m159.454.699c-2.176 2.176.343 4.198 5.226 4.196 4.02-.002 5.72-.879 5.72-2.95 0-1.437-.678-2.025-1.636-1.418-.8.506-7.714.459-8.23-.057-.301-.301-.617-.234-1.08.229m111.324.897L304.2 317l1.5-1.378c.825-.759 1.5-1.434 1.5-1.5 0-.306-.338-.018-1.622 1.378M188.4 318.195c-1.625 1.738-1.463 5.457.306 7.038 2.9 2.591 6.604 1.302 7.894-2.747 1.03-3.233-.445-4.483-2.461-2.086-1.877 2.231-4.354 1.297-4.609-1.737l-.13-1.537-1 1.069m21.2.595c0 2.939-2.482 3.683-4.644 1.391-2.592-2.748-3.73-.342-1.802 3.808 1.225 2.635 5.388 3.251 7.525 1.113 1.367-1.366 1.716-4.306.729-6.138-1.074-1.995-1.808-2.066-1.808-.174m133-1.119c1.189.665 1.187.654.379 1.627-.739.89-.736.89.236-.021 1-.937.439-2.106-.991-2.065-.233.007-.064.213.376.459m-9.145 1.729c.146.381-.14 1.079-.704 1.72l-.951 1.08 1.1-.97c1.137-1.002 1.391-1.803.705-2.227-.23-.142-.293.025-.15.397m-135.375.68c-.264.264-.48.973-.48 1.576 0 .603-.157 1.194-.348 1.312-.192.118-.45.721-.574 1.34-.123.618-.867 2.058-1.651 3.199-1.739 2.527-1.805 3.075-.327 2.727 2.02-.476 2.268-.439 2.425.366.302 1.547 1.779 4.6 2.224 4.599.468 0 2.251-3.649 2.251-4.607 0-.854.602-1.019 1.974-.541 1.517.529 1.979.206 1.289-.899-1.784-2.856-3.247-6.347-3.257-7.772-.008-1.115-.757-1.78-2.006-1.78-.572 0-1.256.216-1.52.48M68.175 321.7L67 323l1.3-1.175c1.212-1.095 1.484-1.425 1.175-1.425-.069 0-.654.585-1.3 1.3m3.95 2.6c-.419.385-.565.572-.322.416.242-.156.88-.46 1.419-.675.618-.247.737-.4.322-.416-.36-.014-.999.29-1.419.675m-3.762 3.145c-.294.354-.901.793-1.349.974-.574.233-.628.338-.184.356.347.014 1.053-.425 1.57-.975.517-.55.84-1 .719-1-.122 0-.462.29-.756.645m2.618 3.055l-1.581 1.7 1.7-1.581c1.581-1.471 1.884-1.819 1.581-1.819-.065 0-.83.765-1.7 1.7m254.881.2c-.102.165.68.3 1.738.3 1.058 0 1.84-.135 1.738-.3-.102-.165-.884-.3-1.738-.3s-1.636.135-1.738.3m-276.611 1.6c.691.881 1.703 1.679 1.891 1.492.181-.181-1.813-2.192-2.173-2.192-.147 0-.02.315.282.7m20.749.225c0 .069.585.654 1.3 1.3L72.6 335l-1.175-1.3C70.33 332.488 70 332.216 70 332.525m18.778 2.975L87.4 337l1.5-1.378c1.396-1.284 1.684-1.622 1.378-1.622-.066 0-.741.675-1.5 1.5m230.922 4.776c.385.1 1.015.1 1.4 0 .385-.101.07-.183-.7-.183s-1.085.082-.7.183m-122.4 2.42c1.265.079 3.335.079 4.6 0 1.265-.08.23-.145-2.3-.145s-3.565.065-2.3.145m-114.9 1.029c0 .069.585.654 1.3 1.3L85 346.2l-1.175-1.3c-1.095-1.212-1.425-1.484-1.425-1.175m-17.2 4.47c0 .301 2.979 2.959 3.139 2.8.077-.078-.501-.784-1.286-1.568-1.344-1.344-1.853-1.683-1.853-1.232m266.9 1.203c-.569.647-.639 1.002-.196 1.002.167 0 .528-.36.803-.8.571-.913.144-1.055-.607-.202m-259.898 5.004c.4.442.809.72.91.619.216-.216-.924-1.421-1.345-1.421-.16 0 .036.361.435.802M119.8 357.4c0 .948.135 1.64.3 1.538.165-.102.3-.794.3-1.538s-.135-1.436-.3-1.538c-.165-.102-.3.59-.3 1.538m65.305-1.117c.497.096 1.217.092 1.6-.008.382-.1-.025-.179-.905-.174-.88.004-1.193.086-.695.182m28 0c.497.096 1.217.092 1.6-.008.382-.1-.025-.179-.905-.174-.88.004-1.193.086-.695.182m-20.805.399a5.661 5.661 0 001.8 0c.495-.095.09-.173-.9-.173s-1.395.078-.9.173m13.205.001c.497.096 1.217.092 1.6-.008.382-.1-.025-.179-.905-.174-.88.004-1.193.086-.695.182m-129.411.669c.381.29.606.644.5.788-.107.143-.076.172.069.063.145-.108.55.027.9.3.576.45.58.42.037-.303-.732-.976-1.272-1.39-1.8-1.381-.22.003-.088.244.294.533M308.7 367.357c-.731.555-.916 1.043-.396 1.043.167 0 .528-.36.803-.8.582-.932.537-.96-.407-.243m-216.7 1.4c0 .197.285.467.633.6.978.376 1.075.294.424-.357-.68-.68-1.057-.767-1.057-.243m52.76.963c.186.186.946.276 1.689.199 1.318-.136 1.309-.144-.339-.339-.929-.109-1.537-.047-1.35.14m9.741 2.48c.004.88.086 1.193.182.695.096-.497.092-1.217-.008-1.6-.1-.382-.179.025-.174.905m143.956 1.356c-.378.24-.408.427-.1.618.244.15.443.072.443-.174s.18-.336.4-.2c.22.136.4.057.4-.176 0-.51-.408-.534-1.143-.068M141.301 375c.004.88.086 1.193.182.695.096-.497.092-1.217-.008-1.6-.1-.382-.179.025-.174.905m7.279.961c-.209.199-.74.448-1.18.554-.759.182-.756.195.051.239.468.025 1.075-.224 1.349-.554.543-.654.391-.819-.22-.239m-41.78 1.143c0 .167.36.528.8.803.93.581 1.054.29.229-.536-.631-.63-1.029-.734-1.029-.267m72.901 1.096c.004.88.086 1.193.182.695.096-.497.092-1.217-.008-1.6-.1-.382-.179.025-.174.905m13.499-.042c0 .087.705.225 1.566.307.862.083 1.481.011 1.377-.158-.19-.307-2.943-.447-2.943-.149m-83.6.642c0 .22.27.4.6.4.33 0 .6-.18.6-.4 0-.22-.27-.4-.6-.4-.33 0-.6.18-.6.4m106.6-.045c1.066.231 1.2.423 1.2 1.715 0 .8.135 1.371.3 1.269 1.234-.765-.094-3.365-1.68-3.292-.949.044-.936.066.18.308m20.693.845c0 .77.082 1.085.183.7.1-.385.1-1.015 0-1.4-.101-.385-.183-.07-.183.7M114.4 381.2c0 .22.27.4.6.4.33 0 .6-.18.6-.4 0-.22-.27-.4-.6-.4-.33 0-.6.18-.6.4m96.766.926c.181.181 1.027.267 1.881.193l1.553-.136-1.881-.193c-1.035-.106-1.734-.045-1.553.136m-49.661 1.357c.497.096 1.217.092 1.6-.008.382-.1-.025-.179-.905-.174-.88.004-1.193.086-.695.182m116.895.142c0 .455 1.075.502 1.349.058.107-.174-.152-.343-.577-.375-.424-.032-.772.111-.772.317M174.8 385.6l-1.8.28 1.676.06c.922.033 1.788-.12 1.924-.34.136-.22.192-.373.124-.34-.068.033-.934.186-1.924.34m98 .425c0 .455 1.075.502 1.349.058.107-.174-.152-.343-.577-.375-.424-.032-.772.111-.772.317m-90.8.375l-1.4.295 1.276.052c.702.029 1.388-.127 1.524-.347.136-.22.192-.376.124-.347-.068.029-.754.185-1.524.347m80.133 3.455c0 .606.897.744 1.239.19.12-.195-.109-.44-.51-.545-.442-.115-.729.024-.729.355m-123.667.496c-.406.257-.334.39.3.556.553.145.834.029.834-.344 0-.638-.356-.705-1.134-.212m121.134-.018c0 .574.454.821 1.073.584.484-.186.495-.291.061-.567-.684-.433-1.134-.44-1.134-.017m-7.8 2.467c.136.22.507.4.824.4.317 0 .576-.18.576-.4 0-.22-.371-.4-.824-.4-.453 0-.712.18-.576.4m-98.6 1.6c0 .22.27.4.6.4.33 0 .6-.18.6-.4 0-.22-.27-.4-.6-.4-.33 0-.6.18-.6.4m80.2 2.4c.136.22.496.4.8.4.304 0 .664-.18.8-.4.141-.228-.204-.4-.8-.4-.596 0-.941.172-.8.4m-51.4 2.4c0 .22.81.4 1.8.4s1.8-.18 1.8-.4c0-.22-.81-.4-1.8-.4s-1.8.18-1.8.4m32 0c0 .22.54.4 1.2.4.66 0 1.2-.18 1.2-.4 0-.22-.54-.4-1.2-.4-.66 0-1.2.18-1.2.4" fill="#ffce00"/><path d="M186 .8c0 .237-1.467.4-3.6.4s-3.6.163-3.6.4c0 .22-.72.4-1.6.4-.88 0-1.6-.18-1.6-.4 0-.22-.36-.4-.8-.4-.44 0-.8.18-.8.4 0 .22-.27.4-.6.4-.33 0-.6.18-.6.4 0 .22-.36.4-.8.4-.44 0-.8-.18-.8-.4 0-.22-.45-.4-1-.4s-1 .18-1 .4c0 .22-.72.4-1.6.4-.88 0-1.6.18-1.6.4 0 .22-.81.4-1.8.4s-1.8.18-1.8.4c0 .578-1.495.493-1.741-.1-.141-.34-.49-.18-1.091.5-.583.66-.944.83-1.059.5-.208-.592-1.709-.68-1.709-.1 0 .22-.54.4-1.2.4-.66 0-1.2.18-1.2.4 0 .22-.63.4-1.4.4-.77 0-1.4.18-1.4.4 0 .574-1.089.494-1.367-.1-.186-.4-.28-.4-.466 0-.129.275-.669.5-1.2.5-.532 0-.967.18-.967.4 0 .22-.54.4-1.2.4-.66 0-1.2.18-1.2.4 0 .22-.525.4-1.167.4-.641 0-1.258.225-1.369.5-.154.378-.303.356-.613-.09-.351-.506-.595-.454-1.697.36-1.136.841-1.252.863-.996.191.232-.61.19-.662-.214-.261-.277.275-.822.5-1.211.5-.493 0-.631.2-.455.66.21.546.07.614-.812.392-.797-.2-1.066-.117-1.066.328 0 .363-.232.506-.598.366-.328-.127-.482-.436-.341-.688.155-.277.043-.26-.282.042-.297.275-1.088.513-1.759.528-1.044.024-1.104.078-.42.372.704.302.665.347-.324.372-.618.015-1.025.187-.905.381.12.194-.541.363-1.469.376-.927.013-1.75.214-1.827.447-.078.233-.407.424-.732.424s-.479.18-.343.4c.148.24-.364.402-1.276.406-1.131.005-1.369.106-.924.394.449.29.242.389-.825.394-.864.004-1.762.32-2.283.806-.472.44-1.136.8-1.475.8-.339 0-.617.18-.617.4 0 .22-.36.4-.8.4-.44 0-.8.18-.8.4 0 .576-1.096.494-1.335-.1-.161-.4-.208-.4-.233 0-.018.275-.38.5-.805.5-.425 0-.887.36-1.027.8-.14.44-.512.8-.827.8-.315 0-.573.201-.573.447 0 .254-.355.353-.824.231-.505-.132-.91.005-1.043.353-.12.313-.559.569-.976.569-.416 0-.757.18-.757.4 0 .22-.27.4-.6.4-.33 0-.6.18-.6.4 0 .22-.27.4-.6.4-.33 0-.6.18-.6.4 0 .22-.36.4-.8.4-.44 0-.8.18-.8.4 0 .22-.36.4-.8.4-.44 0-.8.192-.8.427 0 .244-.341.319-.796.174-.796-.252-2.698.74-2.504 1.307.055.16-.125.292-.4.292s-.86.369-1.3.82c-.44.451-1.136.749-1.547.662-.467-.099-.646.006-.477.28.163.263-.057.438-.552.438-.453 0-.824.199-.824.443 0 .243-.261.343-.58.22-.387-.148-.505-.03-.357.357.146.38-.037.58-.532.58-.415 0-1.014.36-1.331.8-.317.44-.897.8-1.288.8-.392 0-.712.18-.712.4 0 .22-.405.403-.9.406-.728.005-.785.08-.3.394.496.32.459.389-.212.394-.446.003-1.071.366-1.388.806-.317.44-.857.8-1.2.8-.343 0-.883.36-1.2.8-.339.47-1.035.8-1.688.8-.744 0-1.112.208-1.112.629 0 .797-.959 1.771-1.744 1.771-.331 0-.716.36-.856.8-.14.44-.512.8-.827.8-.315 0-.573.18-.573.4 0 .22-.198.4-.44.4-.241 0-.956.554-1.588 1.23-.633.677-1.342 1.112-1.577.967-.409-.253-3.195 2.427-3.195 3.074 0 .172-.487.436-1.082.585-.596.15-2.292 1.499-3.771 2.997-1.605 1.628-2.767 2.529-2.886 2.236-.109-.269-.212-.162-.229.24-.036.81-.943 1.871-1.601 1.871-.234 0-2.228 1.8-4.431 4s-3.82 4-3.593 4c.226 0-.358.779-1.298 1.73-1.069 1.082-1.819 1.569-2.003 1.3-.175-.256-.296-.135-.3.301-.003.403-.726 1.423-1.606 2.269-.88.846-1.6 1.794-1.6 2.108 0 .314-1.035 1.522-2.3 2.685s-2.075 1.99-1.8 1.837c.275-.152.5-.074.5.175 0 .529-.99 1.595-1.483 1.595-.186 0-.647.36-1.024.8-.4.467-.495.8-.228.8.252 0 .07.336-.404.747-.473.411-.861.961-.861 1.224 0 .262-.18.365-.4.229-.22-.136-.4.051-.4.416s-.54 1.167-1.2 1.784c-.66.617-1.2 1.337-1.2 1.6 0 .263-.54.983-1.2 1.6-.66.617-1.2 1.409-1.2 1.76 0 .352-.18.64-.4.64-.22 0-.4.32-.4.712 0 .391-.36.971-.8 1.288-.44.317-.8.82-.8 1.117 0 .677-1.019 1.73-1.352 1.397-.137-.136-.248.213-.248.777 0 .563-.272 1.128-.604 1.255-.332.127-.573.372-.536.543.139.646-.561 1.696-.965 1.446-.267-.165-.339.055-.195.602.158.605.043.863-.384.863-.387 0-.541.259-.423.712.194.742-.537 1.688-1.303 1.688-.262 0-.34.328-.19.8.146.459.072.8-.173.8-.235 0-.427.36-.427.8 0 .44-.18.8-.4.8-.22 0-.4.36-.4.8 0 .44-.18.8-.4.8-.22 0-.4.32-.4.712 0 .391-.36.971-.8 1.288-.44.317-.8.878-.8 1.246 0 .367-.267.771-.593.896-.368.141-.494.487-.332.908.177.461.11.588-.207.392-.311-.192-.468.055-.468.734 0 .563-.18 1.024-.4 1.024-.22 0-.4.45-.4 1s-.18 1-.4 1c-.22 0-.4.36-.4.8 0 .44-.18.8-.4.8-.22 0-.4.45-.4 1s-.18 1-.4 1c-.22 0-.4.36-.4.8 0 .44-.18.8-.4.8-.22 0-.4.45-.4 1s-.18 1-.4 1c-.22 0-.4.36-.4.8 0 .44-.18.8-.4.8-.22 0-.4.54-.4 1.2 0 .789-.201 1.2-.587 1.2-.378 0-.499.232-.339.65.147.382-.007.792-.375.999-.399.223-.543.662-.399 1.213.155.591.08.773-.237.577-.275-.17-.463-.033-.463.337 0 .343-.18.624-.4.624-.22 0-.397.315-.394.7.005.598.063.613.394.1s.389-.498.394.1c.003.385-.174.7-.394.7-.22 0-.413.495-.428 1.1-.026.995-.065 1.023-.407.3-.29-.611-.336-.441-.194.721.136 1.116.024 1.583-.423 1.754-.417.16-.531.537-.364 1.204.179.714.002 1.173-.67 1.738-.789.661-.832.827-.314 1.205.452.331.477.489.1.642-.275.111-.5.728-.5 1.369 0 .642-.135 1.168-.3 1.17-.165.002-.508.452-.763 1.001-.254.548-.299.896-.1.773.2-.123.363-.034.363.199s-.18.424-.4.424c-.22 0-.4.81-.4 1.8s-.18 1.8-.4 1.8c-.22 0-.4.72-.4 1.6 0 .88-.18 1.6-.4 1.6-.22 0-.4.81-.4 1.8s-.18 1.8-.4 1.8c-.22 0-.4.255-.4.567 0 .311-.225.671-.5.8-.4.186-.4.28 0 .466.593.277.677 1.767.1 1.767-.22 0-.4.255-.4.567 0 .311-.225.657-.5.768-.4.161-.4.208 0 .233.589.038.687 1.632.1 1.632-.22 0-.4.63-.4 1.4 0 .77-.18 1.4-.4 1.4-.22 0-.4.27-.4.6 0 .33.18.6.4.6.22 0 .4.36.4.8 0 .44-.18.8-.4.8-.22 0-.4.255-.4.567 0 .311-.225.671-.5.8-.4.186-.4.28 0 .466.591.276.682 2.967.1 2.967-.226 0-.4 1.133-.4 2.6s-.174 2.6-.4 2.6c-.581 0-.492 1.896.1 2.136.393.16.387.283-.027.574-.415.292-.539 3.117-.584 13.33-.093 20.741-.017 23.631.637 24.047.357.227.351.302-.026.307-.275.003-.5.456-.5 1.006s.18 1 .4 1c.22 0 .4.641.4 1.424 0 1.022-.141 1.344-.5 1.141-.4-.226-.4-.175 0 .256.275.297.5.953.5 1.459 0 .506.18.92.4.92.22 0 .4.641.4 1.424 0 .847-.162 1.323-.4 1.176-.22-.136-.4.033-.4.376 0 .343.18.624.4.624.22 0 .4.36.4.8 0 .44.18.8.4.8.22 0 .4.27.4.6 0 .33-.18.6-.4.6-.22 0-.4.45-.4 1s.18 1 .4 1c.22 0 .4.54.4 1.2 0 .66.18 1.2.4 1.2.22 0 .4.81.4 1.8s.18 1.8.4 1.8c.588 0 .489 1.598-.1 1.613-.275.008-.095.351.4.764.717.599.9 1.165.9 2.787 0 1.12.18 2.036.4 2.036.22 0 .4.63.4 1.4 0 .77.18 1.4.4 1.4.588 0 .489 1.198-.1 1.213-.275.008-.074.369.447.803.821.684.875.877.4 1.451-.427.517-.437.7-.047.831.275.093.5.424.5.735 0 .312.18.567.4.567.22 0 .4.525.4 1.167 0 .641.225 1.258.5 1.369.396.161.393.278-.014.566-.639.451-.208 1.698.589 1.698.446 0 .525.291.325 1.2-.195.889-.118 1.2.299 1.2.397 0 .511.352.386 1.2-.105.72.002 1.2.27 1.2.259 0 .445.731.445 1.751 0 1.646.745 2.971 1.337 2.379.145-.145.263.317.263 1.027 0 .758.165 1.188.4 1.043.233-.144.4.263.4.976 0 .673.18 1.224.4 1.224.22 0 .4.345.4.767 0 .421.225.858.5.969.379.154.357.302-.087.611-.499.346-.454.524.3 1.177.488.424.887 1.064.887 1.423s.18.653.4.653c.22 0 .4.647.4 1.437 0 1.101.187 1.487.8 1.647.518.135.8.546.8 1.163 0 .524.18.953.4.953.22 0 .4.36.4.8 0 .44.18.8.4.8.22 0 .4.36.4.8 0 .44.18.8.4.8.22 0 .4.36.4.8 0 .44.18.8.4.8.22 0 .4.36.4.8 0 .44.18.8.4.8.22 0 .4.36.4.8 0 .44.18.8.4.8.22 0 .4.32.4.712 0 .391.36.971.8 1.288.44.317.8.897.8 1.288 0 .392.192.712.427.712.245 0 .319.341.173.8-.185.583-.072.8.416.8.431 0 .588.214.439.6-.145.378.005.6.404.6.45 0 .57.247.411.852-.21.804.237 1.591 1.123 1.977.217.094.341.486.275.871-.065.385.084.7.33.7.247 0 .347.165.222.368-.125.202.044.639.376.971.332.332.607.842.61 1.132.005.391.108.372.394-.071.303-.47.389-.367.394.473.004.718.27 1.157.806 1.327.44.14.8.562.8.939 0 .376.36.944.8 1.261.44.317.8.825.8 1.128 0 .303.54 1.055 1.2 1.672.66.617 1.2 1.369 1.2 1.672 0 .303.36.811.8 1.128.44.317.8.857.8 1.2 0 .343.36.883.8 1.2.44.317.8.82.8 1.117 0 .727 1.027 1.715 1.416 1.364.171-.155.198.034.06.419-.169.471-.051.7.36.7.336 0 .501.178.367.395-.14.227.02.294.376.158.342-.131.621-.039.621.204a.438.438 0 01-.431.443c-.237 0 .109.54.769 1.2.66.66 1.317 1.2 1.46 1.2.54 0 1.442 1.212 1.197 1.608-.141.228.3.933.979 1.568.823.768 1.067 1.222.731 1.357-.303.122-.219.217.208.235.783.035 3.487 2.546 3.487 3.238 0 .238 1.249 1.665 2.776 3.17 1.527 1.506 2.652 2.876 2.5 3.045-.152.169-.055.18.216.025.298-.172 1.21.435 2.31 1.535 1.001 1.001 1.72 1.819 1.6 1.819-.121 0 .771.99 1.981 2.2 1.21 1.21 2.392 2.2 2.628 2.2.235 0 1.67 1.26 3.189 2.8 1.519 1.54 2.958 2.8 3.199 2.8.747 0 2.44 1.916 1.89 2.139-.269.109-.158.212.247.229.405.018 1.093.437 1.53.932.437.495.681.675.541.4-.289-.568.145-.645.907-.162.294.187.406.653.262 1.094-.191.583-.155.633.146.209.326-.458.494-.404.934.3.295.473.853.859 1.24.859s.704.18.704.4c0 .22.258.4.573.4.315 0 .687.36.827.8.14.44.525.8.856.8.724 0 1.807 1.004 1.458 1.352-.136.137.193.248.731.248s1.238.36 1.555.8c.317.44.825.8 1.128.8.303 0 1.055.54 1.672 1.2.617.66 1.409 1.2 1.76 1.2.352 0 .64.18.64.4 0 .22.283.4.629.4.903 0 1.92 1.073 1.267 1.336-.273.111.089.215.804.232.715.018 1.3.205 1.3.416 0 .789 1.792 2.016 2.942 2.016.655 0 1.075.117.932.259-.35.35 1.337 1.782 1.778 1.509.191-.118.348-.012.348.235 0 .269.323.348.8.197.459-.146.8-.072.8.173 0 .235.36.427.8.427.44 0 .8.18.8.4 0 .22.36.4.8.4.44 0 .8.18.8.4 0 .22.32.4.712.4.391 0 .971.36 1.288.8.333.462 1.035.8 1.661.8.734 0 1.167.259 1.339.8.14.44.602.8 1.027.8.425 0 .773.18.773.4 0 .22.63.4 1.4.4.77 0 1.4.18 1.4.4 0 .22.27.4.6.4.33 0 .6.18.6.4 0 .22.551.4 1.224.4.713 0 1.12.167.976.4-.14.227.196.4.776.4.563 0 1.024.18 1.024.4 0 .22.294.4.653.4.359 0 .969.365 1.356.811.439.505 1.246.83 2.147.864.794.03 1.444.205 1.444.39 0 .184.36.335.8.335.44 0 .8.18.8.4 0 .22.255.4.567.4.311 0 .657.225.768.5.161.4.208.4.233 0 .018-.275.242-.5.499-.5.256 0 .349.117.206.26-.143.144.052.498.433.788.827.628 1.441.713 1.094.152-.136-.22.044-.4.4-.4.388 0 .533.185.361.463-.196.317-.014.392.577.237.475-.124.998-.017 1.163.238.602.934 2.452 1.574 3.877 1.343 1.118-.181 1.422-.098 1.422.391 0 .424.253.555.8.412.44-.115.8-.046.8.153 0 .2.36.363.8.363.44 0 .8.18.8.4 0 .58 1.501.492 1.709-.1.115-.328.466-.155 1.02.5.464.55.85.775.858.5.015-.589 1.213-.688 1.213-.1 0 .22.54.4 1.2.4.66 0 1.2.18 1.2.4 0 .22.45.4 1 .4s1 .18 1 .4c0 .22.27.4.6.4.33 0 .6-.18.6-.4 0-.692.874-.436 1.707.5.543.61.858.739.98.4.219-.609 1.192-.662 1.388-.076.077.233.722.441 1.433.461.711.02 1.292.189 1.292.376 0 .186.63.339 1.4.339.77 0 1.4.18 1.4.4 0 .22.36.4.8.4.44 0 .8-.18.8-.4 0-.22.36-.4.8-.4.44 0 .8.18.8.4 0 .22.9.4 2 .4s2 .18 2 .4c0 .22.99.4 2.2.4 1.21 0 2.2.18 2.2.4 0 .582 2.297.491 2.535-.1.161-.4.208-.4.233 0 .018.275.482.5 1.032.5s1 .18 1 .4c0 .22.63.4 1.4.4.77 0 1.4-.18 1.4-.4 0-.534 3.495-.516 3.673.019.197.592 28.053.604 28.25.011.181-.543 3.677-.571 3.677-.03 0 .22.54.4 1.2.4.66 0 1.2-.18 1.2-.4 0-.22.45-.4 1-.4s1-.18 1-.4c0-.22.191-.4.424-.4.233 0 .312.18.176.4-.147.239.337.4 1.2.4s1.347-.161 1.2-.4c-.153-.248.596-.4 1.976-.4 1.223 0 2.224-.18 2.224-.4 0-.22 1.001-.4 2.224-.4 1.38 0 2.129-.152 1.976-.4-.141-.228.204-.4.8-.4.596 0 .941.172.8.4-.141.228.204.4.8.4.596 0 .941-.172.8-.4-.147-.237.318-.4 1.143-.4.765 0 1.482-.225 1.593-.5.153-.376.308-.352.627.1.288.407.427.439.431.1.003-.275.456-.5 1.006-.5s1-.18 1-.4c0-.22.615-.4 1.367-.4.751 0 1.471-.225 1.6-.5.186-.4.28-.4.466 0 .279.597 1.618.665 1.967.1.136-.22.597-.4 1.024-.4.427 0 .776-.18.776-.4 0-.22.551-.4 1.224-.4.713 0 1.12-.167.976-.4-.136-.22.123-.4.576-.4.453 0 .836.225.851.5.015.275.222.095.461-.4.444-.92 1.112-1.22 1.112-.5 0 .22.234.4.52.4.744 0 2.673-.942 2.677-1.308.002-.169.455-.194 1.008-.055.812.204.957.129.757-.391-.205-.534-.036-.601.996-.394.917.183 1.242.101 1.242-.313 0-.412.422-.52 1.6-.408.993.095 1.6-.015 1.6-.289 0-.243.36-.442.8-.442.44 0 .8-.18.8-.4 0-.22.281-.4.624-.4.382 0 .514.193.341.5-.226.4-.175.4.256 0 .297-.275.951-.5 1.456-.5.504 0 1.141-.36 1.416-.8.275-.44.816-.8 1.203-.8.387 0 .704-.18.704-.4 0-.22.54-.4 1.2-.4.66 0 1.2-.18 1.2-.4 0-.22.36-.4.8-.4.44 0 .8-.18.8-.4 0-.22.36-.4.8-.4.44 0 .8-.18.8-.4 0-.22.643-.4 1.429-.4 1.375 0 2.797-.841 2.285-1.352-.136-.137.233-.248.819-.248.587 0 1.067-.18 1.067-.4 0-.22.234-.4.52-.4.736 0 2.673-.941 2.677-1.3.002-.165.644-.3 1.427-.3.847 0 1.323-.162 1.176-.4-.136-.22.044-.4.4-.4.356 0 .536-.18.4-.4-.136-.22.033-.4.376-.4.343 0 .624-.18.624-.4 0-.22.5-.4 1.112-.4.653 0 1.349-.33 1.688-.8.317-.44.897-.8 1.288-.8.392 0 .712-.183.712-.408 0-.235.424-.301 1.005-.155.846.212.961.14.73-.462-.215-.56-.125-.657.416-.449.411.158.592.105.446-.131-.134-.217.126-.395.579-.395.453 0 .824-.18.824-.4 0-.22.36-.4.8-.4.44 0 .8-.18.8-.4 0-.22.39-.4.867-.4.476 0 .749-.117.606-.26-.36-.36.967-1.312 1.851-1.327.449-.008.613-.191.434-.481-.193-.313-.073-.385.365-.217.614.236.894.044 2.201-1.51.288-.342.721-.501.962-.352.262.162.323.086.152-.191-.161-.261-.053-.462.25-.462.295 0 .795-.36 1.112-.8.317-.44.857-.8 1.2-.8.343 0 .883-.36 1.2-.8.317-.44.882-.8 1.255-.8.373 0 .738-.166.812-.37.073-.203.401-.428.729-.5.328-.071 1.075-.625 1.661-1.23.585-.605 1.312-1.1 1.615-1.1.303 0 .804-.35 1.113-.779.308-.428.708-.687.888-.576.18.111.327-.001.327-.25s.27-.722.6-1.052c.722-.722.813-.136.1.644-.275.3.262-.069 1.193-.82.931-.752 1.696-1.515 1.7-1.696.01-.485 1.081-1.471 1.598-1.471.246 0 1.69-1.26 3.209-2.8 1.519-1.54 2.968-2.8 3.22-2.8.253 0 .936-.506 1.52-1.125.583-.618 1.375-1.242 1.76-1.387.385-.145.7-.539.7-.875 0-.337.283-.613.629-.613.79 0 1.771-.957 1.771-1.729 0-.828 2.216-3.102 2.862-2.938.296.075.405.061.242-.031-.393-.22.705-1.302 1.321-1.302.516 0 2.374-1.98 2.375-2.531 0-.183.72-1.023 1.6-1.869.88-.846 1.6-1.763 1.6-2.039 0-.276 1.093-1.545 2.43-2.821 1.336-1.276 2.315-2.505 2.174-2.733-.266-.431.679-1.607 1.293-1.607.194 0 .871-.54 1.503-1.2.632-.66.917-1.2.633-1.2-.285 0 .041-.522.725-1.16.683-.639 1.242-1.377 1.242-1.64 0-.263.54-.983 1.2-1.6.66-.617 1.2-1.332 1.2-1.589 0-.784 1.099-1.695 1.336-1.107.111.273.215-.049.232-.716.019-.725.353-1.443.832-1.788.44-.317.8-.857.8-1.2 0-.343.36-.883.8-1.2.44-.317.8-.831.8-1.141 0-.635 1.487-2.056 2.161-2.065.242-.003.169-.183-.161-.4-.658-.432.208-1.36.881-.944.175.108.319-.341.319-.999 0-.846.235-1.272.8-1.451.511-.162.8-.605.8-1.227 0-.535.18-.973.4-.973.22 0 .403-.315.406-.7.005-.605.065-.618.434-.1.325.457.374.29.204-.7-.169-.98-.079-1.3.366-1.3.325 0 .59-.281.59-.624 0-.374.187-.508.468-.334.31.192.386.075.224-.347-.258-.671.497-2.687 1.008-2.692.165-.002.3-.363.3-.803 0-.44.18-.8.4-.8.22 0 .4-.36.4-.8 0-.44.18-.8.4-.8.22 0 .4-.36.4-.8 0-.44.18-.8.4-.8.22 0 .4-.36.4-.8 0-.44.18-.8.4-.8.22 0 .4-.27.4-.6 0-.33.18-.6.4-.6.22 0 .4-.36.4-.8 0-.44.18-.8.4-.8.22 0 .4-.349.4-.776 0-.427.18-.888.4-1.024.22-.136.4-.597.4-1.024 0-.427.18-.776.4-.776.22 0 .4-.371.4-.824 0-.453.18-.712.4-.576.233.144.4-.263.4-.976 0-.673.18-1.224.4-1.224.22 0 .4-.438.4-.973 0-.622.289-1.065.8-1.227.906-.288 1.043-.82.3-1.167-.4-.186-.4-.28 0-.466.275-.129.503-.624.506-1.1.005-.707.078-.756.394-.267.32.495.389.456.394-.22.003-.451.231-1.062.506-1.359.4-.431.4-.482 0-.256-.307.173-.5.041-.5-.341 0-.343.18-.624.4-.624.22 0 .4-.36.4-.8 0-.44.18-.8.4-.8.22 0 .4-.27.4-.6 0-.33.225-.603.5-.606.366-.005.354-.099-.045-.352-.415-.263-.427-.385-.05-.51.272-.091.495-.65.495-1.241 0-.592.158-.979.35-.86.193.119.353-.469.356-1.307.005-1.131.106-1.369.394-.924.294.455.389.286.394-.7.003-.715.166-1.3.361-1.3.508 0 .766-2.24.345-2.993-.255-.456-.094-.864.573-1.451.51-.449.702-.703.427-.563-.32.163-.5-.042-.5-.569 0-.453.18-.824.4-.824.22 0 .4-.551.4-1.224 0-.713.167-1.12.4-.976.22.136.4-.087.4-.496 0-.409.216-.96.48-1.224.373-.373.373-.48 0-.48-.264 0-.48-.45-.48-1s.18-1 .4-1c.22 0 .4-.63.4-1.4 0-.77.18-1.4.4-1.4.22 0 .4-.54.4-1.2 0-.66.18-1.2.4-1.2.22 0 .4-.54.4-1.2 0-.66.18-1.2.4-1.2.581 0 .492-1.896-.1-2.135-.4-.161-.4-.208 0-.233.341-.022.5-.796.5-2.432 0-1.333.178-2.4.4-2.4.22 0 .4-.414.4-.92s.225-1.162.5-1.459c.4-.431.4-.482 0-.256-.307.173-.5.041-.5-.341 0-.343.18-.624.4-.624.581 0 .492-1.896-.1-2.135-.4-.161-.4-.208 0-.233.275-.018.5-.493.5-1.056 0-.58.173-.916.4-.776.227.14.4-.196.4-.776 0-.563-.18-1.024-.4-1.024-.574 0-.494-1.089.1-1.367.4-.186.4-.28 0-.466-.275-.129-.5-.499-.5-.824 0-.325.18-.479.4-.343.25.154.4-.651.4-2.143 0-1.538.178-2.462.5-2.592.4-.161.4-.208 0-.233-.602-.038-.7-3.232-.1-3.232.258 0 .4-4.2.4-11.8 0-7.6-.142-11.8-.4-11.8-.241 0-.4-1.656-.4-4.167 0-2.942-.147-4.235-.5-4.4-.4-.186-.4-.28 0-.466.275-.129.5-.474.5-.767 0-.293-.225-.638-.5-.767-.4-.186-.4-.28 0-.466.592-.276.681-2.567.1-2.567-.22 0-.4-.9-.4-2s-.18-2-.4-2c-.22 0-.4-.81-.4-1.8s-.18-1.8-.4-1.8c-.22 0-.4-.461-.4-1.024 0-.702.157-.935.5-.741.4.226.4.175 0-.256-.275-.297-.5-1.028-.5-1.626 0-.597-.225-1.178-.5-1.289-.377-.153-.353-.305.097-.617.475-.329.495-.515.1-.91-.274-.274-.497-.821-.497-1.217 0-.396-.18-.72-.4-.72-.22 0-.4-.371-.4-.824 0-.453.18-.712.4-.576.22.136.4.057.4-.176 0-.233-.18-.424-.4-.424-.22 0-.4-.27-.4-.6 0-.33-.18-.6-.4-.6-.22 0-.4-.72-.4-1.6 0-.88-.18-1.6-.4-1.6-.22 0-.4-.371-.4-.824 0-.453.18-.712.4-.576.22.136.4.057.4-.176 0-.233-.18-.424-.4-.424-.22 0-.4-.45-.4-1s-.18-1-.4-1c-.22 0-.4-.54-.4-1.2 0-.66-.18-1.2-.4-1.2-.22 0-.4-.54-.4-1.2 0-.66-.163-1.2-.362-1.2-.199 0-.275-.765-.168-1.7.145-1.273.087-1.549-.232-1.1-.332.468-.427.264-.432-.924-.004-.912-.166-1.424-.406-1.276-.408.252-.548-.248-.421-1.5.039-.385-.12-.7-.354-.7-.234 0-.425-.54-.425-1.2 0-.66-.18-1.2-.4-1.2-.22 0-.4-.45-.4-1s-.18-1-.4-1c-.22 0-.4-.54-.4-1.2 0-.66-.18-1.2-.4-1.2-.22 0-.4-.54-.4-1.2 0-.66-.199-1.2-.443-1.2-.243 0-.336-.277-.207-.615.135-.35-.019-.713-.357-.843-.326-.125-.593-.568-.593-.985 0-.416-.18-.757-.4-.757-.22 0-.4-.54-.4-1.2 0-.66-.18-1.2-.4-1.2-.22 0-.4-.36-.4-.8 0-.44-.18-.8-.4-.8-.22 0-.4-.36-.4-.8 0-.44-.18-.8-.4-.8-.22 0-.4-.643-.4-1.429 0-1.375-.841-2.797-1.352-2.285-.137.136-.248-.143-.248-.619 0-.477-.18-.867-.4-.867-.22 0-.4-.36-.4-.8 0-.44-.199-.8-.443-.8-.243 0-.336-.277-.207-.615.135-.35-.019-.713-.357-.843-.326-.125-.593-.568-.593-.985 0-.416-.18-.757-.4-.757-.22 0-.4-.468-.4-1.04 0-.617-.453-1.47-1.115-2.1-.617-.586-1.051-1.373-.971-1.76.091-.441-.098-.7-.512-.7-.474 0-.585-.222-.402-.8.181-.571.072-.8-.381-.8-.486 0-.572-.247-.368-1.06.187-.745.13-.975-.193-.776-.293.181-.46-.049-.464-.64-.005-.743-.082-.807-.394-.324-.295.457-.389.296-.394-.673-.004-.919-.229-1.344-.806-1.527-.503-.16-.8-.605-.8-1.2s-.297-1.04-.8-1.2c-.44-.14-.8-.562-.8-.939 0-.376-.36-.944-.8-1.261-.44-.317-.8-.857-.8-1.2 0-.343-.36-.883-.8-1.2-.44-.317-.8-.825-.8-1.128 0-.303-.54-1.055-1.2-1.672-.66-.617-1.2-1.369-1.2-1.672 0-.303-.36-.811-.8-1.128-.44-.317-.8-.885-.8-1.261 0-.377-.36-.799-.8-.939-.44-.14-.8-.512-.8-.827 0-.315-.18-.573-.4-.573-.22 0-.4-.35-.4-.777 0-.441-.523-1.087-1.208-1.491-.705-.417-1.121-.939-1-1.255.242-.631-.737-2.199-1.128-1.808-.145.145-.264-.066-.264-.469 0-.403-.109-.624-.242-.491-.329.329-2.158-1.539-2.158-2.203 0-.291-.36-.789-.8-1.106-.44-.317-.8-.817-.8-1.112 0-.294-.135-.461-.3-.371-.165.091-1.249-.799-2.408-1.976-1.159-1.178-1.924-2.141-1.7-2.141.224 0-2.112-2.52-5.192-5.6-3.08-3.08-5.87-5.6-6.2-5.6-.333 0-.6-.356-.6-.8 0-.459-.267-.8-.626-.8-.344 0-1.503-.9-2.574-2s-2.15-2-2.398-2c-.247 0-.352-.158-.232-.351.119-.194-.32-.459-.976-.59-.699-.14-1.194-.492-1.194-.849 0-.335-.191-.61-.424-.61-.233 0-.312-.18-.176-.4.136-.22-.033-.4-.376-.4-.343 0-.624-.188-.624-.418 0-.229-.311-.364-.691-.3-.46.079-.693-.148-.7-.682-.006-.583-.239-.768-.858-.683-.576.079-.918-.146-1.063-.7a1.065 1.065 0 00-1.051-.817c-.46 0-.837-.18-.837-.4 0-.22-.258-.4-.573-.4-.315 0-.687-.36-.827-.8-.14-.44-.53-.8-.866-.8-.337 0-1.117-.54-1.734-1.2-.617-.66-1.369-1.2-1.672-1.2-.303 0-.811-.36-1.128-.8-.317-.44-.857-.8-1.2-.8-.343 0-.883-.36-1.2-.8-.317-.44-.885-.8-1.261-.8-.377 0-.799-.36-.939-.8-.162-.511-.605-.8-1.227-.8-.535 0-.973-.173-.973-.384 0-.795-1.805-2.047-2.793-1.937-.681.076-.969-.065-.89-.434.078-.364-.142-.479-.658-.344-.535.139-.934-.095-1.287-.754-.354-.661-.738-.885-1.242-.725-.503.16-.73.029-.73-.422 0-.487-.219-.584-.861-.381-.675.215-.808.139-.62-.352.167-.434.062-.558-.339-.404-.319.123-.58.023-.58-.22 0-.244-.5-.443-1.112-.443-.653 0-1.349-.33-1.688-.8-.317-.44-.897-.8-1.288-.8-.392 0-.712-.18-.712-.4 0-.22-.36-.4-.8-.4-.44 0-.8-.18-.8-.4 0-.22-.348-.4-.773-.4-.425 0-.887-.36-1.027-.8-.189-.595-.605-.8-1.627-.8-.755 0-1.373-.18-1.373-.4 0-.22-.204-.4-.453-.4-.249 0-.789-.388-1.2-.861-.411-.474-.747-.654-.747-.4 0 .253-.191.461-.424.461-.233 0-.312-.18-.176-.4.144-.233-.263-.4-.976-.4-.673 0-1.224-.18-1.224-.4 0-.22-.36-.4-.8-.4-.44 0-.8-.18-.8-.4 0-.22-.54-.4-1.2-.4-.66 0-1.2-.18-1.2-.4 0-.22-.341-.4-.757-.4-.417 0-.86-.267-.985-.593-.141-.368-.487-.494-.908-.332-.461.177-.588.11-.392-.207.201-.325-.178-.477-1.234-.496-1.217-.023-1.363-.097-.724-.372.792-.34.792-.344-.02-.372-.451-.015-1.043-.251-1.317-.525-.395-.395-.573-.375-.874.1-.251.399-.379.431-.383.097-.003-.275-.456-.5-1.006-.5s-1-.18-1-.4c0-.22-.27-.4-.6-.4-.33 0-.6-.18-.6-.4 0-.22-.315-.397-.7-.394-.536.005-.575.085-.166.344.429.273.41.386-.1.582-.409.157-.634.025-.634-.372 0-.424-.238-.538-.77-.369-.439.139-.912.021-1.1-.274-.734-1.154-4.315-2.234-4.697-1.416-.186.399-.28.398-.466-.001-.129-.275-.759-.5-1.4-.5-.642 0-1.167-.18-1.167-.4 0-.22-.27-.4-.6-.4-.33 0-.603-.225-.606-.5-.004-.333-.136-.3-.394.1s-.39.433-.394.1c-.003-.275-.276-.5-.606-.5-.33 0-.6.208-.6.461 0 .254-.384.029-.854-.5-.571-.642-.913-.795-1.033-.461-.213.593-1.313.677-1.313.1 0-.22-.63-.4-1.4-.4-.77 0-1.4-.18-1.4-.4 0-.22-.54-.4-1.2-.4-.66 0-1.2-.18-1.2-.4 0-.58-1.501-.492-1.709.1-.115.33-.476.16-1.059-.5-.601-.68-.95-.84-1.091-.5-.246.593-1.741.678-1.741.1 0-.22-.81-.4-1.8-.4s-1.8-.18-1.8-.4c0-.22-.821-.4-1.824-.4-1.113 0-1.727-.156-1.576-.4.14-.227-.196-.4-.776-.4-.563 0-1.024.18-1.024.4 0 .22-.27.4-.6.4-.33 0-.6-.18-.6-.4 0-.22-.36-.4-.8-.4-.44 0-.8-.18-.8-.4 0-.22-.45-.4-1-.4s-1 .18-1 .4c0 .22-.54.4-1.2.4-.66 0-1.2-.18-1.2-.4 0-.237-1.467-.4-3.6-.4s-3.6-.163-3.6-.4c0-.22-.81-.4-1.8-.4s-1.8.18-1.8.4c0 .22-.27.4-.6.4-.33 0-.6-.18-.6-.4 0-.635-18.278-.536-18.535.1-.161.4-.208.4-.233 0C189.993.292 186 .193 186 .8m28.323 43.228c9.13 1.009 17.141 2.433 24.477 4.352 2.53.662 5.05 1.312 5.6 1.445.55.133 1.36.393 1.8.578.44.184 2.15.782 3.8 1.328 34.775 11.513 66.154 36.906 84.61 68.469l1.871 3.2c1.69 2.892 5.929 11.565 7.625 15.6 6.615 15.739 9.775 28.288 11.889 47.227.522 4.678.525 23.445.003 27.809l-.809 6.764c-.389 3.249-.743 5.38-1.628 9.8-6.837 34.155-24.529 64.665-50.761 87.538-17.56 15.311-38.489 26.742-59.8 32.661-7.413 2.059-14.218 3.528-20.2 4.359-1.65.229-4.53.642-6.4.916-4.713.693-28.097.69-33.4-.003-3.611-.472-7.117-1.018-13.331-2.076-41.056-6.992-84.117-37.305-104.913-73.853l-2.243-3.942c-6.035-10.603-11.506-24.429-14.957-37.8-1.126-4.362-1.403-5.663-2.362-11.1-2.941-16.682-3.102-37.803-.395-52.1.187-.99.548-2.97.802-4.4 2.855-16.101 10.526-36.479 18.821-50l3.194-5.2c2.426-3.944 8.427-12.141 11.467-15.663 21.656-25.09 47.553-42.033 76.917-50.322.99-.279 2.25-.65 2.8-.823 3.772-1.19 14.272-3.265 20.2-3.992 1.98-.243 4.77-.59 6.2-.772 3.878-.491 24.671-.492 29.123 0m-63.556 94.53c-.092.087-2.108.365-4.48.619-41.017 4.375-67.908 43.554-57.258 83.423.294 1.1.648 2.45.786 3 .139.55.399 1.36.579 1.8.181.44.738 1.88 1.238 3.2 7.318 19.293 25.553 34.256 47.968 39.359 8.959 2.04 26.463 2.03 34.6-.019 4.035-1.017 5.023-1.304 8.4-2.441 9.133-3.077 17.46-8.332 24.1-15.21 3.375-3.496 3.352-3.412 1.4-5.113-1.423-1.239-7.643-6.974-13.966-12.876-3.421-3.194-3.227-3.157-5.186-.98-19.692 21.887-58.521 15.544-68.868-11.25-1.137-2.944-1.398-3.796-2.54-8.27-.672-2.636-.677-14.467-.007-17.4 2-8.759 4.95-14.663 10.036-20.09 15.826-16.887 44.176-17.024 60.752-.293 1.299 1.311 2.45 2.383 2.559 2.383.318 0 4.956-4.197 12.7-11.491l2.22-2.091 18.2.091 18.2.091.101 52.305.102 52.305 14.698-.105 14.699-.105.101-52.3.102-52.3H313.2v-24H200.8v5.6c0 5.576-.163 6.18-1.348 4.995-3.866-3.866-17.032-9.554-26.452-11.429-5.767-1.148-21.46-2.141-22.233-1.408M21.813 202.879c.873.397 1.003.651.771 1.5-.153.561-.302 1.905-.331 2.985-.079 2.93.768 2.77 1.298-.246 1.097-6.234 6.959-6.589 7.876-.478.321 2.143-.026 5.719-.612 6.305-.629.629-3.358-.795-3.052-1.592.487-1.271.653-3.57.296-4.104-.585-.873-1.259-.131-1.259 1.387 0 4.038-3.072 6.515-5.835 4.705-1.598-1.048-2.165-2.593-2.165-5.902 0-4.55.703-5.613 3.013-4.56m361.219.46c.621 1.619-.424 4.387-1.835 4.861l-1.397.469-.115 3.218-.116 3.219 1.516.784c1.396.722 1.525.935 1.639 2.703.196 3.021-.062 3.015-6.6-.149-10.697-5.178-9.507-4.354-9.643-6.68-.153-2.637-.298-2.535 8.462-6.026 8.101-3.228 7.804-3.14 8.089-2.399m-9.268 7.431c-1.648.635-1.987 1.63-.554 1.63.408 0 .854.18.99.4.604.977 1.713.392 1.875-.989.196-1.685-.189-1.859-2.311-1.041m-345.26 4.834c5.526 2.618 4.983 11.079-.822 12.819-2.284.684-2.447.439-2.748-4.149-.269-4.087-.891-5.055-1.785-2.774-.352.899-.281 1.377.388 2.619l.818 1.519-1.133 1.267c-1.895 2.121-3.622-.181-3.622-4.826 0-5.451 4.366-8.626 8.904-6.475m-1.298 5.696c.007 2.03.394 2.794 1.171 2.314 1.087-.672.399-4.014-.826-4.014-.193 0-.348.765-.345 1.7m347.194 1.022l7.4 1.079.12 1.647c.144 1.964-.491 2.607-5.493 5.561-3.881 2.291-3.92 2.44-.727 2.773 4.825.502 4.7.433 4.7 2.601 0 2.527-.412 2.796-3.6 2.353l-5.4-.751c-1.54-.214-3.75-.504-4.912-.644-2.487-.301-2.638-.47-2.284-2.566.284-1.678 1.992-3.131 6.596-5.607 2.812-1.512 2.705-1.705-1.317-2.364-3.663-.601-3.684-.611-3.803-1.827-.128-1.309.499-3.391 1.01-3.355.171.012 3.64.507 7.71 1.1M33.205 231.22c.24.89.337 1.932.216 2.315-.122.383.139 1.402.579 2.265.913 1.792.987 2.745.351 4.568-.405 1.161-.345 1.394.611 2.393 1.273 1.328 1.775 4.481.956 6-1.084 2.012-2.725 2.664-10.449 4.154-.534.103-1.635-3.104-1.335-3.887.118-.308 1.261-.771 2.54-1.031 4.331-.878 5.112-1.279 5.25-2.697.169-1.723-1.143-2.036-5.122-1.222-3.674.752-3.725.734-4.242-1.497-.514-2.216-.369-2.359 3.04-2.978 4.079-.741 4.8-1.111 4.8-2.46 0-1.8-1.21-2.138-4.911-1.374-4.19.865-4.095.892-4.587-1.262-.585-2.556-.722-2.467 5.698-3.705 1.32-.254 2.94-.61 3.6-.791 2.261-.62 2.543-.506 3.005 1.209m332.637 7.772c1.071.447 1.361.768 1.189 1.311-1.547 4.872-1.706 6.756-.601 7.107 1.169.37 2.292-1.951 2.352-4.861.033-1.571 4.018-2.068 4.018-.501 0 .283-.787 3.285-1.408 5.376-.188.631.008.939.842 1.319 1.424.649 1.623.388 2.352-3.075.927-4.409 2.315-5.574 4.359-3.661.273.255-1.288 7.852-2.409 11.73-.252.869-.52.837-8.336-.994-6.554-1.535-7.4-1.853-7.4-2.781 0-.772 1.418-6.727 2.635-11.062.182-.65.678-.631 2.407.092M38.242 253.5c.119.385.392 1.026.606 1.425.215.399.28 1.071.146 1.494-.157.493.123 1.25.781 2.113 1.686 2.21 1.485 5.352-.475 7.41-4.2 4.411-11.3 2.171-11.3-3.565 0-1.784-.053-1.805-2.432-.966-2.188.772-2.49.642-3.15-1.356-.555-1.682-.176-2.848.931-2.86.248-.003 3.421-.985 7.051-2.184 7.44-2.455 7.543-2.475 7.842-1.511m325.148 1.28c.851 1.647.793 1.921-.79 3.673-3.227 3.572-.514 8.382 4.15 7.358 3.174-.697 4.206-4.708 1.46-5.673-2.143-.753-2.259-.927-1.777-2.672.546-1.979 1.034-2.105 4.044-1.05 3.861 1.354 4.507 3.247 2.854 8.363-2.532 7.841-14.022 7.854-16.132.018-1.443-5.359 4.024-14.206 6.191-10.017m-331.32 4.946c-1.094 1.164-1.097 1.88-.014 3.042 1.624 1.743 4.744.558 4.744-1.803 0-2.24-3.042-3.037-4.73-1.239m11.294 10.349c3.865 3.185 3.784 8.341-.173 11.034-1.831 1.246-1.974 1.131-3.786-3.039-1.669-3.841-2.605-4.668-2.605-2.301 0 .998.336 1.706 1.241 2.61 1.236 1.237 1.238 1.246.581 2.631-1.213 2.556-4.089.327-5.384-4.172-1.721-5.977 5.351-10.7 10.126-6.763M40 273.004c0 .932 1.758 3.71 2.232 3.528.827-.317.695-1.845-.248-2.857-.727-.78-1.984-1.206-1.984-.671m329.437 1.1c.908.908-1.633 4.096-3.366 4.22-2.863.206-4.948 5.118-3.103 7.31l.967 1.15-.82 1.708c-1 2.081-1.562 2.498-2.206 1.637-.27-.361-.9-1.123-1.401-1.693-.5-.57-2.755-3.13-5.009-5.69-4.547-5.163-4.422-4.88-3.269-7.412l.83-1.822 8.541.148c4.697.081 8.673.281 8.836.444m-13.035 4.085c.001.226.57 1.018 1.265 1.759l1.263 1.348.704-1.348c.387-.741.583-1.465.435-1.607-.472-.455-3.669-.587-3.667-.152m-306.476 4.249c.481.901.77 1.806.643 2.012-.127.206.343 1.028 1.045 1.827l1.275 1.452-.944.729c-1.704 1.314-2.421 1.342-3.386.131-1.156-1.449-2.486-1.405-5.503.181-2.993 1.575-3.555 1.551-4.382-.184-1.025-2.149-.895-2.38 2.226-3.949 1.595-.802 3.89-1.993 5.1-2.647 2.805-1.517 2.882-1.508 3.926.448m299.694.972c1.397.723 1.458 1.271.357 3.23-1.129 2.011-1.051 2.106 4.227 5.171 5.363 3.114 5.4 3.164 4.019 5.352-1.293 2.049-.801 2.139-6.366-1.163-5.528-3.279-5.448-3.265-6.602-1.212-1.147 2.04-1.312 2.122-2.798 1.38-1.875-.935-1.862-1.057.577-5.258 1.248-2.151 2.589-4.47 2.98-5.155 1.913-3.35 1.802-3.278 3.606-2.345M57.641 296.913c3.008 2.022 4.863 6.763 2.933 7.497-1.568.596-1.64.548-2.846-1.879-1.164-2.342-2.128-3.175-2.128-1.839 0 .417.36 1.503.8 2.414 2.557 5.292-2.483 8.543-6.573 4.238-2.321-2.443-3.72-6.592-2.394-7.101 1.711-.657 2.396-.279 3.114 1.719.703 1.955 2.028 3.596 2.513 3.112.14-.141-.131-1.183-.603-2.318-2.135-5.138.99-8.661 5.184-5.843m287.832 1.587c1.467.997 2.527 2.87 2.527 4.46 0 1.021.052 1.04 2.8 1.04 3.22 0 3.456.341 1.706 2.469-1.53 1.863-1.647 1.918-4.075 1.925-3.513.01-4.187.968-1.994 2.837l1.7 1.45-1.168 1.651c-1.634 2.308-.497 2.834-12.912-5.965-1.856-1.315-1.817-1.577.784-5.177 4.143-5.737 7.146-7.062 10.632-4.69m-5.87 4.759c-1.532 1.604-1.511 2.011.17 3.294 1.763 1.344 1.992 1.321 2.994-.3 2.007-3.246-.582-5.695-3.164-2.994m-269.837-.096c1.042 1.151.701 3.263-.648 4.016-2.045 1.143-4.626-1.991-3.253-3.95.756-1.079 2.951-1.117 3.901-.066m-4.593 3.931c1.545 1.875 1.861 1.403-3.773 5.649l-4.8 3.619-1.3-1.448c-1.819-2.025-1.813-2.036 3.2-5.862 5.191-3.963 5.054-3.923 6.673-1.958m4.005 5.406c.67.715 1.219 1.52 1.22 1.79.001.269.528.761 1.17 1.094 1.479.764 2.723 2.494 2.897 4.029.106.933.411 1.276 1.427 1.605 5.418 1.751 5.547 6.012.328 10.886-3.589 3.352-3.71 3.383-5.442 1.41l-1.304-1.485 2.62-2.415c3.288-3.029 3.758-3.862 2.709-4.811-1.132-1.025-2.405-.529-5.136 2-2.814 2.605-2.717 2.593-4.368.532l-1.301-1.624 2.801-2.593c2.96-2.741 3.524-4.103 2.027-4.904-1.213-.649-1.413-.558-4.362 1.986-3.274 2.825-3.161 2.802-4.79.961-1.638-1.849-1.903-1.367 3.222-5.861 5.094-4.466 4.69-4.299 6.282-2.6m263.622 1.962c1.43.442 3.14.954 3.8 1.138 8.016 2.231 8.097 2.292 5.934 4.454-1.604 1.605-1.67 1.629-3.11 1.154l-1.471-.486-2.159 2.339c-2.488 2.696-2.431 2.53-1.423 4.188l.771 1.268-1.456 1.741c-1.811 2.167-1.875 2.164-2.925-.158-.472-1.045-2.1-4.492-3.618-7.66-3.004-6.273-3.035-6.549-.937-8.391 1.228-1.079 1.501-1.16 2.681-.796.722.222 2.483.766 3.913 1.209m-2.8 3.926c0 .213.383 1.123.852 2.021l.851 1.634.962-.904c1.289-1.211 1.055-1.905-.865-2.571-1.925-.669-1.8-.656-1.8-.18m-7.903 4.912c.474 1.299-.181 3.5-1.041 3.501-3.24.006-5.516 3.913-3.85 6.609 2.275 3.68 6.69 3.013 8.077-1.221.504-1.539.577-1.589 2.319-1.589 3.811 0 1.424 6.204-3.345 8.692-7.655 3.993-15.677-5.279-10.637-12.294 2.173-3.026 7.823-5.491 8.477-3.698M85.5 329.606c1.645 1.497 1.632 1.686-.267 3.717-3.415 3.653-3.709 4.288-2.571 5.546 1.171 1.294 2.176.868 4.93-2.089l2.627-2.821 1.476 1.121c2.175 1.651 2.186 1.62-2.173 6.546a428.462 428.462 0 00-3.047 3.474c-1.172 1.372-3.478.272-4.529-2.161-.08-.187-.822-.652-1.649-1.034-4.337-2.005-4.064-5.473.871-11.053 2.486-2.81 2.582-2.838 4.332-1.246m14.773 6.494c1.749 1.191 1.701 1.45-.891 4.818-1.22 1.585-3.419 4.457-4.886 6.382-3.024 3.967-3.024 3.967-5.061 2.2l-1.498-1.3 3.073-4c1.691-2.2 3.91-5.118 4.932-6.484 2.071-2.768 2.437-2.905 4.331-1.616m203.7 1.862c1.146 1.61 1.151 1.602-2.005 3.818-3.303 2.319-3.336 2.359-2.772 3.412.602 1.125.88 1.047 3.562-.992 2.295-1.745 3.642-2.253 3.642-1.371 0 .235.27.698.6 1.028.943.943.766 1.228-2 3.218-2.65 1.906-2.97 2.395-2.12 3.245.765.765 1.371.581 3.568-1.083 3.574-2.704 3.844-2.781 4.959-1.416 1.242 1.519 1.228 1.868-.107 2.658-.605.358-2.81 1.922-4.9 3.474-4.734 3.517-4.18 3.608-7.658-1.253-1.614-2.255-3.61-5-4.436-6.1-2.017-2.684-2.132-2.454 3.194-6.339 5.316-3.876 5.343-3.886 6.473-2.299m-12.336 8.491c1.23 1.726.425 2.614-4.737 5.221-1.002.506-1.142 1.124-.42 1.846.74.74 1.328.593 3.693-.92 2.676-1.712 3.039-1.726 3.936-.149.863 1.516.706 1.741-2.484 3.535-2.554 1.437-2.673 1.604-2.011 2.84.571 1.067.751 1.021 4.227-1.089 2.162-1.313 3.238-1.756 3.641-1.5.674.428 1.965 2.463 1.701 2.682-.868.718-10.539 6.281-10.919 6.281-.401 0-3.211-4.261-3.823-5.8-.088-.22-.673-1.152-1.3-2.072-.628-.92-1.141-1.779-1.141-1.909 0-.13-.455-.924-1.012-1.765-.899-1.359-1.027-2.851-.245-2.856.141-.001 2.327-1.247 4.857-2.769 5.434-3.269 4.927-3.136 6.037-1.576m-192.912 3.563c1.848 1.721 1.102 3.3-2.801 5.926-2.972 2.001-5.687.338-2.908-1.781 1.046-.798 1.384-1.354 1.384-2.277 0-2.458 2.522-3.548 4.325-1.868m17.06 1.977c4.409 2.104 5.478 4.714 3.469 8.466-2.636 4.923-3.076 5.65-3.516 5.82-.612.235-3.327-1.54-3.333-2.179-.003-.275-.467-.5-1.031-.5-2.405 0-4.974-2.3-4.974-4.453 0-3.542 3.207-4.73 7.018-2.599 2.245 1.255 2.182 1.246 2.182.298 0-.884-1.344-1.854-3.248-2.344-1.075-.277-1.379-.576-1.482-1.459-.305-2.61 1.043-2.898 4.915-1.05m162.237 2.819c1.205.645 2.085 2.692 1.803 4.194-.221 1.178-.129 1.349.913 1.712 5.653 1.971 3.759 6.807-4.089 10.446-5.644 2.617-5.16 2.729-7.213-1.666a638.905 638.905 0 00-3.203-6.741c-1.911-3.939-2.002-3.735 2.667-5.929 5.623-2.642 7.272-3.006 9.122-2.016M136.5 357.326c1.903.868 1.891 1.026-.44 5.964-1.067 2.261-2.448 5.28-3.068 6.71-1.66 3.829-1.816 3.942-3.988 2.887-.992-.482-1.804-1.059-1.804-1.282 0-.223-.585-.406-1.3-.406-6.138-.008-7.516-9.273-1.82-12.237 2.183-1.136 6.097-.405 7.061 1.319.519.926 1.312.238 2.026-1.756.514-1.437 1.183-2.255 1.633-1.997.11.063.875.422 1.7.798m135.6 1.863c-1.908.866-1.87.8-1.236 2.192.561 1.23.729 1.243 2.771.201 3.536-1.804 2.1-4.043-1.535-2.393m-161.444.21c-.313.814 1.463 1.944 2.524 1.607 1.005-.319 1.05-.943.12-1.649-.944-.717-2.362-.694-2.644.042M264.858 367c2.755 8.067 2.755 8.068.955 8.82-2.211.924-2.41.789-3.42-2.32-1.429-4.4-1.644-4.461-2.418-.688-.977 4.755-1.982 5.1-5.635 1.936-2.392-2.072-3.241-2.298-2.436-.647.954 1.954 2 5.511 1.68 5.709-3.513 2.171-3.592 2.093-6.467-6.41-2.672-7.901-2.613-7.537-1.298-8.136 1.755-.799 2.761-.522 5.005 1.382 6.167 5.232 5.57 5.267 6.731-.393 1.073-5.233 1.054-5.192 2.645-5.766 2.116-.764 2.225-.611 4.658 6.513m-138.632-3.969c-1.755 1.755-1.757 3.642-.005 4.58 2.255 1.207 4.689-1.962 3.224-4.198-.762-1.164-2.26-1.341-3.219-.382m150.571.97c-3.113.863-4.099 1.959-3.051 3.393.904 1.236 5.054-.732 5.054-2.397 0-1.073-.618-1.38-2.003-.996m-126.012 3.311c2.394.973 4.013 2.846 4.017 4.647.003 1.537-2.442 8.841-2.958 8.839-1.014-.005-3.444-.864-3.444-1.217 0-.209-.708-.381-1.574-.381-4.711 0-7.308-3.98-4.457-6.831 1.342-1.342 2.525-1.466 5.467-.573 1.08.327 2.009.597 2.064.6.055.002.1-.244.1-.547 0-.93-1.089-1.523-3.293-1.792-2.171-.265-2.856-1.25-2.149-3.091.333-.868 3.697-.682 6.227.346M244.071 374l1.9 7.52c.069.285-2.832 1.28-3.731 1.28-1.101 0-1.018.189-2.261-5.2a304.438 304.438 0 00-1.627-6.693c-.958-3.683-.98-3.517.548-4.017 3.145-1.029 3.096-1.097 5.171 7.11m-8.491-3.7c.239 1.265.65 3.38.913 4.7 1.125 5.661.488 8.045-2.573 9.638-1.628.847-5.891.72-7.102-.211l-.983-.755.783-1.469c.997-1.874 1.058-1.903 2.446-1.211 3.159 1.576 3.946-1 2.198-7.192-.358-1.268-.384-1.275-3.374-.871-1.789.242-1.937.193-2.3-.761-.801-2.106-.559-2.479 1.912-2.946 1.265-.24 3.02-.591 3.9-.781 3.541-.764 3.695-.695 4.18 1.859m-60.667-.047c.547.16.687.553.6 1.678-.096 1.247.019 1.488.758 1.593 2.246.32 2.128 3.676-.129 3.676-1.471 0-1.551.114-1.916 2.717-.235 1.673-.204 1.733 1.19 2.315 2.084.871 1.968 3.493-.163 3.697-4.111.393-6.307-2.339-5.584-6.948.33-2.104.287-2.414-.41-2.965-1.071-.848-.747-3.117.47-3.294.611-.088.944-.546 1.206-1.657.38-1.616.892-1.721 3.978-.812m-9.536.973c2.592.97 2.892 1.324 2.206 2.606-.676 1.262-1.585 1.504-3.012.8-1.975-.974-3.371-1.199-3.371-.544 0 .317 1.151 1.154 2.559 1.861 3.178 1.597 3.934 2.928 2.897 5.102-1.34 2.81-5.088 3.225-9.456 1.046-2.47-1.232-2.565-1.453-1.311-3.046l.888-1.13 1.312.806c.721.443 1.986.931 2.811 1.084 2.258.418 1.894-.481-.649-1.606-7.63-3.374-2.803-9.946 5.126-6.979m19.05 3.406c.34.41.657.444 1.235.135 1.752-.938 2.952-.323 2.797 1.433-.181 2.058-.285 2.2-1.621 2.2-1.735 0-2.452 1.169-2.988 4.869l-.482 3.331-1.941-.07c-1.879-.067-2.716-.588-2.401-1.494.083-.24.339-2.671.569-5.402.229-2.732.584-5.168.788-5.413.49-.591 3.462-.289 4.044.411m-38.638.186c-.387.626.586 1.582 1.611 1.582 1.228 0 2.174-1.118 1.374-1.624-.784-.497-2.669-.47-2.985.042m52.999.576c2.404 1.243 2.851 2.47 2.725 7.486l-.113 4.52-1.73.124c-.957.069-1.991-.093-2.317-.363-.444-.369-.699-.375-1.05-.024-1.992 1.992-7.103-.403-7.103-3.329 0-2.736 1.527-3.808 5.426-3.808 1.653 0 2.174-.142 2.174-.592 0-.804-1.644-1.158-3.955-.852-1.963.261-2.845-.465-2.845-2.341 0-1.34 6.594-1.956 8.788-.821m18.792 3.582c1.369 1.65.387 2.804-2.69 3.163-3.756.438-4.172.268-4.014-1.636L211 379l2.2-.235c3.69-.394 3.886-.384 4.38.211m-23.48 3.68c-.753.317-.6 1.624.215 1.838 1.146.299 2.561-.4 2.411-1.192-.133-.7-1.625-1.067-2.626-.646" fill="red"/><path d="M181.6.8c0 .22.72.4 1.6.4.88 0 1.6-.18 1.6-.4 0-.22-.72-.4-1.6-.4-.88 0-1.6.18-1.6.4m32.8 0c0 .22.765.397 1.7.394 1.245-.005 1.539-.11 1.1-.394-.79-.51-2.8-.51-2.8 0m-38.4.8c0 .22.371.4.824.4.453 0 .712-.18.576-.4-.321-.519-1.4-.519-1.4 0m45.6 0c0 .519 1.079.519 1.4 0 .136-.22-.123-.4-.576-.4-.453 0-.824.18-.824.4m12 1.6c0 .22.371.4.824.4.453 0 .712-.18.576-.4-.136-.22-.507-.4-.824-.4-.317 0-.576.18-.576.4m-80.8 2.4c0 .22.27.4.6.4.33 0 .6-.18.6-.4 0-.22-.27-.4-.6-.4-.33 0-.6.18-.6.4M144 8c0 .22.27.4.6.4.33 0 .6-.18.6-.4 0-.22-.27-.4-.6-.4-.33 0-.6.18-.6.4m43.651 36.032c-29.154 2.236-55.502 12.023-80.851 30.033C85.708 89.051 67.18 112.43 55.496 138.8c-.864 1.951-.91 2.065-2.486 6.17-11.792 30.726-13.085 69.701-3.34 100.63.97 3.077 1.225 3.833 1.55 4.6.187.44.602 1.61.923 2.6 3.05 9.419 9.711 22.747 16.824 33.665.935 1.435 4.724 6.834 5.239 7.466A591.93 591.93 0 0177.435 298c4.67 5.918 12.788 14.417 18.565 19.436.99.86 1.89 1.654 2 1.764 2.639 2.639 18.831 14.4 19.825 14.4.138 0 .729.339 1.313.753 6.507 4.613 22.946 11.876 36.262 16.02 26.184 8.15 62.784 8.153 88.4.006 27.714-8.814 47.784-20.786 67.013-39.973 18.151-18.111 33.24-43.624 39.392-66.606 1.781-6.656 2.208-8.392 2.949-12 4.578-22.283 4.245-45.442-.976-67.8-1.445-6.187-4.36-15.499-6.574-21-.368-.912-.974-2.338-2.807-6.6-2.369-5.51-7.282-14.737-10.284-19.316a119.17 119.17 0 01-1.513-2.355c-13.767-22.642-41.514-46.318-67.4-57.51A313.53 313.53 0 01259 55.2c-17.286-8.137-48.063-12.954-71.349-11.168M71.643 46.023c-.526.438-.842.911-.702 1.051.14.14.615-.162 1.056-.671 1.247-1.438 1.103-1.593-.354-.38M66.64 50.24c-.807.807-1.383 1.551-1.28 1.653.103.103.847-.473 1.653-1.28.807-.806 1.383-1.55 1.28-1.653-.102-.103-.846.473-1.653 1.28m264.16-1.222c0 .414 2.049 2.266 2.267 2.049.12-.12-.243-.679-.806-1.243-.996-.996-1.461-1.252-1.461-.806m-118 9.024c7.559.612 19.783 2.846 26.2 4.788 41.512 12.563 74.819 41.489 91.159 79.17l1.647 3.8c11.136 25.684 13.861 65.336 6.184 90-.205.66-.761 2.55-1.235 4.2-7.556 26.318-21.456 47.908-43.829 68.075-20.304 18.301-49.781 30.929-79.326 33.983-53.717 5.553-110.224-22.855-136.352-68.548l-2.466-4.31c-2.212-3.864-6.416-12.72-7.786-16.4-.369-.99-.829-2.16-1.023-2.6-.31-.703-2.94-8.709-3.942-12-6.485-21.307-6.631-52.403-.353-75 1.144-4.115 3.859-12.447 4.333-13.295.214-.382.389-.871.389-1.088 0-.216.429-1.344.954-2.505a398.89 398.89 0 002.245-5.112c2.915-6.766 12.519-23.324 14.387-24.8.139-.11.682-.83 1.206-1.6 4.535-6.66 16.478-19.051 24.753-25.681 4.513-3.616 16.395-11.919 17.057-11.919.117 0 .975-.481 1.906-1.068 1.74-1.1 12.415-6.532 12.834-6.532.129 0 1.275-.476 2.546-1.058 18.693-8.554 44.226-12.467 68.512-10.5M49.324 67.373c-.645.735-.171 1.131.524.437.303-.304.552-.656.552-.781 0-.403-.585-.216-1.076.344m299.476-.344c0 .424 1.236 1.468 1.467 1.238.125-.126-.05-.507-.391-.848-.635-.635-1.076-.795-1.076-.39M44.493 73.2c-.275.44-.395.8-.268.8.3 0 1.375-1.073 1.375-1.371 0-.509-.638-.18-1.107.571m309.107-.575c0 .466 1.155 1.372 1.349 1.058.109-.178-.149-.54-.575-.806-.426-.266-.774-.379-.774-.252m8.19 10.823c.357.356.769.526.917.378.149-.148.005-.437-.319-.642-.945-.597-1.301-.44-.598.264m-212.19 50.93c-33.254 2.708-58.696 24.072-65.526 55.022-2.809 12.728-1.493 30.628 3.089 42 11.341 28.152 36.962 44.434 69.837 44.379 24.409-.041 42.52-7.876 56.515-24.447 2.548-3.017 2.549-2.817-.015-5.129a391.094 391.094 0 01-4.3-3.951c-1.21-1.131-5.53-5.114-9.6-8.851-4.07-3.737-7.635-7.111-7.923-7.498-.809-1.088-1.336-.838-3.277 1.553-9.246 11.386-22.555 16.459-37.2 14.177-23.15-3.606-36.199-28.238-27.289-51.511 8.121-21.212 35.969-28.985 55.889-15.6 2.362 1.587 10.2 9.206 10.2 9.915 0 .521.655.447 1.271-.143.291-.278 3.049-2.834 6.129-5.679 3.08-2.845 6.624-6.129 7.875-7.299l2.276-2.126 15.124.105 15.125.105.2 52.2.2 52.2 18.2.111c10.01.061 18.604.013 19.099-.107l.898-.218.102-52.093.101-52.093 20.184-.104c11.101-.057 20.33-.25 20.509-.429.238-.238.442-21.269.312-32.067-.008-.645-120.797-.545-120.834.1-.016.275-.004 1.832.028 3.459.074 3.851.018 3.864-5.293 1.243-11.625-5.734-27.209-8.421-41.906-7.224m22.2 5.155c9.806 1.883 17.772 5.055 25.359 10.099 1.628 1.083 3.108 1.968 3.289 1.968.181 0 .38-2.475.441-5.5l.111-5.5h112.4v24l-20.6.2-20.6.2-.101 52.305-.102 52.305-14.898-.105-14.899-.105-.101-52.3-.102-52.3-17.898.002-17.899.002-1.4 1.274a2728.964 2728.964 0 00-12.406 11.387l-1.406 1.314-2.89-2.766c-11.87-11.364-28.361-15.117-44.073-10.032-33.361 10.798-36.832 60.156-5.342 75.967 16.383 8.225 36.163 5.004 49.48-8.058l2.763-2.711 1.034.911c.568.5 1.126 1 1.239 1.11.114.11 1.469 1.37 3.011 2.8 1.542 1.43 5.028 4.67 7.746 7.2 2.718 2.53 5.1 4.66 5.293 4.733 1.679.638-4.541 7.34-10.974 11.825-7.191 5.014-17.833 9.403-26.275 10.838-51.177 8.695-91.494-27.437-84.607-75.826 2.695-18.931 13.754-35.948 29.659-45.635 2.834-1.726 10.256-5.535 10.786-5.535.165 0 1.393-.433 2.731-.963 10.139-4.015 29.061-5.44 41.231-3.104m219.8 5.867c0 .33.18.6.4.6.22 0 .4-.27.4-.6 0-.33-.18-.6-.4-.6-.22 0-.4.27-.4.6m2.4 9c0 .44.18.8.4.8.22 0 .4-.36.4-.8 0-.44-.18-.8-.4-.8-.22 0-.4.36-.4.8m2.4 11.576c0 .453.18.824.4.824.22 0 .4-.259.4-.576 0-.317-.18-.688-.4-.824-.22-.136-.4.123-.4.576m.908 4.052c-.032.424.111.772.317.772.455 0 .502-1.075.058-1.349-.174-.107-.343.152-.375.577M1.2 172c0 .66.18 1.2.4 1.2.22 0 .4-.54.4-1.2 0-.66-.18-1.2-.4-1.2-.22 0-.4.54-.4 1.2m-.8 5.8c0 .33.18.6.4.6.22 0 .4-.27.4-.6 0-.33-.18-.6-.4-.6-.22 0-.4.27-.4.6m398.4 7.576c0 1.003.187 1.824.416 1.824.48 0 .392-3.148-.096-3.449-.176-.109-.32.622-.32 1.625m-379.537 18.57c-1.587 5.3 1.069 10.873 4.596 9.643 1.5-.523 2.375-2.023 2.734-4.689.52-3.87 1.979-3.058 1.651.921-.196 2.377-.178 2.428.963 2.859 1.501.567 1.822.165 2.142-2.68.873-7.738-6.528-10.969-7.555-3.298-.348 2.602-.472 2.898-1.217 2.898-.689 0-.704-3.781-.02-5.273.231-.505.006-.829-.905-1.3-1.705-.882-1.868-.819-2.389.919m354.937 2.25l-7.2 2.923v4.585l1.8.949c3.367 1.774 12.756 6.147 13.2 6.147 1.196 0 .245-4.109-1.103-4.766l-1.302-.634.102-3.398.103-3.398 1.5-.705c1.439-.677 1.5-.787 1.5-2.702 0-2.568.26-2.598-8.6.999m2.2 5.38c0 2.009-.305 2.169-2.545 1.339-2.444-.906-2.59-1.522-.531-2.234 2.805-.971 3.076-.892 3.076.895M398.8 214c0 .44.18.8.4.8.22 0 .4-.36.4-.8 0-.44-.18-.8-.4-.8-.22 0-.4.36-.4.8m-375 1.465c-4.196 1.118-5.795 10.823-2.022 12.271 1.086.417 2.275-1.944 1.615-3.208-.983-1.884-.525-4.528.784-4.528.408 0 .621 1.001.833 3.9.344 4.72.489 4.964 2.58 4.346 8.263-2.44 4.538-15.001-3.79-12.781m4.986 4.909c.646 1.208.489 2.634-.378 3.418-.919.832-1.013.673-1.366-2.292-.249-2.084.851-2.794 1.744-1.126M.4 222.576c0 .537.18 1.088.4 1.224.233.144.4-.263.4-.976 0-.673-.18-1.224-.4-1.224-.22 0-.4.439-.4.976m365.819-.476c-1.077 3.446-.818 3.764 3.378 4.154 3.229.301 4.167.748 3.073 1.467l-4.4 2.879c-3.58 2.341-3.673 2.441-3.792 4.078-.137 1.891-.652 1.651 5.322 2.486 1.54.215 4.297.605 6.127.866 3.786.542 4.033.433 4.349-1.922.249-1.851.044-1.991-3.41-2.334-5.199-.516-5.197-.573.14-3.759 4.778-2.852 4.417-2.5 4.771-4.646l.27-1.632-2.723-.464c-3.394-.578-11.45-1.673-12.309-1.673-.352 0-.71.225-.796.5m-339.781 8.912c-6.065 1.263-5.7 1.054-5.384 3.078.345 2.207.537 2.299 3.478 1.668 3.411-.732 4.826-.688 5.606.173 1.59 1.758.367 2.905-3.938 3.69-3.473.634-3.807.922-3.454 2.979.314 1.828.981 1.963 5.228 1.057 2.476-.529 3.446-.341 4.049.785 1 1.869-.174 2.755-4.723 3.568l-2.9.518v1.46c0 2.661.451 2.857 4.674 2.03 7.032-1.378 9.467-5.415 5.6-9.283-1.031-1.03-1.144-1.331-.745-1.97.725-1.161.566-3.917-.307-5.33-.471-.762-.65-1.466-.453-1.786.18-.29.148-1.229-.07-2.088-.474-1.866-.377-1.858-6.661-.549m336.953 8.682c-1.339 5.334-2.492 10.543-2.375 10.732.384.621 14.633 4.088 15.05 3.662.155-.158.903-2.808 1.662-5.888 1.497-6.077 1.46-6.425-.715-6.668l-1.187-.132-.894 3.748c-.492 2.061-.98 3.833-1.085 3.938-.392.393-2.647-.372-2.647-.898 0-.648 1.072-4.857 1.353-5.312.351-.568-.331-1.171-1.648-1.456-1.488-.323-1.676-.034-2.531 3.88-.462 2.117-.589 2.3-1.595 2.3-1.353 0-1.631-.656-1.121-2.651.646-2.527 1.202-5.422 1.068-5.554-.803-.788-3.115-.58-3.335.299m-333.475 15.66c-8.261 2.739-8.291 2.754-7.601 3.859.267.427.485 1.124.485 1.548 0 1.116.727 1.21 3.1.399 2.155-.736 2.285-.679 2.123.929-.136 1.347 1.503 4.277 2.85 5.099 5.475 3.338 12.112-2.75 8.976-8.235-.518-.906-1.065-2.466-1.215-3.467-.431-2.872-.449-2.872-8.718-.132m330.514-.333c-6.281 5.674-3.148 15.532 4.933 15.528 3.95-.002 6.733-2.283 8.003-6.559 1.378-4.642.717-6.206-3.193-7.554-3.029-1.044-2.813-1.071-3.334.424-.694 1.992-.551 2.32 1.369 3.144 2.31.99 2.509 1.585 1.248 3.736-1.348 2.301-2.888 2.976-5.115 2.241-3.992-1.318-4.668-5.803-1.252-8.315.976-.718 1.05-.917.611-1.636-.275-.451-.5-1.072-.5-1.382 0-1.178-1.238-1.012-2.77.373m-324.059 4.433c1.106 1.406 1.047 1.989-.34 3.377-1.891 1.891-4.831.901-4.831-1.627 0-2.458 3.644-3.691 5.171-1.75m-.19 10.324c-3.767 2.259-3.797 8.655-.055 11.761 1.934 1.604 3.423-1.134 1.718-3.16-.826-.982-1.057-1.635-.965-2.734.142-1.695 1.12-1.979 1.533-.445.148.55.746 2.04 1.328 3.312.583 1.271 1.06 2.486 1.06 2.7 0 .615 1.33.452 2.411-.296 6.804-4.703.06-15.388-7.03-11.138m5.888 3.684c.85.77.967 2.644.205 3.277-.497.412-2.274-2.361-2.274-3.55 0-.619 1.268-.451 2.069.273m310.053.633c-.212.278-.696 1.182-1.075 2.01l-.689 1.504 2.278 2.696a319.423 319.423 0 004.912 5.635c1.448 1.618 2.873 3.283 3.165 3.7.624.89 1.687 1.011 1.687.192 0-.312.305-1.099.678-1.749.663-1.155.654-1.211-.4-2.463-1.331-1.582-1.354-1.254.328-4.721l1.406-2.899h1.718c1.753 0 4.349-3.36 2.934-3.796-1.543-.475-16.589-.573-16.942-.109m8.119 4.069c.243.631-.871 3.036-1.405 3.036-.348 0-3.236-3.035-3.236-3.401 0-.516 4.438-.167 4.641.365M43.2 283.635c-5.662 2.966-5.424 2.71-4.383 4.708 1.043 2.001.935 1.995 4.21.257 3.217-1.706 4.096-1.741 5.555-.219 1.086 1.134 1.177 1.157 2.295.579 1.72-.889 1.797-1.615.311-2.913-.732-.639-1.181-1.335-1.025-1.588.414-.669-.95-3.261-1.709-3.246-.36.007-2.724 1.097-5.254 2.422m304.242.061c-.319.497-1.935 3.238-3.59 6.09l-3.009 5.186 1.078.711c1.535 1.012 2.311.889 2.867-.454 1.061-2.562 1.633-2.668 4.615-.857 1.473.896 2.744 1.628 2.824 1.628.08 0 .997.54 2.037 1.2 2.836 1.799 2.932 1.758 4.846-2.061.072-.143-1.818-1.372-4.199-2.73-2.381-1.358-4.752-2.787-5.268-3.177l-.938-.707 1.054-1.889c1.167-2.089 1.117-2.369-.572-3.243-1.098-.567-1.196-.55-1.745.303m-294.611 13.34c-1.477 1.243-1.597 2.645-.431 5.058.859 1.778 1.015 2.926.445 3.278-.638.394-2.845-3.201-2.845-4.634 0-.877-2.052-.846-2.941.043-.878.878 2.185 6.37 4.257 7.633 4.122 2.513 6.829-.939 4.671-5.955-1.43-3.326.199-3.398 1.895-.085 1.131 2.209 1.049 2.149 2.489 1.832 1.455-.319 1.501-.683.386-3.031-2.139-4.501-5.444-6.228-7.926-4.139m286.763 1.3c-1.474.778-6.777 7.41-6.768 8.464.002.33 1.033 1.306 2.289 2.169 1.257.864 4.064 2.808 6.239 4.32l3.955 2.751 1.129-1.32c1.482-1.732 1.44-2.327-.241-3.472-2.515-1.712-1.339-3.248 2.487-3.248 2.288 0 2.479-.076 3.469-1.373 1.68-2.204 1.455-2.573-1.653-2.709l-2.7-.118-.131-1.382c-.357-3.746-4.626-5.904-8.075-4.082m3.606 4.464c1.03 1.03 1.009 1.373-.217 3.465-1.199 2.047-1 1.999-2.962.702-2.077-1.375-2.17-1.804-.759-3.515 1.37-1.663 2.706-1.884 3.938-.652m-276.938.331c-1.804 1.994.626 5.065 3.026 3.824 1.42-.735 1.507-2.445.186-3.685-1.13-1.062-2.329-1.114-3.212-.139M58.8 309.06c-2.53 1.897-4.6 3.559-4.6 3.694 0 .511 1.578 2.829 2.049 3.01.491.188 9.435-6.244 9.68-6.962.139-.406-1.856-3.206-2.276-3.196-.139.003-2.323 1.558-4.853 3.454m6.761 3.981a389.018 389.018 0 01-4.469 3.945c-2.682 2.325-2.711 2.451-.946 4.161 1.122 1.088 1.437 1.217 1.9.779 4.52-4.287 5.992-5.031 7.325-3.697 1.087 1.086.711 1.861-2.231 4.6l-2.86 2.663 1.16 1.454c1.489 1.867 1.47 1.871 4.683-.953 2.948-2.591 3.25-2.707 4.588-1.77 1.404.983 1.085 1.761-1.995 4.862l-2.884 2.903L71.2 333.4c1.627 1.679 1.221 1.794 4.716-1.341 5.235-4.698 5.204-9.103-.078-10.846-1.063-.351-1.438-.702-1.439-1.344-.003-1.327-1.446-3.406-3.003-4.324-.768-.453-1.396-1.073-1.396-1.378 0-.305-.509-1.124-1.131-1.82l-1.13-1.265-2.178 1.959m260.339 1.543c-1.549 1.867-1.881.648 3.037 11.147 3.145 6.714 2.827 6.393 4.492 4.521 1.563-1.756 1.581-1.822.784-2.876-.947-1.252-.73-1.907 1.428-4.307 2.078-2.31 2.906-2.646 4.463-1.813.75.401 1.009.27 2.168-1.1 1.906-2.253 2.321-1.935-5.672-4.353a498.255 498.255 0 01-6.571-2.027c-2.442-.794-2.869-.711-4.129.808m6.286 3.98c1.951.679 2.164 1.211.987 2.465-1.258 1.339-1.636 1.221-2.673-.836-1.278-2.533-1.181-2.627 1.686-1.629m-13.768 4.858c-6.581 2.897-8.294 10.243-3.394 14.545 4.623 4.06 11.95 1.733 14.002-4.446 1-3.009-2.528-4.292-3.593-1.307-1.44 4.036-4.703 5.01-7.48 2.233-2.65-2.65-1.631-6.681 1.886-7.457 2.195-.485 2.213-.505 2.084-2.286-.144-1.989-1.103-2.34-3.505-1.282m36.779 2.181c-.509.441-.837.89-.729.998.107.108.618-.253 1.133-.803 1.127-1.198.886-1.315-.404-.195m-274.154 5.734c-4.752 5.31-4.598 9.655.388 10.906.533.134.969.459.969.722 0 1.074 2.77 3.239 3.349 2.617 7.599-8.162 7.886-8.675 5.78-10.348l-1.216-.967-2.551 2.667c-5.033 5.26-8.286 2.431-3.373-2.934 2.841-3.102 2.789-2.833.85-4.369l-1.562-1.237-2.634 2.943m270.217-1.086c-.517.551-.832 1.11-.7 1.242.132.132.285.165.34.074.055-.092.536-.662 1.07-1.267 1.21-1.373.573-1.417-.71-.049m-256.115 8.811c-1.62 2.125-3.793 4.96-4.83 6.3-2.105 2.722-2.257 3.227-1.146 3.821.423.227 1.076.719 1.451 1.095.815.814.528 1.107 6.163-6.288 1.421-1.865 2.689-3.48 2.819-3.59.13-.11.655-.799 1.166-1.53l.929-1.33-1.348-1.154c-1.903-1.627-1.936-1.61-5.204 2.676m203.255.798c-6.435 4.586-6.256 3.445-1.558 9.949 5.451 7.547 5.153 7.271 6.596 6.104.639-.518 2.782-2.091 4.762-3.496a398.734 398.734 0 003.782-2.702c.101-.081-.153-.769-.563-1.531-.728-1.352-1.539-1.761-2.003-1.009-.332.536-5.381 4.025-5.826 4.025-.412 0-1.788-1.938-1.544-2.175.085-.082 1.279-.976 2.654-1.986 2.706-1.988 2.866-2.34 1.738-3.807l-.745-.969-2.618 1.869c-2.954 2.108-3.458 2.227-4.223 1.003-.612-.981-.55-1.049 3.652-3.969 2.445-1.699 2.538-2.106.833-3.637-.696-.625-.969-.496-4.937 2.331m42.296 1.556c-.603.559-1.096 1.217-1.096 1.461 0 .245.315.1.7-.322a35.972 35.972 0 011.429-1.461c.4-.382.578-.694.395-.694-.182 0-.825.457-1.428 1.016m-282.21.731c.503.521 1.058.865 1.234.764.352-.201-1.231-1.711-1.795-1.711-.194 0 .058.426.561.947m226.714 6.302c-5.384 3.248-5.318 3.113-3.223 6.561.893 1.469 1.623 2.756 1.623 2.859 0 .103.54.972 1.2 1.931.66.959 1.2 1.849 1.2 1.978 0 .664 1.885 3.013 2.422 3.017.342.003 1.473-.535 2.514-1.195 1.04-.66 1.957-1.2 2.037-1.2.135 0 5.463-3.163 5.764-3.422.217-.188-.308-1.511-.918-2.313-.531-.699-.705-.649-3.489 1-4.118 2.438-4.163 2.45-4.927 1.284-.834-1.273-.494-1.715 2.646-3.441 2.542-1.398 2.827-2.047 1.515-3.455-.812-.871-.868-.877-1.9-.196-3.107 2.05-4.48 2.628-5.075 2.134-1.216-1.009-.651-1.92 2.236-3.606 3.125-1.825 3.527-2.38 2.761-3.812-.738-1.378-1.231-1.233-6.386 1.876m-189.746 1.58c-.696.548-1.054 1.214-1.054 1.964 0 .771-.386 1.46-1.2 2.146-2.766 2.327-.261 3.433 3.096 1.367 3.519-2.167 4.188-4.421 1.696-5.71-1.433-.741-1.282-.755-2.538.233m234.606 1.422c-1.009 1.075-1.046 1.585-.059.816.886-.691 1.749-1.871 1.348-1.843-.192.014-.772.476-1.289 1.027m-218.92.349a78.71 78.71 0 01-.1 1.467c-.022.256.697.712 1.598 1.012 1.836.612 3.362 1.854 3.362 2.737 0 .814-.527.736-2.8-.416-3.067-1.554-5.198-1.26-6.335.874-1.347 2.53.691 5.343 4.236 5.847.495.071 1.125.404 1.4.742.274.337 1.07 1.003 1.768 1.48l1.269.867.784-1.105c5.165-7.284 4.64-11.29-1.796-13.698-2.814-1.053-3.313-1.025-3.386.193m163.06 2.873c-.44.118-2.485 1.005-4.545 1.971-2.06.966-3.895 1.756-4.077 1.756-.938 0-.663 1.202 1.127 4.914a728.71 728.71 0 013.32 6.986c1.612 3.459.946 3.386 6.431.707 5.512-2.691 7.144-4.134 7.144-6.316 0-1.769-1.725-3.891-3.162-3.891-.73 0-.818-.232-.778-2.038.07-3.092-2.37-4.919-5.46-4.089m-140.795 3.576c-.333.797-.605 1.585-.605 1.751 0 .945-1.117 1.154-1.839.343-3.616-4.057-10.561-.844-10.561 4.887 0 2.801 2.906 5.964 5.482 5.969.485 0 1.557.459 2.381 1.018 1.603 1.088 2.848 1.155 3.39.183.184-.33.859-1.77 1.499-3.2.64-1.43 1.992-4.374 3.003-6.543 2.029-4.351 2.028-4.289.091-5.208-1.912-.908-2.156-.839-2.841.8m-20.232.851c1.706.965 1.443 1.9-.535 1.9-1.828 0-2.719-.939-1.866-1.966.663-.799.882-.793 2.401.066m162.385.022c.487.909.195 1.364-1.558 2.426-2.163 1.312-3.6.813-3.6-1.249 0-1.436 4.473-2.457 5.158-1.177m-15.837 1.757c-.847.409-1.42 2.303-2.731 9.021-.347 1.779-.472 1.73-4.814-1.9-4.273-3.572-3.937-3.426-5.962-2.58-1.137.475-1.42.779-1.21 1.3.151.374 1.205 3.47 2.341 6.88 2.415 7.245 2.448 7.309 3.589 6.991 2.888-.805 2.929-.949 1.404-4.862-1.374-3.525-.911-3.765 2.175-1.13 3.964 3.386 4.269 3.167 5.69-4.076.244-1.243 1.397-1.528 1.397-.346 0 .687 1.607 5.558 1.954 5.922.416.438 3.646-.928 3.646-1.541 0-.471-.173-.974-1.225-3.558-.18-.44-.884-2.51-1.566-4.6-2.135-6.546-2.261-6.694-4.688-5.521m-130.143 2.584c1.977 2.513-1.681 6.016-4.047 3.875-.996-.902-.928-2.877.139-4.012 1.19-1.267 2.849-1.209 3.908.137m149.206.718c.946 1.14-2.348 4.219-4.514 4.219-.251 0-1.47-2.154-1.47-2.599 0-1.067 5.261-2.491 5.984-1.62m-133.916 2.547c-1.322.893-.372 2.651 1.583 2.929 2.394.34 3.549.977 3.549 1.957 0 .913-.3.935-2.998.224-3.507-.923-5.366.195-5.389 3.242-.018 2.312 1.923 3.874 4.812 3.874 1.186 0 2.023.195 2.14.498.229.597 3.099 1.456 3.476 1.04 1.899-2.089 2.83-9.471 1.408-11.161-1.626-1.932-7.11-3.597-8.581-2.603m94.532.259c-1.749.551-1.749.551-.88 3.813.322 1.21 1.079 4.318 1.682 6.907.603 2.589 1.255 4.805 1.45 4.925.353.218 3.061-.562 3.674-1.06.269-.218-1.16-6.815-2.963-13.672-.426-1.624-.566-1.667-2.963-.913m-6.8 1.395c-.66.176-2.513.552-4.118.836-3.346.593-3.495.723-2.901 2.524l.438 1.326 2.445-.37c2.815-.426 2.974-.307 3.36 2.502.135.99.403 2.411.595 3.157.593 2.311-1.396 4.074-3.274 2.902-1.108-.692-1.395-.579-2.261.889-1.13 1.914.215 3.052 3.609 3.052 5.119 0 7.097-3.221 5.881-9.576-.234-1.223-.647-3.393-.917-4.822-.525-2.772-.765-2.976-2.857-2.42m-61.406 2.473c-.008 1.238-.412 1.818-1.394 2.002-1.207.226-1.322 2.296-.175 3.161.8.604.844.808.433 1.987-1.482 4.253.125 7.179 4.127 7.51 1.679.14 2.255.045 2.425-.397.382-.996-.499-2.647-1.488-2.787-2.055-.292-1.272-5.396.802-5.231 2.068.165 2.529-2.253.59-3.1-1.239-.542-1.353-.726-1.17-1.893.24-1.523.212-1.546-2.244-1.913-1.81-.271-1.9-.24-1.906.661m-12.309.148c-3.56 1.547-2.881 5.114 1.334 7.006 1.982.889 2.513 1.302 2.322 1.802-.294.765-1.438.574-4.06-.679-1.872-.895-3.281-.353-3.281 1.262 0 2.362 8.82 3.593 10.635 1.484 1.973-2.295 1.069-4.383-2.612-6.036-2.578-1.156-3.215-2.242-1.317-2.242.608 0 1.815.38 2.682.845l1.576.844.923-1.144.922-1.145-.844-.696c-1.969-1.624-6.059-2.266-8.28-1.301m-9.894 3.836c.542.531-.264 1.73-1.264 1.88-1.438.216-2.769-1.22-1.918-2.071.722-.721 2.349-.624 3.182.191m31.476.026c-.708 1.946-1.324 10.851-.776 11.21 1.024.671 3.702.194 3.787-.675.596-6.11 1.242-7.4 3.704-7.4 1.151 0 1.218-.086 1.218-1.576 0-1.931-.402-2.217-2.255-1.606-.939.31-1.528.337-1.693.078-.627-.989-3.629-1.012-3.985-.031m11.596.333c-2.352.556-2.518 3.616-.18 3.307.394-.052 1.4-.208 2.235-.346 1.131-.187 1.71-.077 2.273.433 1.014.917.622 1.877-.638 1.561-1.626-.409-4.407.22-5.515 1.247-3.189 2.955 1.37 7.637 5.573 5.722.812-.37 1.22-.37 1.813 0 2.676 1.671 3.847.38 3.948-4.353.144-6.665-2.944-9.123-9.509-7.571m19.205 3.943c-.301.195-.475.848-.4 1.502L211 381.8h6.4V379l-2.8-.103c-1.54-.056-3.039.053-3.332.244m-14.181 3.913c.082.249-.142.744-.498 1.1-1.353 1.353-4.152.247-2.972-1.174.59-.711 3.231-.655 3.47.074M242.4 395.2c0 .22.36.4.8.4.44 0 .8-.18.8-.4 0-.22-.36-.4-.8-.4-.44 0-.8.18-.8.4m-74.8 2.4c0 .22.45.4 1 .4s1-.18 1-.4c0-.22-.45-.4-1-.4s-1 .18-1 .4m62.4 0c0 .22.36.4.8.4.44 0 .8-.18.8-.4 0-.22-.36-.4-.8-.4-.44 0-.8.18-.8.4m-57.6.8c0 .22.36.4.8.4.44 0 .8-.18.8-.4 0-.22-.36-.4-.8-.4-.44 0-.8.18-.8.4m52.8 0c0 .22.36.4.8.4.44 0 .8-.18.8-.4 0-.22-.36-.4-.8-.4-.44 0-.8.18-.8.4m-28.5 1.498c1.815.074 4.785.074 6.6 0 1.815-.075.33-.135-3.3-.135s-5.115.06-3.3.135" fill="#fff"/></g></svg>