<svg xmlns="http://www.w3.org/2000/svg" width="400" height="400"><g fill-rule="evenodd"><path d="M187.8 41.049c-5.06 4.989-33.737 33.478-63.727 63.311-29.99 29.832-64.595 64.231-76.9 76.442C32.714 195.15 24.8 203.282 24.8 203.79c0 .507 6.402 7.135 17.964 18.599 9.881 9.796 44.486 44.184 76.9 76.418 77.385 76.952 77.02 76.593 77.892 76.593.81 0 12.48-11.506 102.39-100.95 73.475-73.094 70.454-70.063 70.454-70.685 0-.295-3.034-3.557-6.743-7.25A631365.04 631365.04 0 00214.291 48.003c-8.75-8.692-16.22-15.853-16.6-15.913-.444-.071-3.976 3.128-9.891 8.959m46.431 43.923c29.984 29.819 35.836 35.815 35.169 36.032-2.586.843-2.6.86-2.6 3.173 0 2.848-.045 2.867-7.4 3.199-3.3.149-8.07.549-10.6.888-5.879.788-9.571.781-12.658-.023-1.351-.353-2.916-.641-3.477-.641-2.12 0-2.265-.79-2.265-12.295 0-8.522.124-10.965.656-12.877 1.083-3.896.264-4.53-6.666-5.162-9.776-.89-15.906.426-15.656 3.361.421 4.948.457 37.902.042 38.402-.334.402-1.857.578-5.716.66l-5.26.111-.122 2.355c-.178 3.449-.172 3.455 2.793 2.796 4.525-1.004 7.19-1.386 7.967-1.139 1.069.339 1.116 5.016.062 6.123a10.795 10.795 0 00-2.112 3.221c-.467 1.087-3.353 1.034-6.588-.122-2.306-.824-2.217-1.598-2.104 18.39l.104 18.376 4.4.674c8.098 1.241 21.385.732 28.7-1.098 5.157-1.291 7.36-1.945 8.5-2.526 1.538-.783 60.042-.751 63.8.035 2.936.614 18.896.641 23.2.04 1.87-.262 4.715-.596 6.322-.743l2.921-.268 8.603 8.553c8.02 7.973 8.577 8.62 8.218 9.543-.212.544-31.948 32.396-70.524 70.782-86.619 86.189-84.006 83.608-84.649 83.608-.291 0-5.066-4.521-10.61-10.046-5.545-5.525-40.276-40.117-77.181-76.872-47.427-47.233-67.1-67.076-67.1-67.681 0-.604 20.297-21.074 69.239-69.828 38.081-37.935 72.776-72.514 77.1-76.842 4.959-4.965 8.168-7.881 8.692-7.9.587-.022 11.397 10.476 36.8 35.741M220 102.2c2.75 0 5.81-.149 6.8-.331l1.8-.33-.137 12.129c-.144 12.872-.118 12.714-2.128 12.726l-1.064.006-.136 4.369c-.17 5.484-.783 6.431-4.162 6.431-2.502 0-2.576.125-2.564 4.333.006 2.124.238 3.572.755 4.71 2.021 4.452 2.328 8.768.652 9.189-1.032.259-10.585-.468-10.95-.833-.437-.436 1.156-2.8 2.344-3.48l1.19-.682V127.18c0-23.244 0-23.257-.871-24.479l-.87-1.223 2.17.361c1.194.199 4.421.361 7.171.361m54.048 22.446c1.668 1.598 1.135 2.154-2.064 2.154-2.932 0-3.58-.521-2.984-2.4.407-1.282 3.616-1.126 5.048.246m-42.926 4.991c2.944.994 2.954 1.013.778 1.559-.935.235-2.17.687-2.744 1.005-1.287.713-1.556.471-1.556-1.401 0-2.299.08-2.326 3.522-1.163m48.786 3.504l2.908.291 3.592 3.576c5.517 5.492 5.52 5.49-9.808 5.509-34.233.04-35.35-8.929-1.2-9.634.88-.019 2.909.098 4.508.258m-31.993 8.13l.115 3.471-1.415 1.129L245.2 147l-.006 16.6c-.007 18.516.07 17.997-2.578 17.289-1.005-.269-3.499-.489-5.542-.489-5.149 0-4.674 2.145-4.674-21.093 0-22.779-.355-20.798 3.615-20.197 2.464.373 5.952-.071 8.385-1.068.55-.226 1.54-.372 2.2-.326l1.2.084.115 3.471m-23.431-1.443c1.099 1.337 2.405 2.381 3.239 2.589 1.784.445 1.865 1.233 1.871 18.234.007 18.701.204 17.844-3.552 15.474l-2.416-1.525-.02-11c-.021-11.703.108-10.614-2.258-19-1.219-4.321.881-7.517 3.136-4.772m31.343 8.218c1.305.245 6.153.56 10.773.7l8.4.254.103 3.6c.057 1.98.277 3.96.489 4.4 1.926 3.996 2.008 4.614 2.008 15.182 0 5.584-.109 10.437-.243 10.785-.465 1.212-25.575-.069-28.458-1.451l-1.099-.527V164.68c0-14.062.083-16.362.6-16.689.815-.515 4.538-.488 7.427.055m48.834 7.115c9.367 9.226 8.539 7.599 8.539 16.769v7.583l-1.7.681c-3.632 1.455-11.834 2.502-21.1 2.694L285 183v-11.2c0-10.27.064-11.333.776-12.8.55-1.134.842-2.824 1-5.8L287 149l1.4-.284c1.437-.291 6.373-.954 7.8-1.048.538-.035 3.309 2.419 8.461 7.493m-22.561-4.628l2.7-.067v2.619c0 1.886-.305 3.414-1.089 5.467-1.064 2.779-1.095 3.108-1.3 13.605-.188 9.605-.285 10.804-.9 11.191-1.528.962-1.7-.054-1.938-11.467-.216-10.384-.546-13.346-1.61-14.461-.423-.443-.497-6.753-.084-7.166.154-.153.559-.138.9.034.342.171 1.836.282 3.321.245M48.943 154.65c-.778.811-.79.889-.128.839.401-.03.64-.199.532-.375-.109-.177.202-.469.691-.65.621-.23.72-.386.326-.518-.31-.104-.95.213-1.421.704m172.165 12.838l.108 8.488 1.792 1.05c.986.577 1.792 1.185 1.792 1.351 0 .165.405.496.9.735 1.37.661-.162.622-2.76-.07-7.435-1.98-11.867-7.501-11.914-14.842-.037-5.746-.334-5.447 5.266-5.313L221 159l.108 8.488m102.015 6.033c4.126 4.074 5.671 5.845 5.366 6.15-.692.692-12.445.243-12.911-.493-.417-.659-.518-12.104-.11-12.512.338-.339.655-.055 7.655 6.855m-171.439 41.946c-.907.447-1.566 1.222-2.117 2.491-.44 1.013-1.063 2.32-1.383 2.904-.321.584-.584 1.696-.584 2.471 0 2.73-3.338 3.817-8.2 2.671-.88-.208-3.22-.496-5.2-.64-2.955-.215-3.934-.464-5.467-1.389-1.026-.62-2.736-1.308-3.8-1.529-4.924-1.023-10.216-2.532-11.089-3.161-1.561-1.125-7.291-2.287-8.244-1.672-.784.506.109 1.169 1.6 1.187 1.46.018 2.071.547 2.134 1.848.073 1.504.461 1.739 2.89 1.746 1.963.006 3.629.704 10.776 4.517 1.699.906 4.05 1.889 4.519 1.889.219 0 .936.613 1.593 1.361 1.326 1.51 2.477 2.239 3.537 2.239 2.706 0 4.997 3.498 5.218 7.968.178 3.603.711 6.028 1.656 7.529.93 1.477.333 2.602-1.97 3.705-1.975.947-2.125 1.131-2.963 3.618-1.021 3.027-2.619 5.446-4.366 6.604-1.237.82-1.339 1.265-.799 3.476.392 1.606-.538 1.423-2.657-.524-.972-.894-2.758-2.071-3.968-2.618-5.326-2.404-6.203-3.206-6.503-5.945-.302-2.746-1.729-4.015-4.066-3.613-.897.154-3.341.418-5.431.587-6.875.554-7.935 3.562-1.557 4.421 7.175.965 8.541 2.118 18.577 15.678 3.627 4.901 5.331 5.485 8.922 3.059 1.276-.862 2.559-1.337 4.094-1.519 1.699-.201 2.725-.623 4.271-1.758l2.036-1.494 1.328 1.129c1.506 1.28 3.199 2.097 4.344 2.097.427 0 1.745.877 2.928 1.948 1.184 1.072 3.148 2.685 4.367 3.585 1.894 1.4 2.255 1.878 2.497 3.306.391 2.317 2.389 5.56 5.891 9.561 3.806 4.349 3.97 4.678 3.659 7.324-.414 3.528.211 4.109 4.754 4.422 10.231.703 10.067.702 10.821.102.973-.775.281-2.147-1.244-2.466-7.509-1.568-11.04-4.275-12.499-9.582-.181-.66-.982-3-1.779-5.2-.798-2.2-1.599-4.462-1.781-5.027a14.956 14.956 0 00-.725-1.8c-.216-.425-1.068-2.115-1.893-3.755-1.542-3.065-4.751-7.496-7.981-11.018-3.3-3.597-4.862-12.608-1.816-10.475 1.043.731 2.38 2.636 2.383 3.399.004.822 2.532 4.476 3.097 4.476.278 0 .506-.45.506-1 0-1.305.476-1.261 2.664.244 1.376.947 1.919 1.132 2.272.777.437-.44-1.465-2.516-5.363-5.854-4.844-4.147-6.489-9.464-5.158-16.666.45-2.433-.264-6.779-1.373-8.363-.918-1.31-.19-2.926.849-1.887.568.568 4.509-3.462 4.509-4.611 0-.42.457-1.73 1.016-2.911 2.419-5.112-2.717-10.334-7.732-7.862m216.387 14.354c.181.869.89.922 1.053.079.084-.438-.112-.7-.524-.7-.384 0-.605.259-.529.621M349.2 248.4c0 .501.424.501 1.2 0 .485-.314.428-.389-.3-.394-.495-.003-.9.174-.9.394m-1.194 1.7c.005.728.08.785.394.3.501-.776.501-1.2 0-1.2-.22 0-.397.405-.394.9m-293.261 8.258c.383.242.41.41.09.564-.31.148-.301.188.03.123.801-.157.859-1.045.068-1.039-.566.005-.609.085-.188.352m124.579 22.617c-5.715 2.66-5.576 10.818.225 13.258 8.671 3.646 14.47-9.281 5.944-13.251-2.617-1.218-3.567-1.219-6.169-.007" fill="#f7f6f6"/><path d="M197.86 50.071c-.32 1.196-.328 87.435-.008 88.629.355 1.323 10.246 1.411 10.95.097.477-.891.302-34.936-.194-37.839-.43-2.516.614-3.131 6.416-3.778 9.791-1.091 16.978.479 16.364 3.574-.157.795-.362 6.871-.454 13.501-.183 13.232-.167 13.328 2.195 13.359.589.008 2.151.275 3.471.594 3.036.733 6.567.74 11.4.024 2.09-.31 6.77-.687 10.4-.839 8.063-.336 8.4-.48 8.4-3.595 0-2.056.064-2.197 1.1-2.424a25.34 25.34 0 001.646-.412c.324-.102-9.535-10.193-24.295-24.867a35780.249 35780.249 0 01-35.991-35.824c-9.978-9.959-11.177-11.032-11.4-10.2m13.903 52.658c.561 1.085.637 3.99.637 24.384v23.153l-1.547 1.243c-1.537 1.235-2.299 2.692-1.627 3.107.712.44 10.177.901 10.874.529 1.205-.642.715-4.733-1.057-8.832-.786-1.817-.902-8.294-.163-9.033.264-.264 1.424-.48 2.577-.48 2.978 0 3.343-.64 3.343-5.865 0-4.387.127-4.672 2.121-4.782.616-.034 1.189-.13 1.273-.213.083-.084.209-5.606.279-12.272l.127-12.12-1.4.326c-1.872.436-12.602.417-14.537-.025l-1.537-.352.637 1.232m57.517 21.351c-1.369 1.369.101 2.72 2.961 2.72 2.698 0 3.28-.821 1.604-2.263-1.199-1.031-3.737-1.285-4.565-.457m-41.445 5.019c-.379.378-.269 2.833.138 3.084.204.127.969-.032 1.7-.352.73-.32 1.864-.697 2.521-.838.899-.192 1.048-.337.6-.583-1.063-.586-4.718-1.553-4.959-1.311m36.365 4.535c-4.023.293-6.219.64-10.248 1.617-4.556 1.106-4.389 3.496.349 4.984 7.645 2.402 34.766 3.218 35.59 1.072.25-.652-5.419-6.61-7.171-7.536-1.214-.642-10.645-.712-18.52-.137m-19.357 4.391c-2.9 1.187-6.503 1.654-9.048 1.174-3.677-.694-3.395-2.371-3.395 20.176 0 23.324-.646 20.885 5.6 21.144 2.53.105 5.089.321 5.687.48l1.088.289.112-17.033.113-17.033 1.515-1.471 1.515-1.472-.115-3.239c-.126-3.545-.612-4.022-3.072-3.015m-23.508 1.799c-.353.921.075 5.87.588 6.786 1.397 2.496 1.677 5.257 1.677 16.539v11.225l2.319 1.54c3.504 2.328 3.282 3.375 3.275-15.447-.007-18.052.088-17.228-2.102-18.257-.829-.39-1.876-1.226-2.327-1.859-.927-1.302-3.009-1.622-3.43-.527m-15.735 4.185c-7.717 1.297-8.114 1.578-7.92 5.593l.12 2.482 1.939.734c2.373.899 6.261 1.441 6.261.874 0-.221.72-1.479 1.6-2.797 2.114-3.166 2.246-7.499.22-7.242-.231.03-1.23.19-2.22.356m42.9 4.03c-.383.399-.5 4.326-.5 16.822v16.301l1.5.432c1.872.538 19.493 2 24.153 2.004 4.268.003 3.934.954 3.942-11.246.005-9.525-.521-13.438-2.008-14.925-.213-.213-.387-2.025-.387-4.027 0-4.799.325-4.596-7.38-4.622-3.531-.011-7.86-.186-9.62-.388-7.112-.816-9.182-.891-9.7-.351m42.1.414c-4.047.509-3.799.208-3.809 4.634-.007 3.217-.166 4.233-.893 5.713-1.118 2.275-1.637 23.055-.597 23.918 1.256 1.042 18.804-.521 24.837-2.212 3.07-.861 3.138-1.085 2.986-9.793l-.124-7.107-7.796-7.803-7.796-7.803-2.004.051c-1.102.027-3.264.209-4.804.402m-12.747 1.828c-.44.439-.273 6.134.205 7.027 1.36 2.542 1.67 5.032 1.905 15.292l.237 10.4h2l.216-11c.213-10.807.236-11.049 1.316-13.8.854-2.175 1.074-3.336.984-5.2l-.116-2.4-2.457.137c-1.351.076-2.812-.053-3.247-.286-.435-.232-.904-.309-1.043-.17m-66.505 9.003c-.173.28-.313 2.311-.311 4.513.006 6.525 2.664 10.745 8.865 14.074 1.184.635 5.759 1.802 6.024 1.536.114-.114-.093-.207-.459-.207-.367 0-.667-.274-.667-.61 0-.335-.405-.777-.9-.982-2.9-1.199-2.88-1.131-3.1-10.284l-.2-8.324-4.468-.113c-3.289-.083-4.552.022-4.784.397M315.2 172.751c0 4.782.117 6.048.596 6.445.752.625 12.372 1.103 12.729.525.213-.344-10.76-11.664-12.177-12.561-1.07-.678-1.148-.296-1.148 5.591m-74.8 13.792c-10.881 4.206-26.769 5.886-38.221 4.044-2.096-.338-3.985-.507-4.195-.377-.602.372-.498 12.873.11 13.248 1.261.779 154.306.451 154.306-.331 0-.193-3.809-4.128-8.464-8.743l-8.464-8.393-2.636.241c-1.45.133-3.716.419-5.036.637-4.27.704-18.44.894-22.209.298-2.521-.399-9.446-.55-26.991-.591-12.98-.03-26.57-.171-30.2-.314-5.096-.201-6.919-.136-8 .281M52.1 203.907c-5.335.059-9.7.221-9.7.361 0 .139 22.967 23.131 51.037 51.093 100.301 99.91 103.531 103.094 103.83 102.337.515-1.301.385-153.218-.131-153.538-.436-.269-124.012-.485-145.036-.253m105.471 12.118c2.698 1.954 3.608 5.598 1.88 7.525-.321.357-.714 1.37-.873 2.25-.384 2.117-3.703 5.605-4.955 5.207-.843-.267-1.263 1.074-.487 1.554.771.476 1.762 5.479 1.497 7.557-1.348 10.567-.598 12.413 8.467 20.832 1.155 1.073 2.1 2.097 2.1 2.277 0 .897-1.061.743-2.664-.387-1.866-1.315-2.536-1.319-2.536-.016 0 2.084-1.837.369-3.599-3.359-1.998-4.23-3.79-5.341-3.775-2.341.02 4.092.967 6.442 3.883 9.637 3.579 3.92 7.21 9.415 9.013 13.639 1.488 3.488 2.03 4.926 2.863 7.6.515 1.65 1.088 3.171 1.275 3.38.187.209.34.715.34 1.125 0 4.255 7.041 9.895 12.352 9.895 1.346 0 2.416 1.942 1.456 2.643-1.146.838-3.242 1.094-5.115.623-.931-.233-3.403-.548-5.493-.699-5.078-.366-6.041-1.262-5.152-4.792.5-1.986.767-1.532-5.273-8.975-2.572-3.17-3.697-5.177-4.368-7.8-.301-1.174-.853-1.919-2.072-2.8-.914-.66-2.669-2.076-3.899-3.146-2.286-1.988-3.055-2.433-4.87-2.817-.568-.121-1.718-.763-2.555-1.428-1.914-1.521-2.117-1.512-4.255.187-1.397 1.111-2.113 1.397-3.504 1.4-1.276.003-2.355.372-4 1.366-4.922 2.978-5.62 2.603-12.579-6.762-7.127-9.59-10.156-11.8-16.176-11.8-1.701 0-3.495-1.546-3.13-2.698.411-1.293 3.062-2.018 8.316-2.275l4.683-.229 1.017 1.097c.766.826 1.022 1.542 1.039 2.901.027 2.174.73 2.834 5.555 5.216 1.775.877 3.924 2.223 4.774 2.991 1.823 1.647 3.093 1.884 2.663.497-.751-2.424-.723-2.557.721-3.409.774-.456 1.73-1.338 2.126-1.96.396-.622.833-1.221.971-1.331.137-.11.651-1.37 1.141-2.8 1.042-3.04 1.681-3.86 3.282-4.212 2.169-.476 2.482-1.627 1.253-4.601-.858-2.073-1.077-3.266-1.105-6.005-.051-4.862-1.822-7.668-5.203-8.239-1.116-.189-2.025-.72-3.004-1.754-.772-.817-2.302-1.851-3.4-2.298l-2.596-1.058c-.33-.134-1.41-.711-2.4-1.283-4.465-2.58-6.475-3.387-9.028-3.625-2.72-.254-3.679-.985-3.431-2.612.101-.659-.348-.871-2.541-1.203-.44-.066-.8-.388-.8-.715 0-.983 3.96-.579 7.4.753 4.342 1.681 10.902 3.652 12.157 3.652.649 0 2.824.957 5.043 2.219.55.313 2.015.572 3.256.575 1.241.003 3.761.293 5.6.644 5.934 1.132 8.739.298 8.749-2.6.02-6.127 5.745-10.271 9.966-7.213m27.767 64.67c4.039 2.224 5.538 5.936 3.876 9.597-3.449 7.598-14.216 5.302-14.138-3.015.05-5.233 5.899-8.985 10.262-6.582" fill="#6c1d74"/><path d="M191.683 13.9c-.282.385-.413.487-.291.227.144-.308-.2-.262-.989.132-.666.332-1.122.749-1.012.927.11.178-.176.421-.636.542-.459.12-.717.41-.572.645.145.235-.022.427-.372.427s-.8.405-.999.9c-.199.495-.373.739-.387.542-.033-.465-2.025 1.679-2.025 2.179 0 .208-.27.379-.6.379-.33 0-.6.27-.6.6 0 .33-.27.6-.6.6-.33 0-.6.27-.6.6 0 .33-.27.6-.6.6-.33 0-.6.27-.6.6 0 .33-.18.6-.4.6-.494 0-2 1.471-2 1.953 0 .195-.36.448-.8.563-.44.115-.8.496-.8.847 0 .35-.18.637-.4.637-.519 0-2 1.481-2 2 0 .22-.27.4-.6.4-.33 0-.6.27-.6.6 0 .33-.27.6-.6.6-.33 0-.6.27-.6.6 0 .33-.27.6-.6.6-.33 0-.6.27-.6.6 0 .33-.18.6-.4.6-.519 0-2 1.481-2 2 0 .22-.208.4-.462.4-.545 0-3.538 3.06-3.538 3.617 0 .211-.27.383-.6.383-.33 0-.6.27-.6.6 0 .33-.27.6-.6.6-.33 0-.6.27-.6.6 0 .33-.27.6-.6.6-.33 0-.6.27-.6.6 0 .33-.186.6-.414.6-.54 0-5.986 5.446-5.986 5.986 0 .228-.27.414-.6.414-.33 0-.6.27-.6.6 0 .33-.27.6-.6.6-.33 0-.6.27-.6.6 0 .33-.27.6-.6.6-.33 0-.6.27-.6.6 0 .33-.27.6-.6.6-.33 0-.6.27-.6.6 0 .33-.276.6-.613.6-.336 0-.716.27-.842.6-.127.33-.481.6-.788.6a.56.56 0 00-.557.557c0 .307-.27.661-.6.788-.33.126-.6.506-.6.842 0 .337-.27.613-.6.613-.33 0-.6.27-.6.6 0 .33-.27.6-.6.6-.33 0-.6.27-.6.6 0 .33-.27.6-.6.6-.33 0-.6.27-.6.6 0 .33-.27.6-.6.6-.33 0-.6.27-.6.6 0 .33-.233.6-.519.6-.285 0-.96.532-1.5 1.183-.539.651-1.206 1.191-1.481 1.2a.544.544 0 00-.517.517c-.009.275-.549.942-1.2 1.481-.651.54-1.183 1.215-1.183 1.5 0 .286-.27.519-.6.519-.33 0-.6.27-.6.6 0 .33-.27.6-.6.6-.33 0-.6.27-.6.6 0 .33-.27.6-.6.6-.33 0-.6.27-.6.6 0 .33-.233.6-.519.6-.285 0-.96.532-1.5 1.183-.539.651-1.206 1.191-1.481 1.2-.275.009-.5.287-.5.617s-.27.6-.6.6c-.33 0-.6.27-.6.6 0 .33-.27.6-.6.6-.333 0-.6.356-.6.8 0 .444-.267.8-.6.8-.33 0-.6.27-.6.6 0 .33-.27.6-.6.6-.33 0-.6.27-.6.6 0 .33-.27.6-.6.6-.33 0-.6.27-.6.6 0 .333-.356.6-.8.6-.444 0-.8.267-.8.6 0 .33-.27.6-.6.6-.33 0-.6.27-.6.6 0 .33-.27.6-.6.6-.33 0-.6.27-.6.6 0 .33-.27.6-.6.6-.33 0-.6.27-.6.6 0 .33-.27.6-.6.6-.333 0-.6.356-.6.8 0 .444-.267.8-.6.8-.33 0-.6.27-.6.6 0 .33-.27.6-.6.6-.33 0-.6.27-.6.6 0 .33-.27.6-.6.6-.33 0-.6.27-.6.6 0 .333-.356.6-.8.6-.444 0-.8.267-.8.6 0 .33-.27.6-.6.6-.33 0-.6.27-.6.6 0 .33-.27.6-.6.6-.33 0-.6.27-.6.6 0 .33-.27.6-.6.6-.33 0-.6.27-.6.6 0 .33-.27.6-.6.6-.333 0-.6.356-.6.8 0 .462-.267.8-.631.8-.71 0-2.969 2.107-2.969 2.769 0 .237-.157.386-.348.331-.455-.131-6.683 6.097-6.552 6.552.055.191-.094.348-.331.348-.238 0-1.116.675-1.953 1.5s-2.578 2.518-3.869 3.762a247.988 247.988 0 00-4.998 5c-1.458 1.506-3.348 3.387-4.2 4.181-2.242 2.09-3.323 3.446-3.017 3.787.148.164.076.189-.159.056-.692-.394-2.586 1.611-2.284 2.417.211.564.151.61-.314.237-.807-.645-1.743.313-1.045 1.069.369.399.326.458-.197.275-.559-.196-3.133 1.677-3.133 2.279 0 .087-.63.787-1.4 1.557-.77.77-1.4 1.314-1.4 1.209 0-.105-.54.349-1.2 1.009-.66.66-1.2 1.609-1.2 2.108 0 .769-.076.818-.5.326-.275-.32-.457-.506-.403-.414.216.377-.82 1.217-1.242 1.008-.25-.124-.106.058.321.404.76.616.757.63-.132.63-1.257 0-8.044 6.787-8.044 8.044 0 .887-.015.89-.606.132-.333-.427-.558-.586-.5-.354.058.233-.427.918-1.078 1.524-.886.824-1.054 1.183-.667 1.423.378.233.281.382-.355.549-.481.125-.779.382-.663.57.116.188-.215.378-.735.421-1.096.09-2.996 1.836-2.996 2.752 0 .398-.223.539-.616.388-.361-.138-.59-.032-.553.257.167 1.299-.043 2.095-.402 1.527-.283-.447-.761-.164-2.261 1.335-1.499 1.5-1.782 1.978-1.335 2.261.417.264.284.36-.503.365-1.047.006-6.73 5.099-6.73 6.031 0 .206-.27.375-.6.375-.33 0-.6.27-.6.6 0 .33-.27.6-.6.6-.33 0-.6.27-.6.6 0 .33-.177.6-.394.6-.585 0-4.024 3.648-3.792 4.023.109.177-.012.452-.269.611-.293.181-.361.116-.183-.172.415-.672-.032-.566-.957.227-.443.379-.805.919-.805 1.2 0 .281-.27.511-.6.511-.33 0-.603.315-.606.7-.003.385-.2.97-.438 1.3-.364.506-.396.491-.206-.1.124-.385.051-.7-.163-.7-.213 0-.387.27-.387.6 0 .33-.27.6-.6.6-.33 0-.6.174-.6.387 0 .214.315.287.7.163.591-.19.606-.158.1.206-.33.238-.915.435-1.3.438-.385.003-.7.276-.7.606 0 .33-.23.6-.511.6s-.821.362-1.2.805c-.81.946-.892 1.359-.189.954.29-.167.36-.135.167.077-.184.2-.544.364-.8.364a.468.468 0 00-.467.467c0 .256-.164.616-.364.8-.212.193-.244.123-.077-.167.159-.275.19-.5.069-.5-.447 0-1.828 1.394-1.828 1.846 0 .258-.281.576-.625.708s-.514.422-.377.643c.137.222.014.406-.274.41-.64.008-2.324 1.728-2.324 2.373 0 .257-.171.362-.38.232-.209-.129-.574.129-.812.573-.237.444-.652.764-.92.711-.268-.053-.443.129-.388.404.055.275-.26.5-.7.5-.616 0-.8.267-.8 1.157 0 .66-.258 1.256-.6 1.388-.893.342-.893 11.055 0 11.055.551 0 .783.683.637 1.87-.032.258.309.586.758.728.449.143.717.421.595.619-.122.197.415.625 1.194.95 1.001.419 1.416.845 1.416 1.455 0 .603.181.794.6.633.408-.156.6.022.6.558 0 .433.27.787.6.787.33 0 .6.27.6.6 0 .33.27.6.6.6.33 0 .6.27.6.6 0 .33.27.6.6.6.33 0 .6.171.6.379 0 .551 1.812 2.421 2.346 2.421.25 0 .454.27.454.6 0 .33.27.6.6.6.33 0 .6.27.6.6 0 .33.27.6.6.6.33 0 .6.27.6.6 0 .33.27.6.6.6.33 0 .6.27.6.6 0 .33.191.6.424.6.233 0 .32-.168.193-.372-.126-.205-.043-.489.186-.63.229-.142.391-.109.36.072-.192 1.102.116 2.13.637 2.13.33 0 .6.27.6.6 0 .33.27.6.6.6.33 0 .6.152.6.338 0 .467 4.363 4.862 4.826 4.862.206 0 .374.189.374.421 0 .231.535.607 1.188.835.654.228 1.149.623 1.1.879-.048.256.137.42.412.365.651-.13.651.573 0 .835-.4.161-.4.208 0 .233.611.039 2.1 1.48 2.1 2.032 0 .22.225.405.5.411.275.006.95.631 1.5 1.389s1.135 1.383 1.3 1.389c.449.016 1.9 1.552 1.9 2.011 0 .22.27.4.6.4.33 0 .6.27.6.6 0 .33.27.6.6.6.33 0 .6.27.6.6 0 .4.4.6 1.2.6.66 0 1.2.199 1.2.443 0 .248-.308.335-.7.199-.667-.232-.667-.218 0 .301.385.3.705.705.711.901.006.196.631.806 1.389 1.356s1.383 1.225 1.389 1.5c.006.275.191.5.411.5.519 0 2 1.481 2 2 0 .22.27.4.6.4.33 0 .6.281.6.624 0 .343.171.518.38.388.209-.129.575.131.814.577.263.492.839.811 1.463.811.718 0 .964.169.813.561-.118.309.057.894.39 1.3.569.694.592.695.377.018-.133-.421-.064-.619.168-.476.217.134.395.476.395.759 0 .284 1.088 1.659 2.418 3.057s2.301 2.235 2.157 1.861c-.148-.388-.07-.68.182-.68.244 0 .443.551.443 1.224 0 .673.171 1.118.38.988.209-.129.575.131.814.577.239.446.717.811 1.063.811.394 0 .543.223.398.6-.128.335-.01.6.268.6.275 0 .974.541 1.554 1.202.694.792 1.124 1.031 1.257.7.122-.302.215-.224.234.198a.786.786 0 00.732.732c.385.017.486.118.225.225-.323.131-.227.441.3.968.857.857 1.381 1.032.937.313-.177-.286-.11-.353.176-.176.254.157.462.725.462 1.262s.225.984.5.993c.275.009.942.549 1.481 1.2.54.651 1.234 1.183 1.543 1.183.335 0 .469.242.331.6-.126.33-.039.6.193.6.721 0 6.352 5.407 6.352 6.098 0 .24.098.338.217.218.276-.276 3.217 2.562 3.083 2.976-.055.169.071.308.281.308.209 0 1.633 1.26 3.164 2.8 1.531 1.54 3.009 2.8 3.286 2.8.276 0 .406.096.289.214-.311.311 9.072 9.786 9.691 9.786.287 0 .413.109.28.242-.325.326 1.685 2.158 2.367 2.158.298 0 .542.27.542.6 0 .33.27.6.6.6.33 0 .6.27.6.6 0 .33.27.6.6.6.33 0 .6.264.6.586 0 .322.365.781.811 1.02.446.239.706.605.577.814-.13.209.026.38.346.38.319 0 .684.27.811.6.126.33.506.6.842.6.337 0 .613.27.613.6 0 .33.27.6.6.6.33 0 .6.27.6.6 0 .33.27.6.6.6.33 0 .6.27.6.6 0 .33.27.6.6.6.33 0 .6.27.6.6 0 .33.27.6.6.6.33 0 .6.27.6.6 0 .33.27.6.6.6.33 0 .6.276.6.613 0 .336.27.716.6.842.33.127.6.481.6.788a.56.56 0 00.557.557c.307 0 .661.27.788.6.126.33.506.6.842.6.337 0 .613.27.613.6 0 .33.27.6.6.6.33 0 .6.27.6.6 0 .33.27.6.6.6.33 0 .6.27.6.6 0 .33.27.6.6.6.33 0 .6.27.6.6 0 .33.27.6.6.6.33 0 .6.27.6.6 0 .33.27.6.6.6.33 0 .6.276.6.613 0 .336.27.716.6.842.33.127.6.481.6.788 0 .306.36.557.8.557.444 0 .8.267.8.6 0 .33.27.6.6.6.33 0 .6.27.6.6 0 .33.27.6.6.6.33 0 .6.27.6.6 0 .33.27.6.6.6.33 0 .6.27.6.6 0 .33.27.6.6.6.33 0 .6.27.6.6 0 .33.27.6.6.6.33 0 .6.27.6.6 0 .33.27.6.6.6.33 0 .603.225.607.5.008.61 1.735 2.3 2.349 2.3.244 0 .444.27.444.6 0 .33.27.6.6.6.33 0 .6.27.6.6 0 .33.27.6.6.6.33 0 .6.27.6.6 0 .33.27.6.6.6.33 0 .6.27.6.6 0 .33.27.6.6.6.33 0 .6.27.6.6 0 .33.27.6.6.6.33 0 .6.27.6.6 0 .33.27.6.6.6.33 0 .6.194.6.431 0 .516 3.107 3.569 3.633 3.569.202 0 .367.27.367.6 0 .33.27.6.6.6.33 0 .6.27.6.6 0 .33.27.6.6.6.33 0 .6.27.6.6 0 .33.27.6.6.6.33 0 .6.27.6.6 0 .33.27.6.6.6.33 0 .6.27.6.6 0 .33.27.6.6.6.33 0 .6.276.6.613 0 .337.405.776.9.975.495.199.739.373.542.387-.465.033 1.679 2.025 2.179 2.025.208 0 .379.27.379.6 0 .33.27.6.6.6.33 0 .6.27.6.6 0 .33.27.6.6.6.33 0 .6.27.6.6 0 .33.27.6.6.6.33 0 .6.27.6.6 0 .33.27.6.6.6.33 0 .6.27.6.6 0 .33.27.6.6.6.33 0 .6.208.6.462 0 .545 3.06 3.538 3.617 3.538.211 0 .383.27.383.6 0 .33.27.6.6.6.33 0 .6.27.6.6 0 .33.27.6.6.6.33 0 .6.27.6.6 0 .33.18.6.4.6.519 0 2 1.481 2 2 0 .22.27.4.6.4.33 0 .603.225.607.5.008.61 1.735 2.3 2.349 2.3.244 0 .444.27.444.6 0 .33.27.6.6.6.33 0 .6.27.6.6 0 .33.27.6.6.6.33 0 .6.27.6.6 0 .33.27.6.6.6.33 0 .6.27.6.6 0 .33.27.6.6.6.33 0 .6.27.6.6 0 .33.27.6.6.6.33 0 .6.27.6.6 0 .33.27.6.6.6.33 0 .6.204.6.454 0 .534 1.87 2.346 2.421 2.346.208 0 .334.214.279.476-.055.262.247.552.672.643.424.092 1.022.418 1.328.724.838.837 11.401.8 12.1-.043.274-.33.746-.6 1.049-.6.303 0 .551-.27.551-.6 0-.33.2-.6.444-.6.614 0 2.341-1.69 2.349-2.3.004-.275.277-.5.607-.5.33 0 .6-.27.6-.6 0-.33.233-.6.519-.6.285 0 .96-.532 1.5-1.183.539-.651 1.206-1.191 1.481-1.2.275-.009.5-.287.5-.617s.27-.6.6-.6c.33 0 .6-.27.6-.6 0-.33.27-.6.6-.6.33 0 .6-.18.6-.4 0-.519 1.481-2 2-2 .22 0 .4-.36.4-.8 0-.444.267-.8.6-.8.33 0 .6-.27.6-.6 0-.333.356-.6.8-.6.44 0 .8-.18.8-.4 0-.519 1.481-2 2-2 .22 0 .4-.27.4-.6 0-.33.27-.6.6-.6.33 0 .6-.27.6-.6 0-.33.27-.6.6-.6.33 0 .6-.18.6-.4 0-.519 1.481-2 2-2 .22 0 .4-.36.4-.8 0-.444.267-.8.6-.8.33 0 .6-.27.6-.6 0-.343.36-.6.843-.6.585 0 .772-.184.612-.6-.13-.339-.009-.6.276-.6.279 0 .948-.532 1.488-1.183.539-.651 1.206-1.191 1.481-1.2a.544.544 0 00.517-.517c.009-.275.549-.942 1.2-1.481.651-.54 1.183-1.209 1.183-1.488 0-.285.261-.406.6-.276.416.16.6-.027.6-.612 0-.483.257-.843.6-.843.33 0 .6-.27.6-.6 0-.343.36-.6.843-.6.585 0 .772-.184.612-.6-.156-.408.022-.6.558-.6.433 0 .787-.27.787-.6 0-.33.27-.6.6-.6.33 0 .6-.27.6-.6 0-.33.27-.6.6-.6.33 0 .6-.27.6-.6 0-.33.27-.6.6-.6.33 0 .6-.27.6-.6 0-.33.27-.6.6-.6.33 0 .6-.27.6-.6 0-.33.27-.6.6-.6.333 0 .6-.356.6-.8 0-.444.267-.8.6-.8.33 0 .6-.27.6-.6 0-.333.356-.6.8-.6.444 0 .8-.267.8-.6 0-.33.27-.6.6-.6.33 0 .6-.27.6-.6 0-.33.27-.6.6-.6.33 0 .6-.27.6-.6 0-.33.27-.6.6-.6.33 0 .6-.27.6-.6 0-.33.27-.6.6-.6.33 0 .6-.27.6-.6 0-.33.27-.6.6-.6.33 0 .6-.27.6-.6 0-.33.27-.6.6-.6.333 0 .6-.356.6-.8 0-.444.267-.8.6-.8.33 0 .6-.27.6-.6 0-.333.356-.6.8-.6.444 0 .8-.267.8-.6 0-.33.27-.6.6-.6.33 0 .6-.27.6-.6 0-.33.27-.6.6-.6.33 0 .6-.27.6-.6 0-.33.27-.6.6-.6.33 0 .6-.27.6-.6 0-.33.27-.6.6-.6.33 0 .6-.27.6-.6 0-.33.27-.6.6-.6.33 0 .6-.27.6-.6 0-.33.27-.6.6-.6.333 0 .6-.356.6-.8 0-.444.267-.8.6-.8.33 0 .6-.27.6-.6 0-.333.356-.6.8-.6.444 0 .8-.267.8-.6 0-.33.27-.6.6-.6.33 0 .6-.27.6-.6 0-.33.27-.6.6-.6.33 0 .6-.27.6-.6 0-.33.27-.6.6-.6.33 0 .6-.27.6-.6 0-.33.27-.6.6-.6.33 0 .6-.27.6-.6 0-.33.27-.6.6-.6.33 0 .6-.27.6-.6 0-.33.27-.6.6-.6.333 0 .6-.356.6-.8 0-.444.267-.8.6-.8.33 0 .6-.27.6-.6 0-.333.356-.6.8-.6.444 0 .8-.267.8-.6 0-.33.27-.6.6-.6.33 0 .6-.27.6-.6 0-.33.27-.6.6-.6.33 0 .6-.27.6-.6 0-.33.27-.6.6-.6.33 0 .6-.27.6-.6 0-.33.27-.6.6-.6.33 0 .6-.27.6-.6 0-.33.27-.6.6-.6.33 0 .6-.27.6-.6 0-.33.27-.6.6-.6.333 0 .6-.356.6-.8 0-.444.267-.8.6-.8.33 0 .6-.27.6-.6 0-.333.356-.6.8-.6.444 0 .8-.267.8-.6 0-.33.27-.6.6-.6.33 0 .6-.257.6-.571 0-.314.263-.629.584-.7.321-.071 3.99-3.504 8.153-7.629s7.77-7.5 8.016-7.5c.246 0 .447-.27.447-.6 0-.33.27-.6.6-.6.33 0 .6-.198.6-.439s1.791-2.23 3.98-4.419c2.808-2.808 3.916-4.181 3.762-4.661-.174-.546-.138-.569.184-.116.339.478.51.457 1.103-.136s.614-.764.136-1.103c-.445-.316-.413-.352.15-.17.431.139.805-.004.942-.36.125-.325.365-.506.535-.401.5.309 2.481-1.753 2.169-2.259-.166-.268-.109-.351.135-.2.231.143.528-.021.659-.364.136-.353.443-.497.71-.332.321.198.387.072.208-.395-.156-.406-.103-.587.13-.443.457.282 2.475-1.752 2.192-2.21-.105-.17.076-.41.401-.535.356-.137.499-.511.36-.942-.182-.563-.146-.595.17-.15.339.478.51.457 1.103-.136.591-.592.612-.761.136-1.082-.478-.322-.472-.37.035-.316 1.302.139 2.036-.05 1.783-.458-.145-.235.114-.526.577-.647.462-.12.84-.468.84-.773 0-.304.249-.553.553-.553.305 0 .653-.378.773-.84.13-.497.406-.726.674-.56.268.166.544-.063.674-.56.12-.462.447-.84.726-.84.279 0 .611-.397.737-.883.127-.485.343-.77.48-.633.297.296 1.783-1.108 1.783-1.684 0-.22.18-.4.4-.4.576 0 1.98-1.486 1.684-1.783-.137-.137.148-.353.633-.48.486-.126.883-.479.883-.784 0-.304.239-.553.53-.553.292 0 1.047-.619 1.678-1.376.631-.756 1.273-1.298 1.427-1.202.154.095.394-.284.534-.841.14-.558.429-.906.643-.774.218.135.388-.294.388-.983 0-.673.199-1.224.443-1.224.243 0 .339.27.212.6-.126.33-.056.6.158.6.213 0 .387-.27.387-.6 0-.33.27-.6.6-.6.33 0 .6-.174.6-.387 0-.214-.27-.284-.6-.158-.33.127-.6.031-.6-.212 0-.244.551-.443 1.224-.443.689 0 1.118-.17.983-.388-.132-.214.212-.502.763-.64.552-.139.966-.369.921-.512-.118-.377 2.857-3.26 3.365-3.26.236 0 .326-.27.199-.6-.206-.537.19-.782 1.045-.647.165.026.3-.193.3-.486 0-.706 2.779-3.467 3.49-3.467.307 0 .478-.135.381-.3-.337-.572.507-2.1 1.16-2.1.889 0 2.554-1.632 2.562-2.513.007-.697 1.512-1.566 2.107-1.216.305.179.45-.706.321-1.971-.051-.504.217-.7.958-.7.999 0 10.221-8.616 10.221-9.549 0-.197.36-.452.8-.567.541-.141.8-.546.8-1.247 0-.57.174-1.037.387-1.037.214 0 .284.27.158.6-.127.33-.031.6.212.6.244 0 .443-.27.443-.6 0-.33.27-.6.6-.6.33 0 .6-.27.6-.6 0-.33.27-.6.6-.6.33 0 .6-.27.6-.6 0-.33.27-.6.6-.6.33 0 .6-.27.6-.6 0-.33.27-.6.6-.6.4 0 .6-.4.6-1.2 0-.66.174-1.2.387-1.2.214 0 .273.3.132.666-.171.447-.102.57.213.376.257-.159.468-.819.468-1.466 0-.779.203-1.176.6-1.176.505 0 .6-.889.6-5.6 0-4.711-.095-5.6-.6-5.6-.4 0-.6-.4-.6-1.2 0-.8-.2-1.2-.6-1.2-.33 0-.614-.315-.632-.7-.018-.418-.112-.499-.233-.2-.215.534-.967.703-.888.2.15-.947-.118-1.7-.604-1.7-.307 0-.661-.27-.788-.6-.126-.33-.525-.6-.885-.6-.418 0-.572-.217-.425-.6.14-.365 0-.6-.358-.6a.595.595 0 01-.587-.6c0-.33-.354-.6-.787-.6-.503 0-.712-.198-.577-.548.115-.302-.08-.66-.434-.796s-.541-.081-.416.121c.125.202.081.458-.096.568-.178.11-.353-.189-.389-.665-.08-1.064-1.151-1.903-2.04-1.599-.479.164-.441.05.139-.414.716-.574.727-.643.1-.654-.385-.007-.7-.302-.7-.656 0-.407-.22-.558-.6-.412-.541.207-.661.034-.57-.825.016-.154-.356-.423-.826-.597s-.743-.498-.606-.72c.137-.221-.031-.403-.374-.403a.639.639 0 01-.624-.649c0-.555-.101-.572-.7-.113-.385.295-.571.383-.414.196.404-.479-.399-1.834-1.088-1.834-.321 0-.48-.241-.362-.548.115-.302-.08-.66-.434-.796s-.541-.081-.416.121c.125.202.081.458-.096.568-.178.11-.352-.171-.386-.623-.064-.849-1.651-2.599-2.196-2.422-.17.055-.308-.282-.308-.749 0-.723-.092-.772-.623-.332-.342.284-.591.351-.552.149.189-.993-.085-1.768-.625-1.768-.33 0-.6-.189-.6-.419 0-.231-.585-.674-1.3-.985-.982-.427-1.105-.576-.5-.612.476-.028.588-.132.276-.257-.288-.115-.986-.638-1.55-1.161-.565-.523-1.182-.855-1.372-.738-.19.118-.226-.095-.081-.473.178-.466.112-.593-.205-.397-.257.159-.468.088-.468-.158s-.208-.319-.462-.162c-.279.173-.353.11-.188-.158.319-.516-.935-2.136-1.421-1.836-.181.112-.329-.189-.329-.669 0-.769-.084-.809-.7-.337-.385.295-.571.383-.414.196.387-.459-.428-1.917-.906-1.622-.209.13-.38.05-.38-.176 0-.226-.315-.302-.7-.17-.579.2-.561.123.1-.442.44-.376.584-.575.32-.442-.264.132-.678-.13-.92-.582-.242-.452-.598-.725-.791-.605-.193.119-.466-.146-.607-.589-.141-.443-.514-.806-.829-.806-.315 0-.528-.216-.473-.48.055-.265-.53-.705-1.3-.978-.805-.286-1.078-.506-.642-.519.818-.025-.94-2.023-1.779-2.023-.208 0-.337-.135-.286-.3.144-.466-1.395-2.084-1.764-1.856-.181.112-.329.018-.329-.208 0-.226-.315-.302-.7-.17-.573.198-.555.122.1-.418.44-.363.62-.629.4-.591-.22.037-.85-.129-1.4-.369-.885-.387-.908-.446-.2-.51.547-.05.421-.159-.4-.348-.66-.151-1.162-.468-1.116-.705.046-.236-.276-.756-.717-1.155-.775-.701-.792-.701-.516.018.197.515.141.655-.183.454-.257-.159-.468-.829-.468-1.489 0-.66-.168-1.097-.372-.97a.45.45 0 01-.613-.159c-.132-.214-.55-.28-.928-.148-.549.193-.59.137-.204-.28.682-.737-2.338-3.7-3.374-3.312-.606.227-.634.174-.192-.37.443-.545.357-.694-.6-1.044-.912-.332-.97-.421-.317-.486.556-.055.433-.163-.4-.354-.66-.151-1.155-.489-1.1-.752.055-.263-.08-.478-.3-.478-.22 0-.4-.289-.4-.643 0-.407-.22-.558-.6-.412-.408.156-.6-.022-.6-.558 0-.433-.135-.768-.3-.744-.624.09-2.1-.552-2.1-.913 0-.208.225-.249.5-.092s-.016-.269-.646-.946c-.63-.677-1.35-1.185-1.6-1.127-.25.057-.319.028-.154-.064s.3-.343.3-.558c0-.215-.18-.279-.4-.143-.22.136-.4-.038-.4-.386 0-.385-.474-.729-1.206-.875-.967-.194-1.116-.351-.751-.79.367-.443.233-.555-.694-.581-.632-.017-.924-.122-.649-.233.696-.281.627-.935-.1-.935-.33 0-.6-.289-.6-.643 0-.407-.22-.558-.6-.412-.412.158-.6-.025-.6-.581 0-.473-.178-.701-.427-.547-.235.145-.526-.114-.647-.577-.12-.462-.468-.84-.773-.84a.555.555 0 01-.553-.553c0-.305-.36-.648-.8-.763-.44-.115-.8-.507-.8-.87 0-.367-.19-.544-.427-.397-.235.145-.526-.114-.647-.577-.12-.462-.403-.84-.628-.84-.536 0-5.498-5.039-5.498-5.582 0-.23-.27-.418-.6-.418-.33 0-.6-.27-.6-.6 0-.33-.195-.6-.433-.6s-1.898-1.44-3.689-3.2c-1.791-1.76-3.396-3.2-3.567-3.2-.171 0-.311-.174-.311-.386 0-.213-1.305-1.644-2.9-3.18-3.847-3.704-4.231-4.034-4.7-4.034-.22 0-.4-.258-.4-.573 0-.315-.36-.687-.8-.827-.44-.14-.8-.512-.8-.827 0-.315-.27-.573-.6-.573-.33 0-.6-.27-.6-.6 0-.33-.27-.6-.6-.6-.33 0-.6-.27-.6-.6 0-.33-.27-.6-.6-.6-.33 0-.6-.27-.6-.6 0-.33-.27-.6-.6-.6-.33 0-.6-.27-.6-.6 0-.33-.27-.6-.6-.6-.33 0-.6-.27-.6-.6 0-.33-.27-.6-.6-.6-.33 0-.6-.27-.6-.6 0-.33-.27-.6-.6-.6-.33 0-.6-.258-.6-.573 0-.315-.36-.687-.8-.827-.44-.14-.8-.512-.8-.827 0-.315-.27-.573-.6-.573-.33 0-.6-.27-.6-.6 0-.33-.27-.6-.6-.6-.33 0-.6-.27-.6-.6 0-.33-.27-.6-.6-.6-.33 0-.6-.27-.6-.6 0-.33-.27-.6-.6-.6-.33 0-.6-.27-.6-.6 0-.33-.27-.6-.6-.6-.33 0-.6-.27-.6-.6 0-.33-.27-.6-.6-.6-.33 0-.6-.27-.6-.6 0-.33-.27-.6-.6-.6-.33 0-.6-.27-.6-.6 0-.33-.287-.6-.637-.6-.351 0-.732-.36-.847-.8-.115-.44-.458-.8-.763-.8-.304 0-.553-.27-.553-.6 0-.33-.27-.6-.6-.6-.33 0-.6-.27-.6-.6 0-.33-.18-.6-.4-.6-.519 0-2-1.481-2-2 0-.22-.27-.4-.6-.4-.33 0-.6-.27-.6-.6 0-.33-.27-.6-.6-.6-.33 0-.6-.27-.6-.6 0-.33-.27-.6-.6-.6-.33 0-.6-.258-.6-.573 0-.315-.36-.687-.8-.827-.44-.14-.8-.512-.8-.827 0-.315-.27-.573-.6-.573-.33 0-.6-.27-.6-.6 0-.33-.27-.6-.6-.6-.33 0-.6-.27-.6-.6 0-.33-.18-.6-.4-.6-.519 0-2-1.481-2-2 0-.22-.27-.4-.6-.4-.33 0-.6-.27-.6-.6 0-.33-.27-.6-.6-.6-.33 0-.6-.27-.6-.6 0-.33-.27-.6-.6-.6-.33 0-.6-.258-.6-.573 0-.315-.36-.687-.8-.827-.44-.14-.8-.506-.8-.814 0-.334-.243-.468-.6-.331-.416.16-.6-.027-.6-.612 0-.483-.257-.843-.6-.843-.33 0-.6-.27-.6-.6 0-.33-.27-.6-.6-.6-.33 0-.6-.27-.6-.6 0-.33-.27-.6-.6-.6-.33 0-.6-.27-.6-.6 0-.33-.27-.6-.6-.6-.33 0-.6-.27-.6-.6 0-.33-.27-.6-.6-.6-.33 0-.6-.27-.6-.6 0-.33-.27-.6-.6-.6-.33 0-.6-.27-.6-.6 0-.33-.154-.6-.342-.6-.503 0-2.458-1.893-2.458-2.381 0-.23-.27-.419-.6-.419-.33 0-.6-.27-.6-.6 0-.33-.27-.6-.6-.6-.33 0-.6-.27-.6-.6 0-.33-.27-.6-.6-.6-.33 0-.6-.27-.6-.6 0-.33-.27-.6-.6-.6-.33 0-.6-.27-.6-.6 0-.33-.27-.6-.6-.6-.33 0-.6-.27-.6-.6 0-.33-.27-.6-.6-.6-.33 0-.6-.27-.6-.6 0-.33-.154-.6-.342-.6-.503 0-2.458-1.893-2.458-2.381 0-.23-.27-.419-.6-.419-.33 0-.6-.27-.6-.6 0-.33-.27-.6-.6-.6-.33 0-.6-.27-.6-.6 0-.33-.27-.6-.6-.6-.33 0-.6-.27-.6-.6 0-.33-.27-.6-.6-.6-.33 0-.6-.27-.6-.6 0-.33-.27-.6-.6-.6-.33 0-.6-.27-.6-.6 0-.33-.27-.6-.6-.6-.33 0-.6-.27-.6-.6 0-.333-.356-.6-.8-.6-.541 0-.8-.267-.8-.824 0-.481-.177-.714-.427-.559-.235.145-.526-.114-.647-.577-.12-.462-.468-.84-.773-.84-.304 0-.553-.27-.553-.6 0-.33-.27-.6-.6-.6-.33 0-.6-.27-.6-.6 0-.33-.27-.6-.6-.6-.33 0-.6-.27-.6-.6 0-.33-.27-.6-.6-.6-.33 0-.6-.27-.6-.6 0-.33-.27-.6-.6-.6-.33 0-.6-.27-.6-.6 0-.33-.258-.6-.573-.6-.315 0-.688-.363-.829-.806-.141-.443-.435-.695-.654-.56-.219.136-.499-.142-.623-.616-.136-.52-.444-.78-.774-.653-.349.134-.547-.076-.547-.578 0-.433-.27-.787-.6-.787-.33 0-.6-.27-.6-.6 0-.33-.251-.6-.557-.6-.307 0-.661-.27-.788-.6-.126-.33-.484-.6-.793-.6-.31 0-.788-.27-1.062-.6-.796-.959-11.205-.871-11.917.1m22.608 34.103a631365.04 631365.04 0 01149.366 148.512c3.709 3.693 6.743 6.955 6.743 7.25 0 .622 3.021-2.409-70.454 70.685-89.91 89.444-101.58 100.95-102.39 100.95-.872 0-.507.359-77.892-76.593-32.414-32.234-67.019-66.622-76.9-76.418C31.202 210.925 24.8 204.297 24.8 203.79c0-.508 7.914-8.64 22.373-22.988 12.305-12.211 46.91-46.61 76.9-76.442 71.947-71.569 72.795-72.401 73.618-72.27.38.06 7.85 7.221 16.6 15.913M230.576 115c0 6.16.056 8.624.123 5.476a307.45 307.45 0 000-11.2c-.068-3.012-.123-.436-.123 5.724m-5.63 15.6c.001 2.2.068 3.049.149 1.887.081-1.163.081-2.963-.002-4-.082-1.038-.148-.087-.147 2.113m49.761 2.49c.719.089 1.799.087 2.4-.004s.013-.164-1.307-.162c-1.32.002-1.812.077-1.093.166m-54.607 3.997a8.899 8.899 0 002.2 0c.605-.092.11-.167-1.1-.167-1.21 0-1.705.075-1.1.167m.809 4.913c0 .99.078 1.395.173.9a5.661 5.661 0 000-1.8c-.095-.495-.173-.09-.173.9m53.007.697c1.383.078 3.543.077 4.8-.002 1.256-.079.124-.143-2.516-.142-2.64 0-3.668.065-2.284.144M229.383 160.6c0 9.02.052 12.767.116 8.327.065-4.44.065-11.82.001-16.4-.065-4.58-.117-.947-.117 8.073m15.6 3.6c0 9.02.052 12.767.116 8.327.065-4.44.065-11.82.001-16.4-.065-4.58-.117-.947-.117 8.073m2.799.8c0 8.8.053 12.343.118 7.873.064-4.469.064-11.669-.001-16-.064-4.33-.117-.673-.117 8.127m-26.983 1.919l.199 8.081.11-7.771c.06-4.274-.029-7.911-.199-8.081-.17-.17-.219 3.327-.11 7.771m58.973 5.881c0 5.17.057 7.285.127 4.7.069-2.585.069-6.815 0-9.4-.07-2.585-.127-.47-.127 4.7m9.333 10.283c.497.096 1.217.092 1.6-.008.382-.1-.025-.179-.905-.174-.88.004-1.193.086-.695.182m-41.005 3.193c.385.1 1.015.1 1.4 0 .385-.101.07-.183-.7-.183s-1.085.082-.7.183m22.782.42c1.476.077 3.996.077 5.6.001 1.605-.076.398-.139-2.682-.139-3.08-.001-4.393.061-2.918.138m36.418.78c.385.1 1.015.1 1.4 0 .385-.101.07-.183-.7-.183s-1.085.082-.7.183m45.1 15.657c0 .34-2.581.492-9.5.559l-9.5.093 9.372.115c8.746.107 10.772-.089 9.901-.96-.15-.15-.273-.063-.273.193m-163.6.463l-8.6.212 8.6.196c4.73.108 12.29.1 16.8-.017l8.2-.212-7.667-.088c-4.217-.048-7.907-.136-8.2-.195-.293-.06-4.403-.013-9.133.104m-141.477.303c2.597.07 6.737.069 9.2-.001 2.462-.07.337-.127-4.723-.126-5.06 0-7.075.057-4.477.127m35.577-.001c2.145.072 5.655.072 7.8 0 2.145-.072.39-.131-3.9-.131s-6.045.059-3.9.131m33.821.001c2.267.071 5.867.071 8-.001 2.134-.072.279-.13-4.121-.13s-6.145.059-3.879.131m33.779-.001c2.145.072 5.655.072 7.8 0 2.145-.072.39-.131-3.9-.131s-6.045.059-3.9.131m85.021.001c2.267.071 5.867.071 8-.001 2.134-.072.279-.13-4.121-.13s-6.145.059-3.879.131m34 0c2.267.071 5.867.071 8-.001 2.134-.072.279-.13-4.121-.13s-6.145.059-3.879.131m33.779-.001c2.145.072 5.655.072 7.8 0 2.145-.072.39-.131-3.9-.131s-6.045.059-3.9.131m-194.597 16.031c-.126.479-.053.978.161 1.111.617.381.782-.045.41-1.052l-.344-.929-.227.87m28.99 22.871c0 .77.082 1.085.183.7.1-.385.1-1.015 0-1.4-.101-.385-.183-.07-.183.7m-32.202 10.289c.71.088 1.97.09 2.8.003.83-.087.249-.159-1.291-.161-1.54-.002-2.219.069-1.509.158m74.414 52.794c.497.096 1.217.092 1.6-.008.382-.1-.025-.179-.905-.174-.88.004-1.193.086-.695.182" fill="#75bc1e"/><path d="M171.1 74.858l-8.3 8.353v59.915c0 37.263-.144 60.058-.38 60.294-.239.24 2.966.38 8.7.38h9.08l-.103-68.383c-.057-37.611-.237-68.503-.4-68.648-.164-.145-4.032 3.495-8.597 8.089m-33.903 33.745L129 116.807l-.2 43.497-.2 43.496h18l-.2-51.567c-.132-34.079-.337-51.612-.603-51.701-.221-.073-4.091 3.558-8.6 8.071m-25.976 26.184c-.318.197-4.098 3.835-8.4 8.085L95 150.6l-.2 26.6-.2 26.6h9.065c6.526 0 8.964-.123 8.703-.438-.21-.253-.407-14.936-.466-34.686-.089-29.77-.178-34.2-.681-33.889m-33.786 33.697c-.421.236-4.201 3.834-8.4 7.996l-7.635 7.567-.2 9.877-.2 9.876h9.066c6.495 0 8.963-.124 8.704-.436-.199-.24-.408-8.253-.466-17.872-.102-17.04-.121-17.426-.869-17.008m136.361 35.849c.112.293.204 31.298.204 68.9 0 37.629.154 68.367.342 68.367.189 0 4.059-3.692 8.6-8.205l8.258-8.205v-60.162c0-33.09.092-60.402.204-60.695.167-.434-1.466-.533-8.804-.533s-8.971.099-8.804.533m33.824-.153c.236.236.38 19.919.38 51.863 0 49.715.025 51.476.733 51.29.403-.105 4.228-3.69 8.5-7.966l7.767-7.774.2-43.897.2-43.896h-9.08c-5.734 0-8.939.14-8.7.38m42.678-.28l-8.702.116.102 34.686c.091 30.943.169 34.7.721 34.806.364.07 3.877-3.118 8.5-7.714l7.881-7.833v-26.7c0-20.234.116-26.817.48-27.181.264-.264.309-.439.1-.388-.209.05-4.296.144-9.082.208m24.921.28c.23.229.381 7.35.381 17.913 0 15.16.081 17.563.596 17.761.4.153 3.19-2.372 8.5-7.694l7.904-7.922.119-10.104.119-10.105-9-.114c-5.684-.073-8.859.025-8.619.265" fill="#dc0c1c"/><path d="M188.2 57.732l-8.4 8.468.2 68.6.2 68.6 8.372.108c4.604.06 8.517-.037 8.696-.216.655-.655.488-154.102-.168-154.06-.275.018-4.28 3.843-8.9 8.5m-33.61 33.462c-5.428 5.417-9 9.27-8.7 9.385.41.157.51 10.336.51 51.617v51.421l8.1-.109 8.1-.108.101-59.97c.093-55.106.155-60.029.762-60.7.364-.401.588-.729.499-.728-.089.002-4.306 4.138-9.372 9.192m-33.802 33.751c-8.308 8.264-10.186 10.225-9.29 9.702.395-.231.519 6.829.6 34.231l.102 34.522 8.296.108 8.297.108.103-43.408c.057-23.874.099-43.408.092-43.408-.006 0-3.696 3.665-8.2 8.145m-33.995 33.811c-7.906 7.942-9.968 10.143-8.897 9.5.391-.235.518 3.454.6 17.423L78.6 203.4l8.092.108 8.091.109.109-26.509.108-26.552c0-.025-3.693 3.665-8.207 8.2m-34.896 34.747c-5.223 5.227-9.497 9.682-9.497 9.9-.001.255 3.366.356 9.386.283l9.387-.114.113-9.786c.063-5.383.113-9.786.111-9.786-.002 0-4.277 4.276-9.5 9.503M197.6 281.192c0 42.464.045 77.202.1 77.196.055-.007 4.06-3.93 8.9-8.718 4.84-4.788 8.629-8.562 8.42-8.388-.209.175-.523.318-.699.318-.175 0-.364-30.915-.42-68.7l-.101-68.7-8.1-.108-8.1-.109v77.209m33.79-76.7c-.105.279-.236 27.642-.291 60.805L231 325.594l9.1-9.094c9.285-9.279 9.542-9.555 8.502-9.156-.53.203-.611-5.763-.7-51.457L247.8 204.2l-8.109-.108c-6.271-.084-8.153.007-8.301.4m33.717 43.208c-.059 24.035-.092 43.745-.073 43.801.019.055 4.033-3.893 8.921-8.773 7.029-7.018 8.757-8.945 8.266-9.22-.554-.31-.621-4.088-.621-34.928V204h-16.386l-.107 43.7m33.88-43.208c-.107.279-.148 12.387-.091 26.906l.104 26.398 8.755-8.691c6.947-6.898 8.661-8.803 8.304-9.234-.315-.38-.482-5.817-.555-18.107L315.4 204.2l-8.109-.108c-6.27-.084-8.154.007-8.304.4m33.813 9.075c0 5.262-.116 9.897-.258 10.3-.142.403 4.268-3.763 9.8-9.258 5.532-5.495 10.058-10.13 10.058-10.3 0-.17-4.41-.309-9.8-.309h-9.8v9.567M222.975 333.3l-1.175 1.3 1.3-1.175c.715-.646 1.3-1.231 1.3-1.3 0-.309-.33-.037-1.425 1.175" fill="#fcdc04"/></g></svg>