<svg xmlns="http://www.w3.org/2000/svg" width="400" height="400"><g fill-rule="evenodd"><path d="M190.65 7.92c-.206.332-1.833.48-5.274.48-3.389 0-4.976.142-4.976.445 0 .298-.568.361-1.717.188-1.009-.151-2.876-.013-4.532.335-1.548.326-3.161.604-3.583.618-2.152.072-4.833.552-5.345.957-.464.367-.507.339-.223-.143.286-.485.243-.51-.223-.134-.317.256-1.428.537-2.468.624-1.039.087-2.014.282-2.166.434-.152.152-.639.276-1.081.276-.766 0-2.726.539-4.462 1.228-.44.175-1.43.419-2.2.543-3.806.614-4.4.76-4.4 1.082 0 .191-.619.347-1.376.347-.757 0-1.488.18-1.624.4-.136.22-.687.4-1.224.4-.537 0-.976.18-.976.4 0 .22-.54.4-1.2.4-.66 0-1.2.18-1.2.4 0 .22-.525.4-1.167.4-.641 0-1.226.178-1.3.397-.073.218-.628.437-1.233.487-.605.05-1.1.231-1.1.403 0 .172-.36.313-.8.313-.44 0-.8.18-.8.4 0 .22-.461.4-1.024.4-.58 0-.916.173-.776.4.149.242-.396.4-1.376.4-.893 0-1.624.18-1.624.4 0 .22-.27.4-.6.4-.33 0-.6.18-.6.4 0 .22-.349.4-.776.4-.427 0-.888.18-1.024.4-.136.22-.687.4-1.224.4-.537 0-.976.18-.976.4 0 .22-.36.4-.8.4-.44 0-.8.18-.8.4 0 .22-.272.4-.605.4-.654 0-2.248.8-2.632 1.321-.13.177-.4.276-.6.22-.507-.142-6.563 2.934-6.563 3.333 0 .179-.416.326-.925.326-.508 0-1.273.322-1.7.715-.426.393-1.36.955-2.075 1.248-.715.294-1.3.692-1.3.886 0 .193-.36.351-.8.351-.44 0-.8.18-.8.4 0 .22-.294.4-.653.4-.359 0-.944.324-1.3.72-.356.397-1.323 1.035-2.148 1.42-.826.384-1.909 1.106-2.407 1.605-.499.498-1.488 1.163-2.199 1.478-.711.315-1.293.708-1.293.875 0 .166-.281.302-.624.302-.343 0-.512.18-.376.4.136.22-.057.4-.429.4-.373 0-.97.315-1.327.7-1.167 1.256-2.603 2.339-2.254 1.7.18-.33-.066-.195-.547.3-.481.495-1.097.9-1.37.9-.272 0-.776.315-1.119.7-1.003 1.125-2.728 2.5-3.137 2.5-.208 0-.561.315-.785.7-.224.385-.413.589-.42.452-.017-.341-2.752 2.083-6.258 5.548-1.614 1.595-3.074 2.904-3.244 2.908-.171.005-1.345.995-2.611 2.2-1.265 1.206-2.48 2.192-2.7 2.192-.219 0-.399.193-.399.429 0 .235-.27.698-.6 1.028-.33.33-.6.47-.6.31 0-.159-.36.126-.8.633-.44.507-.8 1.031-.8 1.164s-1.035 1.355-2.3 2.716c-4.178 4.494-4.9 5.343-4.9 5.757 0 .226-.159.312-.354.192-.194-.12-.578.325-.853.989-.276.664-.588 1.12-.694 1.014-.27-.269-1.299.811-1.299 1.363 0 .249-.153.358-.34.242-.187-.115-.592.276-.9.87-.308.593-1.055 1.604-1.66 2.245-.605.642-1.1 1.322-1.1 1.511 0 .189-.54.909-1.2 1.6-.66.691-1.203 1.454-1.206 1.696-.004.243-.499 1.01-1.1 1.705-1.549 1.79-2.694 3.397-2.694 3.782 0 .18-.27.651-.6 1.047-.33.395-.852 1.205-1.16 1.799-.308.594-.741.969-.962.833-.221-.137-.282-.055-.136.181.146.236-.006.701-.338 1.033-.332.332-.604.797-.604 1.032 0 .236-.18.429-.4.429-.22 0-.4.27-.4.6 0 .33-.18.6-.4.6-.22 0-.4.36-.4.8 0 .44-.18.8-.4.8-.22 0-.4.236-.4.525 0 .288-.36.911-.8 1.383-.44.472-.8 1.136-.8 1.475 0 .339-.18.617-.4.617-.22 0-.4.371-.4.824 0 .453-.18.712-.4.576-.22-.136-.4.033-.4.376 0 .343-.18.624-.4.624-.22 0-.4.368-.4.817 0 .449-.36 1.203-.8 1.675-.44.472-.8 1.185-.8 1.583 0 .399-.18.725-.4.725-.22 0-.4.326-.4.725 0 .398-.36 1.111-.8 1.583-.44.472-.8 1.049-.8 1.283 0 .385-1.2 2.97-2.625 5.653-.305.574-.443 1.155-.307 1.29.135.136.018.521-.26.856-.278.336-.366.61-.195.61.171 0 .002.341-.375.759-.534.589-.57.805-.162.968.393.157.399.218.024.241-.275.018-.5.403-.5.856 0 .453-.18.712-.4.576-.228-.141-.4.204-.4.8 0 .576-.143.959-.317.851-.174-.107-.346.194-.382.671-.036.476-.253.929-.483 1.005-.23.077-.418.675-.418 1.33 0 .692-.168 1.087-.4.943-.238-.147-.4.329-.4 1.176 0 .783-.18 1.424-.4 1.424-.22 0-.4.439-.4.976 0 .537-.18 1.088-.4 1.224-.22.136-.4.687-.4 1.224 0 .537-.18.976-.4.976-.22 0-.4.529-.4 1.176 0 .647-.18 1.288-.4 1.424-.22.136-.4.676-.4 1.2 0 .524-.18 1.064-.4 1.2-.22.136-.4.867-.4 1.624 0 .757-.18 1.376-.4 1.376-.22 0-.4.619-.4 1.376 0 .757-.18 1.488-.4 1.624-.22.136-.4.967-.4 1.847 0 .965-.159 1.502-.4 1.353-.242-.149-.4.396-.4 1.376 0 .893-.18 1.624-.4 1.624-.22 0-.4.889-.4 1.976s-.18 2.088-.4 2.224c-.22.136-.4 1.036-.4 2s-.18 1.864-.4 2c-.22.136-.4 1.122-.4 2.19 0 1.069-.17 2.003-.378 2.077-.208.073-.412 1.483-.453 3.133-.041 1.65-.217 3.182-.391 3.404-.174.222-.404 2.022-.512 4a1645.82 1645.82 0 01-.637 10.596c-.516 8.197-.173 25.196.532 26.337.108.174.229 1.969.27 3.99.041 2.02.21 3.673.376 3.673.167 0 .422 1.305.567 2.9.145 1.595.362 3.935.481 5.2.119 1.265.361 2.3.539 2.3.33 0 .673 1.779 1.061 5.5.12 1.155.382 2.1.582 2.1.2 0 .363.72.363 1.6 0 .88.16 1.6.356 1.6.35 0 .664 1.337 1.103 4.7.122.935.383 1.7.581 1.7.198 0 .36.529.36 1.176 0 .647.18 1.288.4 1.424.22.136.4.676.4 1.2 0 .524.18 1.064.4 1.2.22.136.4.777.4 1.424 0 .647.18 1.176.4 1.176.22 0 .4.439.4.976 0 .537.18 1.088.4 1.224.22.136.4.777.4 1.424 0 .647.18 1.176.4 1.176.22 0 .4.45.4 1s.18 1 .4 1c.22 0 .4.45.4 1s.18 1 .4 1c.22 0 .4.439.4.976 0 .537.18 1.088.4 1.224.22.136.4.597.4 1.024 0 .427.18.776.4.776.22 0 .4.355.4.788 0 .433.319 1.378.709 2.1.39.722 1.032 2.24 1.427 3.374.619 1.781 1.765 4.204 3.381 7.153.237.432.666 1.37.954 2.085.289.715.66 1.3.827 1.3.166 0 .302.36.302.8 0 .44.135.801.3.803.337.004 1.3 1.922 1.3 2.588 0 .238.36.692.8 1.009.44.317.8.897.8 1.288 0 .392.18.712.4.712.22 0 .4.32.4.712 0 .391.36.971.8 1.288.44.317.8.897.8 1.288 0 .392.18.712.4.712.22 0 .4.32.4.712 0 .391.36.971.8 1.288.44.317.8.817.8 1.112 0 .294.18.424.4.288.22-.136.4.123.4.576 0 .453.18.824.4.824.22 0 .4.188.4.417 0 .23.44.893.979 1.473.538.581.9 1.182.804 1.338-.096.155.094.504.421.776.328.272.596.698.596.947s.675 1.186 1.5 2.082c.825.896 1.556 1.873 1.625 2.172.069.3.474.847.9 1.217.426.369.775.849.775 1.066 0 .216.54.958 1.2 1.649.66.691 1.2 1.411 1.2 1.6 0 .189 1.08 1.434 2.4 2.767 1.32 1.332 2.4 2.579 2.4 2.771 0 .191.36.608.8.925.44.317.8.733.8.924 0 .454 2.099 2.676 2.527 2.676.554 0 1.473 1.105 1.473 1.771 0 .346.181.629.402.629.618 0 3.998 3.571 3.998 4.224 0 .317.178.576.395.576.46 0 1.662.938 3.205 2.5.598.605 1.292 1.1 1.543 1.1.251 0 .457.15.457.332 0 .183.455.576 1.011.874.556.297 1.115.956 1.242 1.465.128.508.393.824.59.703.196-.122.357-.031.357.202s.268.424.597.424c.328 0 .821.36 1.096.8.275.44.644.8.821.8.515 0 2.262 1.89 1.995 2.158-.133.133.056.242.42.242.876 0 2.256 1.177 2.698 2.3.239.61.686.9 1.387.9.587 0 .926.173.786.4-.136.22.044.4.4.4.356 0 .536.18.4.4-.136.22.129.4.589.4.46 0 .939.269 1.065.598.127.328.391.498.588.376.197-.122.358.07.358.426s.18.536.4.4c.22-.136.4.044.4.4 0 .356.18.536.4.4.22-.136.4-.046.4.2s.169.343.375.215c.207-.127.522.007.7.3.179.292 1.085.901 2.014 1.352.929.452 1.574.937 1.433 1.077-.14.141.181.256.715.256.537 0 1.194.357 1.47.8.275.44.768.8 1.096.8.329 0 .597.18.597.4 0 .22.27.4.6.4.33 0 .6.18.6.4 0 .22.366.4.813.4.448 0 1.342.54 1.987 1.2.645.66 1.515 1.2 1.933 1.2.714 0 2.071.881 3.843 2.494.426.388.966.685 1.2.659.993-.112 1.453.076 1.198.49-.185.298.004.354.576.173.62-.197.85-.1.85.357 0 .345.27.627.6.627.33 0 .6.18.6.4 0 .22.45.4 1 .4s1 .199 1 .443c0 .243.277.336.615.207a.639.639 0 01.852.38c.13.339.477.523.772.41.294-.113.633-.047.753.147s-.099.449-.487.567c-.388.118-.03.124.795.012 1.138-.153 1.5-.062 1.5.378 0 .384.271.51.8.372.44-.115.8-.022.8.208 0 .23-.315.488-.7.574-.385.087.425.297 1.8.469 1.375.171 2.5.474 2.5.672 0 .199.341.361.757.361.417 0 .856.256.976.569.133.348.538.485 1.043.353.469-.122.824-.023.824.231 0 .246.45.447 1 .447s1 .18 1 .4c0 .22.54.4 1.2.4.66 0 1.2.18 1.2.4 0 .22.36.4.8.4.44 0 .8.18.8.4 0 .22.302.4.672.4.752 0 3.161.713 4.223 1.249.382.193 1.057.351 1.5.351.443 0 .805.18.805.4 0 .22.439.4.976.4.537 0 1.088.18 1.224.4.136.22.687.4 1.224.4.537 0 .976.143.976.318 0 .175.675.363 1.5.418.825.054 1.56.271 1.633.482.074.21.749.382 1.5.382.752 0 1.367.18 1.367.4 0 .22.81.4 1.8.4s1.8.18 1.8.4c0 .22.945.403 2.1.406 1.503.005 1.93.116 1.5.394-.428.277.03.391 1.6.4 1.506.008 2.016.129 1.615.382-.411.26-.095.363 1.062.347.906-.012 2.52.169 3.585.403 4.467.981 6.321 1.271 8.469 1.328l2.269.06-1.8.28-1.8.28 1.9.06c1.176.037 1.9-.111 1.9-.39 0-.296.445-.358 1.3-.181 5.898 1.218 34.998 1.113 40.763-.147.804-.176 1.969-.265 2.589-.197.619.068 2.141-.112 3.38-.402 1.24-.289 2.729-.473 3.309-.41.581.064 1.146-.03 1.256-.208.11-.178 1.236-.33 2.502-.338 3.322-.02 3.372-.028 3.101-.467-.152-.247.529-.4 1.776-.4 1.113 0 2.024-.18 2.024-.4 0-.22.529-.4 1.176-.4.647 0 1.288-.18 1.424-.4.136-.22.719-.4 1.295-.4.577 0 1.656-.22 2.398-.488 1.102-.398 1.413-.388 1.686.054.262.424.435.356.792-.312.332-.62.837-.854 1.843-.854.762 0 1.386-.18 1.386-.4 0-.22.63-.4 1.4-.4.77 0 1.4-.201 1.4-.447 0-.26.416-.367 1-.255.671.128 1 .012 1-.353 0-.33.442-.545 1.12-.545.616 0 1.294-.174 1.507-.387.212-.212.956-.429 1.652-.482.696-.054 1.177-.24 1.07-.414-.108-.174.365-.317 1.051-.317.73 0 1.145-.166 1-.4-.145-.234.27-.4 1-.4s1.145-.166 1-.4c-.14-.227.196-.4.776-.4.563 0 1.024-.18 1.024-.4 0-.22.596-.4 1.325-.4.728 0 1.682-.315 2.12-.7 1.215-1.069 2.459-1.7 3.35-1.7.443 0 .805-.2.805-.443 0-.274.384-.347 1.003-.192.698.175.971.097.9-.257-.064-.314.249-.47.82-.409.508.055.821-.066.696-.268-.281-.455 1.791-1.522 3.621-1.865.748-.14 1.36-.415 1.36-.611 0-.195.27-.355.6-.355.33 0 .6-.18.6-.4 0-.22.36-.4.8-.4.44 0 .8-.18.8-.4 0-.22.36-.4.8-.4.44 0 .8-.199.8-.443 0-.243.277-.336.615-.207.35.135.713-.019.843-.357.125-.326.529-.593.896-.593.368 0 .929-.36 1.246-.8.317-.44.897-.8 1.288-.8.392 0 .712-.151.712-.336 0-.184.461-.546 1.025-.803.594-.27.921-.297.777-.064-.515.834.319.358 1.398-.797.733-.785 1.515-1.202 2.26-1.206.883-.005 1.005-.094.54-.394-.486-.314-.429-.389.297-.394.493-.003 1.121-.366 1.396-.806.275-.44.647-.8.827-.8.18 0 .216.18.08.4-.136.22-.069.4.149.4.219 0 .511-.36.651-.8.14-.44.522-.8.851-.8.349 0 .478-.192.311-.462-.171-.275-.111-.353.149-.193.238.147.941-.207 1.561-.788.621-.58 1.623-1.231 2.228-1.445.605-.215 1.1-.643 1.1-.951 0-.335.412-.561 1.024-.561.58 0 .916-.173.776-.4-.136-.22.044-.4.4-.4.356 0 .536-.18.4-.4-.139-.225.18-.4.727-.4.536 0 1.199-.27 1.473-.6.274-.33.373-.6.22-.6-.668 0 .942-1.141 1.784-1.264.513-.075 1.016-.386 1.117-.692.111-.337.005-.445-.269-.276-.249.154-.452.089-.452-.144 0-.233.428-.424.951-.424.523 0 1.175-.27 1.449-.6.274-.33.36-.6.191-.6-.169 0 .178-.45.771-1 .594-.55 1.274-1 1.512-1 .53 0 1.924-1.558 1.932-2.161.004-.304.097-.299.3.017.213.33.436.302.81-.1.379-.409.389-.556.039-.556-.263 0-.067-.356.435-.792.502-.435 1.07-.695 1.262-.576.191.118.348-.175.348-.651 0-.619.177-.798.621-.628.37.142.518.071.365-.175-.318-.516 2.038-2.692 3.514-3.244.67-.251 1.1-.71 1.1-1.173 0-.502.281-.761.824-.761.453 0 .712-.18.576-.4-.136-.22.016-.4.337-.4.322 0 .778-.554 1.014-1.23.235-.677.613-1.116.839-.976.225.139.413-.072.416-.47.005-.614.065-.633.394-.124s.389.49.394-.124c.003-.398.186-.612.406-.476.22.136.414-.168.432-.676.017-.508.121-.701.232-.428.263.653 1.336-.364 1.336-1.267 0-.346.281-.629.624-.629.343 0 .519-.169.391-.376-.363-.587 3.279-4.135 3.877-3.776.339.204.32.073-.06-.394-.49-.604-.49-.682 0-.577.313.068.523-.102.468-.377-.055-.275.17-.5.5-.5.33 0 .6-.142.6-.317 0-.174.63-.984 1.399-1.8.77-.815 1.205-1.483.967-1.483-.237 0 .303-.705 1.2-1.567 1.037-.997 1.45-1.641 1.132-1.769-.306-.123-.239-.213.175-.232.37-.018.787-.392.927-.832.14-.44.422-.8.627-.8.205 0 .387-.405.405-.9.019-.563.116-.686.257-.329.144.366.391.078.687-.8.255-.754.679-1.326.944-1.271.264.055.48-.068.48-.274 0-1.194.863-2.575 1.258-2.012.322.459.37.395.218-.3-.125-.57.134-1.239.723-1.875.504-.544.816-1.091.692-1.214-.123-.124-.014-.225.242-.225.257 0 .467-.236.467-.525 0-.288.36-.911.8-1.383.44-.472.8-1.136.8-1.475 0-.339.18-.617.4-.617.22 0 .4-.27.4-.6 0-.33.18-.6.4-.6.22 0 .4-.27.4-.6 0-.33.18-.6.4-.6.22 0 .4-.36.4-.8 0-.44.18-.8.4-.8.22 0 .403-.405.406-.9.005-.728.08-.785.394-.3.314.485.389.428.394-.3.003-.514.253-.9.582-.9.317 0 .705-.208.862-.462.177-.286.11-.353-.176-.176-.268.165-.462.043-.462-.292 0-.317.39-.679.866-.803.745-.195.791-.316.332-.869-.293-.354-.368-.612-.166-.573.783.149 1.368-.043 1.368-.449 0-.233-.18-.312-.4-.176-.22.136-.4.057-.4-.176 0-.233.18-.424.4-.424.22 0 .4-.264.4-.586 0-.322.36-.779.8-1.014.44-.235.8-.612.8-.838 0-.225-.204-.283-.454-.129-.25.155-.049-.267.447-.938.496-.67.779-1.417.629-1.66-.15-.242.008-.548.35-.68.343-.131.534-.384.424-.561-.3-.486.236-1.622.646-1.368.197.122.358-.059.358-.402s.225-.627.5-.63c.333-.004.3-.136-.1-.394-.441-.285-.46-.389-.073-.394.357-.004.439-.284.254-.867-.217-.684-.141-.809.373-.612.456.175.646.023.646-.516 0-.42.175-.872.388-1.004.214-.132.507-1.129.651-2.216.144-1.087.419-1.879.612-1.76.192.119.349-.049.349-.374s.184-.652.409-.727c.224-.074.433-.801.464-1.615.03-.813.293-1.57.584-1.682.313-.119.422-.482.268-.883-.177-.461-.11-.588.207-.392.323.2.468-.143.468-1.107 0-1.046.201-1.461.8-1.651.44-.14.797-.557.794-.927-.005-.581-.059-.591-.394-.073-.531.822-.498.003.068-1.64.257-.748.797-1.651 1.2-2.007.772-.682 1.013-1.374.332-.953-.22.136-.4-.033-.4-.376 0-.343.18-.624.4-.624.22 0 .4-.63.4-1.4 0-.77.18-1.4.4-1.4.22 0 .4-.54.4-1.2 0-.718.209-1.2.52-1.2.355 0 .469-.429.361-1.353-.086-.744.04-1.474.281-1.623.241-.149.438-.891.438-1.648 0-.757.18-1.376.4-1.376.22 0 .4-.619.4-1.376 0-.757.18-1.488.4-1.624.22-.136.4-1.047.4-2.024 0-.977.18-1.776.4-1.776.22 0 .4-.774.4-1.72s.218-1.938.485-2.205c.268-.268.431-1.216.366-2.124-.08-1.101.024-1.552.315-1.372.296.183.434-.628.434-2.555 0-1.616.171-2.824.4-2.824s.403-1.237.406-2.9c.004-2.02.124-2.718.394-2.3.262.405.39-1.059.394-4.5.004-3.141.16-5.1.407-5.1.937 0-.114-32.949-1.106-34.684-.337-.588-.421-1.606-.252-3.046.168-1.424.101-2.257-.194-2.44-.268-.165-.451-1.518-.455-3.354-.004-2.134-.125-2.892-.394-2.476-.278.43-.389.003-.394-1.5-.003-1.155-.186-2.1-.406-2.1-.223 0-.4-1.075-.4-2.424 0-1.513-.15-2.33-.4-2.176-.244.151-.4-.463-.4-1.576 0-1.003-.18-1.824-.4-1.824-.22 0-.4-.63-.4-1.4 0-.77-.16-1.4-.355-1.4-.195 0-.444-.495-.555-1.1-.11-.605-.49-2.144-.845-3.42-.355-1.275-.645-2.67-.645-3.1 0-.429-.18-.78-.4-.78-.22 0-.4-.63-.4-1.4 0-.77-.201-1.4-.447-1.4-.262 0-.366-.418-.253-1.01.122-.641-.025-1.132-.404-1.344-.328-.184-.596-.809-.596-1.39 0-.581-.178-1.056-.397-1.056-.218 0-.31-.45-.205-1 .128-.671.012-1-.353-1-.315 0-.545-.423-.545-1 0-.55-.18-1-.4-1-.22 0-.4-.54-.4-1.2 0-.66-.18-1.2-.4-1.2-.22 0-.4-.45-.4-1s-.18-1-.4-1c-.22 0-.4-.36-.4-.8 0-.44-.18-.8-.4-.8-.22 0-.4-.45-.4-1s-.176-1-.39-1c-.22 0-.285-.523-.15-1.2.153-.764.077-1.2-.21-1.2-.247 0-.45-.36-.45-.8 0-.44-.18-.8-.4-.8-.22 0-.421-.585-.446-1.3-.026-.715-.13-.983-.231-.595s-.353.6-.56.472c-.207-.128-.265-.412-.129-.631.135-.22-.051-.616-.414-.882s-.81-1.379-.993-2.473c-.183-1.095-.355-1.721-.382-1.391-.06.724-1.245-1.437-1.245-2.269 0-.318-.18-.467-.4-.331-.22.136-.4-.044-.4-.4 0-.387.185-.533.462-.362.286.177.353.11.176-.176-.157-.254-.566-.462-.908-.462-.426 0-.557-.253-.414-.8.129-.495.012-.8-.307-.8-.284 0-.616-.315-.738-.7-.296-.936-1.595-3.066-1.971-3.233-.165-.074-.3-.479-.3-.9 0-.422-.18-.767-.4-.767-.22 0-.4-.27-.4-.6 0-.33-.18-.6-.4-.6-.22 0-.4-.27-.4-.6 0-.33-.18-.6-.4-.6-.22 0-.4-.268-.4-.595 0-.552-.635-1.49-1.926-2.847-.289-.303-.412-.735-.274-.958.138-.223-.041-.518-.398-.654-.356-.137-.557-.487-.445-.777.114-.298-.007-.45-.277-.348-.564.211-1.573-1.746-1.207-2.339.143-.231.052-.283-.211-.12-.276.17-.462.027-.462-.357 0-.353-.453-1.095-1.008-1.649-.554-.554-.903-1.176-.776-1.382.127-.206.041-.374-.192-.374s-.427-.405-.43-.9c-.005-.728-.08-.785-.394-.3-.308.476-.39.393-.4-.4-.01-.793-.092-.876-.4-.4-.302.468-.389.357-.394-.5-.003-.605-.151-1.1-.329-1.1-.594 0-2.877-2.109-2.877-2.658 0-.298-.18-.542-.4-.542-.22 0-.4-.27-.4-.6 0-.33-.191-.6-.424-.6-.233 0-.326-.157-.208-.348.227-.368-1.382-2.452-1.894-2.452-.456 0-3.074-2.714-3.074-3.187a.408.408 0 00-.4-.413c-.22 0-.4-.191-.4-.424 0-.233.18-.312.4-.176.22.136.4.057.4-.176 0-.233-.269-.424-.597-.424-1.082 0-2.63-1.675-2.38-2.575.178-.638.139-.693-.172-.242-.48.697-2.834-1.688-2.845-2.883-.004-.431-.313-.7-.806-.7-.554 0-.81-.277-.832-.9-.017-.495-.125-.667-.239-.382-.144.358-.557.153-1.338-.664-.621-.65-1.262-1.063-1.424-.918-.162.145-.176-.066-.03-.469.171-.476.097-.678-.211-.576-.26.087-1.536-.888-2.835-2.166-1.298-1.279-2.536-2.325-2.75-2.325-.213 0-.277-.18-.141-.4.136-.22.06-.4-.168-.4s-1.299-.855-2.38-1.9a202.251 202.251 0 00-2.508-2.396 52.395 52.395 0 01-1.514-1.48c-.534-.541-1.147-.875-1.362-.742-.215.133-.286.07-.156-.139.129-.21.07-.643-.132-.962-.252-.399-.37-.424-.374-.081-.003.275-.205.5-.449.5-.243 0-.34-.268-.214-.595.132-.344.023-.555-.257-.5-.267.052-.437-.143-.376-.435.06-.291-.075-.415-.3-.276-.226.139-.41.063-.41-.17s-.296-.424-.657-.424c-.361 0-1.172-.54-1.803-1.2-.631-.66-1.415-1.2-1.743-1.2-.329 0-.597-.143-.597-.317 0-.175-.896-.85-1.992-1.5-1.096-.651-1.996-1.318-2-1.483-.004-.165-.278-.3-.608-.3-.33 0-.6-.15-.6-.332 0-.183-.495-.588-1.1-.9-.605-.313-1.449-.883-1.875-1.268-.426-.385-1.268-.918-1.871-1.185-.603-.266-1.009-.627-.902-.8.108-.173-.136-.315-.54-.315-.405 0-.995-.36-1.312-.8-.317-.44-.997-.8-1.512-.8-.522 0-.826-.177-.688-.4.136-.22-.123-.4-.576-.4-.453 0-.824-.18-.824-.4 0-.22-.294-.4-.653-.4-.359 0-.976-.372-1.37-.826-.394-.455-.831-.786-.972-.736-.435.155-3.005-.968-3.005-1.313 0-.179-.255-.325-.567-.325-.311 0-.626-.135-.7-.3-.114-.256-2.944-1.768-3.533-1.888-.11-.022-.605-.265-1.1-.54-.495-.275-.9-.413-.9-.307 0 .106-1.008-.338-2.241-.986-1.232-.649-2.582-1.179-3-1.179-.417 0-.759-.18-.759-.4 0-.22-.36-.4-.8-.4-.44 0-.8-.18-.8-.4 0-.22-.461-.4-1.024-.4s-.934-.144-.825-.32c.109-.176-.601-.556-1.577-.844-.976-.289-1.774-.684-1.774-.88 0-.196-.54-.356-1.2-.356-.66 0-1.2-.18-1.2-.4 0-.22-.54-.4-1.2-.4-.66 0-1.2-.18-1.2-.4 0-.22-.272-.4-.605-.4-.333 0-.918-.158-1.3-.351-1.167-.589-3.503-1.249-4.423-1.249-.48 0-.872-.18-.872-.4 0-.22-.439-.4-.976-.4-.537 0-1.088-.18-1.224-.4-.136-.22-.676-.4-1.2-.4-.524 0-1.064-.18-1.2-.4-.136-.22-.867-.4-1.624-.4-.757 0-1.376-.18-1.376-.4 0-.22-.709-.4-1.576-.4-.867 0-1.688-.18-1.824-.4-.136-.22-.867-.4-1.624-.4-.757 0-1.376-.143-1.376-.318 0-.175-.666-.363-1.481-.418-.814-.055-1.669-.238-1.9-.408-.23-.169-1.139-.358-2.019-.421-.879-.062-1.93-.29-2.334-.507-.404-.216-.823-.305-.93-.197-.108.108-.768.028-1.466-.176-.699-.205-2.44-.465-3.87-.578-1.43-.113-3.189-.394-3.908-.625-.72-.231-2.006-.302-2.859-.158-1.016.172-1.651.1-1.842-.208-.217-.351-.379-.333-.635.071-.253.4-.345.411-.35.043-.005-.378-1.509-.5-6.173-.5-4.559 0-6.219-.13-6.368-.5-.161-.4-.208-.4-.233 0-.018.275-.287.5-.599.5-.311 0-.671-.225-.8-.5-.186-.4-.28-.4-.466 0-.129.275-.624.497-1.1.494-.707-.005-.756-.078-.267-.394.401-.259-1.493-.39-5.724-.394-4.115-.004-6.237.134-6.076.394.136.22.072.4-.143.4-.215 0-.462-.216-.55-.48-.125-.374-.226-.374-.457 0m25.55 9.71c35.103 3.253 68.15 16.381 95.4 37.899 44.046 34.781 69.562 87.609 69.587 144.071.019 44.326-14.919 84.475-44.666 120.045-6.029 7.21-20.235 20.281-29.321 26.98-1.21.892-2.908 2.152-3.774 2.799-11.083 8.281-31.559 18.515-47.426 23.701-49.62 16.221-106.917 9.459-149.952-17.696C89.577 345.036 77.226 334.616 65.24 321-3.223 243.228 6.213 123.728 86 58.114c12.495-10.275 29.367-20.807 41.037-25.615 11.501-4.739 18.553-7.257 25.963-9.271 19.805-5.384 43.175-7.454 63.2-5.598m-22.309 9.059c.71.088 1.97.09 2.8.003.83-.087.249-.159-1.291-.161-1.54-.002-2.219.069-1.509.158m19.802 2.111c0 .77.082 1.085.183.7.1-.385.1-1.015 0-1.4-.101-.385-.183-.07-.183.7m7.889-.976c1.15.218 1.187.297 1.332 2.9l.15 2.676-.032-2.8-.032-2.8-1.3-.1c-1.249-.096-1.254-.091-.118.124M191.337 33c.002 1.76.072 2.43.156 1.489.085-.94.084-2.38-.002-3.2-.086-.819-.155-.049-.154 1.711m21.997 3.4c0 1.65.071 2.325.157 1.5.087-.825.087-2.175 0-3-.086-.825-.157-.15-.157 1.5m44.766.832c.49.285.721.972.77 2.288l.07 1.88.154-1.73c.153-1.712-.356-2.882-1.243-2.858-.248.007-.136.196.249.42M138.163 45.2c0 3.63.06 5.115.135 3.3a98.136 98.136 0 000-6.6c-.075-1.815-.135-.33-.135 3.3m84.377-2.4c0 1.87.069 2.635.153 1.7.084-.935.084-2.465 0-3.4s-.153-.17-.153 1.7m-31.609-.2c.002 1.54.074 2.121.161 1.291.087-.83.085-2.09-.003-2.8-.089-.71-.16-.031-.158 1.509m9.24.732c-.112.292-.144 2.137-.07 4.1l.134 3.568.083-3.943c.07-3.379.171-3.909.703-3.704.356.136.516.069.376-.158-.346-.56-.986-.489-1.226.137m11.441 3.688c-.014.49.803 1.38 1.268 1.38.176 0 .32-.191.32-.424 0-.233-.169-.319-.375-.191-.207.127-.561-.087-.788-.477-.227-.389-.418-.519-.425-.288M250.2 52.8c0 3.258.135 5.84.3 5.738.165-.102.3-2.684.3-5.738 0-3.054-.135-5.636-.3-5.738-.165-.102-.3 2.48-.3 5.738m9.131-3c.002 1.54.074 2.121.161 1.291.087-.83.085-2.09-.003-2.8-.089-.71-.16-.031-.158 1.509M146.8 48.467c0 .256.12.346.268.199.147-.147.642.048 1.1.433.831.7.831.7.07-.199-.832-.983-1.438-1.165-1.438-.433m75.331 2.933c.002 1.54.074 2.121.161 1.291.087-.83.085-2.09-.003-2.8-.089-.71-.16-.031-.158 1.509m-75.181 2.4c.001 2.42.066 3.358.146 2.085.08-1.273.079-3.253-.002-4.4-.08-1.147-.145-.105-.144 2.315m43.592-.4c-.001 1.98.066 2.84.15 1.912.084-.928.085-2.548.003-3.6-.083-1.052-.152-.292-.153 1.688m-78.237-.717c.497.096 1.217.092 1.6-.008.382-.1-.025-.179-.905-.174-.88.004-1.193.086-.695.182M118.8 55.4c.746.77 1.447 1.4 1.557 1.4.11 0-.411-.63-1.157-1.4-.746-.77-1.447-1.4-1.557-1.4-.11 0 .411.63 1.157 1.4m140.914 3.2c.003 1.1.081 1.503.173.895.092-.609.09-1.509-.005-2-.095-.492-.171.005-.168 1.105m-59.98 1.4c0 1.65.071 2.325.157 1.5.087-.825.087-2.175 0-3-.086-.825-.157-.15-.157 1.5m-61.973 4.8c0 3.41.061 4.805.136 3.1a85.45 85.45 0 000-6.2c-.075-1.705-.136-.31-.136 3.1M221.72 62c0 1.21.075 1.705.167 1.1a8.899 8.899 0 000-2.2c-.092-.605-.167-.11-.167 1.1M190 61.776c0 .537.147 1.068.328 1.179.18.112.249-.328.154-.976-.21-1.43-.482-1.544-.482-.203m4.505 1.711c.609.092 1.509.09 2-.005.492-.095-.005-.171-1.105-.168-1.1.003-1.503.081-.895.173m17.995.789c.385.1 1.015.1 1.4 0 .385-.101.07-.183-.7-.183s-1.085.082-.7.183m6.605.407c.497.096 1.217.092 1.6-.008.382-.1-.025-.179-.905-.174-.88.004-1.193.086-.695.182m41.029 4.117c0 1.65.071 2.325.157 1.5.087-.825.087-2.175 0-3-.086-.825-.157-.15-.157 1.5m-112.858 2.62c-.042 1.331-.255 2.637-.475 2.901-.219.265-.119.24.222-.056.466-.403.584-1.126.475-2.901L147.351 69l-.075 2.42m45.829 2.463c.497.096 1.217.092 1.6-.008.382-.1-.025-.179-.905-.174-.88.004-1.193.086-.695.182m14.195-.007c.385.1 1.015.1 1.4 0 .385-.101.07-.183-.7-.183s-1.085.082-.7.183m-18.995.407c.497.096 1.217.092 1.6-.008.382-.1-.025-.179-.905-.174-.88.004-1.193.086-.695.182m23.6 0c.497.096 1.217.092 1.6-.008.382-.1-.025-.179-.905-.174-.88.004-1.193.086-.695.182M321.6 77.725c0 .069.585.654 1.3 1.3l1.3 1.175-1.175-1.3c-1.095-1.212-1.425-1.484-1.425-1.175m4.464 4.875c1.024 1.1 1.949 2.36 2.053 2.8.187.787.191.787.237-.015.028-.502-.761-1.578-2.054-2.8l-2.1-1.985 1.864 2m-132.977-.974c-12.994.781-28.069 4.53-39.287 9.769l-4.8 2.24c-4.212 1.96-12.427 7.059-17.6 10.924-53.444 39.929-63.224 116.712-21.521 168.95 16.944 21.225 42.435 36.746 68.121 41.48 1.87.345 4.3.796 5.4 1.002 12.604 2.366 33.929 1.192 47.4-2.608 1.21-.342 3.1-.873 4.2-1.18 6.818-1.905 19.575-7.584 25.4-11.308 5.928-3.79 8.817-5.744 11.144-7.536 46.236-35.607 59.565-99.35 31.617-151.194-8.431-15.639-23.061-31.606-37.714-41.16-5.436-3.544-12.638-7.598-16.247-9.146-1.43-.613-2.96-1.274-3.4-1.469-10.679-4.726-24.786-7.97-38.2-8.783-7.145-.433-6.989-.433-14.513.019m-76.275 9.842c.457.734.451.98-.036 1.6-.528.671-.517.686.124.183.879-.689.891-1.396.036-2.102-.606-.5-.617-.472-.124.319M286 92.925c0 .069.585.654 1.3 1.3l1.3 1.175-1.175-1.3C286.33 92.888 286 92.616 286 92.925m22.4 4.725c0 .956 2.319 2.325 2.819 1.666.463-.611.46-.643-.017-.217-.457.407-.767.301-1.681-.575-.617-.59-1.121-.984-1.121-.874m-6 3.675c0 .069.585.654 1.3 1.3l1.3 1.175-1.175-1.3c-1.095-1.212-1.425-1.484-1.425-1.175M118.378 105.1L117 106.6l1.5-1.378c.825-.759 1.5-1.434 1.5-1.5 0-.306-.338-.018-1.622 1.378m164.022-.975c0 .069.585.654 1.3 1.3l1.3 1.175-1.175-1.3c-1.095-1.212-1.425-1.484-1.425-1.175m-16.36 3.547c7.194 5.2 14.398 12.038 15.739 14.94 19.949 43.171 13.159 101.589-16.145 138.899-1.448 1.845-2.904 3.752-3.234 4.238-.914 1.347-4.76 5.59-11.367 12.541-3.047 3.207-2.051 3.153 3.967-.214 28.984-16.215 50.362-45.518 55.794-76.476.251-1.43.67-3.32.931-4.2l.475-1.6.2 2.974c1.324 19.696-6.899 46.635-19.911 65.226-6.421 9.174-18.244 21.409-25.125 26-.495.33-2.039 1.413-3.432 2.406-29.97 21.376-73.467 25.636-107.332 10.513-41.132-18.368-67.086-57.926-67.183-102.399-.021-9.333.487-10.699 1.575-4.233 5.45 32.414 21.61 58.034 48.327 76.621 1.496 1.041 2.793 1.892 2.882 1.892.09 0 .846.47 1.681 1.044 1.43.983 7.649 4.204 9.618 4.981 1.3.513 1.136-.212-.4-1.769-1.154-1.169-3.142-3.38-7.937-8.825-21.299-24.186-33.532-58.966-32.651-92.831.294-11.297 1.053-17.032 4.101-31 2.745-12.58 11.765-33.136 15.802-36.011l1.217-.866 1.029 1.029c1.026 1.026 2.108 1.351 5.139 1.545l1.6.103v3.4c0 3.314-.038 3.449-1.501 5.358-1.633 2.132-1.554 2.745.417 3.23 2.018.496 2.772 1.272 3.053 3.143.308 2.054.978 2.745 3.307 3.409 1.072.305 1.769.771 1.934 1.291.535 1.686 3.291 3.169 5.888 3.169 2.215 0 4.702.877 4.702 1.658 0 .792 1.285 1.525 2.001 1.141 1.218-.652 2.824-.46 4.564.546 1.306.755 2.434.991 5.602 1.172 5.016.287 5.883.821 6.375 3.925.437 2.761.791 3.158 2.818 3.158 3.577 0 4.118 1.62 1.209 3.622-2.903 1.997-2.964 5.778-.137 8.363 2.076 1.896 2 2.289-.903 4.715-4.808 4.017-6.485 4.437-7.931 1.987-2.193-3.718-7.854-4.424-12.686-1.584-4.074 2.394-5.614 2.365-7.339-.143-3.008-4.372-9.173-2.996-9.173 2.047 0 2.616-1.968 5.423-6.278 8.955-8.829 7.235-14.27 17.318-12.322 22.838.33.935.603 2.443.606 3.35.009 2.28.442 2.773 2.662 3.029 1.772.204 2.024.375 3.207 2.184 1.487 2.276 1.935 2.623 3.398 2.631 1.056.006 2.241 1.223 2.862 2.938.203.562.523.675 1.378.487.912-.2 1.545.09 3.482 1.594 1.671 1.298 2.608 1.772 3.186 1.612 2.902-.799 3.799-.735 5.257.377 1.43 1.09 1.475 1.097 4.104.606 5.535-1.033 5.423-1.044 7.12.657.846.847 2.248 2.62 3.115 3.938 5.537 8.418 14.306 12.044 18.14 7.502l1.6-1.896 1.439.52c.909.329 2.103.421 3.242.25 1.677-.251 1.915-.17 3.38 1.154.867.783 2.352 1.624 3.299 1.868 4.885 1.259 5.733 2.005 7.143 6.286 1.556 4.727 3.432 6.163 10.78 8.259 8.914 2.541 11.623 2.371 14.365-.904 2.692-3.215 5.281-3.422 10.904-.872 8.74 3.963 11.759 3.76 14.134-.948 1.319-2.614 2.794-4.249 5.35-5.932 1.646-1.084 1.683-1.158 1.592-3.151-.065-1.431.086-2.176.505-2.49 2.198-1.65 2.825-2.358 3.519-3.976.429-1.002 1.002-2.946 1.272-4.321.368-1.87 1.06-3.36 2.749-5.925 3.377-5.128 3.545-5.423 4.427-7.781 1.084-2.898 1.956-3.928 4.569-5.403 3.469-1.958 4.683-5.451 2.84-8.167-.559-.823-1.129-1.948-1.268-2.5-.39-1.555-2.067-2.176-5.876-2.176-2.711 0-3.47-.135-3.937-.7-1.077-1.302-2.513-5.046-3.394-8.853-.782-3.379-1.91-4.83-5.337-6.866-4.102-2.438-4.324-2.93-3.072-6.824.915-2.847.971-3.372.561-5.323-.378-1.802-.341-2.571.222-4.593.371-1.336.675-3.585.675-4.998v-2.569l-2.058-1.723c-4.246-3.554-4.646-7.17-1.501-13.556 1.738-3.529 2.085-4.624 2.335-7.375.162-1.777.486-3.589.72-4.026.841-1.571.992-4.327.341-6.198-.904-2.597-.809-3.208.905-5.834 3.161-4.844 3.612-5.087 6.098-3.29M112.985 110.1L111 112.2l2.1-1.985c1.155-1.092 2.1-2.037 2.1-2.1 0-.298-.371.034-2.215 1.985m178.615 3.225c0 .069.585.654 1.3 1.3l1.3 1.175-1.175-1.3c-1.095-1.212-1.425-1.484-1.425-1.175m-236.7 2.151c.385.1 1.015.1 1.4 0 .385-.101.07-.183-.7-.183s-1.085.082-.7.183m252.9 1.324c.859.88 1.652 1.6 1.762 1.6.11 0-.503-.72-1.362-1.6-.859-.88-1.652-1.6-1.762-1.6-.11 0 .503.72 1.362 1.6m28.1 3.826c-1.045.544-1.9 1.079-1.9 1.188 0 .11.9-.257 2-.814 1.1-.557 2-1.1 2-1.207 0-.264.036-.279-2.1.833m-249.012 1.587c.598.63 1.159 1.064 1.247.966.088-.099-.402-.614-1.088-1.145l-1.247-.965 1.088 1.144m-32.243 3.315c-.112.18.328.249.976.154.649-.095 1.179-.242 1.179-.327 0-.305-1.957-.148-2.155.173m28.264 5.272c0 .99.078 1.395.173.9a5.661 5.661 0 000-1.8c-.095-.495-.173-.09-.173.9m273.584 0c0 .77.082 1.085.183.7.1-.385.1-1.015 0-1.4-.101-.385-.183-.07-.183.7m-2.515 5.5l-1.378 1.5 1.5-1.378c1.396-1.284 1.684-1.622 1.378-1.622-.066 0-.741.675-1.5 1.5m-19.775 4.895c-.141.228.021.294.381.156.345-.132.939.005 1.321.304.629.493.643.478.146-.155-.607-.773-1.47-.916-1.848-.305m5.302 1.888c.497.096 1.217.092 1.6-.008.382-.1-.025-.179-.905-.174-.88.004-1.193.086-.695.182M72.246 155.424c-.165.43-.495.567-.949.394-.561-.214-.599-.166-.194.241.405.409.633.376 1.176-.167.37-.37.571-.775.447-.9-.125-.124-.341.07-.48.432m-9.014 7.056c-.018.374-.347.864-.732 1.088-.385.224-.497.413-.249.42.66.018 1.458-1.079 1.218-1.675-.132-.33-.217-.271-.237.167m279.622 6.74c-.029.561-.189 1.192-.354 1.403-.165.21-.059.179.235-.069s.453-.88.354-1.403c-.178-.941-.181-.941-.235.069m-7.613 7.738c-.839.866-1.247 1.626-1.125 2.1.178.692.194.689.238-.039.025-.429.621-1.374 1.324-2.1.704-.725 1.189-1.319 1.079-1.319-.11 0-.792.611-1.516 1.358M347 181.2c.859.88 1.652 1.6 1.762 1.6.11 0-.503-.72-1.362-1.6-.859-.88-1.652-1.6-1.762-1.6-.11 0 .503.72 1.362 1.6m-3.422.3L342.2 183l1.5-1.378c1.396-1.284 1.684-1.622 1.378-1.622-.066 0-.741.675-1.5 1.5m-304.078.795c1.155.081 3.045.081 4.2 0 1.155-.081.21-.147-2.1-.147s-3.255.066-2.1.147m26.642 3.505c-.001 1.98.066 2.84.15 1.912.084-.928.085-2.548.003-3.6-.083-1.052-.152-.292-.153 1.688M51.2 183.725c0 .069.585.654 1.3 1.3l1.3 1.175-1.175-1.3c-1.095-1.212-1.425-1.484-1.425-1.175m287.381 2.375L337 187.8l1.7-1.581c.935-.87 1.7-1.635 1.7-1.7 0-.303-.348 0-1.819 1.581m-13.68 1.7c.004.88.086 1.193.182.695.096-.497.092-1.217-.008-1.6-.1-.382-.179.025-.174.905m-248.387 1.6c.003 1.1.081 1.503.173.895.092-.609.09-1.509-.005-2-.095-.492-.171.005-.168 1.105M42.5 191.887a8.899 8.899 0 002.2 0c.605-.092.11-.167-1.1-.167-1.21 0-1.705.075-1.1.167m293.214 3.513c.003 1.1.081 1.503.173.895.092-.609.09-1.509-.005-2-.095-.492-.171.005-.168 1.105M346 194.2c.55.314 1.18.572 1.4.572.22 0-.05-.258-.6-.572-.55-.314-1.18-.572-1.4-.572-.22 0 .05.258.6.572m-309.446 4.6c0 2.75.064 3.875.142 2.5a53.448 53.448 0 000-5c-.078-1.375-.142-.25-.142 2.5m39.604.6c0 3.08.063 4.287.139 2.682.076-1.604.076-4.124-.001-5.6-.077-1.475-.139-.162-.138 2.918m-47.172 7.167c.012 6.735.107 7.992.614 8.13.435.119.465.068.109-.185-.352-.249-.526-2.556-.614-8.13l-.122-7.782.013 7.967m31.637-1.074l5.025.131-.124 4.57c-.068 2.513.017 4.427.19 4.253.173-.173.263-2.28.2-4.681L65.8 205.4l-5.101-.019-5.1-.018 5.024.13m264.686 1.707c0 .99.078 1.395.173.9a5.661 5.661 0 000-1.8c-.095-.495-.173-.09-.173.9m46 2c0 .99.078 1.395.173.9a5.661 5.661 0 000-1.8c-.095-.495-.173-.09-.173.9m-294.8.4c0 .99.078 1.395.173.9a5.661 5.661 0 000-1.8c-.095-.495-.173-.09-.173.9m264.819 2c0 1.43.073 2.015.161 1.3.089-.715.089-1.885 0-2.6-.088-.715-.161-.13-.161 1.3m-16.427.2c.004.88.086 1.193.182.695.096-.497.092-1.217-.008-1.6-.1-.382-.179.025-.174.905m23.099-.024c0 .537.147 1.068.328 1.179.18.112.249-.328.154-.976-.21-1.43-.482-1.544-.482-.203m-316.7 2.911a8.899 8.899 0 002.2 0c.605-.092.11-.167-1.1-.167-1.21 0-1.705.075-1.1.167m358.793.913c0 .77.082 1.085.183.7.1-.385.1-1.015 0-1.4-.101-.385-.183-.07-.183.7m-49.455-.5c-.162.165-.867.527-1.567.804l-1.271.503 1.2-.23c.999-.191 2.852-1.377 2.152-1.377-.12 0-.352.135-.514.3m-6.518 8.5c0 1.21.075 1.705.167 1.1a8.899 8.899 0 000-2.2c-.092-.605-.167-.11-.167 1.1M53.082 241.847c-3.403 1.731-3.375 1.634-1.869 6.393 4.69 14.816 12.984 31.231 22.415 44.36 5.388 7.501 4.964 7.229 8.323 5.326 3.451-1.954 3.48-1.599-.56-6.894-9.866-12.929-18.134-29.038-23.422-45.632-1.688-5.297-1.592-5.228-4.887-3.553m289.541 6.242c-.343.489-.623 1.088-.623 1.332 0 .666-3.209 8.583-5.53 13.644-5.555 12.111-13.887 25.205-22.23 34.935-2.78 3.243-2.779 3.259.298 4.98 3.201 1.79 3.392 1.78 5.111-.28 5.055-6.059 10.625-13.514 12.717-17.021a513.84 513.84 0 013.225-5.279c4.228-6.831 9.164-17.281 12.648-26.777 1.11-3.024.982-3.299-2.439-5.266-2.408-1.384-2.396-1.383-3.177-.268M95 266.4c.341.66.711 1.2.821 1.2.11 0-.08-.54-.421-1.2-.341-.66-.711-1.2-.821-1.2-.11 0 .08.54.421 1.2m134.6 7.6c-.505.326-.481.389.149.394.653.005.679.093.2.683-.369.454-.385.578-.051.378.274-.165.685-.65.914-1.077.467-.874-.148-1.066-1.212-.378m-29.7 5.098c1.815.074 4.785.074 6.6 0 1.815-.075.33-.135-3.3-.135s-5.115.06-3.3.135m-92.7 3.827c0 .069.585.654 1.3 1.3l1.3 1.175-1.175-1.3c-1.095-1.212-1.425-1.484-1.425-1.175m10.383 10.375c1.658 1.766 2.017 2.084 2.017 1.783 0-.064-.855-.919-1.9-1.9l-1.9-1.783 1.783 1.9m165.995.2L282.2 295l1.5-1.378c1.396-1.284 1.684-1.622 1.378-1.622-.066 0-.741.675-1.5 1.5M138.8 308.82c1.387.941 2.178 1.215 1.2.416-.55-.45-1.18-.819-1.4-.821-.22-.002-.13.181.2.405m161.362 15.68c-.756.892-.755.894.038.252.44-.356 1.07-.747 1.4-.868.509-.187.504-.226-.038-.252-.351-.018-.981.373-1.4.868m-107.657.587c.609.092 1.509.09 2-.005.492-.095-.005-.171-1.105-.168-1.1.003-1.503.081-.895.173m14.795 0a8.899 8.899 0 002.2 0c.605-.092.11-.167-1.1-.167-1.21 0-1.705.075-1.1.167m45.7 4.402c.44.109 1.07.403 1.4.654.522.397.528.366.051-.243-.302-.385-.932-.679-1.4-.654-.808.044-.811.057-.051.243m-101.615 1.45c.474.347.623.74.417 1.1-.253.445-.212.461.202.078.572-.529-.071-1.717-.929-1.717-.236 0-.096.243.31.539m97.908 2.261c0 .77.082 1.085.183.7.1-.385.1-1.015 0-1.4-.101-.385-.183-.07-.183.7m3.507 2.2c0 .55.069 1 .153 1 .085 0 .24-.45.345-1 .105-.55.036-1-.153-1-.19 0-.345.45-.345 1m-3.099 2.8c.004.88.086 1.193.182.695.096-.497.092-1.217-.008-1.6-.1-.382-.179.025-.174.905m-68.196 4.083c.497.096 1.217.092 1.6-.008.382-.1-.025-.179-.905-.174-.88.004-1.193.086-.695.182m72.196 2.317c.004.88.086 1.193.182.695.096-.497.092-1.217-.008-1.6-.1-.382-.179.025-.174.905m-51.967 1.8c0 1.65.071 2.325.157 1.5.087-.825.087-2.175 0-3-.086-.825-.157-.15-.157 1.5m48.367-.6c.004.88.086 1.193.182.695.096-.497.092-1.217-.008-1.6-.1-.382-.179.025-.174.905m-51.964 2c.002 1.76.072 2.43.156 1.489.085-.94.084-2.38-.002-3.2-.086-.819-.155-.049-.154 1.711m-19.244-.6c0 .77.082 1.085.183.7.1-.385.1-1.015 0-1.4-.101-.385-.183-.07-.183.7m58.207-.918a5.661 5.661 0 001.8 0c.495-.095.09-.173-.9-.173s-1.395.078-.9.173m-62.207 3.318c0 .77.082 1.085.183.7.1-.385.1-1.015 0-1.4-.101-.385-.183-.07-.183.7m93.622-.569c.811.985.873 1.626.185 1.904-.392.158-.389.209.013.233.983.061 1.018-1.216.057-2.101-.867-.799-.887-.802-.255-.036m-18.014 1.569c.004.88.086 1.193.182.695.096-.497.092-1.217-.008-1.6-.1-.382-.179.025-.174.905m3.655.371c-.121.314-.152.989-.07 1.5.109.683.202.533.351-.571.21-1.553.099-1.919-.281-.929m-52.025 4.429c.002 1.54.074 2.121.161 1.291.087-.83.085-2.09-.003-2.8-.089-.71-.16-.031-.158 1.509m41.978-.2c0 .99.078 1.395.173.9a5.661 5.661 0 000-1.8c-.095-.495-.173-.09-.173.9m-45.581 2.8c0 1.43.073 2.015.161 1.3.089-.715.089-1.885 0-2.6-.088-.715-.161-.13-.161 1.3m52.406-1.604c.045.676.323 1.022.866 1.077.576.058.611.025.125-.121-.372-.11-.761-.595-.866-1.077-.159-.733-.179-.714-.125.121M174.12 358c0 1.21.075 1.705.167 1.1a8.899 8.899 0 000-2.2c-.092-.605-.167-.11-.167 1.1m35.385 3.483c.497.096 1.217.092 1.6-.008.382-.1-.025-.179-.905-.174-.88.004-1.193.086-.695.182m3.755 1.792c-.055 1.348-.171 1.488-1.36 1.636l-1.3.161 1.313.064c1.467.072 1.839-.449 1.577-2.202-.146-.97-.179-.921-.23.341m-8.153 2.215c.719.089 1.799.087 2.4-.004s.013-.164-1.307-.162c-1.32.002-1.812.077-1.093.166" fill="#f47f4f"/><path d="M203.6 8c-.485.314-.428.389.3.394.495.003.9-.174.9-.394 0-.501-.424-.501-1.2 0m-11.58 18.8c-.288.194-1.241 22.312-1.361 31.6L190.6 63l4.2.263c2.31.145 4.342.129 4.515-.035.173-.164.443-4.767.6-10.23.189-6.583.432-9.982.721-10.078.241-.079 2.841 4.61 5.78 10.421l5.342 10.566 2.021.243c1.112.134 3.308.245 4.882.247l2.86.003.233-4.5c.482-9.338 1.053-24.636 1.049-28.146l-.003-3.645-1.856-.255c-1.021-.14-2.98-.254-4.354-.254h-2.498l-.236 2.1c-.13 1.155-.356 5.841-.503 10.414-.178 5.544-.407 8.268-.689 8.174-.232-.077-2.778-4.762-5.659-10.41-2.88-5.648-5.41-10.44-5.621-10.649-.399-.394-8.841-.781-9.364-.429m51.83 13.9c-16.022 20.027-18.667 23.441-18.374 23.716.483.451 7.501 2.784 8.371 2.783.437-.001 1.567-1.009 2.691-2.4 2.31-2.858 1.565-2.815 8.462-.483l5.6 1.893.2 3.354c.231 3.869-.109 3.522 5.277 5.388 4.764 1.651 4.394 2.527 3.907-9.253l-.77-18.66c-.434-10.524.029-9.492-5.054-11.262-5.314-1.85-4.628-2.178-10.31 4.924m-100.901-3.855l-4.452 1.602-.252 13.077c-.139 7.192-.361 15.911-.494 19.376-.285 7.405-.66 7.019 4.917 5.058 4.656-1.636 4.532-1.494 4.532-5.183 0-1.72.18-3.239.4-3.375 3.403-2.103 12.747-4.353 12.815-3.086.009.157.777 1.15 1.707 2.205l1.692 1.919 4.193-1.452c2.306-.799 4.349-1.603 4.54-1.786.192-.185-2.393-3.615-5.778-7.667a6486.891 6486.891 0 01-8.947-10.731c-5.23-6.298-9.88-11.602-10.152-11.58-.148.011-2.273.742-4.721 1.623M275.673 45.7c-.369 1.456-1.861 8.77-2.876 14.1-.528 2.769-2.715 13.438-3.567 17.4-.45 2.09-.82 3.992-.824 4.227-.005.372 6.978 5.162 8.223 5.639.254.098 1.971-.974 3.816-2.382 1.845-1.407 5.818-4.432 8.828-6.721C304.648 66.27 307.2 64.278 307.2 63.966c0-.33-6.315-4.605-7.439-5.036-.338-.13-4.581 3.008-10.61 7.846-5.525 4.434-10.144 7.965-10.263 7.845-.198-.197.653-4.289 2.664-12.821 3.371-14.3 3.505-12.519-1.165-15.5-4.307-2.749-4.173-2.732-4.714-.6m40.34.982c.023.539 1.593 2.246 1.839 1.999.128-.128-.236-.702-.81-1.275-.573-.573-1.036-.899-1.029-.724M250.8 52.8c0 3.653-.153 5.647-.446 5.829-.513.316-5.886-1.329-6.689-2.048-.611-.548 6.069-9.993 6.763-9.564.205.127.372 2.729.372 5.783m-99.816-.352c4.02 5.161 4.019 5.092.091 6.487-4.493 1.595-4.171 2.009-4.251-5.46-.071-6.62-.176-6.594 4.16-1.027M320.8 50.771c0 .481 1.148 1.629 1.629 1.629.429 0 .473-.468.128-1.367-.257-.67-1.757-.893-1.757-.262m-211 2.71c-2.045.818-20.205 13.695-20.531 14.557-.121.321 1.952 3.315 13.644 19.713 2.372 3.327 4.892 6.901 5.6 7.942 1.638 2.409 1.941 2.331 7.187-1.835 1.925-1.529 1.975-1.303-1.3-5.858-3.382-4.705-3.365-4.231-.243-6.523 3.194-2.345 2.789-2.377 9.038.706l5.237 2.583 3.773-2.683c4.663-3.315 4.769-2.851-1.305-5.74-6.489-3.088-6.246-2.873-5.282-4.671 1.596-2.979.99-5.401-2.757-11.011-4.854-7.269-8.217-9.118-13.061-7.18m214.2.43c0 .323 1.46 1.689 1.805 1.689.405 0 .173-.879-.376-1.429-.617-.616-1.429-.764-1.429-.26m2.6 2.489c-.136.22-.072.4.141.4.214 0 1.479 1.073 2.81 2.384 1.332 1.311 2.512 2.237 2.623 2.057.111-.179-.107-.616-.486-.97a487.9 487.9 0 01-2.577-2.458c-2.041-1.958-2.14-2.014-2.511-1.413m6.056 5.077c-.141.141-.256.436-.256.656 0 .22.104.296.231.17.127-.127.757.319 1.4.992.643.673 1.166 1.062 1.163.864-.011-.585-2.259-2.961-2.538-2.682M112.99 62.961c4.104 4.352 4.668 6.692 2.11 8.759-2.941 2.377-7.482 5.48-8.001 5.469-.424-.01-5.867-7.325-6.22-8.359-.229-.674 9.067-7.23 10.252-7.23.316 0 1.152.613 1.859 1.361m224.21 3.348c0 .546 4.767 5.458 5.036 5.189.135-.135-.291-.769-.945-1.409-.655-.64-1.509-1.649-1.897-2.243-.728-1.109-2.194-2.137-2.194-1.537m6 7.113c0 .254 2.704 2.978 2.956 2.978.1 0-.072-.51-.383-1.134-.48-.962-2.573-2.462-2.573-1.844m-151.4.61C147.253 78.045 110.59 102.553 90.123 142c-19.73 38.024-17.987 86.992 4.377 123.028 2.448 3.946 7.772 11.776 8.275 12.172.14.11 1.417 1.637 2.839 3.393 31.089 38.398 85.655 54.102 133.629 38.457 22.343-7.286 44.787-22.719 57.953-39.85.761-.99 1.495-1.89 1.632-2 3.268-2.63 13.781-21.121 18.023-31.702 1.592-3.97 1.943-5.031 4.072-12.298 3.692-12.601 5.512-30.788 4.277-42.732-1.189-11.495-2.165-17.164-4.21-24.468-7.741-27.639-21.647-48.15-45.79-67.541-20.991-16.859-55.431-26.946-83.4-24.427m123 6.215c-3.41 1.408-7.46 3.09-9 3.738-7.097 2.987-17.677 7.309-18.4 7.516-1.832.524-1.621.924 3.275 6.187l1.757 1.888 2.084-.841c4.751-1.918 4.217-1.886 5.587-.335.68.77 2.555 2.836 4.167 4.59 3.411 3.715 3.337 3.382 1.504 6.777-1.41 2.61-1.418 2.651-.685 3.583 1.611 2.048 5.625 6.249 5.958 6.236.407-.016 16.687-32.813 16.882-34.007.119-.737-6.041-8.05-6.685-7.936-.134.024-3.034 1.196-6.444 2.604M75.028 81.292L66.405 92.2c-3.304 4.18-5.961 7.862-5.904 8.183.091.512 2.912 2.851 18.116 15.017 3.714 2.972 9.909 7.8 10.009 7.8.033 0 1.929-2.385 4.215-5.3 2.285-2.915 4.371-5.57 4.636-5.9 4.792-5.97 8.523-10.853 8.523-11.152 0-.636-5.228-4.582-5.569-4.203-.175.195-2.801 3.505-5.837 7.355-3.036 3.85-5.581 7.075-5.657 7.167-.258.312-1.94-.794-4.089-2.689l-2.141-1.888 1.746-2.161c6.397-7.915 7.514-9.521 7.03-10.103-.936-1.124-4.681-3.993-5.038-3.86-.199.073-2.372 2.699-4.829 5.834-5.186 6.617-4.381 6.223-7.522 3.682-3.042-2.462-3.089-1.858.497-6.397 7.19-9.099 8.531-10.92 8.354-11.34-.174-.41-3.601-3.238-4.79-3.953-.348-.209-1.35.753-3.127 3m273.178-2.502c-.139.225-.063.41.17.41s.424.27.424.6c0 .33.18.6.4.6.22 0 .4.238.4.528 0 .487 1.173 1.714 2.312 2.418.32.197.4.09.241-.325-.131-.342-.399-.621-.596-.621-.196 0-.361-.225-.366-.5-.015-.779-2.698-3.575-2.985-3.11M207.6 81.607c13.414.813 27.521 4.057 38.2 8.783.44.195 1.97.856 3.4 1.469 14.64 6.278 31.002 19.052 42.195 32.941 41.793 51.86 32.827 127.991-19.851 168.559-2.327 1.792-5.216 3.746-11.144 7.536-5.825 3.724-18.582 9.403-25.4 11.308-1.1.307-2.99.838-4.2 1.18-13.471 3.8-34.796 4.974-47.4 2.608-1.1-.206-3.53-.657-5.4-1.002C113.484 303.099 71.67 236.642 87.404 171c6.25-26.073 22.196-50.153 43.996-66.441 5.173-3.865 13.388-8.964 17.6-10.924l4.8-2.24c11.218-5.239 26.293-8.988 39.287-9.769 7.524-.452 7.368-.452 14.513-.019m108.8 7.978c0 .501-4.74 9.257-5.378 9.935-.447.474-3.921-2.899-5.179-5.028-.213-.361 1.125-1.19 4.629-2.869 5.027-2.408 5.928-2.718 5.928-2.038m40.526 1.315c1.11 2.619 1.874 3.43 1.874 1.988 0-.391-.35-.964-.779-1.273-.428-.308-.687-.708-.576-.888.111-.18-.008-.327-.264-.327-.257 0-.371.225-.255.5m2.886 4.281c-.215.347.345 1.22 1.688 2.635.275.29.5.81.5 1.155 0 .346.18.629.4.629.22 0 .4.27.4.6 0 .33.18.6.4.6.22 0 .4.27.4.6 0 .33.18.6.4.6.22 0 .4.345.4.767 0 .421.135.826.3.9.376.167 1.675 2.297 1.971 3.233.122.385.36.7.529.7.443 0-.563-2.731-1.34-3.638-.363-.424-.66-.957-.66-1.183 0-.227-.324-.76-.721-1.186-.922-.99-2.479-3.898-2.479-4.631 0-.309-.18-.562-.4-.562-.22 0-.4-.36-.4-.8 0-.817-.963-1.107-1.388-.419M340.2 107.927l-8 4.25c-2.42 1.285-5.3 2.826-6.4 3.423-1.1.597-3.98 2.13-6.4 3.406-2.42 1.276-4.881 2.654-5.469 3.062l-1.069.742 1.948 3.688c2.519 4.77 1.643 4.708 9.068.64 2.771-1.517 2.709-1.541 4.317 1.652 1.821 3.616 1.916 3.17-1.859 8.784l-3.264 4.854 2.111 4.086c1.161 2.247 2.242 4.229 2.402 4.403.159.175 1.781-2.03 3.604-4.9 3.695-5.816 3.413-5.601 5.493-4.181 3.166 2.161 11.439-.451 16.94-5.349 4.686-4.172 4.358-5.512-6.473-26.387-2.479-4.777-2.206-4.692-6.949-2.173m-77.677-.427c-3.525 3.73-4.509 6.357-3.486 9.296.651 1.871.5 4.627-.341 6.198-.234.437-.558 2.249-.72 4.026-.25 2.751-.597 3.846-2.335 7.375-3.145 6.386-2.745 10.002 1.501 13.556l2.058 1.723v2.569c0 1.413-.304 3.662-.675 4.998-.563 2.022-.6 2.791-.222 4.593.41 1.951.354 2.476-.561 5.323-1.252 3.894-1.03 4.386 3.072 6.824 3.427 2.036 4.555 3.487 5.337 6.866.881 3.807 2.317 7.551 3.394 8.853.467.565 1.226.7 3.937.7 3.809 0 5.486.621 5.876 2.176.139.552.709 1.677 1.268 2.5 1.843 2.716.629 6.209-2.84 8.167-2.613 1.475-3.485 2.505-4.569 5.403-.882 2.358-1.05 2.653-4.427 7.781-1.689 2.565-2.381 4.055-2.749 5.925-.27 1.375-.843 3.319-1.272 4.321-.694 1.618-1.321 2.326-3.519 3.976-.419.314-.57 1.059-.505 2.49.091 1.993.054 2.067-1.592 3.151-2.556 1.683-4.031 3.318-5.35 5.932-2.375 4.708-5.394 4.911-14.134.948-5.623-2.55-8.212-2.343-10.904.872-2.742 3.275-5.451 3.445-14.365.904-7.348-2.096-9.224-3.532-10.78-8.259-1.41-4.281-2.258-5.027-7.143-6.286-.947-.244-2.432-1.085-3.299-1.868-1.465-1.324-1.703-1.405-3.38-1.154-1.139.171-2.333.079-3.242-.25l-1.439-.52-1.6 1.896c-3.834 4.542-12.603.916-18.14-7.502-.867-1.318-2.269-3.091-3.115-3.938-1.697-1.701-1.585-1.69-7.12-.657-2.629.491-2.674.484-4.104-.606-1.458-1.112-2.355-1.176-5.257-.377-.578.16-1.515-.314-3.186-1.612-1.937-1.504-2.57-1.794-3.482-1.594-.855.188-1.175.075-1.378-.487-.621-1.715-1.806-2.932-2.862-2.938-1.463-.008-1.911-.355-3.398-2.631-1.183-1.809-1.435-1.98-3.207-2.184-2.22-.256-2.653-.749-2.662-3.029-.003-.907-.276-2.415-.606-3.35-1.948-5.52 3.493-15.603 12.322-22.838 4.31-3.532 6.278-6.339 6.278-8.955 0-5.043 6.165-6.419 9.173-2.047 1.725 2.508 3.265 2.537 7.339.143 4.832-2.84 10.493-2.134 12.686 1.584 1.446 2.45 3.123 2.03 7.931-1.987 2.903-2.426 2.979-2.819.903-4.715-2.827-2.585-2.766-6.366.137-8.363 2.909-2.002 2.368-3.622-1.209-3.622-2.027 0-2.381-.397-2.818-3.158-.492-3.104-1.359-3.638-6.375-3.925-3.168-.181-4.296-.417-5.602-1.172-1.74-1.006-3.346-1.198-4.564-.546-.716.384-2.001-.349-2.001-1.141 0-.781-2.487-1.658-4.702-1.658-2.597 0-5.353-1.483-5.888-3.169-.165-.52-.862-.986-1.934-1.291-2.329-.664-2.999-1.355-3.307-3.409-.281-1.871-1.035-2.647-3.053-3.143-1.971-.485-2.05-1.098-.417-3.23 1.463-1.909 1.501-2.044 1.501-5.358v-3.4l-1.6-.103c-3.031-.194-4.113-.519-5.139-1.545l-1.029-1.029-1.217.866c-4.037 2.875-13.057 23.431-15.802 36.011-3.048 13.968-3.807 19.703-4.101 31-.881 33.865 11.352 68.645 32.651 92.831 4.795 5.445 6.783 7.656 7.937 8.825 1.536 1.557 1.7 2.282.4 1.769-1.969-.777-8.188-3.998-9.618-4.981-.835-.574-1.591-1.044-1.681-1.044-.089 0-1.386-.851-2.882-1.892-26.717-18.587-42.877-44.207-48.327-76.621-1.088-6.466-1.596-5.1-1.575 4.233.097 44.473 26.051 84.031 67.183 102.399 33.865 15.123 77.362 10.863 107.332-10.513a205.228 205.228 0 013.432-2.406c26.407-17.62 47.159-59.654 45.036-91.226l-.2-2.974-.475 1.6c-.261.88-.68 2.77-.931 4.2-5.432 30.958-26.81 60.261-55.794 76.476-6.018 3.367-7.014 3.421-3.967.214 6.607-6.951 10.453-11.194 11.367-12.541.33-.486 1.786-2.393 3.234-4.238 27.713-35.284 35.344-87.839 19.091-131.474-3.57-9.583-4.915-11.397-13.725-18.509-6.917-5.584-6.979-5.614-8.477-4.028m105.077 1.1c0 .33.253.6.563.6.379 0 .489.281.337.863-.149.566-.076.769.212.591.431-.266.371-1.473-.113-2.256-.373-.603-.999-.476-.999.202m1.602 2.454c-.001.25.267.97.596 1.6.328.63.598.942.6.692.001-.25-.267-.97-.596-1.6-.328-.63-.598-.942-.6-.692m1.598 3.557c0 .93.763 2.589 1.19 2.589.825 0 .465-2.692-.39-2.916-.506-.132-.8-.012-.8.327m-318.2 1.617c-1.848.959-3.194 2.421-4.326 4.696-4.771 9.594-9.061 18.933-8.896 19.364.111.287 1.511 1.128 3.111 1.868 1.601.741 5.341 2.517 8.311 3.949C66.001 153.431 71.469 156 71.861 156c.19 0 5.793-11.508 8.958-18.4 3.448-7.509 2.399-11.503-3.822-14.549-3.278-1.605-6.302-1.772-8.797-.486-2.333 1.203-2.6 1.246-2.6.419 0-4.552-8.618-9.031-13-6.756m292.995 6.684c3.101 6.107 3.067 6.326-1.395 8.753-4.745 2.581-5.155 2.382-8.559-4.146-3.019-5.789-3.185-5.024 1.659-7.631 5.508-2.965 5.197-3.078 8.295 3.024M375.2 125.4c0 .33.18.6.4.6.22 0 .4.36.4.8 0 .44.18.8.4.8.529 0 .504-.416-.1-1.717-.549-1.182-1.1-1.424-1.1-.483m-316.163 1.201c1.819 1.388 1.755 2.1-.639 7.165-2.249 4.757-2.128 4.693-5.719 3.012-3.337-1.561-3.325-1.494-1.113-6.066 2.905-6.007 4.113-6.672 7.471-4.111M376.8 129c0 .33.18.6.4.6.22 0 .4-.27.4-.6 0-.33-.18-.6-.4-.6-.22 0-.4.27-.4.6m-304.809 1.905c2.932 1.467 2.953 2.193.235 7.974-2.902 6.173-2.484 5.841-5.656 4.493-4.112-1.748-4.053-1.474-1.498-6.875 3.108-6.572 3.817-7.145 6.919-5.592M377.6 131c0 .55.18 1 .4 1 .22 0 .4-.45.4-1s-.18-1-.4-1c-.22 0-.4.45-.4 1m.8 2.2c0 .44.18.8.4.8.22 0 .4-.36.4-.8 0-.44-.18-.8-.4-.8-.22 0-.4.36-.4.8m.8 2c0 .44.188.8.418.8.229 0 .388.225.352.5-.139 1.073.048 1.9.43 1.9.22 0 .4-.439.4-.976 0-.537-.18-1.088-.4-1.224-.22-.136-.4-.597-.4-1.024 0-.427-.18-.776-.4-.776-.22 0-.4.36-.4.8m1.867 3.867c-.415.415-.314 1.733.133 1.733.22 0 .4-.45.4-1 0-1.047-.092-1.174-.533-.733m.533 3.709c0 .453.18.824.4.824.22 0 .4-.259.4-.576 0-.317-.18-.688-.4-.824-.22-.136-.4.123-.4.576m.8 1.729c0 .361.29 1.7.645 2.975.355 1.276.735 2.815.845 3.42.111.605.36 1.1.555 1.1.491 0 .449-3.495-.045-3.8-.22-.136-.4-.784-.4-1.44 0-.657-.36-1.58-.8-2.052-.659-.707-.8-.743-.8-.203m-22.4 4.703c-1.65.405-5.52 1.299-8.6 1.987a985.74 985.74 0 00-8.8 2.006c-1.76.415-4.91 1.141-7 1.614-6.129 1.387-6.506 1.539-6.244 2.528.125.471.516 2.148.869 3.726.955 4.272.893 4.232 5.175 3.293 7.08-1.553 6.357-1.863 7.399 3.17.514 2.484.506 2.548-.447 3.4-9.257 8.281-8.398 6.624-6.944 13.386.871 4.051.629 4.086 6.003-.855l4.283-3.938 1.653 1.617c2.772 2.71 5.378 2.869 13.653.83 5.971-1.471 8.6-4.093 8.6-8.578 0-1.666-3.296-17.689-4.834-23.494-.458-1.731-.507-1.738-4.766-.692m24.8 4.568c0 .563.18 1.024.4 1.024.22 0 .4-.349.4-.776 0-.427-.18-.888-.4-1.024-.227-.14-.4.196-.4.776M35.427 153.7c-.186.626-.816 3.313-1.572 6.7-.319 1.43-.979 4.363-1.467 6.517-1.03 4.551-1.191 4.214 2.452 5.119 3.437.854 3.827.738 4.161-1.244.441-2.607.409-2.606 10.449-.356 5.032 1.127 9.633 2.139 10.223 2.248 1.321.245 1.619.933 1.077 2.487-.751 2.154-.422 2.518 2.942 3.254 3.785.828 3.636.968 4.743-4.457a471.75 471.75 0 011.206-5.768c1.802-8.084 2.022-7.128-1.835-7.986-3.483-.775-3.72-.693-4.055 1.401-.397 2.482-.338 2.481-11.242.031-11.338-2.549-11.173-2.473-10.473-4.81.632-2.107.407-2.33-3.079-3.059-3.344-.7-3.346-.7-3.53-.077m350.173 3.124c0 .98.158 1.525.4 1.376.22-.136.4-.867.4-1.624 0-.757-.18-1.376-.4-1.376-.22 0-.4.731-.4 1.624m-25.728 4.376c2.874 10.205 2.559 11.234-3.794 12.386-4.238.768-4.365.638-5.858-5.977-1.274-5.641-1.286-6.334-.12-6.594.495-.111 2.34-.548 4.1-.972 4.614-1.112 5.059-1.021 5.672 1.157m26.528-.067c0 .917.154 1.667.341 1.667.396 0 .336-2.657-.069-3.061-.15-.15-.272.478-.272 1.394m.854 4.067c0 1.58.053 1.69.434.9.312-.647.312-1.153 0-1.8-.381-.79-.434-.68-.434.9m.746 4.51c0 1.233.202 2.368.449 2.52.295.183.362 1.016.194 2.44-.169 1.44-.085 2.458.252 3.046.728 1.275 1.129 8.408 1.223 21.784.045 6.434.224 11.699.398 11.7.339 0 .136-22.519-.269-29.8-.217-3.899-.744-7.614-1.332-9.4-.109-.33-.228-1.354-.264-2.275-.102-2.553-.651-2.566-.651-.015M35.2 182.87c-2.114.601-3.998 2.233-4.948 4.287-1.067 2.309-1.589 26.966-.577 27.324.289.103 8.445.171 18.125.153l17.6-.034.113-4.5.113-4.5h-4.78c-6.357 0-6.046.195-6.046-3.781 0-4.087-.298-3.799 8.8-8.486l2.2-1.133.112-4.9c.062-2.695-.042-4.9-.231-4.9-.19 0-1.749.8-3.465 1.778-6.749 3.846-7.44 4.126-7.958 3.224-1.263-2.203-3.674-4.101-5.778-4.55-2.564-.547-11.334-.535-13.28.018m301.019 7.63c-.309.994-.53 8.596-.263 9.029.151.245 1.483.992 2.959 1.662 1.477.669 2.699 1.44 2.716 1.713.192 3.085-.187 11.105-.562 11.891-.365.764-1.076 1.156-3.072 1.695-3.308.891-3.596 1.314-3.602 5.286-.003 1.773-.114 3.627-.246 4.119-.421 1.573.768 1.442 8.123-.9a3327.08 3327.08 0 0110.928-3.46c2.09-.655 4.25-1.345 4.8-1.535.55-.19 3.647-1.186 6.882-2.215l5.882-1.87.201-1.657c1.008-8.315.918-8.57-3.765-10.65l-8.6-3.819c-13.036-5.789-17.713-7.894-19.579-8.814-2.26-1.114-2.586-1.169-2.802-.475m-289.673 1.929l1.054.829v5.971c0 4.483-.125 5.984-.5 6.022-1.801.186-10.161-.154-10.431-.423-.869-.866-.11-11.667.875-12.464 1.427-1.154 7.508-1.11 9.002.065m307.924 15.215c4.713 1.902 6.315 3.156 4.029 3.156-.338 0-2.669.565-5.18 1.256-5.409 1.489-5.319 1.542-5.031-2.956.267-4.153-.219-4.038 6.182-1.456m35.13 8.823c0 2.236.066 3.991.146 3.9.348-.399.559-7.967.222-7.967-.202 0-.368 1.83-.368 4.067m-.788 7.533c0 1.825.116 2.421.388 2 .213-.33.388-1.23.388-2s-.175-1.67-.388-2c-.272-.421-.388.175-.388 2m-.812 5.467c0 1.246.133 2.133.296 1.971.41-.41.441-4.238.034-4.238-.181 0-.33 1.02-.33 2.267m-.8 4.309c0 .783.18 1.424.4 1.424.22 0 .4-.529.4-1.176 0-.647-.18-1.288-.4-1.424-.238-.147-.4.329-.4 1.176m-.533 2.491c-.451.451-.311 3.408.147 3.124.311-.192.475-3.391.174-3.391-.03 0-.175.12-.321.267m-1.067 5.509c0 .977-.18 1.888-.4 2.024-.22.136-.4.777-.4 1.424 0 .647.18 1.176.4 1.176.22 0 .4-.54.4-1.2 0-.66.156-1.2.347-1.2.19 0 .346-.9.346-2s-.156-2-.346-2c-.191 0-.347.799-.347 1.776m-1.6 6.4c0 .757-.18 1.488-.4 1.624-.548.338-.508 2.6.045 2.6.268 0 .375-.48.27-1.2-.121-.819-.008-1.2.354-1.2.353 0 .531-.537.531-1.6 0-.88-.18-1.6-.4-1.6-.22 0-.4.619-.4 1.376m-1.6 5.448c0 .453.18.712.4.576.22-.136.4-.507.4-.824 0-.317-.18-.576-.4-.576-.22 0-.4.371-.4.824m-.8 2.976c0 .77-.18 1.4-.4 1.4-.22 0-.396.315-.391.7.007.567.157.51.791-.3.819-1.047 1.088-3.2.4-3.2-.22 0-.4.63-.4 1.4m-1.937 5.346c-.622 2.077-.593 2.184.337 1.254.788-.788 1.121-2.8.463-2.8-.185 0-.545.696-.8 1.546m-1.263 3.678c0 .453.18.712.4.576.22-.136.4-.507.4-.824 0-.317-.18-.576-.4-.576-.22 0-.4.371-.4.824m-3.2 8.152c0 1.226.228 1.325.516.224.115-.439.046-.9-.154-1.023-.199-.123-.362.236-.362.799m-195.96 1.249c14.673 5.218 36.588 5.003 49.11-.483 4.601-2.016 3.475-.488-2.973 4.036-8.122 5.697-21.957 12.308-24.281 11.601-5.293-1.609-15.512-7.633-23.979-14.133-1.874-1.439-2.622-2.819-1.217-2.246.385.157 1.888.708 3.34 1.225m192.202 7.21c-.342.892-.315.965.358.965.33 0 .6-.259.6-.576 0-.847-.677-1.121-.958-.389m-.764 1.621c-.32.319.041.944.546.944.207 0 .376-.27.376-.6 0-.619-.472-.795-.922-.344m-2.098 4.844c-.15.495-.432.9-.627.9-.194 0-.353.22-.353.489 0 .272.375.114.847-.358.466-.466.748-1.091.627-1.389-.149-.367-.308-.252-.494.358m-4.168 6.8c-.007.495-.192.9-.412.9-.22 0-.4.36-.4.8 0 .44-.18.8-.4.8-.22 0-.4.27-.4.6 0 .33-.18.6-.4.6-.22 0-.4.27-.4.6 0 .33-.18.6-.4.6-.22 0-.4.278-.4.617 0 .339-.36 1.003-.8 1.475-.44.472-.8 1.095-.8 1.383 0 .289-.191.525-.424.525-.233 0-.319.168-.192.374.296.479 2.216-1.421 2.216-2.192 0-.32.18-.582.4-.582.22 0 .4-.36.4-.8 0-.44.18-.8.4-.8.22 0 .4-.236.4-.525 0-.288.315-.882.7-1.32 1.334-1.517 1.749-2.54 1.324-3.269-.352-.604-.401-.578-.412.214M99.684 306.999a8843.05 8843.05 0 01-7.9 9.374c-3.591 4.253-3.806 4.721-2.653 5.765 1.228 1.111 1.753.782 5.022-3.147 3.709-4.459 3.353-4.376 6.647-1.549 1.43 1.227 3.191 2.691 3.913 3.252l1.313 1.021.987-.927c1.46-1.372 1.326-1.62-2.813-5.209-4.316-3.742-4.247-3.587-2.492-5.531.719-.796 1.574-1.819 1.9-2.272 1.044-1.454 1.48-1.431 3.261.176 3.131 2.823 6.078 5.248 6.378 5.248.366 0 1.953-1.985 1.953-2.444 0-.436-9.878-8.93-10.514-9.04-.267-.046-2.518 2.331-5.002 5.283m258.219-.9c-.382.583-.537 1.157-.344 1.276.513.317 1.329-.822 1.172-1.636-.111-.579-.253-.517-.828.36m-1.293 1.885c-.339.549-.039.961.552.758.242-.084.273-.366.075-.685-.25-.402-.412-.421-.627-.073m-71.174 2.551c-1.454 1.231-1.534 1.405-1.134 2.494 4.043 11.028 8.925 23.371 9.242 23.369.141-.001.786-.426 1.433-.944l1.177-.941-.877-2.11c-1.167-2.807-1.112-3.386.423-4.446.715-.493 2.255-1.698 3.423-2.677l2.123-1.781 1.402.75c.771.413 1.689 1.066 2.039 1.451.863.949 1.859.88 3.134-.216l1.065-.916-5.143-3.77c-18.197-13.337-16.078-12.149-18.307-10.263m69.384.228c-.498.931-.527 1.237-.116 1.237.523 0 1.306-1.546.908-1.793-.205-.126-.561.124-.792.556M115.227 319.3a3247.997 3247.997 0 00-5.534 8.819c-3.682 5.903-3.304 7.914 2.158 11.463 6.634 4.312 8.683 3.772 13.051-3.441a560.452 560.452 0 015.06-8.112c1.737-2.734 3.083-5.167 2.992-5.405-.174-.452-2.503-1.619-2.729-1.368-.115.129-8.672 13.573-10.096 15.862-1.391 2.237-3.848 1.742-7.888-1.588-1.903-1.569-1.857-1.854 1.06-6.565 2.467-3.984 7.077-11.282 8.016-12.69.406-.609.332-.849-.461-1.5-1.691-1.387-2.124-1.039-5.629 4.525m176.847-3a293.914 293.914 0 004.426 3.421c1.97 1.471 1.901 1.771-.866 3.779-3.077 2.233-2.775 2.436-5.153-3.45-2.894-7.162-2.857-7.248 1.593-3.75m-27.971 8.09l-.881.821 1.044 1.894a371.963 371.963 0 002.534 4.495c.82 1.43 1.985 3.5 2.59 4.6 4.378 7.962 5.975 10.6 6.418 10.6.279 0 3.047-1.454 6.15-3.232 5.965-3.417 6.329-3.831 4.902-5.594l-.741-.914-4.487 2.522c-3.241 1.822-4.609 2.401-4.924 2.086-.24-.24-2.638-4.359-5.33-9.152-5.154-9.181-5.604-9.683-7.275-8.126m-127.304 1.704c-1.065 1.748-1.167 1.592 2.001 3.078 2.682 1.258 3.2 1.815 2.464 2.648-.185.209-.577 1.01-.871 1.78-.294.77-.934 2.3-1.421 3.4-6.246 14.088-6.348 14.501-3.641 14.715 1.032.082 1.213-.24 4.685-8.315 4.373-10.168 4.714-10.91 5.142-11.174.185-.114 1.395.305 2.689.932 2.77 1.341 4.153.738 4.153-1.81 0-.304-2.96-1.66-13.102-6.003-1.275-.546-1.319-.531-2.099.749M57.6 327.2c.47.66.927 1.2 1.015 1.2.278 0-.349-1.378-.864-1.9-.919-.931-1.01-.507-.151.7m284.307-.321c-.382.477-.605.956-.496 1.065.201.201 1.789-1.332 1.789-1.727 0-.483-.641-.156-1.293.662m-90.843 3.288c-1.643.727-1.725 1.024-1.417 5.121.153 2.042.482 7.042.73 11.112.712 11.695.758 11.842 3.156 10.162.815-.571.898-.912.789-3.263l-.122-2.625 3.771-1.537c4.782-1.949 4.913-1.94 6.707.463 1.588 2.128 1.902 2.265 3.503 1.536 1.519-.692 1.511-.707-5.619-10.136-.998-1.32-3.343-4.425-5.21-6.9-3.602-4.775-3.925-4.977-6.288-3.933m-189.964.711c.483.483.994.761 1.137.619.335-.336-.825-1.497-1.497-1.497-.314 0-.172.345.36.878m275.156 1.8c-.478.478-.258 1.322.344 1.322.33 0 .6-.259.6-.576 0-.669-.571-1.12-.944-.746M156.047 334.1c-.774 2.423-5.963 21.694-6.106 22.671-.198 1.362 9.983 4.227 12.788 3.598 3.4-.762 6.012-7.002 4.31-10.293-.64-1.239-.635-1.257.503-1.846 2.206-1.141 3.859-6.861 2.745-9.499-.855-2.025-1.898-2.596-7.99-4.37-6.384-1.86-5.748-1.834-6.25-.261m79.153 1.144c-9.738 2.409-10.917 3.641-9.556 9.989.512 2.385 1.687 4.571 2.674 4.973 2.174.884 3.141.951 5.577.386 4.695-1.088 5.623-.721 6.5 2.57.736 2.764-.127 3.609-4.838 4.739-7.17 1.721-6.847 1.571-6.541 3.023.43 2.046.612 2.067 6.3.711 8.141-1.942 9.137-2.941 8.505-8.529-.682-6.033-3.361-7.696-9.884-6.136-3.473.83-5.044-.529-5.114-4.421-.033-1.78.623-2.149 6.307-3.543 5.369-1.317 5.66-1.527 4.896-3.538-.469-1.234-.699-1.245-4.826-.224m21.703 3.789c3.682 5.175 3.683 5.23.095 6.601-3.345 1.278-3.222 1.411-3.569-3.834-.146-2.2-.371-4.788-.5-5.751-.351-2.61.388-2.055 3.974 2.984m-90.568.709c1.788 1.641.203 6.258-2.149 6.258-2.035 0-6.644-1.286-6.888-1.922-.299-.78 1.108-5.803 1.777-6.34.771-.621 5.962.812 7.26 2.004m163.502-.716c-1.184 1.066-1.451 1.52-1.1 1.871s.463.347.463-.017c0-.264.262-.48.582-.48.647 0 2.618-1.82 2.618-2.418 0-.756-1.029-.337-2.563 1.044m-150.946.011c-2.462 1.076-2.863 2.37-4.082 13.163-1.13 10.005-.348 11.287 7.425 12.171 7.394.841 8.43-.214 9.583-9.771 1.66-13.75 1.328-14.651-5.777-15.659-4.39-.623-5.538-.608-7.149.096m20.16.854l-1.15.172.243 4.268c.133 2.348.344 7.689.47 11.869.125 4.18.317 8.026.426 8.547l.199.947 4.68-.256c2.575-.141 5.716-.36 6.981-.486l2.3-.231v-1.517c0-1.881-.007-1.883-5.4-1.604-2.42.125-4.601.166-4.847.091-.551-.167-.85-3.592-1.198-13.691-.246-7.141-.478-8.57-1.355-8.334-.11.03-.717.131-1.349.225M71.6 341.046c0 .332 2.908 2.979 3.082 2.806.33-.331-.406-1.383-1.303-1.863-.539-.288-.979-.674-.979-.857 0-.182-.18-.332-.4-.332-.22 0-.4.111-.4.246m113.541 1.338c4.149.599 4.59 1.55 3.676 7.939-.21 1.472-.569 4.207-.797 6.077-.522 4.278-1.158 4.976-4.198 4.61-6.594-.794-6.496-.665-5.668-7.475.331-2.714.717-6.015.859-7.335.428-3.986 1.281-4.517 6.128-3.816M326 342.8c-.507.44-.728.8-.49.8.417 0 1.69-1.076 1.69-1.429 0-.318-.274-.174-1.2.629m-249.652 2.537c.245.295.343.639.218.763-.124.125.147.346.604.49.456.145.831.477.833.737.003.507 1.827 1.51 2.153 1.184.234-.234-1.581-2.111-2.042-2.111-.177 0-.546-.36-.821-.8-.275-.44-.7-.8-.945-.8-.328 0-.328.142 0 .537m244.573 2.128c-.76.722-.885.98-.388.8.403-.146.967-.265 1.253-.265.286 0 .615-.36.73-.8.286-1.094-.261-1.003-1.595.265m-161.572 1.321c4.241 1.212 4.784 1.692 4.559 4.031-.245 2.554-1.194 3.983-2.644 3.983-1.186 0-6.764-1.366-7.148-1.751-.213-.213.76-4.14 1.522-6.149.414-1.09.312-1.086 3.711-.114m-78.549.525c0 .574 1.396 1.889 2.005 1.889.681 0 .434-.622-.608-1.528-1.158-1.006-1.397-1.068-1.397-.361m3.2 3.054c0 .406 1.023.346 1.455-.087.153-.153-.112-.278-.588-.278-.477 0-.867.164-.867.365m3.2 2.035c1.13.884 1.6.995 1.6.376 0-.233-.161-.324-.358-.202-.197.122-.461-.048-.588-.376-.126-.329-.55-.594-.941-.589-.589.007-.538.145.287.791m220.475 3.216c-1.638 1.526-.357 1.061 1.892-.686.091-.072-.1-.13-.425-.13-.325 0-.985.367-1.467.816m-212.875 2c.77.648 1.715 1.449 2.1 1.781.385.332.906.603 1.157.603s.972.54 1.603 1.2c.694.726 1.554 1.2 2.177 1.2 1.412 0 1.045-.899-.563-1.383-.701-.21-1.274-.525-1.274-.7 0-.174-.27-.317-.6-.317-.33 0-.6-.18-.6-.4 0-.22-.268-.4-.597-.4-.328 0-.821-.36-1.096-.8-.275-.44-.917-.8-1.427-.8s-.829-.16-.708-.355c.12-.195-.184-.456-.676-.58-.723-.183-.626.001.504.951m203.66 3.826c-.836.945-.287 1.072.783.181.659-.548.77-.796.357-.794-.33.001-.843.276-1.14.613m-2.76 1.446c-.495.239-.9.587-.9.773 0 .187-.283.339-.629.339-.791 0-1.968 1.143-1.564 1.519.166.155.383.056.481-.219.098-.275.524-.5.945-.5.422 0 .767-.18.767-.4 0-.22.264-.4.586-.4.322 0 .779-.36 1.014-.8.235-.44.377-.788.314-.773-.063.015-.519.222-1.014.461M104.4 366c0 .622.267.8 1.2.8.66 0 1.2.18 1.2.4 0 .22.27.4.6.4.955 0 .698-.529-.727-1.5-1.633-1.111-2.273-1.139-2.273-.1m5.439 2.294c-.429.429-.252.906.337.906.317 0 .676-.161.798-.358.255-.412-.774-.908-1.135-.548m1.628.773c-.461.46-.292.933.333.933.33 0 .6-.27.6-.6 0-.625-.473-.794-.933-.333m176.133.533c0 .22.27.4.6.4.33 0 .6-.18.6-.4 0-.22-.27-.4-.6-.4-.33 0-.6.18-.6.4m-173.2 1.6c0 .22.27.4.6.4.33 0 .6-.18.6-.4 0-.22-.27-.4-.6-.4-.33 0-.6.18-.6.4m1.839.338c-.139.223-.057.527.181.674.615.381 1.012-.14.498-.654-.287-.287-.511-.294-.679-.02m166.561.329c-2.166.738-3.254 1.439-2.853 1.84.307.307.949.164 2.242-.501 2.15-1.106 2.559-2.002.611-1.339m-163.6 1.29c0 .197.27.461.6.588.365.14.6 0 .6-.358a.595.595 0 00-.6-.587c-.33 0-.6.161-.6.357m1.6.843c0 .22.27.4.6.4.33 0 .6-.18.6-.4 0-.22-.27-.4-.6-.4-.33 0-.6.18-.6.4m157.417-.028c-.273.442.358.92.727.55.381-.38.31-.922-.12-.922-.207 0-.48.168-.607.372m-1.817.828c0 .22.27.4.6.4.33 0 .6-.18.6-.4 0-.22-.27-.4-.6-.4-.33 0-.6.18-.6.4m-152.4.8c0 .22.36.4.8.4.44 0 .8-.18.8-.4 0-.22-.36-.4-.8-.4-.44 0-.8.18-.8.4m149.7.144c-1.196.592-1.14 1.056.129 1.056.926 0 2.171-.786 2.171-1.371 0-.357-1.305-.178-2.3.315M127.8 377.2c-.136.22.123.4.576.4.453 0 .824.18.824.4 0 .22.45.4 1 .4s1-.18 1-.4c0-.22-.45-.4-1-.4s-1-.18-1-.4c0-.22-.259-.4-.576-.4-.317 0-.688.18-.824.4m3.8 1.6c0 .22.45.4 1 .4s1-.18 1-.4c0-.22-.45-.4-1-.4s-1 .18-1 .4m135.52.08c.373.373.587.373.96 0s.267-.48-.48-.48-.853.107-.48.48M134 379.6c0 .22.27.4.6.4.33 0 .6-.18.6-.4 0-.22-.27-.4-.6-.4-.33 0-.6.18-.6.4m131 0c.136.22.597.4 1.024.4.427 0 .776-.18.776-.4 0-.22-.461-.4-1.024-.4-.58 0-.916.173-.776.4m-129.4.8c0 .22.36.4.8.4.44 0 .8.18.8.4 0 .22.36.4.8.4.44 0 .8.18.8.4 0 .22.81.4 1.8.4s1.8-.18 1.8-.4c0-.22-.362-.4-.805-.4-.443 0-1.118-.158-1.5-.351-2.052-1.036-4.495-1.498-4.495-.849m127 0c-.136.22-.676.4-1.2.4-.524 0-1.064.18-1.2.4-.136.22-.777.4-1.424.4-.647 0-1.176.18-1.176.4 0 .22.63.4 1.4.4.77 0 1.4-.18 1.4-.4 0-.22.54-.4 1.2-.4.82 0 1.2-.197 1.2-.624 0-.343.18-.512.4-.376.22.136.4.057.4-.176 0-.537-.673-.553-1-.024m-119.397 2.3c.004.401 1.978 1.3 2.853 1.3.383 0 .808.18.944.4.136.22.867.4 1.624.4 1.749 0 1.819-.784.076-.847-.715-.026-1.435-.026-1.6 0-.165.026-.3-.133-.3-.353 0-.22-.439-.4-.976-.4-.537 0-1.088-.18-1.224-.4-.287-.464-1.401-.544-1.397-.1m112.397.1c0 .22.36.4.8.4.44 0 .8-.18.8-.4 0-.22-.36-.4-.8-.4-.44 0-.8.18-.8.4m-2.8.8c0 .22-.619.4-1.376.4-.757 0-1.488.18-1.624.4-.149.242.396.4 1.376.4.893 0 1.624-.18 1.624-.4 0-.22.54-.4 1.2-.4.66 0 1.2-.18 1.2-.4 0-.22-.54-.4-1.2-.4-.66 0-1.2.18-1.2.4m-102.252 1.482c.47.47 2.252.574 2.252.132 0-.228-.57-.414-1.267-.414-.696 0-1.14.127-.985.282m96.252.118c-.33.213-1.174.391-1.876.394-.702.003-1.388.186-1.524.406-.136.22-.777.4-1.424.4-.647 0-1.176.159-1.176.353 0 .555 3.161.455 3.696-.117.264-.283.792-.433 1.174-.334.756.198 3.13-.712 3.13-1.2 0-.427-1.285-.364-2 .098m-93.2.716c0 .173.63.332 1.4.352.77.021 1.4-.121 1.4-.315s-.63-.353-1.4-.353c-.77 0-1.4.142-1.4.316m3.4.884c.314.509 2.213.509 3 0 .433-.28.066-.389-1.324-.394-1.182-.004-1.828.148-1.676.394m4.285.86c.731.267 1.318.261 1.8-.02.569-.331.348-.412-1.085-.396-1.661.018-1.716.05-.715.416m75.681-.161c.428.429 3.034.474 3.034.053 0-.193-.75-.352-1.667-.352-.916 0-1.532.135-1.367.299m-72.78.524c-.234.378 1.368.956 1.707.617.129-.128.43-.079.67.109.658.515 3.528.824 4.435.477.602-.23.306-.365-1.2-.549a50.642 50.642 0 01-3.707-.608c-.939-.201-1.797-.221-1.905-.046m69.131.228c.434.433 2.683.552 2.683.141 0-.216-.66-.392-1.467-.392-.806 0-1.354.113-1.216.251m-58.617 1.638c.715.089 1.885.089 2.6 0 .715-.088.13-.161-1.3-.161-1.43 0-2.015.073-1.3.161" fill="#f2f1f4"/><path d="M193.6 17.04c-24.063 1.109-41.644 5.192-66.563 15.459-11.67 4.808-28.542 15.34-41.037 25.615-86.538 71.167-88.947 204.867-5.022 278.668 8.622 7.582 14.704 12.106 25.07 18.647C149.083 382.584 206.38 389.346 256 373.125c15.867-5.186 36.343-15.42 47.426-23.701.866-.647 2.564-1.907 3.774-2.799 50.559-37.276 78.654-99.128 73.413-161.625-2.033-24.247-7.422-44.018-17.988-66C331.772 54.816 263.788 13.807 193.6 17.04m5.919 9.7l2.118.26 5.301 10.341c2.915 5.688 5.464 10.325 5.664 10.304.2-.021.405-1.435.456-3.142.362-12.078.643-16.718 1.027-16.956.534-.33 8.403.05 8.818.425.167.151.126 5.034-.09 10.851-.217 5.817-.513 13.817-.658 17.777-.323 8.799.067 8.235-5.494 7.939-5.431-.289-4.373.84-10.44-11.139-2.786-5.5-5.207-10.051-5.38-10.112-.34-.122-.833 8.811-.846 15.312-.004 2.2-.155 4.233-.335 4.517-.353.557-6.459.629-8.427.1l-1.033-.278.13-4.569c.336-11.826 1.233-31.187 1.462-31.557.278-.45 4.352-.488 7.727-.073m54.366 8.713c2.373.8 4.512 1.655 4.754 1.9.384.392 1.815 30.193 1.774 36.947-.015 2.508.227 2.482-5.213.573L251 73.4l-.2-3.268c-.245-3.999.246-3.549-6.333-5.813L239 62.437l-1.406 1.482c-.773.814-1.79 2.015-2.258 2.667l-.852 1.187-2.342-.716c-8.009-2.448-7.9-2.245-3.842-7.178 1.705-2.073 4.9-6.069 7.1-8.879a672.9 672.9 0 016.811-8.555 412.516 412.516 0 004.759-5.945c2.3-2.951 1.582-2.843 6.915-1.047M160.21 49.402c6.53 7.811 12.035 14.302 12.232 14.424.621.384.388 1.672-.342 1.888-.385.114-2.213.765-4.062 1.447-4.412 1.627-4.416 1.626-6.606-1.161-2.254-2.869-1.606-2.824-8.019-.56-6.339 2.238-6.006 1.926-5.873 5.495.077 2.067-.048 3.057-.426 3.371-.655.543-8.176 3.294-9.008 3.294-.694 0-.348-38.187.354-39.059.203-.252 1.218-.742 2.255-1.089s2.785-.978 3.885-1.403c3.558-1.375 2.643-2.157 15.61 13.353M280.488 46.1l3.963 2.5-.161 1.6c-.088.88-.546 3.22-1.019 5.2-3.248 13.622-4.321 18.441-4.169 18.723.216.401.103.485 8.505-6.323 7.794-6.315 11.683-9.4 11.851-9.4.336 0 8.142 5.302 8.142 5.53 0 .309-.959 1.088-6.8 5.526a6118.98 6118.98 0 00-19.156 14.619c-3.887 2.981-4.671 3.432-5.344 3.072-4.327-2.316-8.703-5.81-8.07-6.444.111-.111.353-1.08.538-2.152.185-1.073 1.064-5.461 1.954-9.751.89-4.29 2.362-11.49 3.271-16 1.823-9.038 1.862-9.2 2.257-9.2.152 0 2.059 1.125 4.238 2.5m-31.645 2.517c-.46.779-1.843 2.679-3.074 4.222-2.696 3.378-2.644 3.595 1.171 4.877 3.714 1.249 3.46 1.615 3.46-4.983 0-5.844-.21-6.399-1.557-4.116m-101.682.018c-.091.201-.075 2.795.036 5.765.232 6.17-.134 5.816 4.312 4.166l2.909-1.079-.681-1.043c-.787-1.206-3.858-5.184-5.373-6.96-.57-.668-1.111-1.05-1.203-.849m-31.93 4.222c5.918 1.773 13.284 14.855 10.639 18.893-.387.59-.591 1.254-.455 1.475.248.4 9.213 4.775 9.786 4.775 2.251 0-2.219 4.644-6.247 6.491-.688.316-1.842-.111-6.151-2.275-2.917-1.464-5.564-2.563-5.881-2.441-1 .383-4.922 3.595-4.922 4.03 0 .421 3.869 6.145 4.992 7.386.999 1.104.766 1.429-3.035 4.219-3.052 2.24-3.73 2.586-4.173 2.132-1.583-1.622-20.91-29.262-20.743-29.664.11-.263 1.478-1.378 3.04-2.478 1.563-1.1 3.579-2.547 4.48-3.214 12.493-9.258 14.898-10.46 18.67-9.329m-8.456 11.447c-6.543 4.468-6.276 4.01-4.104 7.042 4.922 6.872 3.998 6.435 7.759 3.669 1.633-1.202 3.651-2.682 4.484-3.288 2.576-1.874 2.236-3.679-1.511-8.027-1.924-2.233-2.557-2.175-6.628.604M217.2 74.56c72.305 10.417 120.006 77.931 106.006 150.04-9.408 48.462-48.944 88.46-97.006 98.141-95.224 19.18-174.386-71.506-143.282-164.141C98.772 111.382 140.014 79.041 191 73.845c3.635-.37 22.178.136 26.2.715m107.907 6.611c1.811 1.964 3.281 3.809 3.267 4.1-.046.951-16.962 34.529-17.395 34.529-.598 0-6.566-6.684-6.573-7.362-.003-.308.638-1.713 1.425-3.121l1.432-2.559-1.011-1.279c-.555-.703-2.504-2.87-4.331-4.815l-3.321-3.535-2.737 1.235c-1.506.68-2.962 1.236-3.235 1.236-.646 0-6.63-6.568-6.621-7.267.004-.316 3.296-1.865 8.1-3.809a3579.027 3579.027 0 0017.293-7.068c11.166-4.602 9.753-4.573 13.707-.285M80.706 80.018c3.118 2.523 3.237 1.923-1.606 8.072-8.452 10.73-7.913 9.433-4.901 11.81 2.897 2.286 2.341 2.559 7.126-3.502l2.609-3.3c1.862-2.353 3.643-3.515 3.675-2.398.004.165.994 1.006 2.2 1.87 1.205.863 2.191 1.797 2.191 2.075 0 .446-3.539 5.185-7.5 10.042-1.653 2.028-1.672 1.96 1.173 4.269 3.068 2.489 2.636 2.748 8.933-5.343 6.353-8.161 5.868-7.887 9.135-5.167 3.071 2.557 3.008 2.231.935 4.792-3.571 4.411-12.577 15.831-14.086 17.862-1.628 2.191-2.516 2.559-3.441 1.43-.302-.369-1.641-1.494-2.977-2.5C78.835 116.007 60 100.718 60 100.409c0-.295 1.427-2.18 7.6-10.039.99-1.26 3.578-4.559 5.752-7.331 4.56-5.815 4.122-5.635 7.354-3.021M314 90.232c-.55.308-2.575 1.273-4.5 2.145-4.146 1.879-4.116 1.755-1.209 4.851l2.29 2.44.908-1.134c.499-.624.908-1.247.909-1.385.001-.139.812-1.716 1.802-3.506 2.326-4.205 2.291-4.804-.2-3.411m32.335 17.869c8.827 16.526 10.893 21.61 10.055 24.754-1.488 5.589-14.423 11.793-19.455 9.331-2.117-1.036-2.321-1.068-2.712-.431-2.102 3.425-6.111 9.215-6.458 9.327-.239.078-1.442-1.817-2.675-4.21l-2.24-4.352 3.375-5.053c3.886-5.818 3.725-5.238 2.175-7.867-.66-1.119-1.2-2.171-1.2-2.338 0-1.535-1.49-1.042-7.927 2.62-2.263 1.288-2.342 1.233-4.654-3.25-2.342-4.539-2.621-3.974 3.581-7.226 6.521-3.42 11.494-6.056 16.2-8.588 2.31-1.243 5.19-2.771 6.4-3.395 1.21-.624 2.371-1.29 2.58-1.479.884-.8 1.689-.213 2.955 2.157m-286.658 8.077c3.277 1.377 4.977 3.26 6.084 6.742.212.665.362.642 1.994-.315 4.886-2.863 13.445.695 15.12 6.287.662 2.21.047 4.752-2.396 9.908-9.608 20.272-7.899 18.02-12.105 15.957-1.856-.91-6.524-3.143-10.374-4.963-12.353-5.839-18.748-8.986-18.959-9.328-.177-.286 4.515-10.463 8.674-18.812 2.892-5.806 6.857-7.622 11.962-5.476m278.033 3.768c-2.396 1.321-4.087 2.502-4.081 2.854.018 1.237 4.701 9.401 5.736 10 1.744 1.01 8.235-2.663 8.235-4.659 0-1.266-4.74-10.558-5.353-10.495-.246.026-2.288 1.061-4.537 2.3m-283.376 6.177c-.676.676-4.334 7.969-4.334 8.641 0 .848 5.65 3.358 6.229 2.768 1.174-1.196 4.219-8.696 3.827-9.427-1.103-2.062-4.474-3.23-5.722-1.982m13.938 4.997c-.689.762-5.072 9.475-5.072 10.083 0 .451 5.689 3.154 6.119 2.908.631-.36 4.681-9.452 4.681-10.508 0-2.291-4.239-4.128-5.728-2.483m297.307 21.396a2621.6 2621.6 0 001.888 8.284c3.846 16.727 3.051 19.04-7.445 21.661-6.938 1.732-10.013 1.501-12.674-.951l-1.78-1.641-1.484 1.376c-.816.756-2.771 2.586-4.345 4.065-3.109 2.923-3.618 3.155-3.929 1.79-.78-3.426-1.81-8.353-1.81-8.661 0-.204 1.98-2.111 4.4-4.239 4.788-4.21 4.753-4.139 3.93-7.869-.585-2.657-.998-3.227-2.086-2.879-3.175 1.014-8.679 1.986-9.001 1.589-.956-1.181-2.288-8.442-1.624-8.853.58-.358-1.628.168 24.381-5.808.99-.228 3.6-.833 5.8-1.345 5.013-1.166 4.687-1.363 5.779 3.481M38.8 153.563c.77.198 1.895.47 2.5.606 1.18.264 1.529 1.883.728 3.379-.69 1.289.17 1.61 10.314 3.839 11.016 2.422 10.71 2.411 11.091.379.444-2.37.861-2.537 4.434-1.776 3.83.816 3.731.462 2.146 7.711-2.836 12.963-2.193 11.902-6.583 10.867-3.312-.781-3.564-1.048-2.981-3.162.617-2.234.697-2.195-9.269-4.448-12.295-2.778-11.507-2.813-12.182.542-.307 1.524-.597 1.567-4.469.669-3.483-.808-3.4-.549-2.066-6.493 3.234-14.41 2.541-13.086 6.337-12.113m318.8 6.066c-9.235 1.765-8.703 1.273-7.444 6.887 1.707 7.61 1.587 7.48 6.208 6.718 5.504-.907 5.699-1.271 4.241-7.965-1.334-6.129-1.252-5.976-3.005-5.64M49.391 182.82c1.476.434 3.538 2.212 5.009 4.318.598.856.619.849 5.871-2.081 3.007-1.677 5.475-2.814 5.745-2.647.565.349.336 9.42-.251 9.95-.201.181-2.525 1.455-5.165 2.83-5.931 3.089-5.54 2.68-5.653 5.909-.152 4.31-.482 4.062 5.576 4.19l5.277.111v9.2H29l-.111-5.674c-.324-16.586.631-23.071 3.692-25.077 2.744-1.797 12.224-2.378 16.81-1.029m293.519 9.717c23.616 10.53 27.754 12.405 28.239 12.798.437.354.494 1.382.279 5.055-.342 5.851-.322 5.795-2.336 6.375-.93.268-3.852 1.176-6.492 2.017s-7.68 2.436-11.2 3.545c-3.52 1.109-8.714 2.748-11.543 3.642-6.333 2.002-6.032 2.188-5.692-3.498.331-5.538.044-5.013 3.339-6.087 1.483-.484 2.912-1.083 3.175-1.331.785-.741.894-12.251.121-12.696-.33-.189-1.635-.818-2.9-1.398l-2.3-1.053.003-2.253c.005-4.28.474-7.653 1.064-7.653.304 0 3.113 1.142 6.243 2.537m-304.324-.564c-1.551.643-1.726 1.306-1.818 6.873-.113 6.833-.521 6.354 5.413 6.354 5.854 0 5.419.482 5.419-6.014 0-5.09-.408-6.698-1.769-6.973-1.98-.4-6.499-.549-7.245-.24m309.983 14.564c-.492 1.283.02 6.464.631 6.386 1.569-.201 9.253-2.416 9.607-2.77.267-.267-1.187-1.024-4.38-2.277-5.233-2.054-5.556-2.127-5.858-1.339M57.969 245.4c5.288 16.594 13.556 32.703 23.422 45.632 4.04 5.295 4.011 4.94.56 6.894-3.359 1.903-2.935 2.175-8.323-5.326-9.431-13.129-17.725-29.544-22.415-44.36-1.506-4.759-1.534-4.662 1.869-6.393 3.295-1.675 3.199-1.744 4.887 3.553m287.831 2.957c3.421 1.967 3.549 2.242 2.439 5.266-3.484 9.496-8.42 19.946-12.648 26.777a513.84 513.84 0 00-3.225 5.279c-2.092 3.507-7.662 10.962-12.717 17.021-1.719 2.06-1.91 2.07-5.111.28-3.077-1.721-3.078-1.737-.298-4.98 8.343-9.73 16.675-22.824 22.23-34.935 2.321-5.061 5.53-12.978 5.53-13.644 0-2.068 1.381-2.455 3.8-1.064m-170.015 26.067c-.797 1.29 18.186 12.979 24.73 15.227 3.422 1.176 20.464-7.216 28.885-14.224 1.503-1.25.673-1.359-2.085-.273-13.164 5.186-33.163 5.296-47.606.264-2.054-.715-3.82-1.163-3.924-.994m-65.382 31.624c5.435 4.673 5.359 4.546 3.86 6.452-.863 1.096-1.256.907-5.279-2.534-2.079-1.779-3.92-3.174-4.09-3.1-1.835.794-4.826 5.59-3.743 6.001.194.073 1.409 1.054 2.7 2.18a855.81 855.81 0 003.461 3l1.112.953-.912 1.289c-1.365 1.93-1.471 1.897-5.623-1.723-4.214-3.674-4.307-3.692-6.179-1.249-.709.926-2.16 2.659-3.224 3.851l-1.934 2.168-1.276-.943c-1.745-1.29-1.789-1.187 2.824-6.635 2.255-2.663 5.865-6.937 8.022-9.5 2.156-2.562 4.188-4.658 4.514-4.658.326 0 2.921 2.002 5.767 4.448M294 313.424c3.41 2.525 8.037 5.892 10.283 7.483 4.706 3.335 4.96 3.701 3.432 4.951-1.449 1.187-1.479 1.183-3.715-.458-2.444-1.794-2.263-1.826-6.046 1.06-3.829 2.92-3.808 2.88-2.77 5.303 1.107 2.582 1.034 3.221-.482 4.18-1.58 1.001-1.561 1.019-3.043-2.943-.659-1.76-2.71-7.201-4.558-12.091-1.848-4.89-3.255-9.059-3.127-9.266.315-.511 3.275-2.847 3.581-2.827.135.009 3.035 2.083 6.445 4.608m-173.562.862c1.614.953 1.549 1.179-1.91 6.652l-5.2 8.223c-2.972 4.695-2.926 5.037 1.034 7.588 4.282 2.759 3.917 3.024 10.814-7.843 5.588-8.807 5.227-8.423 6.815-7.249 1.632 1.206 1.839.684-3.85 9.713-8.232 13.067-8.98 13.416-17.063 7.946-4.88-3.301-5.146-5.539-1.378-11.568 1.375-2.2 2.68-4.293 2.9-4.651 3.561-5.799 6.092-9.497 6.5-9.497.097 0 .699.309 1.338.686m168.731 2.036c3.791 9.618 3.512 9.316 6.451 6.964 2.788-2.231 2.885-1.981-2.234-5.786-4.888-3.634-5.222-3.727-4.217-1.178M271.641 332.6c3.048 5.441 5.359 9.147 5.656 9.071.277-.072 2.366-1.197 4.643-2.5 4.879-2.795 4.287-2.674 5.264-1.071 1.202 1.971 1.212 1.96-5.186 5.65-7.298 4.209-6.213 4.376-9.443-1.45a1755.254 1755.254 0 00-6.046-10.778c-3.732-6.59-3.756-6.67-2.229-7.624 1.783-1.115 1.959-.905 7.341 8.702M144.2 327.381c9.042 3.918 8.487 3.521 7.55 5.4-.868 1.739-1.267 1.807-3.778.638-1.194-.556-2.373-1.013-2.619-1.015-.245-.002-2.315 4.399-4.6 9.78-4.389 10.34-4.533 10.557-6.378 9.603-1.744-.902-2.099.27 4.587-15.147 2.74-6.316 2.75-5.901-.188-7.219-2.805-1.259-3.073-1.682-2.172-3.426.811-1.568.762-1.577 7.598 1.386M261.672 339.5c8.807 11.738 8.441 11.075 6.544 11.867-1.327.555-2.615.501-2.617-.11-.001-.141-.676-1.035-1.5-1.987l-1.499-1.73-4 1.555-4 1.554-.2 2.972c-.187 2.779-.273 3.007-1.324 3.509-2.008.959-2.095.712-2.627-7.39a1412.38 1412.38 0 00-.871-12.462c-.524-6.829-.614-6.339 1.322-7.229 2.81-1.292 2.523-1.544 10.772 9.451m-99.979-5.507c7.962 2.107 9.396 3.356 8.978 7.824-.219 2.346-1.608 6.183-2.239 6.183-1.264 0-1.689 1.054-1.004 2.49.658 1.379.658 1.583-.001 3.982-1.821 6.634-3.685 7.313-12.94 4.714-5.501-1.544-5.264-1.12-3.734-6.678.714-2.589 2.109-7.678 3.1-11.308 2.041-7.468 2.366-8.4 2.932-8.4.221 0 2.43.537 4.908 1.193m78.68 1.895c.538 1.949.465 1.999-4.619 3.151-6.754 1.53-7.295 1.885-6.738 4.427.825 3.762 1.38 4.061 5.763 3.114 5.839-1.261 8.072.214 9.23 6.1 1.156 5.879-.206 7.272-9.085 9.289-5.471 1.243-5.692 1.205-5.827-.99-.111-1.789.001-1.846 6.303-3.203 5.084-1.094 5.618-1.735 4.574-5.496-.606-2.178-1.672-2.554-4.934-1.734-6.238 1.567-8.659.009-9.807-6.31-.882-4.854.683-6.867 6.401-8.237 1.851-.443 3.906-.966 4.566-1.161 2.748-.815 3.726-.569 4.173 1.05m12.827.498c0 1.701.832 9.719 1.034 9.958.231.275 5.766-2.072 5.766-2.445 0-.206-.765-1.392-1.7-2.637a119.12 119.12 0 01-3.1-4.352c-1.685-2.515-2-2.598-2-.524m-94.804 2.914a54.718 54.718 0 01-.816 2.86c-.643 1.961-.497 2.121 2.747 2.996 5.037 1.359 5.859.968 6.331-3.019.283-2.39.104-2.569-3.701-3.695-3.911-1.158-4.052-1.131-4.561.858m28.357-.48c6.25 1.014 6.774 2.33 5.452 13.691-1.429 12.287-2.249 13.115-11.762 11.88-6.283-.815-6.917-2.316-5.686-13.474 1.377-12.488 2.515-13.635 11.996-12.097m14.693 1.355c.121.316.431 5.221.687 10.9l.467 10.325 5.29-.111 5.289-.111.244.971c.753 3.001-.109 3.291-10.123 3.401-4.035.045-4.501-.022-4.509-.65-.005-.385-.11-2.86-.232-5.5-.689-14.885-.778-18.838-.434-19.3.52-.698 3.046-.641 3.321.075m-21.363 2.725c-.466.561-2.057 12.058-2.075 14.991-.015 2.374 7.159 4.207 8.836 2.258.871-1.014 2.597-14.951 1.991-16.083-.775-1.449-7.746-2.378-8.752-1.166m-24.263 6c-2.051 6.611-2.25 5.996 2.312 7.151 4.138 1.048 4.639.816 5.535-2.568.684-2.583.291-3.079-3.308-4.176-3.379-1.031-4.32-1.115-4.539-.407" fill="#423a51"/></g></svg>