<svg id="svg" version="1.1" xmlns="http://www.w3.org/2000/svg" xmlns:xlink="http://www.w3.org/1999/xlink" width="400" height="400" viewBox="0, 0, 400,400"><g id="svgg"><path id="path0" d="M181.396 160.467 C 181.272 160.789,181.223 163.020,181.286 165.426 L 181.400 169.800 182.870 169.922 C 184.942 170.095,185.255 170.670,185.118 174.063 L 185.000 177.000 169.887 177.105 L 154.774 177.210 154.887 181.705 L 155.000 186.200 158.200 186.400 L 161.400 186.600 161.400 191.400 L 161.400 196.200 158.200 196.400 L 155.000 196.600 154.886 200.684 L 154.772 204.767 158.086 204.884 L 161.400 205.000 161.400 209.400 L 161.400 213.800 158.100 213.916 L 154.800 214.032 154.800 219.000 L 154.800 223.968 158.100 224.084 L 161.400 224.200 161.400 228.400 L 161.400 232.600 158.200 232.800 L 155.000 233.000 154.886 237.100 L 154.772 241.200 157.686 241.206 C 161.735 241.215,161.648 241.102,161.514 246.232 L 161.400 250.600 158.100 250.716 L 154.800 250.832 154.800 255.011 L 154.800 259.190 169.700 259.295 L 184.600 259.400 184.720 260.834 C 184.866 262.571,184.320 263.097,182.195 263.270 L 180.600 263.400 180.600 268.000 L 180.600 272.600 184.287 272.715 C 191.104 272.927,194.997 269.090,194.755 262.396 C 194.633 259.023,194.093 259.199,204.524 259.206 C 215.013 259.213,215.109 259.235,214.396 261.452 C 212.814 266.375,205.873 267.363,198.700 263.687 C 198.535 263.603,198.400 265.448,198.400 267.789 L 198.400 272.045 200.100 272.782 C 210.596 277.334,221.303 272.308,222.984 262.041 L 223.417 259.400 230.408 259.200 C 234.254 259.090,237.670 258.837,238.000 258.638 C 242.674 255.818,245.738 250.973,247.512 243.600 L 247.848 242.200 250.939 242.083 L 254.030 241.966 253.915 238.283 L 253.800 234.600 250.937 234.483 L 248.075 234.366 247.796 231.883 C 247.175 226.346,245.358 221.724,242.984 219.640 C 241.276 218.140,241.265 218.297,243.226 216.374 C 245.194 214.446,246.520 211.581,247.235 207.715 L 247.768 204.831 250.784 204.715 L 253.800 204.600 253.915 200.919 L 254.030 197.237 251.357 197.119 C 248.272 196.982,248.338 197.054,247.392 192.800 C 245.005 182.072,239.737 177.203,230.508 177.194 C 223.683 177.187,223.797 177.229,223.485 174.600 C 222.813 168.920,220.026 164.996,215.388 163.197 C 210.850 161.438,200.341 162.230,198.979 164.433 C 198.642 164.979,198.515 172.424,198.839 172.624 C 198.988 172.716,199.331 172.524,199.603 172.197 C 202.884 168.243,214.800 170.732,214.800 175.371 C 214.800 177.202,214.805 177.201,204.667 177.194 C 194.012 177.187,194.943 177.691,194.707 171.800 C 194.364 163.225,192.218 160.700,184.789 160.127 C 182.218 159.929,181.577 159.993,181.396 160.467 M46.616 171.974 C 46.489 172.179,46.379 178.522,46.373 186.068 L 46.360 199.788 60.053 213.287 C 67.585 220.712,73.809 226.725,73.884 226.649 C 73.981 226.552,74.071 184.767,74.002 171.900 C 73.999 171.455,46.892 171.528,46.616 171.974 M102.625 171.960 C 102.499 172.164,102.393 191.019,102.391 213.861 L 102.385 255.391 115.893 268.893 C 123.322 276.318,129.580 282.395,129.800 282.397 C 130.779 282.405,130.079 242.137,129.036 238.400 C 125.247 224.835,125.207 210.816,128.918 197.872 L 130.200 193.400 130.000 182.600 L 129.800 171.800 116.327 171.695 C 108.366 171.633,102.760 171.741,102.625 171.960 M270.272 171.862 C 269.387 172.746,270.008 194.014,271.020 197.494 C 274.792 210.459,274.770 224.924,270.958 238.383 C 270.091 241.445,269.336 282.000,270.146 282.000 C 270.226 282.000,276.532 275.835,284.159 268.300 L 298.027 254.600 297.913 213.200 L 297.800 171.800 284.172 171.695 C 276.676 171.637,270.421 171.712,270.272 171.862 M325.908 198.900 C 325.849 213.915,325.895 226.331,326.011 226.491 C 326.127 226.651,332.394 220.608,339.937 213.063 L 353.653 199.343 353.639 185.854 C 353.631 178.435,353.519 172.193,353.389 171.982 C 353.246 171.751,347.780 171.600,339.585 171.600 L 326.016 171.600 325.908 198.900 M185.200 200.200 L 185.200 214.000 177.200 214.000 C 172.150 214.000,169.191 213.853,169.175 213.600 C 169.003 210.855,169.180 205.461,169.450 205.192 C 169.643 205.001,170.880 204.789,172.200 204.722 L 174.600 204.600 174.716 201.060 C 174.855 196.820,174.609 196.400,171.984 196.400 C 168.754 196.400,168.865 196.787,169.190 186.700 C 169.196 186.535,172.800 186.400,177.200 186.400 L 185.200 186.400 185.200 200.200 M214.418 198.552 C 214.351 214.354,214.455 214.099,208.141 213.915 L 204.200 213.800 204.137 212.600 C 204.102 211.940,204.057 211.175,204.037 210.900 C 204.011 210.555,203.194 210.400,201.400 210.400 C 199.606 210.400,198.789 210.555,198.763 210.900 C 198.743 211.175,198.698 211.940,198.663 212.600 C 198.603 213.746,198.519 213.800,196.800 213.800 L 195.000 213.800 194.894 200.603 C 194.836 193.345,194.877 187.177,194.985 186.896 C 195.137 186.498,197.297 186.409,204.825 186.493 L 214.469 186.600 214.418 198.552 M234.254 187.540 C 236.517 189.180,237.832 190.889,238.593 193.178 C 239.746 196.651,239.520 196.980,235.885 197.117 L 232.770 197.234 232.885 200.917 L 233.000 204.600 236.070 204.800 L 239.140 205.000 237.822 207.841 C 237.098 209.404,235.830 211.429,235.006 212.341 L 233.507 214.000 227.753 214.000 C 224.589 214.000,222.003 213.955,222.006 213.900 C 222.009 213.845,222.271 213.080,222.588 212.200 C 223.040 210.948,223.169 208.028,223.182 198.767 C 223.192 192.258,223.320 186.813,223.467 186.667 C 224.388 185.745,232.706 186.419,234.254 187.540 M185.200 237.400 L 185.200 250.800 177.226 250.800 L 169.251 250.800 169.126 246.559 C 168.973 241.418,168.956 241.449,172.085 241.200 L 174.600 241.000 174.716 237.460 C 174.859 233.093,174.660 232.800,171.551 232.800 L 169.200 232.800 169.200 228.667 C 169.200 223.531,168.369 224.000,177.467 224.000 L 185.200 224.000 185.200 237.400 M198.614 225.400 L 198.629 226.600 201.414 226.600 C 204.122 226.600,204.196 226.573,204.066 225.645 C 203.869 224.251,204.568 224.013,208.871 224.006 C 214.724 223.997,214.400 223.151,214.400 238.461 L 214.400 250.814 204.700 250.707 L 195.000 250.600 194.894 237.803 C 194.773 223.076,194.650 223.914,196.896 224.077 C 198.491 224.192,198.601 224.276,198.614 225.400 M233.326 224.447 C 236.166 225.899,239.200 230.522,239.200 233.398 C 239.200 234.329,239.081 234.371,236.100 234.483 L 233.000 234.600 232.885 238.300 L 232.770 242.000 235.398 242.000 C 238.807 242.000,238.960 242.415,236.974 246.277 C 234.699 250.699,234.506 250.800,228.346 250.800 L 223.200 250.800 223.190 239.100 C 223.185 232.665,223.026 226.734,222.837 225.920 C 222.648 225.106,222.592 224.341,222.713 224.220 C 223.134 223.799,232.449 223.998,233.326 224.447 M158.000 294.914 L 158.000 310.627 171.606 324.214 C 179.090 331.686,185.390 337.860,185.606 337.933 C 186.126 338.109,186.149 290.939,185.629 290.618 C 185.425 290.492,183.572 289.961,181.511 289.438 C 174.862 287.752,166.624 284.198,160.892 280.544 C 159.733 279.805,158.608 279.200,158.392 279.200 C 158.143 279.200,158.000 284.912,158.000 294.914 M238.600 280.837 C 233.559 284.143,224.305 288.071,218.020 289.572 C 216.266 289.990,214.645 290.449,214.416 290.590 C 213.875 290.925,213.831 337.327,214.372 337.133 C 214.577 337.060,220.877 330.926,228.372 323.503 L 242.000 310.006 242.000 294.603 C 242.000 282.531,241.892 279.207,241.500 279.231 C 241.225 279.249,239.920 279.971,238.600 280.837 " stroke="none" fill="#058b43" fill-rule="evenodd"></path><path id="path1" d="M197.200 36.800 C 197.200 37.933,197.111 38.000,195.600 38.000 C 194.150 38.000,194.000 38.096,194.000 39.024 C 194.000 39.654,193.834 39.945,193.569 39.781 C 192.996 39.427,193.243 42.032,193.842 42.670 C 194.085 42.929,194.895 43.207,195.642 43.289 C 196.992 43.436,196.994 43.440,196.000 43.873 C 195.010 44.304,193.219 46.000,193.754 46.000 C 193.906 46.000,193.664 46.394,193.216 46.875 C 192.767 47.357,192.400 48.062,192.400 48.443 C 192.400 50.165,192.011 50.400,189.157 50.400 C 187.586 50.400,186.400 50.572,186.400 50.800 C 186.400 51.020,185.601 51.200,184.624 51.200 C 183.647 51.200,182.736 51.380,182.600 51.600 C 182.464 51.820,181.744 52.000,181.000 52.000 C 180.256 52.000,179.536 52.180,179.400 52.400 C 179.264 52.620,178.634 52.800,178.000 52.800 C 177.366 52.800,176.736 52.980,176.600 53.200 C 176.464 53.420,175.823 53.600,175.176 53.600 C 174.529 53.600,174.000 53.780,174.000 54.000 C 174.000 54.220,173.640 54.400,173.200 54.400 C 172.760 54.400,172.400 54.580,172.400 54.800 C 172.400 55.020,171.961 55.200,171.424 55.200 C 170.887 55.200,170.336 55.380,170.200 55.600 C 170.064 55.820,169.603 56.000,169.176 56.000 C 168.749 56.000,168.400 56.180,168.400 56.400 C 168.400 56.620,168.040 56.800,167.600 56.800 C 167.160 56.800,166.800 56.980,166.800 57.200 C 166.800 57.420,166.440 57.600,166.000 57.600 C 165.560 57.600,165.200 57.780,165.200 58.000 C 165.200 58.220,164.862 58.400,164.449 58.400 C 164.036 58.400,163.474 58.670,163.200 59.000 C 162.926 59.330,162.534 59.600,162.328 59.600 C 161.914 59.600,159.305 61.585,157.463 63.300 C 156.813 63.905,155.993 64.403,155.641 64.406 C 155.081 64.411,155.076 64.461,155.600 64.800 C 156.110 65.129,156.092 65.189,155.482 65.194 C 154.734 65.200,152.899 66.801,152.709 67.613 C 152.380 69.022,149.980 70.800,148.407 70.800 C 147.523 70.800,146.800 70.980,146.800 71.200 C 146.800 71.422,145.733 71.600,144.400 71.600 C 143.067 71.600,142.000 71.778,142.000 72.000 C 142.000 72.220,141.280 72.400,140.400 72.400 C 139.520 72.400,138.800 72.580,138.800 72.800 C 138.800 73.020,138.260 73.200,137.600 73.200 C 136.940 73.200,136.400 73.380,136.400 73.600 C 136.400 73.820,135.860 74.000,135.200 74.000 C 134.540 74.000,134.000 74.180,134.000 74.400 C 134.000 74.620,133.758 74.800,133.461 74.800 C 132.348 74.800,126.675 78.104,125.634 79.359 C 125.341 79.712,124.931 80.000,124.722 80.000 C 124.196 80.000,123.200 81.046,123.200 81.600 C 123.200 82.262,122.161 83.200,121.429 83.200 C 120.873 83.200,120.747 83.410,120.820 84.221 C 120.831 84.343,120.291 84.955,119.620 85.582 C 118.949 86.208,118.400 86.969,118.400 87.272 C 118.400 87.575,118.040 88.083,117.600 88.400 C 117.160 88.717,116.800 89.297,116.800 89.688 C 116.800 90.080,116.620 90.400,116.400 90.400 C 116.180 90.400,116.000 90.760,116.000 91.200 C 116.000 91.640,115.820 92.000,115.600 92.000 C 115.380 92.000,115.200 92.360,115.200 92.800 C 115.200 93.240,115.020 93.600,114.800 93.600 C 114.580 93.600,114.400 93.949,114.400 94.376 C 114.400 94.803,114.220 95.264,114.000 95.400 C 113.780 95.536,113.600 96.166,113.600 96.800 C 113.600 97.434,113.420 98.064,113.200 98.200 C 112.962 98.347,112.800 100.863,112.800 104.400 C 112.800 107.937,112.962 110.453,113.200 110.600 C 113.420 110.736,113.600 111.467,113.600 112.224 C 113.600 112.981,113.780 113.600,114.000 113.600 C 114.220 113.600,114.400 113.960,114.400 114.400 C 114.400 114.840,114.580 115.200,114.800 115.200 C 115.020 115.200,115.200 115.560,115.200 116.000 C 115.200 116.440,115.380 116.800,115.600 116.800 C 115.820 116.800,116.000 117.160,116.000 117.600 C 116.000 118.040,116.180 118.400,116.400 118.400 C 116.620 118.400,116.800 118.720,116.800 119.112 C 116.800 119.503,117.160 120.083,117.600 120.400 C 118.040 120.717,118.403 121.342,118.406 121.788 C 118.411 122.459,118.480 122.496,118.800 122.000 C 119.120 121.504,119.189 121.541,119.194 122.212 C 119.197 122.658,119.560 123.283,120.000 123.600 C 120.440 123.917,120.800 124.330,120.800 124.517 C 120.800 125.207,121.921 126.029,122.136 125.496 C 122.247 125.223,122.351 125.405,122.368 125.900 C 122.386 126.395,122.655 126.800,122.966 126.800 C 124.170 126.800,125.699 129.031,125.872 131.040 C 125.964 132.105,126.165 133.072,126.319 133.188 C 126.474 133.305,126.648 133.634,126.707 133.920 C 127.165 136.153,131.677 138.800,135.025 138.800 C 137.414 138.800,137.739 138.907,138.992 140.100 C 141.072 142.081,141.514 142.400,142.183 142.400 C 142.522 142.400,142.800 142.580,142.800 142.800 C 142.800 143.020,143.170 143.200,143.623 143.200 C 144.393 143.200,144.406 143.257,143.823 144.089 C 143.121 145.090,142.973 148.000,143.624 148.000 C 143.857 148.000,143.950 148.157,143.832 148.348 C 143.528 148.840,144.966 150.400,145.723 150.400 C 146.070 150.400,146.464 150.580,146.600 150.800 C 146.736 151.020,147.203 151.200,147.637 151.200 C 148.471 151.200,150.908 153.444,151.132 154.418 C 151.205 154.734,151.398 155.084,151.561 155.196 C 151.725 155.308,151.975 155.715,152.117 156.100 C 152.520 157.194,153.621 156.932,155.908 155.198 C 157.068 154.319,158.193 153.600,158.408 153.600 C 158.624 153.600,158.800 153.420,158.800 153.200 C 158.800 152.980,159.120 152.800,159.512 152.800 C 159.903 152.800,160.483 152.440,160.800 152.000 C 161.117 151.560,161.697 151.200,162.088 151.200 C 162.480 151.200,162.800 151.020,162.800 150.800 C 162.800 150.580,163.160 150.400,163.600 150.400 C 164.040 150.400,164.400 150.220,164.400 150.000 C 164.400 149.780,164.760 149.600,165.200 149.600 C 165.640 149.600,166.000 149.420,166.000 149.200 C 166.000 148.980,166.360 148.800,166.800 148.800 C 167.240 148.800,167.600 148.620,167.600 148.400 C 167.600 148.180,167.960 148.000,168.400 148.000 C 168.840 148.000,169.200 147.820,169.200 147.600 C 169.200 147.380,169.650 147.200,170.200 147.200 C 170.750 147.200,171.200 147.020,171.200 146.800 C 171.200 146.580,171.650 146.400,172.200 146.400 C 172.750 146.400,173.200 146.220,173.200 146.000 C 173.200 145.780,173.650 145.600,174.200 145.600 C 174.750 145.600,175.200 145.420,175.200 145.200 C 175.200 144.980,175.740 144.800,176.400 144.800 C 177.060 144.800,177.600 144.620,177.600 144.400 C 177.600 144.180,178.140 144.000,178.800 144.000 C 179.460 144.000,180.000 143.820,180.000 143.600 C 180.000 143.380,180.900 143.200,182.000 143.200 C 183.100 143.200,184.000 143.020,184.000 142.800 C 184.000 142.580,184.885 142.400,185.967 142.400 C 187.184 142.400,187.997 142.210,188.100 141.900 C 188.342 141.173,211.658 141.173,211.900 141.900 C 212.003 142.210,212.816 142.400,214.033 142.400 C 215.115 142.400,216.000 142.580,216.000 142.800 C 216.000 143.020,216.720 143.200,217.600 143.200 C 218.480 143.200,219.200 143.380,219.200 143.600 C 219.200 143.820,219.920 144.000,220.800 144.000 C 221.680 144.000,222.400 144.180,222.400 144.400 C 222.400 144.620,222.940 144.800,223.600 144.800 C 224.260 144.800,224.800 144.980,224.800 145.200 C 224.800 145.420,225.250 145.600,225.800 145.600 C 226.350 145.600,226.800 145.780,226.800 146.000 C 226.800 146.220,227.261 146.400,227.824 146.400 C 228.404 146.400,228.740 146.573,228.600 146.800 C 228.456 147.033,228.863 147.200,229.576 147.200 C 230.249 147.200,230.800 147.380,230.800 147.600 C 230.800 147.820,231.160 148.000,231.600 148.000 C 232.040 148.000,232.400 148.180,232.400 148.400 C 232.400 148.620,232.760 148.800,233.200 148.800 C 233.640 148.800,234.000 148.980,234.000 149.200 C 234.000 149.420,234.360 149.600,234.800 149.600 C 235.240 149.600,235.600 149.780,235.600 150.000 C 235.600 150.220,235.878 150.400,236.217 150.400 C 236.556 150.400,237.220 150.760,237.692 151.200 C 238.164 151.640,238.787 152.000,239.075 152.000 C 239.364 152.000,239.600 152.180,239.600 152.400 C 239.600 152.620,239.920 152.800,240.312 152.800 C 240.703 152.800,241.283 153.160,241.600 153.600 C 241.917 154.040,242.362 154.407,242.588 154.416 C 242.815 154.425,243.623 154.965,244.385 155.616 C 246.067 157.054,246.290 157.066,247.762 155.800 C 248.401 155.250,248.697 154.800,248.420 154.800 C 248.142 154.800,248.474 154.278,249.158 153.640 C 249.841 153.001,250.400 152.191,250.400 151.840 C 250.400 151.375,250.784 151.200,251.800 151.200 C 252.570 151.200,253.200 151.020,253.200 150.800 C 253.200 150.580,253.515 150.394,253.900 150.387 C 254.972 150.368,256.000 149.411,256.000 148.432 C 256.000 147.948,256.180 147.664,256.400 147.800 C 256.937 148.132,256.921 145.374,256.380 144.363 C 256.149 143.931,255.789 143.683,255.580 143.812 C 255.371 143.942,255.200 143.857,255.200 143.624 C 255.200 143.391,255.562 143.200,256.005 143.200 C 256.776 143.200,258.378 142.481,258.800 141.946 C 258.910 141.807,259.355 141.625,259.790 141.543 C 260.224 141.460,260.780 140.991,261.026 140.499 C 261.271 140.007,261.590 139.724,261.736 139.869 C 261.881 140.014,262.000 139.863,262.000 139.532 C 262.000 139.050,262.615 138.926,265.085 138.910 C 266.978 138.898,268.227 138.719,268.318 138.445 C 268.400 138.200,268.728 138.000,269.047 138.000 C 270.729 138.000,274.000 133.238,274.000 130.788 C 274.000 129.915,274.168 129.200,274.373 129.200 C 274.578 129.200,274.860 128.840,275.000 128.400 C 275.140 127.960,275.602 127.600,276.027 127.600 C 276.475 127.600,276.800 127.326,276.800 126.947 C 276.800 126.172,278.352 124.723,278.852 125.032 C 279.043 125.150,279.200 125.039,279.200 124.784 C 279.200 124.529,279.740 123.817,280.400 123.200 C 281.060 122.583,281.600 121.781,281.600 121.416 C 281.600 121.051,281.780 120.864,282.000 121.000 C 282.220 121.136,282.400 120.967,282.400 120.624 C 282.400 120.281,282.580 120.000,282.800 120.000 C 283.020 120.000,283.200 119.722,283.200 119.383 C 283.200 119.044,283.560 118.380,284.000 117.908 C 284.440 117.436,284.800 116.734,284.800 116.348 C 284.800 115.963,284.980 115.536,285.200 115.400 C 285.420 115.264,285.603 114.578,285.606 113.876 C 285.611 112.905,285.705 112.743,286.000 113.200 C 286.295 113.657,286.389 113.495,286.394 112.524 C 286.397 111.822,286.580 111.136,286.800 111.000 C 287.039 110.853,287.200 108.270,287.200 104.600 C 287.200 100.930,287.039 98.347,286.800 98.200 C 286.580 98.064,286.400 97.323,286.400 96.553 C 286.400 95.721,286.238 95.253,286.000 95.400 C 285.767 95.544,285.600 95.137,285.600 94.424 C 285.600 93.751,285.420 93.200,285.200 93.200 C 284.980 93.200,284.800 92.832,284.800 92.383 C 284.800 91.934,284.440 91.180,284.000 90.708 C 283.560 90.236,283.200 89.613,283.200 89.325 C 283.200 89.036,283.020 88.800,282.800 88.800 C 282.580 88.800,282.400 88.512,282.400 88.160 C 282.400 87.809,281.860 87.017,281.200 86.400 C 280.540 85.783,280.000 84.991,280.000 84.640 C 280.000 84.261,279.664 84.000,279.176 84.000 C 278.723 84.000,278.464 83.820,278.600 83.600 C 278.736 83.380,278.556 83.200,278.200 83.200 C 277.844 83.200,277.664 83.020,277.800 82.800 C 277.936 82.580,277.767 82.400,277.424 82.400 C 277.081 82.400,276.800 82.164,276.800 81.876 C 276.800 81.312,272.700 77.600,272.076 77.600 C 271.868 77.600,271.470 77.326,271.192 76.990 C 270.914 76.655,270.607 76.460,270.510 76.556 C 270.414 76.653,269.694 76.297,268.912 75.766 C 268.129 75.235,266.928 74.797,266.244 74.794 C 265.294 74.789,265.142 74.696,265.600 74.400 C 266.055 74.106,265.886 74.011,264.900 74.006 C 264.185 74.003,263.600 73.820,263.600 73.600 C 263.600 73.380,263.060 73.200,262.400 73.200 C 261.740 73.200,261.200 73.020,261.200 72.800 C 261.200 72.580,260.581 72.400,259.824 72.400 C 259.067 72.400,258.336 72.220,258.200 72.000 C 258.064 71.780,256.883 71.600,255.576 71.600 C 254.259 71.600,253.200 71.422,253.200 71.200 C 253.200 70.980,252.472 70.800,251.582 70.800 C 250.133 70.800,247.953 69.470,247.991 68.609 C 248.028 67.754,247.907 67.600,247.200 67.600 C 246.667 67.600,246.400 67.333,246.400 66.800 C 246.400 66.267,246.133 66.000,245.600 66.000 C 245.067 66.000,244.800 65.733,244.800 65.200 C 244.800 64.508,244.347 64.176,243.845 64.500 C 243.760 64.555,242.991 63.835,242.136 62.900 C 241.282 61.965,240.450 61.200,240.287 61.200 C 240.125 61.200,239.095 60.570,238.000 59.800 C 236.905 59.030,235.736 58.400,235.404 58.400 C 235.072 58.400,234.800 58.220,234.800 58.000 C 234.800 57.780,234.440 57.600,234.000 57.600 C 233.560 57.600,233.200 57.420,233.200 57.200 C 233.200 56.980,232.840 56.800,232.400 56.800 C 231.960 56.800,231.600 56.620,231.600 56.400 C 231.600 56.180,231.240 56.000,230.800 56.000 C 230.360 56.000,230.000 55.820,230.000 55.600 C 230.000 55.380,229.460 55.200,228.800 55.200 C 228.140 55.200,227.600 55.020,227.600 54.800 C 227.600 54.580,227.251 54.400,226.824 54.400 C 226.397 54.400,225.936 54.220,225.800 54.000 C 225.664 53.780,225.113 53.600,224.576 53.600 C 224.039 53.600,223.600 53.420,223.600 53.200 C 223.600 52.980,222.970 52.800,222.200 52.800 C 221.430 52.800,220.800 52.620,220.800 52.400 C 220.800 52.180,220.080 52.000,219.200 52.000 C 218.320 52.000,217.600 51.820,217.600 51.600 C 217.600 51.380,216.700 51.200,215.600 51.200 C 214.500 51.200,213.600 51.020,213.600 50.800 C 213.600 50.576,212.493 50.400,211.080 50.400 C 208.470 50.400,207.600 49.979,207.600 48.715 C 207.600 47.251,205.612 44.581,204.000 43.880 C 203.053 43.469,203.096 43.434,204.800 43.223 L 206.600 43.000 206.600 40.600 L 206.600 38.200 204.700 38.078 C 202.891 37.962,202.800 37.900,202.800 36.778 L 202.800 35.600 200.000 35.600 L 197.200 35.600 197.200 36.800 M194.800 70.200 C 194.800 76.467,194.656 80.000,194.400 80.000 C 194.180 80.000,194.000 80.180,194.000 80.400 C 194.000 80.620,194.251 80.800,194.557 80.800 C 195.501 80.800,195.600 81.772,195.600 91.091 L 195.600 100.117 193.833 102.006 C 189.480 106.660,190.968 114.285,196.600 116.182 C 200.422 117.469,196.462 122.800,191.685 122.800 C 189.061 122.800,185.206 119.834,186.347 118.693 C 187.084 117.956,186.882 115.682,186.000 114.800 C 183.353 112.153,179.464 116.300,182.031 119.033 C 182.799 119.851,182.817 120.005,182.269 121.059 C 180.058 125.310,174.793 126.157,171.235 122.833 L 169.891 121.577 171.532 120.063 C 178.372 113.748,172.680 102.090,164.053 104.741 L 162.600 105.188 159.970 102.452 C 156.633 98.981,153.571 92.960,154.768 92.220 C 155.311 91.884,155.335 90.131,154.800 89.800 C 154.580 89.664,154.400 88.854,154.400 88.000 C 154.400 87.146,154.580 86.336,154.800 86.200 C 155.020 86.064,155.200 85.333,155.200 84.576 C 155.200 83.819,155.341 83.200,155.513 83.200 C 155.685 83.200,156.075 82.345,156.380 81.300 C 156.685 80.255,157.265 79.109,157.667 78.753 C 158.070 78.397,158.400 77.819,158.400 77.467 C 158.400 77.116,158.805 76.461,159.300 76.013 C 159.795 75.565,161.157 74.298,162.327 73.199 C 163.496 72.100,164.613 71.200,164.808 71.200 C 165.004 71.200,165.614 70.750,166.164 70.200 C 166.714 69.650,167.442 69.200,167.782 69.200 C 168.122 69.200,168.400 69.020,168.400 68.800 C 168.400 68.580,168.636 68.400,168.925 68.400 C 169.213 68.400,169.836 68.040,170.308 67.600 C 170.780 67.160,171.444 66.800,171.783 66.800 C 172.122 66.800,172.400 66.620,172.400 66.400 C 172.400 66.180,172.850 66.000,173.400 66.000 C 173.950 66.000,174.400 65.820,174.400 65.600 C 174.400 65.380,174.760 65.200,175.200 65.200 C 175.640 65.200,176.000 65.020,176.000 64.800 C 176.000 64.580,176.540 64.400,177.200 64.400 C 177.860 64.400,178.400 64.220,178.400 64.000 C 178.400 63.780,178.940 63.600,179.600 63.600 C 180.260 63.600,180.800 63.420,180.800 63.200 C 180.800 62.980,181.340 62.800,182.000 62.800 C 182.660 62.800,183.200 62.620,183.200 62.400 C 183.200 62.180,183.999 62.000,184.976 62.000 C 185.953 62.000,186.864 61.820,187.000 61.600 C 187.136 61.380,188.227 61.200,189.424 61.200 C 190.621 61.200,191.600 61.020,191.600 60.800 C 191.600 60.580,192.320 60.400,193.200 60.400 L 194.800 60.400 194.800 70.200 M208.400 60.800 C 208.400 61.020,209.379 61.200,210.576 61.200 C 211.773 61.200,212.864 61.380,213.000 61.600 C 213.136 61.820,214.047 62.000,215.024 62.000 C 216.001 62.000,216.800 62.180,216.800 62.400 C 216.800 62.620,217.329 62.800,217.976 62.800 C 218.623 62.800,219.264 62.980,219.400 63.200 C 219.536 63.420,220.087 63.600,220.624 63.600 C 221.161 63.600,221.600 63.780,221.600 64.000 C 221.600 64.220,222.140 64.400,222.800 64.400 C 223.460 64.400,224.000 64.580,224.000 64.800 C 224.000 65.020,224.450 65.200,225.000 65.200 C 225.550 65.200,226.000 65.380,226.000 65.600 C 226.000 65.820,226.360 66.000,226.800 66.000 C 227.240 66.000,227.600 66.180,227.600 66.400 C 227.600 66.620,227.960 66.800,228.400 66.800 C 228.840 66.800,229.200 66.980,229.200 67.200 C 229.200 67.420,229.560 67.600,230.000 67.600 C 230.440 67.600,230.800 67.750,230.800 67.932 C 230.800 68.115,231.295 68.519,231.900 68.830 C 232.505 69.140,233.291 69.711,233.647 70.097 C 234.003 70.484,234.497 70.800,234.745 70.800 C 234.993 70.800,236.142 71.682,237.298 72.760 C 238.454 73.838,239.975 75.251,240.677 75.899 C 241.379 76.548,242.074 77.556,242.220 78.139 C 242.367 78.723,242.647 79.200,242.843 79.200 C 243.040 79.200,243.200 79.560,243.200 80.000 C 243.200 80.440,243.336 80.800,243.503 80.800 C 243.896 80.800,244.800 83.704,244.800 84.970 C 244.800 85.511,244.980 86.064,245.200 86.200 C 245.716 86.519,245.724 91.076,245.208 91.395 C 244.959 91.549,244.985 91.907,245.278 92.377 C 246.182 93.825,243.208 99.410,239.491 103.243 L 237.704 105.087 234.752 104.909 C 226.060 104.384,221.559 114.584,228.158 119.849 C 230.297 121.556,229.837 122.877,226.520 124.553 C 222.112 126.781,215.338 122.293,218.000 118.909 C 219.042 117.585,219.015 116.081,217.930 114.926 C 215.719 112.572,212.169 114.871,213.246 117.960 C 214.531 121.646,207.669 123.924,203.912 121.058 C 201.443 119.175,200.703 116.400,202.670 116.400 C 203.669 116.400,206.118 114.477,207.232 112.819 C 209.418 109.564,209.066 105.323,206.353 102.242 L 204.800 100.477 204.800 90.881 C 204.800 82.721,204.890 81.251,205.400 81.055 C 205.912 80.859,206.000 79.321,206.000 70.613 L 206.000 60.400 207.200 60.400 C 207.860 60.400,208.400 60.580,208.400 60.800 M144.066 87.692 C 143.938 92.790,144.136 94.272,145.353 97.300 C 145.596 97.905,145.988 98.400,146.223 98.400 C 146.458 98.400,146.909 99.071,147.225 99.890 C 148.183 102.374,151.383 106.968,154.315 110.069 C 156.636 112.524,157.170 113.353,157.600 115.171 C 158.500 118.972,162.261 122.000,166.084 122.000 C 169.196 122.000,167.002 127.921,163.319 129.460 C 159.943 130.870,156.400 129.588,156.400 126.955 C 156.400 124.082,153.679 122.635,151.726 124.470 C 150.346 125.766,150.469 127.731,152.000 128.863 C 155.293 131.298,151.389 136.996,146.439 136.979 C 142.757 136.966,141.332 135.670,142.808 133.675 C 146.670 128.451,141.864 120.832,134.693 120.809 L 131.985 120.800 129.493 118.293 C 128.122 116.914,126.745 115.294,126.432 114.693 C 126.120 114.092,125.735 113.600,125.577 113.600 C 125.419 113.600,125.163 112.925,125.009 112.100 C 124.855 111.275,124.587 110.420,124.414 110.200 C 123.244 108.708,123.234 100.120,124.402 98.600 C 124.571 98.380,124.836 97.435,124.990 96.500 C 125.144 95.565,125.434 94.800,125.635 94.800 C 125.836 94.800,126.000 94.512,126.000 94.160 C 126.000 93.613,126.988 92.537,129.109 90.775 C 129.389 90.542,129.513 90.183,129.385 89.976 C 129.257 89.769,129.451 89.600,129.816 89.600 C 130.181 89.600,130.983 89.060,131.600 88.400 C 132.217 87.740,132.969 87.200,133.272 87.200 C 133.575 87.200,134.083 86.840,134.400 86.400 C 134.717 85.960,135.297 85.600,135.688 85.600 C 136.080 85.600,136.401 85.465,136.403 85.300 C 136.407 84.894,138.386 84.000,139.280 84.000 C 139.676 84.000,140.000 83.820,140.000 83.600 C 140.000 83.380,140.439 83.200,140.976 83.200 C 141.513 83.200,142.064 83.020,142.200 82.800 C 142.336 82.580,142.842 82.400,143.324 82.399 C 144.188 82.399,144.198 82.471,144.066 87.692 M257.600 82.800 C 257.600 83.020,258.140 83.200,258.800 83.200 C 259.460 83.200,260.000 83.380,260.000 83.600 C 260.000 83.820,260.324 84.000,260.720 84.000 C 261.614 84.000,263.593 84.894,263.597 85.300 C 263.599 85.465,263.960 85.600,264.400 85.600 C 264.840 85.600,265.200 85.750,265.200 85.932 C 265.200 86.115,265.695 86.519,266.300 86.830 C 266.905 87.140,267.691 87.711,268.047 88.097 C 268.403 88.484,268.988 88.800,269.347 88.800 C 269.706 88.800,270.000 89.058,270.000 89.373 C 270.000 89.688,270.384 90.068,270.853 90.217 C 271.523 90.429,271.587 90.563,271.153 90.838 C 270.822 91.047,270.784 91.190,271.058 91.194 C 271.309 91.197,272.093 91.740,272.800 92.400 C 273.507 93.060,273.858 93.600,273.581 93.600 C 273.292 93.600,273.422 93.898,273.885 94.300 C 274.329 94.686,274.821 95.585,274.978 96.298 C 275.134 97.011,275.563 97.771,275.931 97.985 C 276.363 98.238,276.415 98.380,276.076 98.388 C 275.788 98.395,275.655 98.566,275.781 98.769 C 276.417 99.798,277.080 107.600,276.532 107.600 C 276.349 107.600,276.176 108.005,276.147 108.500 C 276.061 109.952,274.664 113.341,273.839 114.100 C 273.402 114.501,273.286 114.800,273.565 114.800 C 273.834 114.800,273.151 115.679,272.047 116.754 C 270.944 117.829,270.152 118.819,270.287 118.954 C 270.423 119.089,270.273 119.200,269.955 119.200 C 269.637 119.200,269.117 119.560,268.800 120.000 C 268.333 120.647,267.763 120.800,265.812 120.802 C 258.052 120.809,253.623 127.237,256.954 133.657 C 258.289 136.231,258.295 136.195,256.392 136.957 C 251.211 139.030,244.409 132.478,248.147 129.014 C 249.601 127.667,249.601 125.573,248.146 124.429 C 246.009 122.748,243.600 124.102,243.600 126.983 C 243.600 131.496,235.475 130.900,233.210 126.221 C 231.811 123.331,232.167 122.247,234.600 121.985 C 238.718 121.542,242.400 118.005,242.400 114.492 C 242.400 113.768,243.354 112.493,245.760 109.996 C 249.089 106.543,250.039 105.271,252.178 101.400 C 252.786 100.300,253.629 99.074,254.051 98.676 C 254.473 98.278,254.713 97.783,254.585 97.576 C 254.457 97.369,254.543 97.200,254.776 97.200 C 255.009 97.200,255.200 96.696,255.200 96.080 C 255.200 95.464,255.390 94.770,255.621 94.539 C 255.889 94.271,255.998 91.989,255.921 88.258 C 255.800 82.412,255.802 82.399,256.700 82.399 C 257.195 82.400,257.600 82.580,257.600 82.800 M140.893 102.800 C 140.618 103.240,140.498 103.600,140.625 103.600 C 140.925 103.600,142.000 102.527,142.000 102.229 C 142.000 101.720,141.362 102.049,140.893 102.800 M190.400 143.592 C 190.070 143.810,188.855 143.991,187.700 143.994 C 186.545 143.997,185.600 144.162,185.600 144.360 C 185.600 144.558,184.835 144.819,183.900 144.941 C 180.640 145.366,179.191 145.691,178.973 146.044 C 178.852 146.240,178.223 146.400,177.576 146.400 C 176.929 146.400,176.400 146.580,176.400 146.800 C 176.400 147.020,175.961 147.200,175.424 147.200 C 174.887 147.200,174.336 147.380,174.200 147.600 C 174.064 147.820,173.603 148.000,173.176 148.000 C 172.749 148.000,172.400 148.180,172.400 148.400 C 172.400 148.620,171.849 148.800,171.176 148.800 C 170.463 148.800,170.056 148.967,170.200 149.200 C 170.340 149.427,170.004 149.600,169.424 149.600 C 168.861 149.600,168.400 149.780,168.400 150.000 C 168.400 150.220,168.040 150.400,167.600 150.400 C 167.160 150.400,166.800 150.580,166.800 150.800 C 166.800 151.020,166.440 151.200,166.000 151.200 C 165.560 151.200,165.200 151.346,165.200 151.525 C 165.200 151.704,164.570 152.098,163.800 152.400 C 163.030 152.702,162.400 153.096,162.400 153.275 C 162.400 153.454,162.130 153.600,161.800 153.600 C 161.470 153.600,161.200 153.780,161.200 154.000 C 161.200 154.220,160.930 154.400,160.600 154.400 C 160.270 154.400,160.000 154.580,160.000 154.800 C 160.000 155.020,159.730 155.200,159.400 155.200 C 159.070 155.200,158.800 155.380,158.800 155.600 C 158.800 155.820,158.570 156.000,158.288 156.000 C 158.007 156.000,157.517 156.360,157.200 156.800 C 156.883 157.240,156.386 157.600,156.095 157.600 C 155.556 157.600,155.070 157.940,153.450 159.449 C 152.949 159.916,152.143 160.510,151.658 160.769 C 151.174 161.028,150.900 161.439,151.051 161.682 C 151.210 161.939,151.141 162.011,150.888 161.854 C 150.648 161.706,149.998 162.038,149.444 162.592 C 148.890 163.147,148.113 163.613,147.718 163.628 C 147.083 163.653,147.093 163.696,147.800 164.000 C 148.250 164.193,116.659 164.356,75.533 164.372 C 4.893 164.399,1.200 164.443,1.200 165.261 C 1.200 165.870,3.110 167.600,3.782 167.600 C 4.133 167.600,4.400 167.945,4.400 168.400 C 4.400 168.858,4.667 169.200,5.024 169.200 C 5.367 169.200,5.536 169.380,5.400 169.600 C 5.264 169.820,5.463 170.000,5.843 170.000 C 6.223 170.000,6.417 170.117,6.274 170.260 C 5.936 170.598,8.020 172.389,8.800 172.431 C 9.234 172.454,9.257 172.521,8.883 172.670 C 8.233 172.931,9.010 174.000,9.849 174.000 C 10.152 174.000,10.400 174.193,10.400 174.429 C 10.400 175.183,11.506 176.067,11.736 175.496 C 11.856 175.200,11.950 175.278,11.968 175.690 C 12.003 176.446,34.093 198.800,34.806 198.800 C 35.049 198.800,35.136 198.980,35.000 199.200 C 34.864 199.420,35.046 199.600,35.405 199.600 C 36.168 199.600,37.275 200.592,36.914 200.952 C 36.778 201.089,36.977 201.200,37.357 201.200 C 37.737 201.200,37.936 201.380,37.800 201.600 C 37.664 201.820,37.878 202.003,38.276 202.006 C 38.890 202.011,38.909 202.071,38.400 202.400 C 37.890 202.730,37.906 202.789,38.513 202.794 C 39.448 202.802,42.142 205.473,41.485 205.740 C 41.213 205.850,41.307 205.951,41.700 205.968 C 42.085 205.986,42.355 206.210,42.300 206.467 C 42.245 206.724,42.616 207.152,43.125 207.417 C 43.634 207.682,44.039 208.057,44.025 208.249 C 44.011 208.442,44.180 208.623,44.400 208.650 C 44.620 208.678,44.980 208.722,45.200 208.750 C 45.420 208.778,45.600 209.078,45.600 209.418 C 45.600 210.146,47.405 212.062,47.758 211.709 C 47.891 211.576,48.000 211.767,48.000 212.133 C 48.000 212.549,48.339 212.812,48.900 212.832 C 49.395 212.849,49.568 212.956,49.284 213.070 C 48.913 213.219,49.012 213.490,49.635 214.031 C 50.113 214.445,50.660 214.687,50.852 214.568 C 51.043 214.450,51.200 214.723,51.200 215.176 C 51.200 215.754,51.468 216.009,52.100 216.032 C 52.595 216.049,52.777 216.153,52.504 216.264 C 51.851 216.527,52.868 217.600,53.771 217.600 C 54.117 217.600,54.379 217.735,54.353 217.900 C 54.213 218.784,54.484 219.200,55.200 219.200 C 55.640 219.200,56.000 219.454,56.000 219.764 C 56.000 220.075,56.540 220.783,57.200 221.339 C 57.860 221.894,58.400 222.435,58.400 222.541 C 58.400 222.992,78.176 242.400,78.636 242.400 C 78.758 242.400,79.127 242.670,79.457 243.000 C 79.787 243.330,79.941 243.600,79.800 243.600 C 79.659 243.600,79.813 243.870,80.143 244.200 C 80.473 244.530,80.946 244.800,81.195 244.800 C 81.444 244.800,81.536 244.980,81.400 245.200 C 81.264 245.420,81.444 245.600,81.800 245.600 C 82.156 245.600,82.336 245.780,82.200 246.000 C 82.064 246.220,82.156 246.400,82.405 246.400 C 83.015 246.400,84.024 247.442,83.714 247.752 C 83.578 247.889,83.767 248.000,84.133 248.000 C 84.500 248.000,84.800 248.276,84.800 248.613 C 84.800 248.949,85.115 249.344,85.500 249.490 C 86.542 249.885,87.285 250.705,86.759 250.880 C 86.521 250.960,86.826 251.289,87.437 251.612 C 88.048 251.936,107.499 271.145,130.661 294.300 C 153.823 317.455,173.049 336.400,173.387 336.400 C 173.724 336.400,174.000 336.686,174.000 337.036 C 174.000 337.761,181.747 345.600,182.464 345.600 C 182.722 345.600,182.828 345.705,182.700 345.833 C 182.120 346.413,198.300 362.000,199.482 362.000 C 200.709 362.000,208.800 354.464,208.800 353.322 C 208.800 353.035,209.160 352.800,209.600 352.800 C 210.133 352.800,210.400 352.533,210.400 352.000 C 210.400 351.542,210.667 351.200,211.024 351.200 C 211.367 351.200,211.574 351.065,211.484 350.900 C 211.395 350.735,212.824 349.113,214.661 347.295 C 216.497 345.477,218.000 344.184,218.000 344.423 C 218.000 344.661,230.339 332.513,245.420 317.428 C 260.501 302.343,273.003 290.000,273.202 290.000 C 273.401 290.000,274.177 289.196,274.928 288.213 C 275.678 287.230,276.407 286.540,276.546 286.680 C 276.686 286.819,276.800 286.633,276.800 286.267 C 276.800 285.900,277.025 285.645,277.300 285.700 C 277.575 285.755,277.751 285.562,277.690 285.270 C 277.630 284.979,277.756 284.849,277.970 284.982 C 278.455 285.281,286.400 277.352,286.400 276.569 C 286.400 276.256,286.676 276.000,287.013 276.000 C 287.349 276.000,287.729 275.730,287.855 275.400 C 287.982 275.070,288.347 274.800,288.666 274.800 C 288.986 274.800,289.136 274.620,289.000 274.400 C 288.864 274.180,289.038 274.000,289.386 274.000 C 289.735 274.000,290.193 273.544,290.405 272.987 C 290.922 271.628,292.594 270.001,293.482 269.994 C 293.920 269.990,294.029 269.873,293.761 269.694 C 293.470 269.499,293.630 269.101,294.233 268.514 C 294.853 267.910,295.205 267.783,295.340 268.114 C 295.448 268.381,295.551 268.235,295.568 267.788 C 295.597 267.043,296.924 265.675,297.262 266.042 C 297.568 266.374,310.854 252.811,310.610 252.416 C 310.468 252.187,310.644 252.000,311.000 252.000 C 311.356 252.000,311.536 251.820,311.400 251.600 C 311.264 251.380,311.440 251.200,311.792 251.200 C 312.143 251.200,321.791 241.840,333.231 230.400 C 344.671 218.960,354.214 209.600,354.439 209.600 C 354.663 209.600,354.736 209.420,354.600 209.200 C 354.464 208.980,354.576 208.800,354.848 208.800 C 355.120 208.800,356.616 207.553,358.171 206.030 C 359.727 204.506,362.665 201.633,364.700 199.645 C 366.735 197.657,368.400 195.754,368.400 195.415 C 368.400 195.077,368.687 194.800,369.037 194.800 C 369.388 194.800,369.769 194.440,369.884 194.000 C 369.999 193.560,370.359 193.200,370.684 193.200 C 371.009 193.200,371.369 192.840,371.484 192.400 C 371.670 191.688,372.099 191.409,372.558 191.700 C 372.888 191.909,374.371 190.277,374.161 189.937 C 374.040 189.741,374.168 189.630,374.447 189.690 C 374.725 189.751,375.026 189.459,375.117 189.041 C 375.306 188.167,376.960 186.400,377.588 186.400 C 378.110 186.400,398.800 165.780,398.800 165.260 C 398.800 164.443,395.078 164.400,324.501 164.400 C 284.332 164.400,251.575 164.292,251.707 164.159 C 251.957 163.910,248.885 160.800,248.389 160.800 C 248.235 160.800,247.499 160.267,246.754 159.616 C 246.009 158.964,244.950 158.200,244.400 157.918 C 243.850 157.636,243.109 157.089,242.753 156.703 C 242.397 156.316,241.985 156.000,241.836 156.000 C 241.688 156.000,241.180 155.640,240.708 155.200 C 240.236 154.760,239.613 154.400,239.325 154.400 C 239.036 154.400,238.800 154.220,238.800 154.000 C 238.800 153.780,238.480 153.600,238.088 153.600 C 237.697 153.600,237.117 153.240,236.800 152.800 C 236.483 152.360,235.903 152.000,235.512 152.000 C 235.120 152.000,234.800 151.820,234.800 151.600 C 234.800 151.380,234.440 151.200,234.000 151.200 C 233.560 151.200,233.200 151.020,233.200 150.800 C 233.200 150.580,232.840 150.400,232.400 150.400 C 231.960 150.400,231.600 150.220,231.600 150.000 C 231.600 149.780,231.240 149.600,230.800 149.600 C 230.360 149.600,230.000 149.420,230.000 149.200 C 230.000 148.980,229.460 148.800,228.800 148.800 C 228.140 148.800,227.600 148.653,227.600 148.472 C 227.600 148.292,226.700 147.900,225.600 147.600 C 224.500 147.300,223.600 146.908,223.600 146.728 C 223.600 146.547,223.208 146.400,222.728 146.400 C 221.808 146.400,219.472 145.740,218.305 145.151 C 217.923 144.958,216.888 144.800,216.005 144.800 C 215.122 144.800,214.400 144.636,214.400 144.436 C 214.400 143.593,191.614 142.792,190.400 143.592 M207.471 151.201 C 251.382 156.833,278.846 201.773,262.840 241.800 C 245.996 283.922,194.772 298.281,159.200 270.853 C 145.814 260.532,137.154 246.106,133.955 228.800 C 133.219 224.824,133.205 209.872,133.934 206.800 C 134.221 205.590,134.725 203.462,135.054 202.071 C 140.546 178.845,158.634 160.012,181.800 153.397 C 184.889 152.515,187.767 151.926,192.400 151.226 C 195.570 150.747,203.824 150.734,207.471 151.201 M198.528 168.400 C 198.528 169.830,198.601 170.415,198.689 169.700 C 198.778 168.985,198.778 167.815,198.689 167.100 C 198.601 166.385,198.528 166.970,198.528 168.400 M46.000 172.080 C 46.000 172.453,46.107 172.453,46.480 172.080 C 47.189 171.371,73.987 171.391,74.032 172.100 C 74.057 172.500,74.104 172.500,74.265 172.100 C 74.529 171.444,101.408 171.366,101.812 172.019 C 101.992 172.311,102.227 172.310,102.583 172.014 C 102.928 171.728,107.463 171.624,116.448 171.695 L 129.800 171.800 130.007 181.200 L 130.215 190.600 130.407 181.200 L 130.600 171.800 136.300 171.689 C 139.435 171.628,142.000 171.668,142.000 171.779 C 142.000 171.889,140.649 173.946,138.999 176.350 C 136.089 180.588,131.206 189.924,131.202 191.257 C 131.201 191.619,130.940 192.014,130.623 192.136 C 130.306 192.257,130.060 192.682,130.076 193.079 C 130.093 193.475,129.548 195.745,128.866 198.123 C 125.499 209.861,125.318 224.820,128.407 236.000 C 128.863 237.650,129.449 240.035,129.710 241.300 C 129.987 242.645,130.394 243.600,130.692 243.600 C 130.971 243.600,131.200 243.962,131.200 244.405 C 131.200 244.848,131.359 245.523,131.554 245.905 C 131.748 246.287,132.501 247.860,133.227 249.400 C 133.953 250.940,135.233 253.343,136.073 254.741 C 136.913 256.138,137.600 257.365,137.600 257.467 C 137.600 259.190,149.002 271.726,154.400 275.939 C 156.270 277.398,157.860 278.729,157.933 278.896 C 158.007 279.063,158.228 279.200,158.426 279.200 C 158.623 279.200,159.733 279.805,160.892 280.544 C 174.450 289.187,194.481 293.592,209.400 291.211 C 210.720 291.000,212.430 290.746,213.200 290.645 C 219.815 289.780,231.152 285.457,238.132 281.138 C 239.854 280.072,241.341 279.200,241.436 279.200 C 241.906 279.200,248.216 273.868,251.334 270.836 C 258.058 264.300,262.640 258.000,266.432 250.080 C 267.348 248.166,268.256 246.287,268.449 245.905 C 268.642 245.523,268.800 244.863,268.800 244.439 C 268.800 244.014,268.999 243.600,269.243 243.519 C 269.668 243.377,270.933 239.101,272.178 233.600 C 274.709 222.410,274.268 208.659,271.020 197.494 C 270.459 195.566,270.000 193.646,270.000 193.227 C 270.000 192.809,269.804 192.401,269.565 192.322 C 269.326 192.242,268.810 191.266,268.418 190.153 C 267.176 186.626,264.011 180.746,260.955 176.290 C 259.330 173.919,258.000 171.894,258.000 171.790 C 258.000 171.385,269.158 171.609,269.412 172.019 C 269.591 172.309,269.825 172.311,270.171 172.024 C 270.506 171.746,279.751 171.609,298.136 171.609 L 325.600 171.608 325.697 198.504 L 325.794 225.400 325.900 198.500 L 326.006 171.600 339.523 171.600 C 349.503 171.600,353.166 171.726,353.520 172.080 C 353.893 172.453,354.000 172.453,354.000 172.080 C 354.000 171.716,357.289 171.600,367.600 171.600 C 375.080 171.600,381.200 171.753,381.200 171.940 C 381.200 172.445,326.328 226.617,325.936 226.500 C 325.751 226.445,325.600 226.607,325.600 226.861 C 325.600 227.114,319.525 233.319,312.100 240.649 C 304.675 247.979,298.600 253.985,298.600 253.997 C 298.600 254.054,270.296 282.000,270.239 282.000 C 270.203 282.000,263.982 288.201,256.415 295.779 C 248.848 303.358,242.509 309.467,242.328 309.356 C 242.148 309.244,242.000 309.345,242.000 309.580 C 242.000 309.814,235.925 316.022,228.500 323.375 C 221.075 330.728,211.676 340.086,207.613 344.172 C 203.551 348.257,199.951 351.600,199.613 351.600 C 199.276 351.600,193.510 346.101,186.800 339.381 C 180.090 332.660,164.655 317.319,152.500 305.290 C 140.345 293.261,130.400 283.190,130.400 282.909 C 130.400 282.629,130.179 282.400,129.908 282.400 C 129.243 282.400,74.400 227.544,74.400 226.879 C 74.400 226.589,74.235 226.455,74.033 226.579 C 73.832 226.704,61.485 214.700,46.596 199.903 C 31.707 185.106,19.362 172.940,19.163 172.867 C 18.963 172.793,18.800 172.478,18.800 172.167 C 18.800 171.689,20.933 171.600,32.400 171.600 C 42.711 171.600,46.000 171.716,46.000 172.080 M46.179 185.600 C 46.179 192.750,46.233 195.675,46.299 192.100 C 46.366 188.525,46.366 182.675,46.299 179.100 C 46.233 175.525,46.179 178.450,46.179 185.600 M74.189 199.200 C 74.189 213.830,74.239 219.815,74.300 212.500 C 74.361 205.185,74.361 193.215,74.300 185.900 C 74.239 178.585,74.189 184.570,74.189 199.200 M102.193 213.400 C 102.193 235.840,102.241 244.961,102.300 233.669 C 102.359 222.378,102.359 204.018,102.300 192.869 C 102.241 181.721,102.193 190.960,102.193 213.400 M353.778 185.600 C 353.778 192.530,353.833 195.365,353.899 191.900 C 353.966 188.435,353.966 182.765,353.899 179.300 C 353.833 175.835,353.778 178.670,353.778 185.600 M162.500 177.099 C 166.625 177.164,173.375 177.164,177.500 177.099 C 181.625 177.034,178.250 176.981,170.000 176.981 C 161.750 176.981,158.375 177.034,162.500 177.099 M200.100 177.099 C 202.685 177.168,206.915 177.168,209.500 177.099 C 212.085 177.029,209.970 176.972,204.800 176.972 C 199.630 176.972,197.515 177.029,200.100 177.099 M227.100 177.097 C 228.695 177.173,231.305 177.173,232.900 177.097 C 234.495 177.021,233.190 176.959,230.000 176.959 C 226.810 176.959,225.505 177.021,227.100 177.097 M161.344 191.200 C 161.344 193.290,161.412 194.145,161.494 193.100 C 161.576 192.055,161.576 190.345,161.494 189.300 C 161.412 188.255,161.344 189.110,161.344 191.200 M234.500 197.091 C 235.325 197.178,236.675 197.178,237.500 197.091 C 238.325 197.005,237.650 196.934,236.000 196.934 C 234.350 196.934,233.675 197.005,234.500 197.091 M249.900 197.089 C 250.615 197.178,251.785 197.178,252.500 197.089 C 253.215 197.001,252.630 196.928,251.200 196.928 C 249.770 196.928,249.185 197.001,249.900 197.089 M161.337 209.400 C 161.339 211.160,161.409 211.830,161.493 210.889 C 161.578 209.949,161.577 208.509,161.491 207.689 C 161.405 206.870,161.336 207.640,161.337 209.400 M161.337 228.200 C 161.339 229.960,161.409 230.630,161.493 229.689 C 161.578 228.749,161.577 227.309,161.491 226.489 C 161.405 225.670,161.336 226.440,161.337 228.200 M156.500 241.491 C 157.325 241.578,158.675 241.578,159.500 241.491 C 160.325 241.405,159.650 241.334,158.000 241.334 C 156.350 241.334,155.675 241.405,156.500 241.491 M170.900 241.487 C 171.505 241.578,172.495 241.578,173.100 241.487 C 173.705 241.395,173.210 241.320,172.000 241.320 C 170.790 241.320,170.295 241.395,170.900 241.487 M161.337 246.200 C 161.339 247.960,161.409 248.630,161.493 247.689 C 161.578 246.749,161.577 245.309,161.491 244.489 C 161.405 243.670,161.336 244.440,161.337 246.200 M130.184 263.400 C 130.184 273.300,130.236 277.293,130.300 272.273 C 130.363 267.253,130.363 259.153,130.300 254.273 C 130.236 249.393,130.184 253.500,130.184 263.400 M205.505 265.883 C 206.002 265.979,206.722 265.975,207.105 265.875 C 207.487 265.775,207.080 265.696,206.200 265.701 C 205.320 265.705,205.007 265.787,205.505 265.883 " stroke="none" fill="#d38b06" fill-rule="evenodd"></path><path id="path2" d="M192.000 80.400 C 192.000 80.639,190.467 80.800,188.200 80.800 C 185.933 80.800,184.400 80.961,184.400 81.200 C 184.400 81.420,183.579 81.600,182.576 81.600 C 181.463 81.600,180.849 81.756,181.000 82.000 C 181.153 82.248,180.412 82.400,179.047 82.400 C 177.837 82.400,176.736 82.580,176.600 82.800 C 176.464 83.020,175.643 83.200,174.776 83.200 C 173.909 83.200,173.200 83.380,173.200 83.600 C 173.200 83.820,172.840 84.000,172.400 84.000 C 171.960 84.000,171.600 84.180,171.600 84.400 C 171.600 84.620,170.880 84.800,170.000 84.800 C 169.120 84.800,168.400 84.980,168.400 85.200 C 168.400 85.420,167.860 85.600,167.200 85.600 C 166.540 85.600,166.000 85.780,166.000 86.000 C 166.000 86.220,165.640 86.400,165.200 86.400 C 164.760 86.400,164.400 86.580,164.400 86.800 C 164.400 87.020,163.961 87.200,163.424 87.200 C 162.887 87.200,162.336 87.380,162.200 87.600 C 162.064 87.820,161.616 88.000,161.203 88.000 C 160.791 88.000,160.336 88.373,160.191 88.829 C 160.029 89.339,159.705 89.572,159.349 89.436 C 159.030 89.313,158.667 89.480,158.542 89.807 C 158.408 90.155,157.795 90.403,157.057 90.406 C 156.098 90.411,155.942 90.504,156.400 90.800 C 156.897 91.121,156.862 91.189,156.196 91.194 C 155.154 91.202,154.287 92.603,154.629 93.725 C 155.488 96.539,157.595 99.982,159.970 102.452 L 162.600 105.188 164.053 104.741 C 172.680 102.090,178.372 113.748,171.532 120.063 L 169.891 121.577 171.235 122.833 C 174.858 126.217,180.097 125.292,182.384 120.862 C 182.798 120.061,182.747 119.796,182.034 119.036 C 180.260 117.148,181.489 114.000,184.000 114.000 C 186.200 114.000,187.814 117.226,186.347 118.693 C 185.206 119.834,189.061 122.800,191.685 122.800 C 196.462 122.800,200.422 117.469,196.600 116.182 C 190.968 114.285,189.480 106.660,193.833 102.006 L 195.600 100.117 195.600 91.091 C 195.600 81.772,195.501 80.800,194.557 80.800 C 194.251 80.800,194.000 80.620,194.000 80.400 C 194.000 80.180,193.550 80.000,193.000 80.000 C 192.450 80.000,192.000 80.180,192.000 80.400 M205.500 80.833 C 204.875 81.518,204.800 82.608,204.800 91.039 L 204.800 100.477 206.353 102.242 C 209.066 105.323,209.418 109.564,207.232 112.819 C 206.118 114.477,203.669 116.400,202.670 116.400 C 200.703 116.400,201.443 119.175,203.912 121.058 C 207.669 123.924,214.531 121.646,213.246 117.960 C 212.169 114.871,215.719 112.572,217.930 114.926 C 219.015 116.081,219.042 117.585,218.000 118.909 C 215.338 122.293,222.112 126.781,226.520 124.553 C 229.837 122.877,230.297 121.556,228.158 119.849 C 221.559 114.584,226.060 104.384,234.752 104.909 L 237.704 105.087 239.491 103.243 C 244.664 97.908,247.137 91.200,243.932 91.200 C 243.530 91.200,243.200 91.020,243.200 90.800 C 243.200 90.580,242.880 90.400,242.488 90.400 C 242.097 90.400,241.517 90.040,241.200 89.600 C 240.883 89.160,240.303 88.800,239.912 88.800 C 239.520 88.800,239.200 88.620,239.200 88.400 C 239.200 88.180,238.750 88.000,238.200 88.000 C 237.650 88.000,237.200 87.820,237.200 87.600 C 237.200 87.380,236.840 87.200,236.400 87.200 C 235.960 87.200,235.600 87.020,235.600 86.800 C 235.600 86.580,235.060 86.400,234.400 86.400 C 233.740 86.400,233.200 86.220,233.200 86.000 C 233.200 85.780,232.851 85.600,232.424 85.600 C 231.997 85.600,231.536 85.420,231.400 85.200 C 231.264 84.980,230.713 84.800,230.176 84.800 C 229.639 84.800,229.200 84.620,229.200 84.400 C 229.200 84.180,228.480 84.000,227.600 84.000 C 226.720 84.000,226.000 83.820,226.000 83.600 C 226.000 83.380,225.471 83.200,224.824 83.200 C 224.177 83.200,223.536 83.020,223.400 82.800 C 223.264 82.580,222.128 82.387,220.876 82.372 C 219.235 82.352,218.823 82.248,219.400 82.000 C 219.967 81.757,219.477 81.648,217.724 81.628 C 216.362 81.613,215.136 81.420,215.000 81.200 C 214.864 80.980,213.188 80.797,211.276 80.794 C 208.884 80.790,207.987 80.667,208.400 80.400 C 208.847 80.111,208.644 80.019,207.600 80.039 C 206.758 80.056,205.921 80.372,205.500 80.833 M144.768 98.873 C 144.751 99.383,144.644 99.570,144.531 99.288 C 144.292 98.694,142.017 101.075,142.006 101.931 C 142.003 102.224,141.265 103.169,140.367 104.031 C 139.469 104.894,138.948 105.600,139.210 105.600 C 139.471 105.600,139.126 106.122,138.442 106.760 C 137.759 107.399,137.200 108.209,137.200 108.560 C 137.200 108.912,137.020 109.200,136.800 109.200 C 136.580 109.200,136.400 109.548,136.400 109.973 C 136.400 110.398,136.040 110.860,135.600 111.000 C 135.040 111.178,134.800 111.605,134.800 112.427 C 134.800 113.072,134.620 113.600,134.400 113.600 C 134.180 113.600,134.000 114.151,134.000 114.824 C 134.000 115.537,133.833 115.944,133.600 115.800 C 133.380 115.664,133.200 115.833,133.200 116.176 C 133.200 116.519,133.020 116.800,132.800 116.800 C 132.580 116.800,132.400 116.991,132.400 117.224 C 132.400 117.457,132.580 117.536,132.800 117.400 C 133.020 117.264,133.200 117.433,133.200 117.776 C 133.200 118.119,133.020 118.400,132.800 118.400 C 132.580 118.400,132.400 118.940,132.400 119.600 L 132.400 120.800 134.900 120.809 C 141.868 120.833,146.604 128.540,142.808 133.675 C 141.332 135.670,142.757 136.966,146.439 136.979 C 151.389 136.996,155.293 131.298,152.000 128.863 C 150.469 127.731,150.346 125.766,151.726 124.470 C 153.679 122.635,156.400 124.082,156.400 126.955 C 156.400 129.588,159.943 130.870,163.319 129.460 C 167.002 127.921,169.196 122.000,166.084 122.000 C 162.261 122.000,158.500 118.972,157.600 115.171 C 157.172 113.363,156.636 112.524,154.393 110.151 C 151.362 106.945,148.920 103.519,147.571 100.581 C 147.071 99.491,146.648 98.577,146.631 98.550 C 146.210 97.862,144.794 98.108,144.768 98.873 M253.943 98.756 C 253.582 99.110,252.788 100.300,252.180 101.400 C 250.035 105.276,249.088 106.544,245.760 109.996 C 243.354 112.493,242.400 113.768,242.400 114.492 C 242.400 118.005,238.718 121.542,234.600 121.985 C 232.167 122.247,231.811 123.331,233.210 126.221 C 235.475 130.900,243.600 131.496,243.600 126.983 C 243.600 125.596,243.806 125.096,244.654 124.429 C 247.705 122.029,251.006 126.364,248.147 129.014 C 244.409 132.478,251.211 139.030,256.392 136.957 C 258.295 136.195,258.289 136.231,256.954 133.657 C 253.693 127.372,258.055 120.810,265.500 120.802 L 267.600 120.800 267.600 119.200 C 267.600 118.320,267.420 117.600,267.200 117.600 C 266.980 117.600,266.800 117.240,266.800 116.800 C 266.800 116.360,266.657 116.000,266.482 116.000 C 266.307 116.000,266.119 115.339,266.065 114.532 C 266.004 113.629,265.641 112.782,265.122 112.332 C 264.537 111.825,264.450 111.592,264.839 111.573 C 265.147 111.558,264.995 111.351,264.500 111.112 C 264.005 110.873,263.600 110.515,263.600 110.315 C 263.600 110.116,263.793 110.072,264.030 110.218 C 264.266 110.364,264.228 110.113,263.945 109.660 C 263.662 109.207,263.357 108.910,263.268 108.999 C 262.927 109.340,262.000 108.018,262.000 107.191 C 262.000 106.662,261.689 106.244,261.200 106.116 C 260.760 106.001,260.400 105.703,260.400 105.453 C 260.399 105.204,259.953 104.482,259.408 103.848 C 258.863 103.214,258.481 102.584,258.558 102.448 C 259.004 101.664,254.584 98.128,253.943 98.756 " stroke="none" fill="#cb063b" fill-rule="evenodd"></path><path id="path3" d="M193.430 38.667 C 193.289 39.034,193.360 39.520,193.587 39.747 C 193.871 40.031,194.000 39.823,194.000 39.080 C 194.000 37.846,193.800 37.701,193.430 38.667 M122.060 82.242 C 121.331 83.066,121.800 83.457,122.581 82.676 C 122.921 82.336,123.200 81.954,123.200 81.829 C 123.200 81.409,122.606 81.624,122.060 82.242 M277.661 125.547 C 276.786 126.306,276.558 126.810,277.100 126.787 C 277.403 126.775,278.972 124.800,278.680 124.800 C 278.593 124.800,278.135 125.136,277.661 125.547 M192.400 151.226 C 187.767 151.926,184.889 152.515,181.800 153.397 C 158.634 160.012,140.546 178.845,135.054 202.071 C 134.725 203.462,134.221 205.590,133.934 206.800 C 133.205 209.872,133.219 224.824,133.955 228.800 C 142.223 273.521,188.741 297.493,229.600 278.088 C 244.155 271.175,256.468 257.733,262.840 241.800 C 275.300 210.642,260.860 173.534,230.231 157.999 C 219.006 152.305,203.560 149.540,192.400 151.226 M187.911 160.418 C 192.582 161.420,194.469 164.491,194.781 171.600 L 195.000 176.600 204.900 176.707 L 214.800 176.814 214.800 175.438 C 214.800 170.833,204.880 168.561,199.955 172.038 C 198.517 173.053,198.400 172.791,198.400 168.561 C 198.400 164.192,198.800 163.697,203.258 162.552 C 213.928 159.810,223.565 165.851,223.595 175.300 L 223.600 176.800 229.500 176.809 C 236.594 176.819,237.707 177.198,241.227 180.795 C 244.586 184.228,246.589 188.526,248.168 195.682 C 248.395 196.711,248.536 196.769,251.103 196.882 L 253.800 197.000 253.800 200.800 L 253.800 204.600 250.786 204.715 L 247.772 204.831 247.330 207.637 C 246.802 210.990,244.972 214.891,243.057 216.746 L 241.666 218.093 243.030 219.457 C 245.381 221.808,246.981 225.724,247.748 231.000 L 248.212 234.200 251.106 234.318 L 254.000 234.435 254.000 238.218 C 254.000 241.543,253.915 242.003,253.300 242.026 C 252.915 242.041,251.538 242.086,250.241 242.126 L 247.882 242.200 247.202 245.088 C 246.285 248.982,244.376 252.724,241.956 255.372 C 238.452 259.205,238.154 259.308,230.672 259.245 C 223.151 259.182,223.395 259.087,223.015 262.200 C 221.792 272.203,209.915 277.609,199.800 272.766 L 198.600 272.191 198.486 267.895 C 198.424 265.533,198.454 263.600,198.554 263.600 C 198.653 263.600,199.630 264.050,200.725 264.600 C 205.052 266.773,212.316 265.671,213.763 262.622 C 215.367 259.240,215.254 259.199,204.467 259.206 C 194.257 259.213,194.950 258.930,194.722 263.200 C 194.358 270.018,191.364 272.800,184.388 272.800 L 180.400 272.800 180.400 268.000 L 180.400 263.200 182.120 263.200 C 184.172 263.200,184.800 262.676,184.800 260.963 C 184.800 259.148,184.981 259.169,169.631 259.201 C 162.024 259.216,155.575 259.222,155.300 259.214 C 154.933 259.204,154.800 258.086,154.800 255.000 L 154.800 250.800 158.000 250.800 C 159.850 250.800,161.211 250.631,161.225 250.400 C 161.239 250.180,161.250 248.290,161.250 246.200 C 161.250 244.110,161.239 242.228,161.225 242.017 C 161.211 241.806,159.805 241.581,158.100 241.517 L 155.000 241.400 155.000 237.200 L 155.000 233.000 158.169 232.800 L 161.338 232.600 161.369 228.505 C 161.405 223.798,161.575 224.000,157.567 224.000 L 154.800 224.000 154.800 219.000 L 154.800 214.000 158.000 214.000 C 159.850 214.000,161.211 213.831,161.225 213.600 C 161.373 211.231,161.239 205.587,161.026 205.243 C 160.866 204.983,159.521 204.800,157.776 204.800 L 154.800 204.800 154.800 200.600 L 154.800 196.400 157.700 196.394 C 161.491 196.386,161.400 196.509,161.400 191.400 C 161.400 186.289,161.493 186.414,157.687 186.406 L 154.775 186.400 154.887 181.700 L 155.000 177.000 170.100 176.895 L 185.200 176.790 185.200 173.809 C 185.200 170.505,184.833 170.000,182.426 170.000 L 181.200 170.000 181.200 165.267 C 181.200 162.663,181.320 160.413,181.467 160.267 C 181.875 159.859,185.725 159.949,187.911 160.418 M1.384 164.027 C 1.002 164.644,-4.447 164.616,75.000 164.400 C 115.480 164.290,148.150 164.067,147.600 163.905 C 145.927 163.413,1.689 163.532,1.384 164.027 M251.797 164.004 C 251.636 164.265,276.503 164.400,324.544 164.400 C 364.689 164.400,397.819 164.509,398.167 164.643 C 398.583 164.802,398.800 164.664,398.800 164.241 C 398.800 163.471,252.273 163.235,251.797 164.004 M18.863 172.100 C 18.898 172.375,25.018 178.627,32.463 185.993 L 46.000 199.387 46.000 185.493 L 46.000 171.600 32.400 171.600 C 21.753 171.600,18.814 171.709,18.863 172.100 M74.400 199.497 L 74.400 227.404 88.202 241.202 L 102.004 254.999 101.902 213.400 L 101.800 171.800 88.100 171.695 L 74.400 171.589 74.400 199.497 M130.605 172.100 C 130.131 173.499,130.220 192.291,130.700 192.107 C 130.975 192.001,131.201 191.619,131.202 191.257 C 131.206 189.924,136.089 180.588,138.999 176.350 C 140.649 173.946,142.000 171.894,142.000 171.790 C 142.000 171.310,130.769 171.616,130.605 172.100 M258.000 171.790 C 258.000 171.894,259.330 173.919,260.955 176.290 C 264.011 180.746,267.176 186.626,268.418 190.153 C 269.790 194.049,270.000 193.035,270.000 182.513 C 270.000 175.305,269.868 172.428,269.520 172.080 C 269.057 171.617,258.000 171.338,258.000 171.790 M298.267 171.867 C 297.896 172.237,297.929 254.003,298.300 253.988 C 298.465 253.981,304.675 247.979,312.100 240.649 L 325.600 227.322 325.600 199.461 L 325.600 171.600 312.067 171.600 C 304.623 171.600,298.413 171.720,298.267 171.867 M354.000 185.200 C 354.000 192.680,354.117 198.800,354.259 198.800 C 354.636 198.800,381.200 172.294,381.200 171.918 C 381.200 171.743,375.080 171.600,367.600 171.600 L 354.000 171.600 354.000 185.200 M169.376 186.917 C 169.264 187.211,169.223 189.420,169.286 191.826 L 169.400 196.200 172.000 196.400 L 174.600 196.600 174.600 200.600 L 174.600 204.600 172.000 204.800 L 169.400 205.000 169.400 209.400 L 169.400 213.800 177.305 213.908 L 185.211 214.017 185.105 200.308 L 185.000 186.600 177.291 186.491 C 171.151 186.405,169.540 186.491,169.376 186.917 M194.985 186.896 C 194.877 187.176,194.836 193.345,194.894 200.603 L 195.000 213.800 196.676 213.922 L 198.352 214.044 198.476 212.322 L 198.600 210.600 201.400 210.600 L 204.200 210.600 204.323 212.300 L 204.446 214.000 208.168 214.000 C 214.512 214.000,214.479 214.084,214.316 198.000 L 214.200 186.600 204.690 186.493 C 197.270 186.409,195.137 186.498,194.985 186.896 M223.407 186.867 C 223.301 187.160,223.151 192.890,223.073 199.600 C 222.996 206.310,222.792 212.295,222.620 212.900 L 222.307 214.000 227.739 214.000 C 234.250 214.000,234.823 213.680,237.305 208.660 C 239.240 204.747,239.279 204.854,235.900 204.718 L 233.000 204.600 233.000 200.800 L 233.000 197.000 236.100 196.883 C 239.554 196.753,239.559 196.747,238.729 193.846 C 238.103 191.655,236.544 189.351,234.664 187.837 C 232.903 186.419,223.852 185.638,223.407 186.867 M376.060 187.451 C 375.543 188.002,375.190 188.524,375.277 188.610 C 375.469 188.803,377.600 187.008,377.600 186.653 C 377.600 186.149,376.981 186.469,376.060 187.451 M35.600 199.829 C 35.600 200.251,36.702 201.164,36.933 200.933 C 37.059 200.808,36.913 200.456,36.610 200.152 C 36.033 199.576,35.600 199.437,35.600 199.829 M39.250 203.500 C 40.082 204.562,41.280 205.600,41.675 205.600 C 41.868 205.600,41.397 204.970,40.627 204.200 C 39.159 202.732,38.311 202.301,39.250 203.500 M169.475 224.258 C 169.324 224.410,169.200 226.385,169.200 228.648 L 169.200 232.763 171.900 232.882 L 174.600 233.000 174.715 236.967 C 174.849 241.562,174.833 241.585,171.500 241.594 L 169.200 241.600 169.200 246.200 L 169.200 250.800 177.205 250.800 L 185.211 250.800 185.105 237.500 L 185.000 224.200 177.375 224.092 C 173.181 224.032,169.626 224.107,169.475 224.258 M195.294 224.333 C 194.900 224.583,194.812 227.515,194.894 237.627 L 195.000 250.600 204.716 250.707 L 214.432 250.814 214.316 238.171 L 214.200 225.528 213.239 224.750 C 212.410 224.079,211.750 223.988,208.442 224.086 L 204.606 224.200 204.399 225.400 C 204.192 226.599,204.190 226.600,201.396 226.600 L 198.600 226.600 198.475 225.300 C 198.345 223.957,196.683 223.452,195.294 224.333 M222.753 224.300 C 222.727 224.465,222.769 224.780,222.848 225.000 C 222.926 225.220,223.083 231.070,223.195 238.000 L 223.400 250.600 228.458 250.712 L 233.515 250.823 234.706 249.633 C 236.155 248.184,238.547 243.359,238.228 242.528 C 238.056 242.082,237.455 241.949,235.898 242.013 C 234.744 242.060,233.568 242.077,233.285 242.050 C 232.896 242.012,232.798 241.091,232.885 238.300 L 233.000 234.600 236.000 234.400 L 239.000 234.200 238.904 232.630 C 238.723 229.684,236.352 226.222,233.516 224.763 C 231.993 223.980,222.865 223.587,222.753 224.300 M269.300 243.465 C 269.025 243.576,268.800 244.014,268.800 244.439 C 268.800 244.863,268.642 245.523,268.449 245.905 C 268.256 246.287,267.348 248.166,266.432 250.080 C 261.653 260.061,254.106 269.342,244.900 276.560 L 242.000 278.834 242.000 293.993 C 242.000 302.331,242.148 309.244,242.328 309.356 C 242.509 309.467,248.813 303.393,256.337 295.857 L 270.018 282.155 269.989 262.678 C 269.973 251.965,269.924 243.214,269.880 243.232 C 269.836 243.249,269.575 243.354,269.300 243.465 M130.316 263.500 L 130.431 283.400 144.030 296.900 C 151.509 304.325,157.712 310.400,157.814 310.400 C 157.916 310.400,157.996 303.245,157.991 294.500 L 157.983 278.600 155.712 277.000 C 150.787 273.529,137.600 259.319,137.600 257.483 C 137.600 257.372,136.913 256.138,136.073 254.741 C 135.233 253.343,133.953 250.940,133.227 249.400 C 132.501 247.860,131.748 246.287,131.554 245.905 C 131.359 245.523,131.200 244.848,131.200 244.405 C 131.200 243.962,130.975 243.600,130.700 243.600 C 130.305 243.600,130.224 247.785,130.316 263.500 M296.397 266.403 C 295.888 266.844,295.560 267.293,295.668 267.401 C 295.775 267.509,296.286 267.148,296.801 266.598 C 297.928 265.400,297.687 265.283,296.397 266.403 M294.086 268.624 C 293.583 269.161,293.345 269.600,293.557 269.600 C 294.050 269.600,295.200 268.459,295.200 267.971 C 295.200 267.467,295.135 267.505,294.086 268.624 M291.785 270.924 C 290.279 272.543,290.229 273.010,291.692 271.800 C 293.080 270.652,293.542 269.972,292.900 270.024 C 292.735 270.038,292.233 270.443,291.785 270.924 M210.200 291.088 C 207.010 291.628,192.407 291.547,187.900 290.965 L 186.000 290.719 186.000 314.655 L 186.000 338.591 192.495 345.096 C 196.068 348.673,199.265 351.600,199.600 351.600 C 199.935 351.600,203.312 348.493,207.104 344.696 L 214.000 337.792 214.000 314.319 C 214.000 301.410,213.865 290.779,213.700 290.697 C 213.535 290.614,211.960 290.790,210.200 291.088 M214.531 347.427 C 212.732 349.243,211.348 350.815,211.455 350.922 C 211.561 351.028,212.043 350.706,212.524 350.205 C 213.006 349.704,214.470 348.198,215.777 346.858 C 217.085 345.518,218.075 344.355,217.977 344.274 C 217.880 344.193,216.329 345.612,214.531 347.427 " stroke="none" fill="#fbfbfb" fill-rule="evenodd"></path></g></svg>