<svg xmlns="http://www.w3.org/2000/svg" width="400" height="400"><g fill-rule="evenodd"><path d="M98.684 157.081c1.013 1.204 1.316 8.306 1.316 30.872v14.131l1.039.995c.956.916 1.282.995 4.102.995h3.064l-1.14-.959-1.139-.959v-16.205l1.636 1.104c10.795 7.286 25.745-1.029 25.767-14.331.021-12.895-14.968-21.142-25.52-14.041-1.983 1.334-2.015 1.331-2.393-.252-.382-1.598-1.742-2.241-4.841-2.289l-2.717-.042.826.981M260.702 157l1.15 1.075.007 7.537c.009 9.352.35 11.932 2.032 15.368 5.635 11.508 21.789 11.508 27.397 0 1.703-3.497 2.039-5.978 2.043-15.097.002-7.161.05-7.696.77-8.611l.768-.976h-2.764c-4.767 0-4.973.549-5.039 13.412-.055 10.917-4.83 16.028-12.572 13.457-5.265-1.749-6.385-4.501-6.718-16.498-.138-4.991-.277-9.119-.31-9.172-.527-.879-2.803-1.566-5.19-1.568l-2.725-.001 1.151 1.074m-108.382-.299c-8.497 1.067-15.001 9.857-13.79 18.636 2.04 14.786 21.74 19.519 29.966 7.201 8.199-12.277-1.449-27.687-16.176-25.837m22.231.481c1.371 1.27 1.424 1.953 1.301 16.769-.11 13.279-.119 13.405-.956 14.537l-.844 1.142 2.696-.009c4.855-.014 5.103-.547 5.107-10.986.005-10.326 1.125-13.092 6.228-15.383 5.938-2.665 14.343 1.033 12.48 5.491l-.543 1.3 2.12-1.189c4.598-2.579 5.093-4.463 1.998-7.607-5.273-5.357-13.914-6.454-20.102-2.553l-1.979 1.248-.429-1.021c-.822-1.955-2.163-2.625-5.251-2.625h-2.781l.955.886m130.317-.476c-6.912 2.074-9.036 11.409-3.669 16.122 2.106 1.849 3.901 2.287 10.214 2.49 6.377.206 7.125.46 7.853 2.665 1.355 4.107-.579 5.723-6.835 5.713-6.705-.012-10.199-1.648-10.216-4.784l-.008-1.319-2.029 2.097c-3.381 3.493-2.646 5.748 2.728 8.362l2.835 1.379 5.957.136c10.03.229 14.529-3.416 13.723-11.12-.681-6.522-4.16-8.875-13.48-9.118l-6.023-.157-.922-1.096c-3.168-3.765-.249-6.018 7.497-5.785 6.654.2 9.35 1.535 9.366 4.636l.008 1.406 2.029-2.097c3.376-3.487 2.658-5.71-2.698-8.359l-2.822-1.396-6.133-.074c-3.372-.041-6.691.093-7.375.299m-184.422 6.092c7.251 2.47 9.39 12.997 3.662 18.026-7.494 6.579-18.677 1.272-18.106-8.592.422-7.287 7.389-11.838 14.444-9.434m37.697.013c2.723.808 5.909 3.966 6.844 6.78 3.633 10.937-10.158 19.05-17.928 10.548-7.357-8.05.575-20.449 11.084-17.328m-4.575 6.231c-2.477 2.38-2.756 3.875-1.161 6.223.51.749.926 1.888.926 2.531v1.17l1.389-1.219c3.118-2.735 3.52-4.29 1.785-6.905-.742-1.118-.991-1.885-.874-2.685.205-1.396.393-1.476-2.065.885m134.097 34.074l1.039.893.185 23.026.185 23.026 1.21 1.081c1.12 1 1.426 1.08 4.138 1.08h2.928l-1.082-1.082-1.083-1.083v-22.454c0-27.172.392-25.381-5.552-25.381h-3.008l1.04.894m15.465 5.865c.634.557 1.061 1.446 1.285 2.677.516 2.833 1.551 3.527 5.256 3.527h2.963l-.949-.833c-.634-.557-1.061-1.446-1.285-2.677-.516-2.832-1.551-3.527-5.256-3.527h-2.963l.949.833m-193.91 10.612l1.15 1.075v21.344c0 22.757.042 23.315 1.797 24.254 1.028.551 6.801.532 5.854-.019-1.432-.832-2.875-17.728-1.515-17.728.116 0 .772.428 1.46.953 6.826 5.206 18.56 2.737 23.447-4.934 9.188-14.419-6.416-31.526-21.783-23.883l-2.978 1.48c-.11.053-.36-.447-.556-1.112-.5-1.7-2.261-2.503-5.487-2.504h-2.539l1.15 1.074m-26.618-.134c-8.718 2.444-13.946 11.58-11.657 20.371 2.821 10.83 16.022 15.9 25.188 9.671l1.454-.988.391 1.161c.68 2.021 1.724 2.548 5.047 2.548h2.942l-1.039-.893-1.039-.894-.185-14.879-.185-14.88-1.04-.894c-.908-.78-1.407-.893-3.953-.893h-2.913l1.082 1.083c.596.595 1.083 1.445 1.083 1.888v.805l-1.204-.804c-4.131-2.759-9.442-3.672-13.972-2.402m80.917-.312c-20.229 2.687-18.357 33.075 2.037 33.075 19.657 0 22.667-28.713 3.437-32.788-2.49-.528-3.329-.572-5.474-.287m26.939.861c-4.759 2.392-6.627 7.668-4.39 12.399 1.985 4.199 4.193 5.196 12.265 5.538 6.605.28 7.266.498 7.97 2.631 1.355 4.105-.578 5.721-6.835 5.717-6.744-.005-9.99-1.556-10.275-4.909l-.119-1.394-1.944 2.259c-3.238 3.761-2.482 5.812 3.161 8.572l2.487 1.216h6.481c9.221 0 12.539-2.226 13.225-8.871.752-7.287-3.342-10.71-13.318-11.131l-6.204-.262-.925-1.1c-1.64-1.948-1.048-4.517 1.26-5.473 1.663-.689 10.979-.375 12.444.419 2.361 1.28 3.235 2.433 3.08 4.059l-.143 1.496 2.143-2.217c3.499-3.621 2.833-5.807-2.586-8.487l-2.822-1.396-6.318-.116-6.317-.116-2.32 1.166m73.709-.574c-16.524 3.709-17.44 27.059-1.258 32.061 13.37 4.132 25.57-9.553 20.032-22.472-3.063-7.146-11.183-11.293-18.774-9.589m39.053.348l1.039.894.185 14.88.186 14.879 1.039.894c.911.783 1.404.893 4.002.893h2.963l-1.039-.893-1.039-.894-.186-14.879-.185-14.88-1.039-.894c-.911-.783-1.405-.893-4.002-.893h-2.963l1.039.893m-211.86 5.932c10.561 4.917 7.27 20.434-4.323 20.378-9.437-.045-14.032-10.074-8.084-17.644 2.645-3.366 8.35-4.623 12.407-2.734m41.002.215c9.545 4.841 6.595 19.423-4.103 20.281-11.996.963-16.331-15.275-5.481-20.529 2.538-1.229 6.895-1.116 9.584.248m36.406-.56c5.564 1.652 8.884 8.457 6.808 13.955-2.733 7.238-12.232 9.281-17.584 3.782-7.728-7.94.142-20.895 10.776-17.737m103.362.51c7.12 3.632 8.414 12.418 2.6 17.646-6.699 6.023-17.693 1.273-17.693-7.644 0-7.898 8.36-13.437 15.093-10.002m-107.901 5.654c-2.526 2.677-2.732 3.63-1.287 5.954.634 1.02 1.135 2.341 1.14 3.001l.007 1.179 2.03-2.097c2.388-2.468 2.671-3.963 1.131-5.984-.496-.65-.953-1.822-1.019-2.613l-.12-1.434-1.882 1.994m102.156.044c-2.569 2.602-2.787 3.727-1.2 6.201.958 1.492 1.154 2.111.972 3.064-.224 1.168-.178 1.143 1.992-1.083 2.596-2.662 2.837-3.831 1.258-6.109-.595-.859-.963-1.891-.963-2.705 0-1.612.224-1.68-2.059.632m70.837 6.101c-.857.215-1.282.761-1.29 1.66-.013 1.435-1.731 5.077-3.913 8.295-2.588 3.817-2.581 3.848.789 3.848 1.104 0 2.007.154 2.007.342 0 13.121-4.457 36.096-9.675 49.873-4.381 11.568-15.38 30.712-17.236 29.999-.436-.167-15.298-11.987-15.319-12.182-.074-.705-1.091-33.803-1.096-35.675l-.008-2.644 5.147-6.245c2.831-3.435 5.122-6.265 5.093-6.289-.03-.023-.858-.129-1.84-.235l-1.785-.192-4.65 5.513c-2.557 3.032-4.782 5.513-4.945 5.513-.162 0-1.671-.58-3.354-1.29-1.683-.71-3.097-1.252-3.143-1.204-.046.048-.197.854-.337 1.792l-.253 1.705 3.367 1.248c3.024 1.12 3.367 1.343 3.369 2.183.001.515.253 8.754.561 18.308.307 9.554.506 17.424.443 17.487-1.054 1.054-51.729 37.899-52.136 37.908-.316.006-8.4-2.633-17.963-5.866l-17.388-5.877-.097-15.44-.097-15.44-1.57.113-1.57.114-.185 15.157-.185 15.157-2.778 1.02c-1.528.562-8.694 3.218-15.926 5.904-7.231 2.686-13.493 4.962-13.914 5.057-.563.127-7.897-4.846-27.685-18.775l-26.919-18.948.012-2.471c.023-4.538 1.021-34.184 1.156-34.319.073-.072 2.683-1.058 5.801-2.19 3.117-1.131 5.813-2.147 5.991-2.257.178-.11-.207-.779-.855-1.486l-1.179-1.286-5.149 1.911-5.148 1.91-1.148-1.267a98.556 98.556 0 01-2.501-2.913l-1.352-1.645-1.518.684c-1.876.846-1.922.576.589 3.494a393.116 393.116 0 012.601 3.042c.412.495.401 3.543-.068 18.334-.309 9.756-.563 18.517-.564 19.468l-.002 1.728-7.5 5.583c-4.125 3.07-7.613 5.583-7.751 5.586-.883.013-8.412-11.234-11.898-17.774-8.379-15.719-14.184-38.318-14.748-57.408l-.082-2.777 2.838-.186 2.839-.185-2.058-3.333c-2.895-4.688-4.613-8.167-4.915-9.952-.227-1.337-.394-1.545-1.328-1.652l-1.069-.123.239 10.308c.93 40.144 10.061 64.951 34.974 95.014 32.921 39.729 92.384 56.576 142.758 40.448l9.924-3.178c43.485-13.928 78.044-56.574 86.091-106.236 1.617-9.978 3.379-37.286 2.388-36.994-.08.024-.479.127-.887.228m-65.984 46.386c-4.567.98-7.65 4.534-6.951 8.015.434 2.159 1.45 2.9 5.509 4.017 3.781 1.04 4.278 1.384 4.278 2.959 0 3.175-4.944 4.591-9.167 2.625l-1.944-.905v1.772c0 5.135 13.936 3.431 16.337-1.998 1.555-3.514.299-5.496-4.56-7.194-5.045-1.764-6.146-3.295-4.054-5.636 2.531-2.833 7.462-1.65 7.462 1.79 0 1.752 1.913 2.527 2.355.954.404-1.439 1.086-6.034.92-6.2-.357-.357-8.69-.52-10.185-.199m-22.901.473c-.803 2.342-4.056 20.751-3.692 20.89.241.093 1.403.118 2.582.056l2.145-.113.614-2.222c1.152-4.17 2.323-5.059 6.978-5.304 2.865-.15 3.116-.228 3.434-1.064.589-1.55.474-1.595-4.04-1.595-5.312 0-4.942.388-3.994-4.179l.784-3.784 4.616-.185 4.615-.185.243-1.191c.133-.656.153-1.281.045-1.389-.456-.456-14.17-.202-14.33.265m-78.152 1.135c-2.703.957-3.332 1.32-3.325 1.921.006.504.219.704.671.626 5.367-.923 6.041 7.945.964 12.694-3.679 3.44-7.754 1.62-7.754-3.462 0-3.008 1.575-6.746 4.506-10.692l1.444-1.944h-5.52l-2.054 1.877c-6.681 6.106-6.08 15.751 1.106 17.763 11.618 3.253 25.028-12.769 15.801-18.88-2.047-1.356-1.716-1.362-5.839.097m-40.527 8.68c-1.3 5.245-2.443 9.755-2.54 10.022-.134.367.258.457 1.605.37l1.783-.114 1.691-6.667c2.044-8.056 2.091-8.08 4.632-2.407 1.05 2.342 2.484 5.342 3.188 6.666l1.279 2.408 3.191.106 3.192.106 2.457-9.823c1.351-5.403 2.457-9.91 2.457-10.014 0-.105-.814-.19-1.809-.19h-1.808l-1.379 5.538c-1.627 6.533-2.04 7.31-3.164 5.943-.773-.938-4.874-9.118-5.34-10.648-.239-.785-.45-.833-3.662-.833h-3.409l-2.364 9.537m51.837-8.821c-.547 1.022-.512 1.076.782 1.205 2.137.212 2.133.633-.109 9.724l-2.06 8.355h6.414l2.348-9.537c1.291-5.246 2.425-9.746 2.519-10 .328-.884-9.419-.635-9.894.253m20.268 1.953c-1.071 1.468-4.32 5.927-7.22 9.908l-5.271 7.238 1.702.114c1.641.111 1.773.04 3.605-1.922 2.272-2.432 3.098-2.787 6.71-2.88 2.667-.069 2.77-.105 3.122-1.118l.365-1.046h-2.922c-1.607 0-3.012-.147-3.122-.325-.262-.423 5.792-9.145 6.273-9.038.465.103.793 3.211 1.114 10.566l.255 5.834H212.593l-.008-1.204c-.005-.662-.251-4.787-.548-9.167-.297-4.379-.543-8.338-.548-8.796-.007-.811-.113-.833-3.892-.833h-3.885l-1.949 2.669m16.182 67.161c9.971 3.366 18.162 6.157 18.201 6.201.408.455 5.306 18.591 5.082 18.815-.949.947-13.257 4.296-20.117 5.473-18.291 3.14-42.358 1.307-60.409-4.6l-1.704-.557 3.001-9.483 3.001-9.482 8.889-3.289c4.889-1.81 12.139-4.474 16.111-5.921 3.972-1.447 7.472-2.773 7.778-2.946 1.066-.605 2.157-.291 20.167 5.789" fill="#060606"/><path d="M226.638 25.648c-19.332 31.159-17.914 28.273-17.657 35.958.302 9.003 2.367 12.393 7.637 12.538 4.433.122 5.476-2.379 3.508-8.422-1.26-3.869-1.106-4.314 1.444-4.167 3.502.201 3.946 3.221 3.972 27.02l.014 12.094-3.797.22c-2.088.121-6.546.37-9.907.553l-6.111.333 7.407-.152c4.074-.083 9.574-.249 12.222-.368 2.649-.119 4.705-.103 4.57.034-.134.138-5.218.488-11.296.778-6.078.29-21.135 1.025-33.459 1.633-12.324.608-27.657 1.363-34.074 1.676-6.417.314-20 .983-30.185 1.486-10.185.504-19.005.916-19.599.916-.594 0-1.009.071-.923.157.087.087 5.906.44 12.932.784 14.539.714 13.215.746 54.442-1.324 54.74-2.748 66.091-3.322 73.289-3.705 6.606-.352 7.905-.316 7.386.203-.104.103-10.007.688-22.006 1.298-29.757 1.514-55.203 2.805-73.095 3.707-8.239.416-15.036.81-15.102.877-.067.067 2.591.236 5.907.375 3.315.14 12.612.575 20.658.966 8.046.391 23.796 1.138 35 1.66 23.841 1.111 31.279 1.539 28.047 1.614l-2.323.054.244 8.612c.255 9.022-.213 17.669-1.095 20.227-1.17 3.398-6.473 8.891-10.58 10.959l-2.487 1.253 1.223 8.456c2.094 14.468 4.528 37.398 11.434 107.716 3.012 30.678 6.848 61.838 8.251 67.031.83 3.071 1.906-4.8 1.341-9.809a2989.858 2989.858 0 01-1.815-17.037c-1.63-15.641-11.891-112.946-12.452-118.081-.368-3.365-.315-4.624.173-4.111.081.085.916 7.405 1.856 16.266l3.379 31.852 3.34 31.481 2.968 27.963c.714 6.722 1.709 16.139 2.211 20.926.946 9.017 1.28 11.615 1.469 11.414.257-.273 2.822-16.629 3.677-23.451 1.971-15.714 3.021-26.456 7.424-75.926 4.084-45.895 5.525-60.301 7.066-70.646.296-1.984.538-3.684.538-3.776 0-.092-1.142-.767-2.538-1.501-3.177-1.669-6.233-4.371-8.434-7.455-2.782-3.898-2.822-4.15-3.012-18.976l-.168-13.095 7.353.252c6.959.238 8.141.17 21.984-1.264 19.216-1.99 34.123-3.546 44.711-4.666 4.73-.5 8.966-.91 9.414-.91 3.381 0-3.022-.732-60.051-6.87-8.893-.958-16.485-1.064-21.602-.303l-1.418.211.157-17.908c.194-22.056.18-21.986 4.264-21.724 2.086.134 2.149.665.611 5.185-1.937 5.697-.02 8.421 5.168 7.344 3.963-.823 6.008-4.733 6.399-12.231.352-6.746.264-6.958-9.397-22.764-10.86-17.768-14.202-23.162-14.353-23.162-.067 0-2.836 4.375-6.154 9.722m-88.49 77.73c-5.805.164-10.889.378-11.296.476-.922.221 19.32-.149 27.592-.505l6.112-.262-5.926-.004c-3.26-.002-10.676.131-16.482.295m-11.111 8.853c7.443.424 74.371 1.951 77.037 1.757 1.12-.081.037-.181-2.407-.222-2.445-.04-14.028-.409-25.741-.818-22.379-.782-59.625-1.328-48.889-.717m86.759 2.117a41.46 41.46 0 004.26 0c1.171-.074.213-.134-2.13-.134s-3.301.06-2.13.134M97.6 156.309c.154.248 2.4.013 2.4-.252 0-.085-.573-.116-1.272-.069-.7.048-1.208.192-1.128.321m192.064-.226c.267.268 5.511.347 5.771.087.134-.134-1.145-.244-2.842-.244-1.698 0-3.016.071-2.929.157m-2.508 4.658c0 1.324.067 1.865.149 1.203.082-.662.082-1.745 0-2.407-.082-.662-.149-.12-.149 1.204m-111.433 12.222c0 7.639.05 10.764.11 6.944.06-3.819.06-10.069 0-13.888-.06-3.82-.11-.695-.11 6.944m92.192-9.63c0 2.139.061 3.014.136 1.945.075-1.07.075-2.82 0-3.889-.075-1.07-.136-.195-.136 1.944m55.347 3.527c-.955.912-1.615 1.659-1.466 1.659.15 0 1.008-.75 1.908-1.667 2.108-2.149 1.813-2.143-.442.008m-168.475.823c-.654.739-.689.84-.127.369.424-.355.854-.563.956-.46.103.102.186-.064.186-.37 0-.713.036-.729-1.015.461m-54.989 15.095c0 7.944.049 11.142.109 7.105.06-4.037.06-10.537 0-14.445-.06-3.907-.109-.605-.109 7.34m33.629-10c.004.815.08 1.104.168.644.089-.461.086-1.128-.007-1.482-.093-.354-.165.023-.161.838m10.753.37c.003 1.019.075 1.391.16.828.085-.563.083-1.396-.005-1.851-.088-.456-.158.005-.155 1.023m167.399 2.303c.563.085 1.396.083 1.852-.005.456-.088-.005-.158-1.024-.155-1.018.003-1.391.075-.828.16m-157.418 2.708c-.665.605-1.072 1.1-.903 1.1.169 0 .786-.5 1.372-1.111 1.361-1.421 1.098-1.415-.469.011m146.741.458l-1.458 1.567 1.478-1.296c.812-.712 1.549-1.337 1.636-1.388.087-.051.078-.173-.02-.271-.098-.098-.835.527-1.636 1.388m-172.592 6.29l-1.088 1.204 1.204-1.088c1.122-1.014 1.374-1.319 1.088-1.319-.064 0-.606.541-1.204 1.203m137.246-.717c0 .064.541.605 1.203 1.204l1.204 1.087-1.088-1.203c-1.014-1.122-1.319-1.374-1.319-1.088m22.139 17.934c.871.078 2.204.077 2.963-.003.758-.08.046-.144-1.584-.142-1.63.001-2.25.066-1.379.145m-183.158 2.22c.764.08 2.014.08 2.778 0 .764-.08.139-.145-1.389-.145s-2.153.065-1.389.145m90.556 14.436a5.29 5.29 0 001.666 0c.459-.088.084-.161-.833-.161-.917 0-1.292.073-.833.161m-91.226 14.924c0 6.009.051 8.467.114 5.463a320.93 320.93 0 000-10.926c-.063-3.005-.114-.547-.114 5.463m105.743-3.426l-1.277 1.389 1.389-1.277c1.293-1.188 1.559-1.501 1.277-1.501-.062 0-.687.625-1.389 1.389m-9.322 1.846c.871.078 2.204.077 2.963-.003.758-.08.045-.144-1.584-.142-1.63.001-2.251.066-1.379.145m-3.899 5.919c.56.085 1.477.085 2.037 0 .56-.085.102-.154-1.019-.154-1.12 0-1.578.069-1.018.154m-29.931 1.309l-1.088 1.204 1.204-1.088c1.122-1.014 1.374-1.32 1.088-1.32-.064 0-.606.542-1.204 1.204m171.825 2.685c.001 2.037.064 2.823.139 1.747.075-1.076.074-2.743-.002-3.704-.076-.961-.138-.08-.137 1.957m-151.454.278l-1.088 1.204 1.203-1.088c.662-.599 1.204-1.14 1.204-1.204 0-.286-.305-.034-1.319 1.088m-9.63 5.185l-1.088 1.204 1.204-1.088c1.122-1.014 1.374-1.32 1.088-1.32-.064 0-.606.542-1.204 1.204m-60.829 8.704c.074 7.733.208 6.832.386-2.594.053-2.801-.029-5.092-.182-5.092s-.245 3.459-.204 7.686m-12.296-3.982l-2.037.25 2.13.06c1.213.035 2.129-.099 2.129-.31 0-.203-.041-.343-.092-.31-.051.033-1.01.173-2.13.31m93.808.273c.973.076 2.473.076 3.333-.002.859-.078.063-.14-1.771-.139-1.833.001-2.536.064-1.562.141m111.655-.005c.662.082 1.745.082 2.407 0 .662-.082.121-.149-1.203-.149s-1.866.067-1.204.149m-247.599 1.954c0 .713.076 1.005.169.649a3.05 3.05 0 000-1.297c-.093-.356-.169-.065-.169.648m3.474-.807c-.103.167.304.231.904.143.6-.088 1.091-.225 1.091-.304 0-.282-1.812-.136-1.995.161m272.452.807c0 .713.076 1.005.169.649a3.05 3.05 0 000-1.297c-.093-.356-.169-.065-.169.648m-38.327 13.966a5.296 5.296 0 001.667 0c.458-.089.083-.161-.834-.161-.916 0-1.291.072-.833.161M108.263 285c.002 1.222.071 1.678.154 1.012.082-.666.08-1.666-.004-2.222-.085-.557-.152-.012-.15 1.21m3.329 2.778c0 1.12.07 1.578.155 1.018a8.168 8.168 0 000-2.037c-.085-.56-.155-.102-.155 1.019m180 1.111c0 1.12.07 1.579.155 1.018a8.168 8.168 0 000-2.037c-.085-.56-.155-.101-.155 1.019m-3.333 2.592c0 1.121.07 1.579.154 1.019a8.168 8.168 0 000-2.037c-.084-.56-.154-.102-.154 1.018m-9.648-.115c.357.094.94.094 1.296 0 .357-.093.065-.169-.648-.169-.713 0-1.004.076-.648.169m-72.97 1.597c0 .713.077 1.005.17.648.093-.356.093-.94 0-1.296-.093-.357-.17-.065-.17.648m-97.752 4.815c0 1.12.069 1.578.154 1.018a8.168 8.168 0 000-2.037c-.085-.56-.154-.102-.154 1.019m3.333 2.592c0 1.121.07 1.579.154 1.019a8.168 8.168 0 000-2.037c-.084-.56-.154-.102-.154 1.018m63.573-.463l-1.276 1.389 1.388-1.276c1.293-1.188 1.56-1.501 1.277-1.501-.062 0-.687.625-1.389 1.388m31.217.463c0 .713.076 1.005.169.649a3.05 3.05 0 000-1.297c-.093-.356-.169-.065-.169.648m85.951.741c0 1.12.069 1.579.154 1.019a8.168 8.168 0 000-2.037c-.085-.561-.154-.102-.154 1.018m-29.264 1.296c.002 1.019.074 1.392.159.829s.083-1.397-.005-1.852c-.088-.456-.157.005-.154 1.023m25.931.926c0 1.121.069 1.579.154 1.019a8.168 8.168 0 000-2.037c-.085-.56-.154-.102-.154 1.018m-125.76 1.743a5.296 5.296 0 001.667 0c.458-.088.083-.16-.833-.16-.917 0-1.292.072-.834.16M107.518 310c0 1.12.07 1.579.155 1.019a8.176 8.176 0 000-2.038c-.085-.56-.155-.101-.155 1.019m3.329 2.407c.002 1.019.074 1.392.16.829.085-.563.082-1.397-.006-1.852-.087-.456-.157.005-.154 1.023m181.486.926c0 1.121.07 1.579.155 1.019a8.264 8.264 0 000-2.037c-.085-.56-.155-.102-.155 1.018M289 315.926c0 1.12.069 1.579.154 1.018a8.168 8.168 0 000-2.037c-.085-.56-.154-.101-.154 1.019m-87.38 2.778c.001 2.24.062 3.109.136 1.931.073-1.179.073-3.012-.002-4.074-.074-1.062-.135-.098-.134 2.143m-2.071 71.569c1.077.076 2.743.075 3.704-.001.961-.076.08-.138-1.957-.137-2.037.001-2.823.063-1.747.138" fill="#cb1c54"/><path d="M228.303 10.263A4838.85 4838.85 0 00222.21 20c-.952 1.528-5.033 8.028-9.068 14.444-10.854 17.26-11.72 19.416-11.121 27.707.835 11.557 6.029 18.219 14.204 18.219h2.493l.115 6.27.115 6.269-1.604.199c-.882.109-4.02.288-6.974.398-29.059 1.081-44.024 1.951-51.481 2.99-3.769.526-7.602 1.029-8.519 1.118-1.735.168-6.623.783-16.164 2.033-3.084.405-7.668.981-10.185 1.281-2.517.3-6.493.811-8.836 1.136-2.342.325-5.009.653-5.926.73-.916.076-3.333.383-5.37.682-2.037.299-5.009.66-6.604.803-3.261.29-3.085.082-3.336 3.944l-.185 2.852 1.729.224c.951.123 3.979.547 6.729.942 2.75.395 5.834.811 6.852.924 1.019.114 3.841.492 6.272.841l4.42.633-2.568 1.655c-29.535 19.037-47.626 39.24-57.377 64.076-1.305 3.324-3.556 9.698-3.501 9.915.013.055-.253 1.055-.593 2.222-.34 1.167-.668 2.373-.729 2.678-.06.306-.395 1.639-.744 2.963-.894 3.396-2.387 11.577-2.175 11.92.098.158.014.593-.186.966-.2.374-.448 1.586-.552 2.693-.104 1.108-.482 4.43-.841 7.384-.613 5.055-1.012 32.439-.533 36.667 1.402 12.386 1.829 15.031 3.788 23.483 1.08 4.66 4.457 16.096 5.017 16.993.155.247.315.67.355.939.252 1.659 5.995 15.017 8.071 18.77.676 1.222 1.86 3.389 2.631 4.815 3.768 6.97 9.885 15.93 15.535 22.754 4.054 4.895 12.491 13.472 16.604 16.88.981.812 2.217 1.869 2.747 2.349 1.799 1.63 7.755 5.98 8.188 5.98.237 0 .43.138.43.307 0 .3 4.45 3.282 7.037 4.715.713.395 1.38.82 1.482.944.185.226 3.59 2.118 7.407 4.117 4.491 2.352 15.767 7.135 17.593 7.464.204.036.555.182.781.323.377.236 2.636.948 9.034 2.847 24.227 7.191 59.707 7.875 84.629 1.63 3.738-.936 12.548-3.594 14.26-4.301.509-.21 1.092-.429 1.296-.485.348-.097 1.177-.42 6.029-2.346 15.526-6.163 34.323-19.568 46.48-33.147 4.963-5.543 11.009-13.155 11.009-13.86 0-.203.139-.424.308-.492.49-.197 4.561-6.431 6.973-10.679 3.582-6.305 3.807-6.725 5.183-9.63.723-1.528 1.558-3.236 1.854-3.797 1.258-2.375 5.174-12.125 5.518-13.737.137-.643.368-1.336.513-1.54.835-1.173 5.006-16.111 5.774-20.675.109-.647.523-2.76.919-4.695 1.714-8.36 2.588-18.676 2.587-30.556-.001-12.679-.979-25.755-2.62-35.033-.411-2.324-.828-4.799-.927-5.499-.099-.7-.355-1.485-.57-1.743-.215-.259-.298-.62-.185-.802.386-.624-2.937-12.563-5.329-19.145-2.107-5.798-8.697-18.966-9.7-19.383-.164-.068-.298-.289-.298-.49 0-.62-4.73-7.548-7.037-10.306a272.635 272.635 0 01-2.222-2.694c-2.498-3.088-7.649-8.443-11.667-12.131-2.556-2.348-4.351-3.851-10.74-9.001-.611-.493-3.611-2.686-6.667-4.875-3.056-2.188-5.603-4.022-5.66-4.074-.131-.118 7.547-1.293 11.956-1.829.815-.099 3.148-.451 5.186-.783 2.037-.331 4.428-.672 5.313-.757.886-.085 3.219-.394 5.185-.686 1.967-.293 6.701-.989 10.52-1.547l6.944-1.015v-7.205l-2.314-.374c-1.273-.206-2.565-.391-2.871-.41-.305-.019-3.722-.526-7.592-1.127-3.871-.601-8.287-1.262-9.815-1.469-1.528-.207-6.778-.969-11.667-1.694-4.889-.724-9.601-1.394-10.472-1.489-.871-.094-4.288-.584-7.593-1.088-22.063-3.363-24.694-3.673-28.871-3.399l-3.619.237V80.449l2.87-.142c6.235-.307 10.208-3.735 12.59-10.863 2.059-6.158.782-21.666-1.784-21.666-.188 0-.301-.134-.25-.298.079-.254-5.428-9.354-9.682-15.999a96.102 96.102 0 01-2.061-3.366c-.417-.732-3.007-4.938-5.757-9.348-2.75-4.409-5.169-8.311-5.375-8.67-1.738-3.031-3.66-6.053-4.063-6.388-.386-.32-1.41 1.063-4.852 6.554m7.535 10.385c21.453 34.658 21.084 33.922 20.704 41.204-.391 7.498-2.436 11.408-6.399 12.231-5.188 1.077-7.105-1.647-5.168-7.344 1.538-4.52 1.475-5.051-.611-5.185-4.084-.262-4.07-.332-4.264 21.724l-.157 17.908 1.418-.211c5.117-.761 12.709-.655 21.602.303 57.029 6.138 63.432 6.87 60.051 6.87-.448 0-4.684.41-9.414.91-10.588 1.12-25.495 2.676-44.711 4.666-13.843 1.434-15.025 1.502-21.984 1.264l-7.353-.252.168 13.095c.19 14.826.23 15.078 3.012 18.976 2.201 3.084 5.257 5.786 8.434 7.455 1.396.734 2.538 1.409 2.538 1.501 0 .092-.242 1.792-.538 3.776-1.541 10.345-2.982 24.751-7.066 70.646-4.403 49.47-5.453 60.212-7.424 75.926-.855 6.822-3.42 23.178-3.677 23.451-.189.201-.523-2.397-1.469-11.414-.502-4.787-1.497-14.204-2.211-20.926l-2.968-27.963-3.34-31.481-3.379-31.852c-.94-8.861-1.775-16.181-1.856-16.266-.488-.513-.541.746-.173 4.111.561 5.135 10.822 102.44 12.452 118.081.711 6.824 1.528 14.491 1.815 17.037.565 5.009-.511 12.88-1.341 9.809-1.403-5.193-5.239-36.353-8.251-67.031-6.906-70.318-9.34-93.248-11.434-107.716l-1.223-8.456 2.487-1.253c4.107-2.068 9.41-7.561 10.58-10.959.882-2.558 1.35-11.205 1.095-20.227l-.244-8.612 2.323-.054c3.232-.075-4.206-.503-28.047-1.614a21717.21 21717.21 0 01-35-1.66c-8.046-.391-17.343-.826-20.658-.966-3.316-.139-5.974-.308-5.907-.375.066-.067 6.863-.461 15.102-.877 99.987-5.043 95.685-4.799 95.092-5.392-.109-.109-3.428-.026-7.377.184-7.198.383-18.549.957-73.289 3.705-41.227 2.07-39.903 2.038-54.442 1.324-7.026-.344-12.845-.697-12.932-.784-.086-.086.329-.157.923-.157.594 0 9.414-.412 19.599-.916a86270.15 86270.15 0 0130.185-1.486c6.417-.313 21.75-1.068 34.074-1.676 12.324-.608 27.381-1.343 33.459-1.633 6.078-.29 11.162-.64 11.296-.778.135-.137-1.921-.153-4.57-.034-2.648.119-8.148.285-12.222.368l-7.407.152 6.111-.333c3.361-.183 7.819-.432 9.907-.553l3.797-.22-.014-12.094c-.026-23.799-.47-26.819-3.972-27.02-2.55-.147-2.704.298-1.444 4.167 1.968 6.043.925 8.544-3.508 8.422-5.27-.145-7.335-3.535-7.637-12.538-.257-7.685-1.675-4.799 17.657-35.958 3.318-5.347 6.087-9.722 6.154-9.722.068 0 1.438 2.125 3.046 4.722m-81.394 82.701c-8.272.356-28.514.726-27.592.505.993-.238 20.36-.776 27.778-.771l5.926.004-6.112.262m21.482 9.599c11.713.409 23.296.778 25.741.818 2.444.041 3.527.141 2.407.222-2.666.194-69.594-1.333-77.037-1.757-10.736-.611 26.51-.065 48.889.717m42.13 1.4a41.46 41.46 0 01-4.26 0c-1.171-.074-.213-.134 2.13-.134s3.301.06 2.13.134M104.6 157.009c.526.494.958 1.077.961 1.296.018 1.229.641 1.366 2.005.441 16.258-11.033 34.903 11.801 21.143 25.895-5.382 5.512-17.897 6.759-21.712 2.163-.934-1.126-1.071-.189-1.071 7.319v7.827l1.323 1.247 1.322 1.247-2.341-.002c-6.828-.006-6.39 1.638-6.543-24.524l-.127-21.782-1.146-1.146-1.145-1.146 3.188.134c2.761.115 3.315.253 4.143 1.031m161.823-.322c1.532 1.205 1.844 3.13 1.56 9.609-.562 12.817 3.284 18.669 11.221 17.075 6.363-1.278 7.833-4.387 7.833-16.569v-8.358l1.259-1.259c1.233-1.233 1.324-1.259 4.352-1.251 2.989.008 3.066.03 2.303.648-1.499 1.214-1.618 1.966-1.618 10.227 0 16.267-4.428 22.635-15.74 22.635-11.362 0-15.728-6.28-15.754-22.665-.014-8.623-.152-9.378-1.88-10.336-.791-.439-.545-.492 2.306-.504 2.67-.011 3.348.111 4.158.748m-108.321-.029c9.581 1.817 15.854 12.54 12.663 21.645-5.775 16.479-29.363 14.516-32.313-2.689-1.915-11.166 8.376-21.094 19.65-18.956m22.675.789c.591.632 1.075 1.477 1.075 1.877 0 .71.024.709 1.092-.051 5.05-3.596 12.423-3.957 17.75-.868 5.806 3.366 7.076 7.343 3.073 9.618a237.24 237.24 0 00-3.008 1.741l-1.278.759.63-.9c3.134-4.475-5.523-9.134-11.778-6.339-5.328 2.382-6.246 4.61-6.48 15.731l-.186 8.829-1.04.893c-.908.78-1.407.893-3.964.893h-2.926l.909-.909.91-.91v-29.349l-1.083-1.083-1.083-1.083h3.157c3.053 0 3.191.038 4.23 1.151m140.008.01c5.8 2.72 6.674 5.354 3.058 9.22-2.036 2.177-2.259 2.242-2.068.597.39-3.334-2.815-4.858-10.23-4.863l-5.307-.004-1.122 1.255c-1.376 1.538-1.271 3.431.263 4.764.898.78 1.294.833 6.241.833 9.899 0 13.944 3.057 13.932 10.529-.012 7.145-4.052 9.981-13.93 9.776-12.815-.264-17.11-5.468-9.84-11.921.777-.69.778-.689.562.641-.549 3.379 2.624 5.185 9.424 5.364 7.269.191 10.056-2.766 6.543-6.94l-.885-1.053-6.213-.27c-6.916-.301-8.018-.594-10.239-2.718-4.75-4.544-3.422-12.689 2.529-15.51 2.884-1.366 14.144-1.171 17.282.3m-207.562 5.277c-11.422 4.257-8.684 20.769 3.444 20.769 13.858 0 14.395-20.451.555-21.16-1.639-.084-3.11.06-3.999.391m39.343-.019c-11.708 3.254-10.568 19.442 1.469 20.868 7.535.892 13.734-7.755 10.547-14.713-2.178-4.756-7.409-7.436-12.016-6.155m3.21 5.526c-.026 1.183.218 1.905.983 2.905 1.648 2.154 1.353 3.395-1.51 6.354-1.998 2.065-2.213 2.133-1.993.639.115-.783-.123-1.553-.791-2.562-1.907-2.882-1.731-3.784 1.361-6.966 1.039-1.069 1.911-1.944 1.938-1.944.026 0 .032.708.012 1.574m138.35 35.03l1.059 1.185v22.42c0 24.037.013 24.207 1.848 24.789 1.518.482.665.74-2.125.641-6.547-.23-6.016 1.976-6.018-25.016-.001-23.424.027-23.036-1.795-24.634l-.984-.862 3.478.145c3.367.141 3.511.184 4.537 1.332m15.035 5.475c.455.287.926.979 1.047 1.536.618 2.841 1.139 3.986 2.014 4.427 1.082.544 1.081.544-2.778.479-3.627-.061-4.766-.858-5.181-3.622-.176-1.174-.578-2.002-1.299-2.676l-1.045-.976 3.207.155c1.866.09 3.553.373 4.035.677m-206.383 11.298l1.111 1.083.022 14.344c.022 14.999.094 15.703 1.644 16.196 1.881.596.636 1.027-2.312.8-3.452-.266-4.704-.92-5.256-2.746l-.346-1.144-1.536 1.057c-8.031 5.525-19.63 2.196-24.141-6.93-7.226-14.618 10.314-30.395 23.821-21.427 1.096.728 1.993 1.144 1.993.925 0-.716-.817-2.001-1.772-2.787l-.935-.77 3.298.159c3.041.146 3.384.242 4.409 1.24m12.532-.472c.508.478 1.024 1.27 1.147 1.76l.224.891 1.406-.93c16.454-10.889 34.938 11.475 21.3 25.772-5.438 5.702-17.751 7.028-21.649 2.331-.934-1.125-1.071-.189-1.071 7.299v7.806l1.127 1.128c1.383 1.382 1.561 1.301-2.322 1.056-2.708-.171-3.367-.34-4.074-1.047l-.842-.843-.186-22.058-.185-22.058-1.253-1.119-1.253-1.119 3.354.131c2.905.114 3.476.248 4.277 1m90.616-.23c7.002 2.093 8.729 5.632 4.84 9.917l-2.186 2.408.195-1.515c.468-3.627-2.534-5.143-10.193-5.148l-5.307-.004-1.122 1.255c-1.376 1.537-1.271 3.431.263 4.764.898.78 1.294.833 6.241.833 9.718 0 13.943 3.135 13.932 10.337-.01 7.034-4.193 10.227-13.33 10.173-12.292-.072-17.507-5.219-11.354-11.207l1.667-1.623-.205 1.533c-.74 5.513 15.394 7.842 16.887 2.437 1.133-4.105-.443-5.192-7.91-5.456-7.026-.25-8.396-.661-10.695-3.213-5.14-5.706-2.145-14.469 5.441-15.918 1.991-.381 11.153-.075 12.836.427m103.426.582l1.018.955v13.981c0 14.816.071 15.494 1.771 16.897l1.007.832-1.707.002c-3.225.003-5.103-.429-6.07-1.396l-.927-.926V236.27c0-14.72-.08-15.521-1.694-16.853l-.931-.767 3.257.16c2.872.141 3.378.273 4.276 1.114m-139.699-.449c9.852 2.241 15.431 13.767 11.122 22.976-7.076 15.121-29.215 12.096-31.608-4.32-1.738-11.928 8.615-21.356 20.486-18.656m101.998-.019c12.742 3.319 17.02 18.321 7.926 27.792-8.271 8.613-23.16 5.681-27.399-5.396-4.817-12.591 6.62-25.744 19.473-22.396M83.67 225.39c-7.153 2.204-9.564 11.754-4.387 17.371 6.42 6.964 18.223 2.43 18.272-7.02.039-7.47-6.767-12.544-13.885-10.351m40.456-.15c-8.043 2.314-10.112 13.597-3.429 18.699 9.172 7.003 21.243-3.017 16.158-13.411-2.134-4.361-7.789-6.71-12.729-5.288m39.53-.043c-6.727 1.114-10.782 9.049-7.659 14.988 5.25 9.984 20.148 6.548 20.077-4.629-.043-6.659-5.793-11.456-12.418-10.359m102.02.001c-8.019 1.606-11.335 11.504-5.826 17.394 6.669 7.13 18.344 2.725 18.344-6.921 0-6.741-6.017-11.775-12.518-10.473m-99.267 5.36c-.163 1.007 0 1.61.727 2.685 1.917 2.834 1.558 4.5-1.526 7.082l-1.901 1.591.227-1.134c.178-.888-.033-1.54-.973-3.004-1.616-2.518-1.383-3.589 1.386-6.387 2.493-2.519 2.323-2.451 2.06-.833m102.179.009c-.113.966.1 1.689.815 2.77 1.64 2.478 1.379 3.872-1.204 6.428l-2.172 2.149v-1.422c0-.925-.341-1.924-.976-2.86-1.864-2.747-1.287-4.06 3.671-8.357.01-.009-.051.573-.134 1.292m69.646 15.022c-.56 44.505-13.815 77.718-42.488 106.467-13.777 13.814-29.04 23.309-46.302 28.806-13.635 4.342-16.368 5.163-20.492 6.158-46.35 11.181-103.439-7.798-132.523-44.057-3.222-4.018-10.151-13.22-12.473-16.567-14.576-21.007-22.085-48.38-22.1-80.563l-.004-7.685h.937c.516 0 .995.208 1.064.463.974 3.575 1.81 5.429 4.308 9.558 1.622 2.682 2.95 4.917 2.95 4.967 0 .049-1.186.189-2.636.311-3.354.281-3.117-.325-2.599 6.666 1.978 26.646 10.089 50.049 23.518 67.852 1.382 1.832 2.627 3.331 2.766 3.331.706 0 14.893-10.831 15.038-11.481.091-.408.396-9.241.677-19.63l.511-18.889-2.525-2.963c-2.976-3.492-2.883-3.127-1.059-4.168l1.463-.836 2.482 2.965c1.365 1.631 2.503 2.965 2.529 2.965.025 0 2.357-.841 5.182-1.87l5.136-1.87 1.24 1.202c1.672 1.621 1.97 1.38-4.723 3.825-3.279 1.198-6.026 2.357-6.104 2.575-.294.83-1.255 36.296-.99 36.53.154.136 11.863 8.383 26.02 18.327 14.157 9.945 26.168 18.393 26.689 18.773.947.691.958.689 7.037-1.519 7.612-2.765 25.003-9.181 26.367-9.728l1.018-.409v-30.28h3.637l-.208 15.305-.208 15.304 6.63 2.253a9003.077 9003.077 0 0017.927 6.056l11.296 3.803 25.371-18.619c13.953-10.24 25.638-18.894 25.966-19.23.577-.593.441-10.068-.489-34.121l-.107-2.767-3.148-1.161-3.148-1.16.022-1.713c.031-2.324.03-2.324 3.648-.826 1.755.726 3.231 1.32 3.281 1.32.05 0 2.173-2.496 4.718-5.548l4.627-5.548 1.944-.007c2.479-.01 2.516-.14-1.252 4.44a1647.123 1647.123 0 00-5.193 6.344l-1.997 2.459.563 17.541c.31 9.648.563 18.219.564 19.048l.001 1.506 7.819 6.245 7.819 6.245.703-.9c14.758-18.87 24.418-48.036 25.569-77.195l.087-2.222-2.48-.11c-2.964-.131-2.926.066-.627-3.261 2.21-3.196 3.927-6.709 4.269-8.731.238-1.409 1.201-2.283 2.211-2.007.236.065.334 2.974.271 8.031m-56.541 38.573c.145.145-.432 3.42-1.143 6.486-.422 1.816-2.402 1.116-2.402-.85 0-3.322-3.943-4.756-6.936-2.521-2.775 2.071-1.823 4.026 2.751 5.644 4.073 1.441 4.183 1.505 5.236 3.04 3.16 4.603-2.996 9.996-10.846 9.502-4.547-.286-5.76-.925-5.76-3.037 0-1.821.383-2.079 1.71-1.15 3.346 2.343 9.771 1.033 9.771-1.992 0-1.496-1.022-2.191-4.687-3.192-7.891-2.153-6.921-9.759 1.539-12.061 1.118-.304 10.445-.191 10.767.131m-18.73.236c0 .178-.104.845-.232 1.482l-.231 1.157h-4.353c-3.043 0-4.461.139-4.714.463-.33.424-1.582 6.14-1.581 7.222 0 .346 1.166.463 4.595.463h4.595l-.398 1.296c-.398 1.296-.399 1.297-2.651 1.299-4.772.004-6.547 1.146-7.799 5.015l-.833 2.575-2.691.11c-2.435.099-2.675.046-2.521-.555.093-.366 1.065-5.207 2.16-10.758l1.991-10.093h7.331c4.033 0 7.332.146 7.332.324m-87.257.886c6.25 3.574 3.422 13.395-5.16 17.919-12.924 6.813-22.267-6.201-11.693-16.287l2.203-2.101h5.648l-1.674 2.345c-6.193 8.68-4.922 18.491 1.933 14.91 5.759-3.009 6.771-13.551 1.3-13.551-3.151 0-2.268-1.56 1.644-2.903 3.951-1.357 4.002-1.36 5.799-.332m-34.926 3.975c2.004 4.646 4.233 8.098 4.838 7.493.202-.201.862-2.345 1.468-4.763 2.022-8.069 1.565-7.174 3.669-7.174 1.015 0 1.838.171 1.838.382 0 .545-4.401 18.183-4.743 19.009-.256.617-6.044 1.101-6.541.547-.444-.495-3.747-7.084-5.034-10.042-.867-1.993-1.752-3.564-1.966-3.493-.215.072-1.155 3.196-2.09 6.943l-1.7 6.813-1.74.013c-.958.007-1.742-.125-1.742-.295 0-.169 1.083-4.626 2.407-9.905 1.325-5.279 2.408-9.688 2.408-9.798 0-.111 1.595-.153 3.545-.095l3.545.106 1.838 4.259m50.701-4.287c0 .4-4.495 18.628-4.743 19.23-.427 1.041-6.591 1.02-6.479-.022.041-.379.916-4.127 1.945-8.33 2.036-8.315 2.042-8.678.145-9.033-.919-.173-1.224-.394-1.075-.782.114-.297.207-.693.207-.88 0-.19 2.211-.34 5-.34 2.75 0 5 .07 5 .157m20.153 1.787c.169 1.59.644 9.192 1.045 16.702l.076 1.424-3.137.001-3.137.001-.247-2.351c-.136-1.293-.362-4.976-.502-8.184-.311-7.122-.29-7.114-4.048-1.611-3.336 4.883-3.324 5.037.375 5.037 1.516 0 2.756.072 2.756.161 0 1.531-.782 2.061-3.047 2.063-3.999.004-5.624.784-7.97 3.83-.838 1.087-4.713 1.762-4.456.776.056-.216 3.269-4.754 7.139-10.085l7.038-9.691 3.954-.009 3.955-.008.206 1.944m-15.153 62.702c-1.222.479-8.638 3.237-16.481 6.127-7.843 2.89-14.453 5.44-14.69 5.667-.364.348-6.051 17.692-6.051 18.455 0 .702 11.919 3.659 20.556 5.1 20.117 3.357 38.256 2.227 56.666-3.53 2.241-.701 4.274-1.404 4.517-1.564.412-.27-4.335-17.937-5.02-18.68-.297-.323-36.387-12.531-36.902-12.483-.205.019-1.372.428-2.595.908" fill="#fbfbfb"/></g></svg>