<svg xmlns="http://www.w3.org/2000/svg" width="400" height="110.938"><g fill-rule="evenodd"><path d="M32.612 8.277c-.061.061-.112.437-.112.834 0 .659-.036.722-.417.722-.413 0-.416.013-.416 1.482 0 1.442-.012 1.485-.417 1.587l-.417.104v3.081c0 2.887-.019 3.08-.309 3.08-.364 0-.524 1.326-.524 4.339 0 1.648-.026 1.795-.333 1.876-.319.083-.334.227-.334 3.174 0 3.075-.001 3.088-.375 3.141-.369.052-.375.096-.419 2.72-.036 2.196-.09 2.701-.306 2.862-.411.307-.558 1.287-.562 3.743-.004 2.131-.025 2.278-.338 2.36-.319.083-.333.227-.333 3.507 0 3.421 0 3.421-.375 3.474-.369.053-.376.096-.421 2.752-.041 2.456-.073 2.707-.354 2.796-.425.135-.513.835-.515 4.131-.002 2.68-.015 2.791-.335 2.791-.323 0-.333.111-.333 3.584 0 3.444-.013 3.583-.326 3.583-.683 0-.731 3.54-.049 3.637.375.053.375.053.375 3.474 0 3.259.015 3.424.327 3.506.291.076.333.257.375 1.609.045 1.437.069 1.527.423 1.577.347.05.375.138.375 1.209 0 1.121.012 1.155.416 1.155.389 0 .417.055.417.833 0 .714.046.833.324.833.261 0 .333.136.375.709.042.583.116.717.417.76.309.044.374.175.417.833.043.665.106.79.425.835.317.045.375.156.375.712 0 .55.069.686.417.818.255.097.417.289.417.496 0 .226.109.337.333.337.222 0 .333.111.333.334 0 .244.111.333.417.333.333 0 .417.083.417.417 0 .333.083.416.416.416.334 0 .417.084.417.417 0 .306.089.417.333.417.223 0 .334.111.334.333 0 .244.111.333.416.333.334 0 .417.084.417.417 0 .333.083.417.417.417.333 0 .416.083.416.416 0 .306.089.417.334.417.222 0 .333.111.333.333 0 .289.111.334.833.334.778 0 .834.027.834.416 0 .334.083.417.416.417.301 0 .417.09.417.323 0 .254.157.347.735.433.525.079.758.201.818.427.07.271.242.317 1.181.317 1.061 0 1.099.014 1.099.417 0 .407.028.416 1.25.416.934 0 1.25.057 1.25.224 0 .601.339.61 24.508.61H92.5v-.417c0-.333.083-.417.417-.417h.416v-6.976l.375-.054c.369-.052.376-.095.421-2.761.043-2.512.068-2.709.356-2.709.448 0 .51-.423.513-3.474.002-2.582.019-2.728.335-2.811.309-.08.334-.227.334-1.984 0-1.786-.02-1.897-.334-1.897-.222 0-.333-.111-.333-.334 0-.331-.111-.333-19.155-.333H56.69l-.053-.375c-.049-.34-.157-.38-1.168-.424-1.004-.044-1.12-.085-1.167-.417a.47.47 0 00-.41-.418c-.197-.028-.396-.197-.443-.375-.066-.255-.231-.324-.767-.324-.616 0-.682-.04-.682-.417 0-.333-.083-.417-.417-.417-.349 0-.416-.078-.416-.486 0-.703-.159-1.014-.518-1.014-.226 0-.316-.119-.316-.416 0-.306-.089-.417-.333-.417-.304 0-.333-.111-.333-1.261 0-1.322-.181-1.906-.59-1.906-.403 0-.336-1.507.072-1.613.445-.117.518-.678.518-3.98 0-2.738.017-2.89.333-2.99.315-.1.333-.252.333-2.722 0-2.553.009-2.62.375-2.78.367-.161.376-.232.421-3.206.042-2.844.065-3.042.357-3.042.469 0 .514-.289.514-3.328 0-2.66.017-2.804.333-2.887.319-.083.334-.227.334-3.174 0-3.075.001-3.088.375-3.141.371-.053.375-.085.42-3.057.044-2.926.055-3.008.417-3.167.361-.158.372-.243.416-3.111.043-2.77.066-2.955.375-3.053.315-.1.33-.264.33-3.593V17.5h.833v-5.28l.417-.19c.641-.292.651-3.03.012-3.03-.294 0-.42-.104-.459-.375l-.053-.375-11.513-.043c-6.332-.023-11.563.008-11.625.07m82.821.031c-.048.077-.137.452-.198.833-.084.526-.186.692-.423.692-.287 0-.312.155-.312 1.906 0 1.723-.03 1.915-.315 2.005-.457.145-.514.536-.516 3.553-.002 2.198-.048 2.731-.241 2.805-.44.169-.595 1.099-.595 3.57 0 2.316-.019 2.461-.333 2.543-.32.084-.333.227-.333 3.508 0 3.42 0 3.42-.375 3.474-.369.052-.376.096-.421 2.743-.042 2.441-.074 2.697-.35 2.769-.428.112-.521.775-.521 3.709 0 2.403-.018 2.548-.333 2.63-.318.083-.334.228-.334 3.091 0 2.989-.002 3.005-.375 3.058-.373.053-.375.068-.42 3.5-.044 3.423-.047 3.448-.416 3.5-.365.052-.373.103-.418 2.743-.043 2.519-.066 2.695-.375 2.776-.313.082-.329.239-.329 3.185 0 2.93-.017 3.099-.316 3.099-.473 0-.517.284-.517 3.335 0 2.786-.003 2.809-.375 2.862-.375.053-.375.055-.42 3.845-.038 3.246-.081 3.791-.296 3.791-.42 0-.576.763-.576 2.825 0 1.83-.024 1.976-.333 2.057-.318.083-.334.227-.334 3.103 0 2.847-.017 3.015-.315 3.015-.485 0-.518.266-.518 4.181v3.653h24.167v-.822c0-.725.044-.828.375-.875.373-.053.375-.068.42-3.501.044-3.423.047-3.447.416-3.5.365-.051.373-.103.418-2.742.043-2.519.066-2.696.375-2.776.313-.082.329-.239.329-3.185 0-2.666.036-3.099.254-3.099.448 0 .579-.794.579-3.5 0-2.615.004-2.644.375-2.697.374-.053.376-.068.42-3.501.045-3.423.048-3.447.417-3.5.365-.051.373-.102.417-2.761.044-2.57.063-2.708.375-2.708.316 0 .33-.124.33-3.083 0-2.597.038-3.084.244-3.084.477 0 .589-.648.589-3.405 0-2.314.04-2.761.244-2.761.48 0 .589-.649.589-3.489 0-2.622.026-2.871.334-3.178.306-.306.333-.556.333-3.057V38.72l.417-.19.416-.19v-5.173h14.5c14.067 0 14.5.009 14.5.312 0 .345.572.521 1.688.521.535 0 .646.057.646.333 0 .284.111.334.75.334.689 0 .75.034.75.416 0 .334.083.417.416.417.334 0 .417.083.417.417 0 .305.089.416.333.416.223 0 .334.111.334.334 0 .244.111.333.416.333.334 0 .417.083.417.417 0 .333.083.416.417.416.404 0 .416.034.416 1.167 0 1.056.032 1.167.334 1.167.319 0 .333.111.333 2.73 0 2.591-.017 2.735-.333 2.818-.319.083-.334.227-.334 3.174 0 3.075-.001 3.088-.375 3.141-.371.053-.375.084-.42 3.084-.045 2.991-.05 3.031-.417 3.083-.368.053-.371.078-.416 3.511-.043 3.321-.058 3.459-.375 3.459-.315 0-.33.12-.33 2.738 0 2.713-.003 2.739-.375 2.792-.371.052-.375.083-.42 3.101-.041 2.711-.078 3.06-.334 3.155-.498.184-.533.397-.535 3.339-.003 2.688-.023 2.875-.312 2.875-.376 0-.521 1.169-.523 4.202-.001 1.781-.03 1.968-.334 2.131-.315.168-.334.349-.334 3.161 0 2.966-.002 2.983-.375 3.036-.373.053-.375.067-.42 3.511l-.045 3.459h24.174v-.834c0-.777.027-.833.416-.833H191v-3.083c0-2.914.017-3.084.316-3.084.473 0 .517-.284.517-3.335 0-2.662.018-2.814.334-2.915.315-.1.333-.252.333-2.765v-2.66l.417-.158.416-.158V76.203l.417-.105.417-.104v-2.679c0-2.484.023-2.686.314-2.762.423-.11.515-.778.517-3.761.002-2.235.032-2.489.335-2.792.306-.306.334-.556.334-3.044 0-2.651.008-2.714.375-2.875.368-.162.375-.221.42-3.501.044-3.272.052-3.34.416-3.5.359-.158.374-.253.418-2.815.04-2.284.086-2.68.333-2.861.489-.357.53-11.227.044-11.354-.314-.082-.34-.218-.34-1.799 0-2.111-.12-2.77-.525-2.876-.262-.068-.308-.252-.308-1.228 0-1.112-.013-1.147-.417-1.147-.404 0-.416-.033-.416-1.167 0-1.044-.034-1.166-.325-1.166-.268 0-.332-.136-.375-.792-.043-.676-.105-.799-.425-.845-.325-.046-.375-.153-.375-.792 0-.676-.035-.738-.417-.738s-.417-.061-.417-.747c0-.657-.049-.759-.416-.851-.261-.066-.417-.223-.417-.42 0-.204-.117-.315-.333-.315-.278 0-.334-.111-.334-.671 0-.562-.067-.697-.416-.829-.255-.097-.417-.29-.417-.496 0-.249-.109-.338-.417-.338-.333 0-.416-.083-.416-.416 0-.301-.09-.417-.322-.417-.207 0-.341-.134-.375-.375a.472.472 0 00-.428-.428c-.241-.034-.375-.168-.375-.375 0-.232-.116-.322-.417-.322-.333 0-.417-.083-.417-.417 0-.382-.061-.416-.75-.416-.689 0-.75-.034-.75-.417 0-.333-.083-.417-.416-.417-.306 0-.417-.089-.417-.333 0-.284-.111-.333-.75-.333-.689 0-.75-.034-.75-.417 0-.382-.062-.417-.738-.417-.639 0-.746-.05-.792-.375-.045-.318-.17-.382-.828-.425-.603-.039-.793-.122-.859-.375-.077-.292-.238-.325-1.601-.325-1.505 0-1.515-.002-1.515-.416V9h-2.334C173.155 9 173 8.979 173 8.684c0-.173-.119-.361-.264-.416-.411-.158-57.206-.119-57.303.04m126.033-.028c-.156.041-.33.22-.386.397-.095.299-.275.323-2.425.323h-2.322v.417c0 .414-.01.416-1.515.416-1.376 0-1.524.031-1.603.334-.073.28-.227.333-.971.333-1.098 0-1.411.115-1.411.518 0 .263-.125.315-.75.315-.689 0-.75.034-.75.417 0 .382-.062.417-.738.417-.582 0-.761.068-.841.32-.067.213-.318.356-.754.43-.436.073-.687.216-.754.43-.064.2-.254.32-.507.32-.322 0-.406.086-.406.416 0 .374-.067.417-.655.417-.502 0-.68.076-.758.323-.056.177-.268.346-.47.375a.472.472 0 00-.42.427c-.034.241-.168.375-.375.375-.232 0-.322.116-.322.417 0 .333-.083.416-.416.416-.301 0-.417.09-.417.322 0 .207-.134.341-.375.375a.472.472 0 00-.428.428c-.034.241-.168.375-.375.375-.232 0-.322.116-.322.417 0 .333-.083.417-.417.417-.3 0-.416.089-.416.321 0 .207-.134.341-.375.375a.476.476 0 00-.429.429c-.033.232-.168.375-.357.375-.184 0-.344.163-.408.416-.067.269-.221.417-.435.417-.226 0-.33.112-.33.356 0 .196-.187.53-.416.742-.229.212-.417.572-.417.799 0 .302-.101.428-.375.466a.474.474 0 00-.428.429c-.034.241-.168.375-.375.375-.27 0-.322.12-.322.75 0 .689-.034.75-.417.75-.381 0-.416.062-.416.738 0 .639-.051.746-.375.792-.32.045-.383.169-.426.845-.042.655-.107.791-.375.791-.273 0-.324.118-.324.75 0 .689-.034.75-.417.75-.38 0-.417.063-.417.724 0 .609-.065.753-.416.913-.377.171-.417.285-.417 1.182 0 .846-.049 1.008-.333 1.098-.291.092-.334.252-.334 1.261 0 1.122-.012 1.156-.416 1.156-.413 0-.417.013-.417 1.46 0 1.355-.027 1.473-.375 1.625-.358.157-.377.265-.421 2.355-.043 2.019-.072 2.197-.375 2.276-.313.081-.329.241-.329 3.185v3.099h-.833v2.75c0 2.582-.019 2.75-.314 2.75-.46 0-.515.408-.517 3.875-.003 2.932-.022 3.125-.312 3.125-.361 0-.521 1.161-.523 3.807-.001 1.303-.055 1.626-.334 1.981-.307.389-.334.676-.334 3.556 0 3.122-.001 3.133-.375 3.186-.371.052-.375.083-.42 3.095-.042 2.838-.066 3.041-.356 3.041-.449 0-.511.422-.513 3.542-.002 2.68-.016 2.792-.336 2.792-.319 0-.333.111-.333 2.659 0 2.614-.007 2.666-.417 3.076l-.416.416v7.849h24.166v-1.584c0-1.577.002-1.583.417-1.583h.417v-2.75c0-2.582.019-2.75.314-2.75.452 0 .514-.416.517-3.447.002-2.55.02-2.703.335-2.803.318-.101.334-.252.334-3.178V81.5h.833v-3.044c0-2.996.006-3.046.375-3.208.367-.161.376-.232.42-3.206.044-2.904.061-3.042.375-3.042.317 0 .33-.123.33-3.044 0-2.996.006-3.046.375-3.208.366-.161.376-.236.42-3.098l.046-2.933.413-.188.413-.189V48.857l.375-.054c.365-.052.376-.111.421-2.362.043-2.136.071-2.314.375-2.394.296-.077.329-.233.329-1.566 0-1.469.003-1.481.416-1.481.389 0 .417-.056.417-.833 0-.778.028-.834.417-.834.305 0 .416-.089.416-.333 0-.222.111-.333.334-.333.242 0 .333-.111.333-.405 0-.294.104-.42.375-.459a.472.472 0 00.428-.428c.034-.236.169-.375.364-.375.171 0 .358-.15.416-.333.059-.184.251-.334.428-.334.233 0 .322-.116.322-.416 0-.334.084-.417.417-.417.333 0 .417-.083.417-.417 0-.382.061-.416.75-.416.639 0 .75-.05.75-.334 0-.295.111-.333.979-.333 1.376 0 1.994-.152 2.11-.52.097-.304.633-.313 18.422-.313H280v-.417c0-.333.083-.417.417-.417.404 0 .416-.033.416-1.166 0-1.134.012-1.167.417-1.167h.417v-7.833h.833v-1.94c0-1.656.043-1.971.292-2.153.254-.186.298-.58.344-3.084.05-2.707.074-2.888.413-3.163.604-.489.657-2.827.064-2.827-.312 0-.437-.099-.476-.375l-.054-.375-20.666-.023c-11.367-.012-20.795.011-20.951.053m75.479-.003c-.061.062-.112.247-.112.412 0 .27-.2.305-1.958.347-1.888.046-1.96.061-2.012.422-.05.357-.125.375-1.541.375-1.364 0-1.489.028-1.489.325 0 .268-.136.332-.791.375-.676.043-.8.105-.845.425-.046.325-.153.375-.792.375-.676 0-.738.035-.738.417 0 .381-.063.417-.731.417-.59 0-.747.064-.818.333-.062.24-.227.333-.589.333-.712 0-1.029.156-1.029.507 0 .188-.143.324-.375.357a.472.472 0 00-.428.428c-.034.241-.168.375-.375.375-.208 0-.322.115-.322.324 0 .261-.136.333-.708.375-.547.039-.746.136-.873.426-.091.206-.297.375-.459.375-.202 0-.293.13-.293.417 0 .333-.084.416-.417.416-.298 0-.417.09-.417.316 0 .197-.156.354-.416.419-.269.068-.417.222-.417.435 0 .219-.112.33-.333.33-.26 0-.334.111-.334.5 0 .328-.084.5-.244.5-.289 0-.589.505-.589.989 0 .257-.107.345-.417.345-.333 0-.416.083-.416.416 0 .306-.089.417-.334.417-.284 0-.333.111-.333.75 0 .689-.034.75-.417.75-.389 0-.416.056-.416.833 0 .778-.028.834-.417.834-.383 0-.417.061-.417.75 0 .624-.052.75-.315.75-.356 0-.518.31-.518.994 0 .327-.1.493-.333.554-.502.131-.52 4.618-.018 4.618.197 0 .354.156.419.417.068.269.222.417.435.417.254 0 .33.112.33.486 0 .703.159 1.014.518 1.014.226 0 .316.119.316.416 0 .334.083.417.416.417.334 0 .417.083.417.417 0 .301.09.416.324.416.261 0 .333.136.375.709.042.589.114.717.426.761.271.039.375.165.375.459 0 .321.087.405.417.405.382 0 .416.061.416.75 0 .639.05.75.334.75.264 0 .334.112.336.541.002.613.128.856.515.998.155.057.313.378.374.76.075.469.203.687.44.749.274.071.335.226.335.853 0 .647.05.765.323.765.262 0 .334.136.375.709.04.547.137.745.427.873.326.143.375.288.375 1.129 0 .875.038.979.416 1.123.36.136.417.261.417.912 0 .643.049.754.333.754.306 0 .334.111.334 1.32 0 1.533.087 1.847.512 1.847.281 0 .314.175.357 1.875.045 1.801.062 1.877.422 1.928.374.053.375.066.375 3.129v3.076l.417.159c.229.087.417.272.417.412 0 .19.189.254.75.254.689 0 .75.034.75.417 0 .382.062.417.738.417.639 0 .746.05.792.375.045.32.169.382.845.425.655.043.791.107.791.375 0 .297.125.325 1.489.325 1.416 0 1.491.018 1.541.375.052.361.124.376 2.012.422 1.605.038 1.958.092 1.958.295 0 .543.885.574 16.428.574 15.461 0 15.572.003 15.572.334 0 .244.111.333.417.333.333 0 .417.083.417.417 0 .3.089.416.321.416.207 0 .341.134.375.375a.476.476 0 00.429.429c.324.046.375.152.375.791 0 .677.035.739.416.739.389 0 .417.055.417.833 0 .778-.028.833-.417.833-.379 0-.416.064-.416.71 0 .524-.086.763-.325.913-.179.112-.374.462-.433.778-.096.511-.18.588-.752.684-.427.072-.677.216-.745.429-.08.252-.258.32-.84.32-.677 0-.739.035-.739.416v.417h-44.666v.349a.443.443 0 01-.334.436c-.289.076-.333.227-.333 1.148 0 .992-.027 1.067-.417 1.165-.389.098-.416.174-.416 1.152s-.028 1.054-.417 1.152c-.367.092-.417.194-.417.851 0 .636-.049.747-.333.747-.283 0-.333.111-.333.738 0 .639-.051.746-.375.792-.32.046-.383.169-.426.845-.046.715-.091.792-.458.792-.372 0-.408.065-.408.75 0 .639-.049.75-.333.75-.284 0-.334.111-.334.75 0 .689-.034.75-.416.75-.334 0-.417.083-.417.416 0 .334-.083.417-.417.417-.382 0-.416.061-.416.75 0 .639-.05.75-.334.75-.244 0-.333.111-.333.417 0 .333-.083.416-.417.416-.333 0-.416.084-.416.417 0 .333-.084.417-.417.417-.312 0-.417.088-.417.349a.442.442 0 01-.316.431c-.227.06-.348.293-.427.818-.087.578-.179.735-.434.735-.208 0-.323.115-.323.322 0 .207-.134.341-.375.375a.472.472 0 00-.427.418.47.47 0 01-.416.416.472.472 0 00-.418.427c-.034.241-.168.375-.375.375-.205 0-.322.115-.322.316 0 .197-.156.354-.417.419-.367.093-.416.194-.416.852v.747h31.908c32.65 0 32.758-.002 32.758-.61 0-.167.317-.224 1.25-.224 1.223 0 1.25-.009 1.25-.416 0-.405.034-.417 1.167-.417 1.045 0 1.167-.034 1.167-.324 0-.269.136-.333.791-.375.676-.044.8-.106.845-.426.046-.324.153-.375.792-.375.676 0 .738-.035.738-.417s.061-.416.75-.416c.639 0 .75-.05.75-.334 0-.244.111-.333.417-.333.333 0 .417-.083.417-.417 0-.382.061-.416.75-.416.689 0 .75-.034.75-.417 0-.333.083-.417.416-.417.301 0 .417-.089.417-.321 0-.207.134-.341.375-.375a.474.474 0 00.428-.429c.034-.241.168-.375.375-.375.232 0 .322-.116.322-.416 0-.334.083-.417.417-.417.3 0 .416-.09.416-.322 0-.207.134-.341.375-.375a.471.471 0 00.427-.418.472.472 0 01.417-.416.473.473 0 00.416-.41c.028-.197.197-.396.375-.443.254-.067.324-.232.324-.767 0-.617.04-.682.416-.682.33 0 .417-.084.417-.405 0-.294.104-.42.375-.459.312-.044.384-.172.426-.761.042-.573.114-.709.375-.709.278 0 .324-.119.324-.833 0-.778.028-.833.417-.833.381 0 .416-.062.416-.739 0-.639.051-.745.375-.791.317-.045.383-.171.425-.804.03-.463.157-.832.332-.964.214-.163.298-.539.343-1.533.054-1.198.092-1.322.418-1.368l.357-.051V66.25l-.375-.165c-.335-.147-.375-.282-.375-1.291 0-1.007-.034-1.127-.325-1.127-.287 0-.332-.137-.375-1.125-.045-1.014-.086-1.13-.416-1.177-.309-.044-.374-.175-.417-.834-.042-.665-.106-.789-.425-.834-.324-.046-.375-.153-.375-.792 0-.616-.053-.738-.319-.738-.243 0-.346-.162-.434-.687-.08-.474-.215-.713-.432-.77-.198-.052-.315-.23-.315-.479 0-.313-.089-.398-.417-.398-.333 0-.416-.083-.416-.416 0-.298-.09-.417-.315-.417-.245 0-.339-.166-.427-.75-.087-.581-.182-.75-.424-.75-.196 0-.331-.139-.364-.375a.474.474 0 00-.429-.428c-.239-.034-.375-.169-.375-.372 0-.201-.154-.357-.416-.423-.261-.066-.417-.223-.417-.42 0-.2-.117-.315-.322-.315-.207 0-.341-.134-.375-.375-.045-.32-.169-.383-.845-.426-.714-.046-.791-.091-.791-.458 0-.297-.091-.408-.334-.408-.222 0-.333-.111-.333-.333 0-.245-.111-.334-.417-.334-.333 0-.416-.083-.416-.416 0-.382-.062-.417-.739-.417-.639 0-.745-.051-.791-.375a.474.474 0 00-.412-.426c-.197-.028-.396-.197-.442-.375-.069-.262-.233-.324-.851-.324-.64 0-.765-.052-.765-.316 0-.396-.313-.517-1.336-.517-.711 0-.814-.045-.861-.375-.049-.344-.153-.379-1.262-.424-1.071-.044-1.208-.086-1.208-.375 0-.3-.122-.326-1.488-.326-1.417 0-1.491-.018-1.542-.375l-.053-.375-16.792-.043-16.792-.042v-.416c0-.333-.083-.416-.416-.416-.306 0-.417-.089-.417-.333 0-.216-.111-.334-.315-.334-.198 0-.355-.156-.42-.416-.068-.269-.222-.417-.435-.417-.241 0-.33-.112-.33-.417 0-.333-.083-.416-.417-.416h-.416v-3.834h.416c.33 0 .417-.084.417-.405 0-.293.104-.42.375-.458a.472.472 0 00.428-.428c.034-.241.168-.375.375-.375.211 0 .322-.115.322-.334 0-.244.111-.333.417-.333.333 0 .416-.083.416-.417v-.416H373v-.417c0-.333.083-.417.417-.417.407 0 .416-.027.416-1.25 0-.961.054-1.25.234-1.25.426 0 .6-1.019.6-3.519 0-2.298.023-2.481.333-2.647.316-.17.333-.349.333-3.488v-3.31l.417-.104.417-.105v-2.652c0-2.481.021-2.659.324-2.755.637-.202.688-2.132.059-2.222a.472.472 0 01-.415-.416l-.052-.365-29.513-.042c-16.232-.023-29.564.008-29.625.069m-64.488 43.077c-.16.089-.29.234-.29.321 0 .268.458.175.569-.116.137-.357.075-.403-.279-.205m-11.429 11.667c.035.247.179.405.389.426.242.025.256.011.051-.05-.156-.047-.244-.185-.197-.307a.293.293 0 00-.107-.342c-.129-.079-.174.011-.136.273m26.764 10.761c-.353.092-.392.551-.048.551.134 0 .325-.15.423-.333.18-.337.149-.355-.375-.218" fill="#0453a3"/><path d="M254.396 49.939a.577.577 0 01-.453.426.473.473 0 00-.413.427c-.033.235-.169.375-.364.375-.17 0-.358.15-.416.333-.084.265-.573.453-.792.305-.138-.094-.791.415-.791.618 0 .134-.149.244-.33.244-.214 0-.368.147-.435.416-.094.374-.411.521-.944.437-.068-.011-.125.059-.125.157 0 .097-.093.12-.208.051-.121-.073-.104.006.042.189.145.183.163.261.041.188-.114-.068-.208-.045-.208.052s-.157.176-.349.176a.443.443 0 00-.436.334c-.056.215-.227.333-.484.333-.313 0-.398.089-.398.417 0 .333-.083.416-.416.416-.334 0-.417.084-.417.417 0 .392-.549.567-1.375.436-.069-.01-.116.037-.105.106.057.359-.057.523-.395.571a.474.474 0 00-.428.429c-.039.271-.165.375-.459.375-.321 0-.405.086-.405.416 0 .359-.075.417-.541.42-.599.002-.867.139-.892.455-.009.115-.028.391-.042.614-.017.283-.137.421-.4.458-.432.061-.653 1.784-.286 2.227.105.126.142.307.083.402-.06.096.001.174.134.174.317 0 .444.362.444 1.264 0 .477.074.737.209.739.16.002.158.034-.008.14-.17.107-.155.187.073.372.187.152.246.161.165.027-.069-.115-.046-.208.051-.208.098 0 .177.214.177.476 0 1.164.208 1.996.521 2.077.277.073.466 1.289.333 2.152-.01.067.168.169.397.226.388.098.416.175.416 1.151 0 1.174.32 2.031.639 1.711.147-.147.199.055.215.84.011.568.039 1.108.062 1.2.023.092.051.242.063.333.011.092.114.148.229.125.123-.024.226.164.251.459.112 1.295.242 1.915.385 1.826.085-.053.156-.012.156.09 0 .103.075.14.166.084.095-.059.167.081.167.323 0 .341.082.427.405.427.293 0 .42.103.458.375l.054.375h18.5l.053-.375c.033-.232.169-.375.355-.375.383 0 .503-.447.506-1.875.002-1.013.035-1.125.336-1.125.301 0 .333-.111.333-1.149 0-1.086.023-1.154.417-1.253.389-.098.416-.173.416-1.158 0-.962.037-1.07.417-1.243.381-.174.417-.281.417-1.259 0-1 .026-1.076.415-1.173.229-.058.408-.159.397-.227-.153-.996.058-2.694.346-2.786.257-.081.335-.282.375-.969.04-.699.103-.858.327-.821.21.034.254-.043.182-.318-.065-.249-.034-.326.098-.244.142.088.193-.411.193-1.89v-2.01h-.417c-.305 0-.416-.089-.416-.334 0-.24-.111-.333-.399-.333-.286 0-.428-.118-.503-.417-.089-.355-.2-.416-.757-.416-.549 0-.66-.059-.705-.375a.474.474 0 00-.428-.429c-.241-.034-.375-.168-.375-.375 0-.203-.115-.321-.313-.321a.775.775 0 01-.52-.25c-.167-.201-.165-.25.007-.25.118 0 .159-.057.09-.125-.145-.145-.225-.16-1.014-.188-.506-.018-.583-.076-.583-.437 0-.297-.091-.417-.314-.417-.174 0-.353-.149-.401-.333a.447.447 0 00-.418-.334c-.214 0-.368-.147-.436-.416-.089-.356-.2-.417-.756-.417-.549 0-.661-.059-.705-.375a.474.474 0 00-.429-.428c-.235-.034-.375-.169-.375-.364 0-.194-.139-.33-.375-.363a.473.473 0 01-.427-.418c-.036-.256-.186-.381-.5-.417-.265-.031-.429-.141-.402-.272.025-.122-.022-.179-.106-.127-.084.051-.245-.018-.358-.155-.113-.136-.384-.248-.602-.248-.281 0-.396-.094-.396-.322 0-.693-3.598-.762-3.771-.072" fill="#ca0827"/></g></svg>